<mxfile host="app.diagrams.net" modified="2021-07-05T15:06:00.273Z" agent="5.0 (Windows NT 10.0; Win64; x64) AppleWebKit/537.36 (KHTML, like Gecko) Chrome/91.0.4472.124 Safari/537.36" etag="ro_Y2xqnFxBKdz6O5gnj" version="14.8.4" type="github">
  <diagram id="k4dVMdsPZNxmLuWdeMB2" name="Page-1">
    <mxGraphModel dx="1102" dy="614" grid="1" gridSize="10" guides="1" tooltips="1" connect="1" arrows="1" fold="1" page="1" pageScale="1" pageWidth="850" pageHeight="1100" math="0" shadow="0">
      <root>
        <mxCell id="0" />
        <mxCell id="1" parent="0" />
        <mxCell id="-OOyH-ofbqL9iF2JBirm-1" value="" style="shape=image;verticalLabelPosition=bottom;verticalAlign=top;imageAspect=0;aspect=fixed;image=data:image/png,iVBORw0KGgoAAAANSUhEUgAABr8AAAF1CAYAAABRW/EjAAAACXBIWXMAAC4jAAAuIwF4pT92AAAgAElEQVR42uzdT0wcd57//1eBwTSmBwbGs2uMBF/JwA3zVUdiby4fbdk/+5ecbHllcgg+dcyuIyU32rfZVfwdHJ9CDiH6Ws4pM8zayhzdvg1S0GLfDJEGS9DWbhYGBhtsE6jvoavtNgFMd1dVf6rq+ZCsySSm6X7Xn676vOr9+ViO4wiIslQ61y/JltQvqUvSiV3+6kNJy5KykqYlZadutS9TQQAAAAAAAAAAwsMi/EIUuYHXoKTzkjoreKk/SZqYutU+TlUBAAAAAAAAADAf4RciJZXO2ZIy2r27q1wrkkYljdINBgAAAAAAAACAuQi/EAmpdG5Q+dCr0+dfVQjBxqdutc9ReQAAAAAAAAAAzEL4hVALMPTayTeSMoRgAAAAAAAAAACYg/ALoZNK51qUX8sro+qEXtsRggEAAAAAAAAAYAjCL4SGG3oNu3+aDXyL3yg/HWKWrQUAAAAAAAAAQHUQfsF4IQi9tnugfCdYlq0HAAAAAAAAAECwCL9grFQ616X81IbnFY7QaztCMAAAAAAAAAAAAkb4BeMUhV6XI/KRnigfgo2zdQEAAAAAAAAA8BfhF4wRwdBrO0IwAAAAAAAAAAB8RviFqkulc7byodeJmHzkJ+7nnZi61b7MHgAAAAAAAAAAgHcIv1A1MQy9tluRNCpplBAMAAAAAAAAAABvEH4hcKl07rykYcU39NqOEAwAAAAAAAAAAI8QfiEwqXRuUPlOr06qsaMVSePKh2BzlAMAAAAAAAAAgNIRfsF3hF5l+UZShhAMAAAAAAAAAIDSEH7BF6l0rkXSoPLTGxJ6lY8QDAAAAAAAAACAEhB+wVNu6DXs/mmmIp55oHwIlqUUAAAAAAAAAADsjvALniD0CgwhGAAAAAAAAAAAeyD8QkVS6VyX8ut5nRehV5AeSBqdutU+QSkAAAAAAAAAAHiD8AtlKQq9LlONqnqifCfYOKUAAAAAAAAAAIDwCyVKpXP9yk9tSOhlFkIwAAAAAAAAAABE+IV9SqVztvKdXieohtGeSBpXfkrEZcoBAAAAAAAAAIgbwi/sidArtFYkjYoQDAAAAAAAAAAQM4Rf2FEqnRuUNChCr7AjBAMAAAAAAAAAxArhF97ihl4ZSZ1UI3K+UX5dsDlKAQAAAAAAAACIKsIvSCL0ihlCMAAAAAAAAABAZBF+xVgqnWuRNKz89IaEXvHzjfLTIU5TCgAAAAAAAABAVBB+xVBR6DUsqZmKxN4D5TvBspQCAAAAAAAAABB2hF8xQuiFdyAEAwAAAAAAAACEHuFXDKTSuS7l1/O6TDWwDw+Vnw5xnFIAAAAAAAAAAMKG8CvCCL1QoSfKd4KNUwoAAAAAAAAAQFgQfkVQKp2zJQ2K0AveIAQDAAAAAAAAAIQG4VeEuKFXRtIJqgEfrEgaVX5KxGXKAQAAAAAAAAAwEeFXBBB6IWCEYAAAAAAAAAAAYxF+hVgqnRuUNCzpONVAFaxIGlc+BJujHAAAAAAAAAAAExB+hZAbemUkdVINGOIb5dcFm6MUAAAAAAAAAIBqIvwKEUIvhAAhGAAAAAAAAACgqgi/DJdK51qUn9pwWFIzFUFI/En56RCzlAIAAAAAAAAAECTCL0MReiEiHijfCZalFAAAAAAAAACAIBB+GSaVznVJGhShF6KFEAwAAAAAAAAAEAjCL0O4oVdG0mWqgQh7onwINk4pAAAAAAAAAAB+IPyqMkIvxBQhGAAAAAAAAADAF4RfVZJK52zlpzY8RzUQY08kjUoan7rVvkw5AAAAAAAAAACVIvwKmBt6ZSSdoBrAayvKh2CjhGAAAAAAAAAAgEoQfgWE0AvYF0IwAAAAAAAAAEBFCL98lkrnBpUPvTqpBrBvK5ImlF8XbI5yAAAAAAAAAAD2i/DLJ4RegGe+ESEYAAAAAAAAAGCfCL88lErnWiSdF6GX8ZKJGvV01EmSnq1v6fH8BkUx3zfKT4c4TSkAAAAAAAAAALsh/PKAG3oNu3+aqYjB26r7oK6cTip1rP6tf/9sfUt3ss915/5zra5vUSizPVC+EyxLKQAAAAAAAAAA2xF+VYDQK1yuX2rRmYHGPf/Os/UtDX2xSCdYOBCCAQAAAAAAAAB+gfCrDKl0rkv5wGtQhF6hsJ/gq4AALHQeSBqfutU+TikAAAAAAAAAAIRfJXBDr4yky1QjPC6ePKRr75eWUT5d2tSZkf+ieOHyRPlOsHFKAQAAAAAAAADxRfi1D4Re4ZVM1Oje9d+qKVFT8s/e+MOK7tx/ThHDhxAMAAAAAAAAAGKM8GsPqXTOVj70OkE1wunsQKMyl1rK+lm6v0LviaRxSaNTt9qXKQcAAAAAAAAAxEMNJfilVDpnp9K5rKT7IvgKtfe668v+2SOttWpvraWI4dUpaUTSXCqdy6TSuRZKAgAAAAAAAADRR/hVJJXOnSf0ipYjbQeq+vMwQrPeDsG6KAkAAAAAAAAARBfhl6RUOjeYSufmJP1RhF6R0nuU8AqvFUKwv6bSuXFCMAAAAAAAAACIpliHX0Wh19fKT5GGiHm88DNFwE4uixAMAAAAAAAAACIpdm0x7ro/g5KGReAVeazZhXe4LOlyKp37RtL41K32LCUBAAAAAAAAgHCLTfjlhl7D7p9mNn08rK5v6YgIwPBOhRDsgaQMIRgAAAAAAAAAhFfkwy9Cr3hbXXcoAkpxQtJ9QjAAAAAAAAAACK/Ihl/uOj4ZSedF6BVbq2tbFf38s/UtihhPhRDsifIh2DglAQAAAAAAAIBwqInaB0qlc12pdG5c0l+Vn8qM4CvGZhY2Kvr5x/MbFDHeOiV9nUrn5lLp3CDlAAAAAAAAAADzRabzK5XO9Ss/teFlNisKKgmvKg3OECmFECyjfEfpxNSt9mXKAgAAAAAAAADmCX34lUrnbOUHo0+wObHd06XNsn82t7hJAbFdp6SvJY2m0rlRSaOEYAAAAAAAAABgFstxnFC+cUIv7NfUrfayfm7sz6v68vtVCoi9rEgiBAMAAAAAAAAAg4RuzS93Ta8JSfdF8IV9KHf6wh9mX1E8vEuzpBFJc6l07jzlAAAAAAAAAIDqC1X45Q4uT0s6x6bDfq2uOxQBfmuW9MdUOjeRSudaKAcAAAAAAAAAVE9owi93fZ0/Kj/IDOzb1OzLQH8OsXZO0nQqneunFAAAAAAAAABQHaEIv1Lp3Likq2wuACHQKSlLAAYAAAAAAAAA1WF8+JVK57KSLrOpUK7H86Wv+TX1I+t9oSLNIgADAAAAAAAAgKowOvxyO75OsJlQCdb8QpUQgAEAAAAAAABAFRgbfqXSuYzo+IIHni7+HMjPADtoljSRSudaKAUAAAAAAAAABMPI8CuVztmSRtg88EJuaTOQnwF20SlpnDIAAAAAAAAAQDCMC7/cDolxNg2ACDmXSucGKQMAAAAAAAAA+M/Ezq9h5TslAM88W98q6e8/nt+gaPDaKNMfAgAAAAAAAID/jAq/Uulcl5juED54vFDaGl6r6w5Fg9ealQ/3AQAAAAAAAAA+Mq3zK8MmARBhw3R/AQAAAAAAAIC/jAm/3AHh82wSABFG9xcAAAAAAAAA+Mykzq9B5QeGASDKBikBAAAAAAAAAPjHtPAL8EUyYVEEmKIzlc71UwYAAAAAAAAA8IcR4Zc75eFxNgf8kEzUqOdoXUk/8153PYWDn5jiFQAAAAAAAAB8Ykrnl82mgF8unjxU8s+cHWikcOCcBwAAAAAAAAAhZEr4xRRg8EV7a60u2qWHX0daa3XldJICwi8nKAEAAAAAAAAA+IPOL0RWMlGjG0OtakqUt5sPnUqW1TUG7EcqneO8BwAAAAAAAAA+MCX8ogsCnrt48lDJa31td+39ZgoJv9DxCgAAAAAAAAA+qHr4RfcDgJji3AcAAAAAAAAAPjCh84vuB/iivbXWk9dJJmooJvxgUwIAAAAAAAAA8N4BA96DzWaAF9pba3Wk7YCSCUu9HXVKdR/05HU/+eBX+o/JdUnS08WflVvapNjwQnMqneuautU+RykAAAAAAAAAwDuEXwidVPdB9XYcUHvrAfV01OVDL4+6vHZyZqBRZwYa3/p3MwsbWl13NDX7UrnFTeWWNjU1+5KNg3LOf+OUAQAAAAAAAAC8U9XwK5XOdUlqZjNgN/kOrnr1Hs13cvkZcpWi52hdfh8+Vv/Wv59Z2NDM/IZ+mH2lmYUNPZ7fYCNiL7YIvxADlmV1SeqSNO04zjIVAbDtHNGi/FToc47jzFERAAAAAEClqt35ZbMJUKwQdtl9iV8ES2HQc7ROPUfrXneKPVvf0g+zrzT140tlH75gykRsx5qHiBTLsvqVD7n63T8tkk4U/ZWTkrJUCojtOaLLPUfY7vmhcK4oPAx3XVKGSgEAAAAAKkX4hapKJmqU6q7Xyb4G2X0NakrUROrzNSVqZLuf7dr7zXq6tKnsoxf6Yfalso9esAPgeCqda5m61U4nDELFsixb+QHsLuUHrrskHacyANxzRCH8Lj5XnKAyAAAAAICgVDv8oushhpJFgZDd1xCrz36ktVYX7EO6YB/Ss/UtZR+90P1HLwjC4q1fdMLAQEXTkHXpTadGl6ROqgPAPU/YeruDq0sE4QAAAAAAA1Qt/Eqlcy3cHMeL3degk30Nr6cEjLumRI3ODDTqzEDj6yDsTvY564TF8NAQ4ReqqGgasu1TFrImJ4DCecIWQTgAAAAAIESq2fllU/7oa2+t1cWTTbL7GnSktZaC7KI4CHu6tKk72We6+5d1ra5vUZzo41yIQGxba6fwz0xDBqBwjtjewUUQDgAAAAAIrWqGX0x5GGGp7oO6aB+K3bSGXjjSWqtr7zfr2vvNuje5RjdY9BE+wFdux8Z9KgFgj/PEsgi5AAAAAAARQucXPHV2oFFXTifp8vJIoRts6sdX+vL7VU3NvqQoEZRK5/qnbrVPUwkAQJUQfAEAAAAAIqWa4RfdDhGRTNTI7msg9PJR6li9xj5u09OlTX35/aruTq5RlGixJRF+AQAAAAAAAIAHqhJ+pdI5O2qFtPsadLKvQUfa3pT06eLP+mH2VaSDirMDjfrkg1+pKVHD0RSAI621ylxq0ZXTyciHYGcHGvVed71S3Qdfh6ozCxuamd+I4lSQtqRR9nAAAAAAAAAAqFy1Or8is95Xb0edMpda1HO07pf/8Vi9zrjh0Off/T1SQQXTG1ZXIQS7ePKQPv/u75GaDjHVfVDXL7XsuG/1HK1Tz9E6nRlo1L3JNX3+3d+1ur4VhY/NGogAAAAAAAAA4JFqtevYUSheqvugxj5u2zn4KtKUqFHmUotufNSqZMg7pFLdB/XtZ4eV2SWcQLB6jtZp7OM2jV39jXo76kL/ea6cTmrs47Z97VtnBho1drUt9MeUqzOVznWxRwMAAAAAAABA5Qi/ytTeWqv/89GvS5ruz+5r0NjVtlCGFO2ttbrxUeu+wj4EL3WsXnc+PaxPPmgOZRiUTNToxketGjqVLOnneo7W6crpZFQ2o82eDAAAAAAAAACVC3yU3O1uaA574a6cTpa1zlWhUydMAdiV00l9+9lh2X0NHDGGu2Af0r3rv9XFk4dC856TiRqNXW0re/+6YB9SezS6EJn6EAAAAAAAAAA8UI0WETsKhaskCGpK1IQiAOvtqNO3nx3W0Knygj5UR1OiRtfebw7FVIiF4KvSbkL7eCSCWZu9FwAAAAAAAAAqV41EI/TdDanugxWHQYUAzMSOlWSiRp980Kw7nx5misMw76fuVIgmTwt4Y6jVk30sdexgFDbZ8VQ618KeCwAAAAAAAACVofOripoSNbox1GrUGk29HXUau9qmC/YhNlBEDJ3KT1tpWhfY9UstSh2r9+S1ko2R6Uxk6kMAAAAAAAAAqFCgI8ZuV8Nxyv5Gz9F82GRCAHbldJJuryjvZx+3GbMW2JXTSZ0ZaGTD/JJNCQAAAAAAAACgMkEnLpHoani6+LOnr9dztE6ffPCrqn2e/LpLv9HQqSRHRIQV1gK78VF1uw3PDjR6vq9Nzb6Mymay2VMBAAAAAAAAoDJBj4DbUShabmlTT5c2PX3NMwONun4p+OV+ejvqdO/6bz2bfg7ms/saqjYN4tmBRmV82M8fz29EZfOcYA8FAAAAAAAAgMocCPj32VEp3N3JNc+7VwrTwI3cXg7kM1w8eUjX3m8O9XZ4urSpx/MbmlnY0OP5Da2uO5qafampW+2e/p6xP6/q7l/WdKTtgN7rrld7a62OtB0IbWh4pLVWdz49rMztZd2dXAvkd/oVfD1d2lT20YvInJRT6Vz/1K32ab6eAAAAAAAAAKA8QYdfkelquHP/uS7ah9Tk8fRxQQVg1y+1hHLNpakfX2lq9qV+mH2lmfkNra5vBfa7c0ubyi1t/mKKvd6OOqW665U6dlDvddd7vk/4KXOpRe911/u+v/kVfEnS59+tRO28bEsi/AIAAAAAAACAMgUWfqXSuf4oFW51fUsjt5d146NWz1/bzwAsv75Xm3qO1oWizjMLG5qafaX7j14Yu67T4/l819md+88lvQnD7L5EKDrDzgw0qqejTkM3F30JE/0Mvr7NPo9U15fLljTK1xMAAAAAAAg7y7K6JHVJ6pe07DjOOFUBEIQgO7/sqBUv++iFMreXfRnY9yOQ6O2o042PWnWktdbous4sbOju5JqyD18oV8baaskqd14Vh2HJRI3svobXf0zVc7RO3352WNe+WvJ0/awrp5OeTw9acG9yLYpdX3IvBgEAAAAAAEKjKOSy3f/t0i9nAXsgaZxqAQgC4VeF7k6uaWZhQ2Mft3k+3V3P0TqNXW3zJADr7ajz5T165enSpu5kn5UdeL1Vtw7vu9pS3QclrZb8c6vrW7o7uaa7k2uvg7CLJw8Z2Xl3pLVWYx+3aeiLRU8CMD+n1gxyrbIq6Eylc11Tt9rn+IoCAAAAAAAmsSyrX286uQr/fJzKADBNkOFXZLsZHs9v6MzIf+vGUKvn09wVArDM7eWyAwm7r0HXL7UYGXzdm1zTf0yuGzuloZeKg7D21lpdPNmkswMJo7ZLU6JGdz49XFG4lEzUKHOpxZdOt6dLm553pxnKFk9CAQAAAACAKrEsy9abDi5bUosIuQCESCDhVyqd65LUGeVCrq5vaejm/+jiyUO6cirpaaDRczTftTVye7nk9Y38XG+pXM/Wt3Qn+1x37j/3ZY2pMMgtberz71b05fersvsadOV00qjpKAv7TKkBWG9HnTKXWnzpbPs2+1xffr8al32GqQ8BAAAAAICvLMtq0ZsOrha9mbKwk+oACLugOr/suBT0zv3nuvuXdX3ywa88nfKtKVGjGx+1auzPq/ry+/1Nv2da8PV0aVNffr+q7KMXsQ29tivuBjs70GhUCFZqAHZ2oFGffPArzzvZso9e6MZ3KxVPhxkyNkcHAAAAAADwQtF6XNunLGymOgCiKqjwK1ZdDKvrWxq5vawvv1/VtQ+aPZ3+behUUmcHGnUn+0yP539WMmGpt6NO2Ucv3poKzqTgqxB6BbVGU2+H97t1ewCBlIkh2E4BWDJRo4snD731/1Pd9Z53e039+Epffr8aiykxd3A8lc61TN1qX+ZrCgAAAAAAVGhQ0ghlABAndH75KOeuT5TqPqhPPviVZ+HAkdZaXXv/7Qczhk4lX3eFmRJ8FaY33G+nmleSPqyhFWQQZVoIVhyABbF+3DM3PC51is8I6peU5WsKAAAAAAAAAErje/iVSudivxji1OxLXfjdT7pyOqmL9iHfgoOhU0nZfQ2+rLdUqpitz+SLu5Nryj56oYsnD/m63+xH5lKL7L4GT7sY2W/eyRbhFwAAAAAAAACULIjOr37KnPfl96u6+5c1Zf7510odq/fld1Q7+Jr68ZVufLfy1hSMKN/q+tbr/cbrKTRL5efvnlnYUOb2MvvNtpJTAgAAAAAAAAAoXRDhl02Z38gtbWro5v8EMn1ckJ6tb+nLP6/qzv3nVX8vfq3PlUzUVK0jqTCFZtT2G0mvp+vEL5ygBAAAAAAAAABQuiBG0G3K/EvZRy90ZuS/I7Gu0dSPr3Thdz8ZEXxJ0pE2fzLdno469hsPzSxs6OK//UTwtYdUOkfnLAAAAAAAAACUKIjwi+6FXayub+naV0u68YcVPQvhGkfP1rd04w8rGrr5P8otbbJBA95vrn21FMr9Rsqv7XXhdz8xzeG72ZQAAAAAAAAAAErja/hF18L+3Ln/XENfLGpmITxBwMzChoa+WDSm2yuOso9e6MLvftLUj69C856fucHd59+tsAH3x6YEAAAAAAAAAFAavzu/bEq8P4/nNzR0czEUQca9yTUN3Vyka8cAhTXkxv5s/tSBT5c2NfTFYiSmbAwQDxAAAAAAAAAAQIn8Dr8YuC3B6vqWhm7+j+5Nrhn7Hm/8YUUjt5e1avB0e6lj9b68bm/HAWM/85ffrxo9DeLMwgbTHJanM5XOdVEGAAAAAAAAANg/Or8MNHJ7WU8NW0Pr2fpW7Kc5TCZqjH5/2UcvNPTFonH7jiRdG1syOjA1HA8RAAAAAAAAAEAJfBvNd7sVOilxee5knxnzXgrre03NvmTDGO7xfL7DyqT147KPXihnYCAXIjYlAAAAAAAAAID987OVhW6FCkzNmrH218zCBut7hUx++sxFY6bPNCmICymbEgAAAAAAAADA/vkZftmUt3wmhE2F4CtM09W1t9aG8rW9trq+pZHby0avH4d9O04JAAAAAAAAAGD/CL8M9m22eutr3ZtcC13wJUlH2g6E8rX9Uu0AbGZhI9brxHkllc5xPgUAAAAAAACAffIz/KJboUKff7eisT+vVuV3230NSnXXsxFCrrejTj0ddVX53dlHL0IZoBrKpgQAAAAAAAAAsD++hF90KXjny+9Xq9K505So0Y2PWvXJB81KJmrYECF08eQh3fn0sHqOBh9+PV3a1LWvlgi+vMM5FQAAAAAAAAD2ya9Uw6a03mhvrZXd11C133/BPqSxq23qrVL3UKmSCSv2+0wyUaOxq7/Rtfebq/YejlR5v42gfkoAAAAAAAAAAPtD+GW4ax80q6nKnVc9R+t059PDunI6aXy9/AzpUsfMnwbS7mvQveu/NeK90jXoqeZUOkcABgAAAAAAAAD74NfINIO0HrD7Gozqnhk6ldTY1d+ovbWWjWOYZKJGn3zQrBsftVY9LC040lobisA0TKcESgAAAAAAAAAA7+b5KLnbndBMaStTCDNMkzpWr28/O8yUdgbp7ajTt58d1gX7kHHv7YJ9KDRTZoYADxUAAAAAAAAAwD740SJiU9bKXTx5SEcM7bBqStToxketun6phWntquzK6aTufHrY2H1Fyk/dCc6tAAAAAAAAABAUP5ILuhMq1N5aq6FT5k8Xd2agUd9+dlip7oPGvKeeo3W+bxtT9pGxq78JxX6SOlavswONHNiV60ylc12UAQAAAAAAAAD2RueXgcK0TtKR1lqNfdxmzHtONvrbiXak7UDVP6Pd15APHY/Vh2qfpkvQEzxcAAAAAAAAAADv4OlotNuV0ElZK6hh90GdCWGXzNCppL797LAxnVFRlEzU6PqlFt34qFVNIQuSjrTW6uLJQ2zEytmUAAAAAAAAAAD25vUIOl0JFQpT19d2PUfr9O1nh5nizgep7oP69rPDoQxGCy7ah+j+qpxNCQAAAAAAAABgb17P4WZT0vKlug+Gaiq7nTQlapS51CK7r0GZ28taXd8K9PcnE1aoX38nV04nQ7G21372jYsnD+nL71c52Mt3nBIAAACUxrKsFu3vQc1lx3GmqRgAVP283S+pZR9/ddpxnGUqBnBswpftbZf4I8Ztd8Ivg4S56+sXO0Jfg+5d/63+9au/aWr2ZWC/t+dona+v39tRp+yjF4F8lvbWWt0YavX9MwXpon1Id/+yptzSJgd8mVLpnD11qz1LJQAA2POGfL9hx+sbNUnLIvwI87YvbHNbUpf7p19Sc4mvU/jHlaL9Ytr9M8f+EYp9obD9X9+elvEyhW0vx3G49i697tvPwaWek3eS3f7PbJtIfGf3u/uN7e4nx8t4ncI/Piw6Z88Vzt0MwAMlH1N20bHZ78Gx+aDo3L3sHpecv826di7+nj5R4etuv5bWtmvq5SC3v9fhF10JZYpC19d2TYkajX3cpm+zz/X5dyts5BKcHWjUJx/8KnRre+1nn7h4son9oTL2ths/AADieLNWuBkvDjs6PXptSXqi/MBZ1r1JyzJ4ZuQ+YBf98Xrt6eaim/9z2/aPB4V9w3GcCbZG4Nu+MBBny8PBmnecE6RfBqJzygei2RjUvFDn7f/rW913UPx7Roq2TWG7FLZJlpDa2P2o+Jztx35zfKd90rKsJ0Xf5xOO48yxNYC3jpHzRcemH2P7J7Yfm+75+2HhOts9d3NsBnMOLtw/Nfv8K5t32vZ73G/58pCZZ+FXKp2z2Y3KF6Wur+0u2IeU6q5X5vayHs9vsLH3kCyaNjKqzg4k9OX3q4FPiRkhnGsBAHG8WSsMdBduzjt9/pWd7p/im/SH7s3ZBE+rVm0/6Jc0KP8GZ/brRGHfcG/e/yRpwt03CEm9Pe4LAzSFJ9Crud33CkQjEcAUdW/ZqqCDskrbZfug6gP3uCQMq+4xfL7o+7ta+1GnpMvun9+7YdiEpHH2DcT82Dxf/H1WBcfdP5e3XWtzbHq/nW0Dv8t3ut8qfH8XrqkqDkW97Pyy2a3K09tR52vX17P1rap3EPUcrdPYx2368s+runP/ORt9B6nug/o/H/3aiG4vP/cZ1v6qWD8lADy9IBwvXGwb7EPHccYr+Iy2pPuGfJaTpoQGJtXFcRyLo9HoG/PtN+hXLctaUX7gbJSb80D2g0H3j6kzjZxz/3xtWdaflA/Bxtl6JW/r4m7OfoVrZpm9ApjCAI4x4ei2kMuEYNEPxSE1YUfw11iDqm7gtZdOSVfd7/MnRd/ncyFyDPIAACAASURBVGy9YI5Ny7Icw9/jA8dx7Agem4MGXVe/61r7iaRR0a1ZznY+756Dz4X1HLHtempFbnegynigxcvRbQZky3TRPuTr6//rV3/Tvcm1qn/OpkSNrr3frBsftSrpQ7CS6j7o+2fwa/2tTz5o1tjHbUYEXzMLG7rwu5/0zMfOrIv2IV/2gZhoTqVznG8B7y7+TQ++bjKAijjesFmWNSHpb5K+NvTGrdk9f/ynZVnT7vkE3u4HtvuAwt8k/V7hGZgvhGDLlmVl3PAOO2/jfsuyhi3LmrAsa1nSf7rH/GVFJ4g5ofwg+9eS/uaeL4bd8CmoOne559WMZVlZt9Z/Vf4BkBF3n436EhaFsOP1OZtj0/P9rMXdt+fcfeuyzO4Y3L5v/NU9Pmy2JiJ4bGbcc7+p19W7HZu/d4/NcY7NfW/nOUl/VHiDr93uu865+8N/utfY4+61zTu/y70cfWYnLEN7a63ODDT69vr3Jtc0NftSI7eXdeMPZqyzZPc16N7134Zyar9ko7eBTW9Hnb797LAu+ByA7lf20QsN3VxUbmlTn3/3d99+T1OiJtJTOwZxGFECoOKLQ9u9+DfZN47jDLO1ECPnQ3rDdlyEHZ6eny3LyurN4GmYb9RHlA88xoMMOwzetjuFXb93j/fmmJThuPuZh30+hjJFdf6re14dUT6Ma475rnjcvQacsyxrlGOz4v2txbKsjPLTff5e/k9L7KcTku5bljXHQy2IwLHZVfQQ0UjIz/2X3WOTgHrvc/BIyM/BpVxjX3avbf7mXu+c3+0vezKS73YhNLPLle7sP/kXfD1b33prark7958rc9uMKeibEjW68VGrPvmg2bMOoGQiXDMGXTx5SGMft/nWTVaqe5NruvbV0uu1uO5Ormlmwb812qK8zl0A6PwCKrtA7Fd+ehOTPXQch5tuxM3xkN+wFcKOOUKwss7NxaHXiYh9vMuSpuO2X7gDMoNu+DeneIZdu5n2sM6FUDHrTiVW3NHFOM3e5+xCx8845+yyju+M3gy4Rmlf61T+oZZpBtoR4mPzrwr3Q0Q7KQTUWfeePu7bejii5+BSnVM+CNuRV20sDMSWyc8pD+9knyu3tPnWv7vrBhx+TmlXigv2IY1dbVNvR+UBkBev8S7trbUVv0bSDf6uvd9sxDSHkjT251WN7BCM+tn9daS1NpCpKiOKC3CggpsBSeOGXxw+5DgHQq0Qgk3v9RQi3pyX3SeToxh67bRfzEV5v3CfNB92g8zC1KWXFY8nkUsx7VG9bb0JFU9Q1rJddo/NDKXY13533t2Hoz7gelz5gfYJwlGE5NgsDkOi7ITy09+NxvHYdB96mXa/+3nIJe/Bbv/Bq5F3mxqX7uxAo2/hx7P1Ld25/3zH/5Z99EJDXywaE4D1HK3TnU8P6+LJyoLAIKbRO9JaW1EAZuKUj5nby291CBabmn2pqR9f+fa7/7+BBCeC8nSm0rkuygCUJSuz17VYkXTecZxlNhUQ/u9rSX90n07le3vnm/fCIM3lGH3s5qjtF+4gzKg7EPNXEcS8U6mLtSOwY3PEnfLOphw7HutdbrD9R8Ur0D6nfDjKdOQw+Xs4jmHIVeUfNrNjtK0zyj/0cpw9/y3Z3f4D4VcV+RmA3Mk+fz193U4ez29o6ItFX6e1K9W195s1dvU3ZYVL7a21gU0fWM50fclEjT75oFk3Pmo1ptvr2fqWMreXdXdybc+/t1sw5oUzA42eTXsZQ3TcAqVfKI7L/ODLdhxnjq0FRMoJ0QW2/Xzc4g6gxvmJ1UjsF0XTGV4VAzH79YASGK1T+W6fUUrx1rE+qHy3V1yD7WZJv6cLDAYemxnFOwyJxTm76Np5hL1+R7s+VFTxqHMqnWsRUxiUrL211rfwa6+ur2KP5zc0dNOsACx1rF7ffna45Npk/vnXgb3HMwONJU2x2NtRp7Grbbrg4xSX5ewjQ18svjP4kvzv/jr7T3R/lcmmBEDJNwWmdxYM8iQ4EFmFbp9xzsfWeeW7vegMerNfhHnAhrGA0vFdHw5X3TWfYh10uAOuE8pPYcr0WvkusGnWG4IBx2YXYciO5+yuCG7rfsX74YP9yO72H7xoubCpbxlFO169rq9iq+tbGrq56Gu4Uaomd02s65da9tUVdP1Si1LH6gN9j2Mf72+dsosnD+nOp4cD60rbj6dLmxr6YlGP5/cfevrZ/XV2oJETAudewO+LxcEQ3BR86DjOBFsLiLzLcR5MdUOeP4oB1O0YZI8Xwq/wOK78dHexDDqKBlzPsSu8pVP59YYGKQWqdGzaIgzZ7ZwdqXDa/SxZ8bDRXp7stWwE4VeV+DXgv9+ur2L5AOx/dG8fXUBBOjPQqHvXf7trrVLdBzV29Tc6U4XwpClRozufHtaV08kdp2k8O9Coe9f/QdfeN+u+fmZhQxd+91NJwZfkb/dXz9G6kjrp8NaXOoD93Rh8bfjbvOk4zjhbC4jVd3g2ToOpRVO1XGXzs1+A8CtkmuN4bLrBTlYMuO7la3d2CSDIY3NY0n3xINFe5+xIhNNFwRfbem/Zvf7jAQ9+ARfnJertqPOtEyj76MW+u762G7m9rNV1x6jp+ZoSNcpcatEnH/xKP8y+0szCRn59Lx9rWIqhU0kNnUpqZmFDq+tOfvsePWDMul7FZhby01yWu3/cuf9MqWOtvry3swONejy/wsmhRKl0zp661Z6lEsCuF4tdkkzvpvrGcRwWzwbipxB02FGf7tTtZsqKB3fYLyBJYtuGUnOcjk130PhrNvu+jFiW1eU4ziClQADH5rjMn8rfFF9blqWwPmRK8FWS7F7/0YsRelosS+TnNG+VTk/3+XcrytxeNq5mTYka2X0NGjqV1JmBRqOmEZTy3UupY/VKHas3Mvi6N7mmC7/7qezgS8oHq0+XNn15f36tfxcDNiUAdr1YbFE++DL5YvEBN8pArEW+m8D9bHMi+GK/wOvvfkrAsWn4eXtcBF+lusyangjo2CT4Ks3XYewAcx/izYrga7/2fCilolH6VDpnU98y6tbtz/pUUz++Us6DcOLu5JqRARjKc29yTSMebc872We+vMcjrbVMfVgezsHA7sZl9mDrQ0nn2UxA7BUGU7ui9sF4YtWT/YIALHro+gr/sTke1fX5GFyvCAEY/DouWyzLmuDYLFuoArCQPMRrkpV3dWRX2qJiU+PStLfW+ta1dPcv3q3ZdXdyTRf/7Sc9q6BTCNWXub3sWfCV38fWfXuvdH+VhQERYOcLxlGZvTD3iiR7r0VZAcRKs6SJKA2mEnx5tl9kozrIHmOEX+F3XPmHrKJ2/TwuBtcrdZk1wOCDCcPvbcMgTAFYRsyY4Ol1VaXhFwOvJbKP+zPA/2x9S3cn1zx9zcfzGxr6YpEALKQyt5c93ydW17d0z+PXfH1sEH6VozmVznEeBt6+cR+UdNXgt0jwBWAnx2X+GoX7PQ8TfHl4rScCsKjJUoJIOGdZVmTWbCX48tRIGKdZg9HHJssNeeNr0zvqLcuyZfZYRiivq+j8Cpjdl/Dlde9O+tOR83h+Q2dG/lszCxtsvJB4tr6loS8WPQ++Cu4/euHL6/YcrVN7ay0bsHSEX8Cbi8V+mb1GQSH44qlvADs5EfYnxt2QZlwEX16KZJdJTK04jjNHGSLj91GYmtQNagi+vPU109bCg2NznGPTc8ZONV50DY0St+m7/kLZ4ZfbbcBNTal1O+bPel9+BR1Svttn6OYiAVgIFIKvqdmX/p1VHr3QUw/Wltvx+Og+yEYsnU0JgLc6DUw2TPAF4B1G3Kc+w3wDylQt3jvHVFqRwDVA9IyH/Pr5vMx+cCzM6NpFJcfmsAi+/NAsc2daGJbUySby/tqqks4vnmIokV/Tuj1d2tTjeX+DqdX1LV343U++TXmHys0s5Kep9HtfkPIBmB/e665nQ5ZxaqEE4OYgFJ0GHzqOM87WArAPoVz/y31CmeDLPyN0EoRelhJEzvGwTn/onk+4NvVPM/VFmcemLen3VMLX8/aoYdu8RfnwC6V5uJ/lJCoJv2xqXJr3fOpq8SuI2PGO6/YyAZiBZhY2NHQzmOBL8q/TkHW/ytKZSud4ogxxNyGzB1xvEnwBKEHoBsyYNiu47zs6CUKNzq9oyoTtuGSK2sBEam04BHJsdikia8Aa7qphMy0Mcz7277qK8CtAPR11vrzu3YDDqJHby7rxhxU2qCGyj15o6OaiVte3Avudj+c3fJn6sClRo16fjpOI43yMON8gjMvsRYC/cRyHm14ApToXlukP3e6BUTZZIDolZShDaBF+RVOzwvfE/qjo1A1KxtQ1hmCkcRGCBFZrgx5cGGRzlCW7n79UVvjldhkwD2WpdfNhva9n61uBdfsUu3P/uTK3l9moVXZvck3XvloKNPgq8GtdsRRTH5bDpgSIoxB0GvzJcRwuZAGUfVMeovfJQE1wrjL9YSitOI4zRxkiazgs3V/uOl906ganWTwggv0dmxmZ/VBn1HTKgAcX3HMyGUt5fO38sqlvaVIRmPJwu7uTaxr6YlHPqhC8QPo2+1wjVQwg7/u07/UepfOrDAyAII43B4Mye4Huh+IJLgAV3pS7AyEmn4szonugGhhIDR+6vqItFN1fRdMdIlih6eZG1Y7NfkkjVCJwIwZ0ZjJmUJ4Vx3F8Db8YaC3Rez51s/ww+6qqn2tq9iUBWBVkbi/r8+9Wqrzt/dn3/AqKI46ngxDHmwPTgy97P4uvAsA7GNtNwEBNda/9GEgNnSwliP75OgTvcVx06lYLDy3gXccmqiNT5d/P9Vx59v1QEZ1fAenxqZvFr6nnSvF4fkNDXyxqZmGDDe2zZ+tbytxeDnydt52srm9p6kfvA7AjrbVKJmrY2CVKpXOclxEL7mBr1uC3uCLpPMEXAI+Y3E3AQF51jVOCUKHzKwbna3dmAlOvoW1J59hMVXPc5P0DVT02h0UXfTVdrlb3l3te5oGE8mT3+xcPlPkL6DIoUW+H9+HX06VN5ZY2jfh8j+c3NHRzUWNX23wL+uLu2fqWhr5YrMoab7uZmn3py1p2PR11RgS7IWOLJ0oR/RuDFnc/N/UCcUX5jq85thYADw1bljVqUqjuDuBxT1hdnZZlDTqOM04pQoHwKx7Oy9xgmnNF9WXYDtjh/jZDJYw4Nger8HvtENXooaRl93pmuYTP1iJ/wt3sfv9iyeEX3QXlOdJa6/lrmhYOrK5vaejmojKXWmT3NbDRPWRi8CXlp90cOuX9677XXU/4VTqmo0UcbgyyMj/4YnALgNcK3V8Zg87HmRDVb8X9/pjedsO+XHRTXvjffvdmvV/heBJ3WAykhmIf5MGY2DhnWVaXadvb7SzpDFEdH7rn7Tm9HRzPSeradg9c+BOGzplOy7LOO44zwaEC16jC1fnzoOjYnNvj2LTd/2+H5Nxz2bKsTBXO3bbh5+FxSVkvxjjc+4d+d78onLfLfpDOcZzsfv9uOZ1fDLCWyK81jKq93tdOVte3dO2rJV2/1KIzA41sfA/MLOS76lYNXFdtxqcwrt2HsDgGbEqAqCoKvky+qR0m+AKqYkVvBsZ2ugkq3Gj59dRhYOcYg7q/wjCIuiJpQtJoiefmiaLvnvPKd3FcNvhzHrcsyy5lAACSpCd6e9BuO6/DT64P8gpPjRdqsvyO+5qwdpeel0HTwobogYWHbt0m3vFdV3zsZos+Z5dbe9O/o4aLv2sQ63vcLsOvMQoeKB+CVHJsDivfWWVy0JdR8N1fJmYs30jyPAh0953sDsdB4cGzwp/97CMPS/nd5YRfNqeo0vg1kG/yGlsjt5e1uu7ogn2IHaDCbWxq8CXlw86ZhQ3Pp7o80naAjV+65lQ61z91q52ba0TRqMwetP6QaaeAQBQ6eLKSpssZ8C+6wRpUuMKwZhkwnZY7iDps+D4yqnzoVVFQ6D6ZP2FZVsZ9TVPXyhkUU19vVwi3CgHL6/8tdb9w1+OQ3jzFXk6HSVy2z81t9Valwaw7aGq757+wrFdlVPjlnrNNHnB+oPxAa0X7ijtQOypp1J2aNyMzQ7ATJnYHoioyhr8/T0IQ9+eH3eupYYPPSecty2oJ6kEz95rapDoU1i4P9JrFfUhtuvC9uS0MO+fFdRXhVwDa2/wJv0ybAm+7z79bUW7pZ117n7X7ypF99ELXvloy/n3OzHsffvmxjlhM9IsnSxExlmWNy+wn4v6F4Avw1RPln5Ae96K7svgGyx1UHZT5A4MFJkxxZ3Ktbio/SOPpoIU7aHPeDUHGZd5g6mXLsoZNWhOuSh4oP5A47WUtigaBstuuT2y9PX3PXl1Ksbg+dxxn2IfXnHOPu/Gi8N30c/aJIAdQ33EdbfIDC08kDfox0Oo4zrhlWRPuOeGqod/nw4qvJzJ/yt45n4/NLoPvcR8qP6tJ1uPjcllSxrKsUXf7m/ZAQ9APmpnU9WXMEg47hGGFmRjOF333l/Q+Swq/Uulcl8I1F6kR/Jj2cOrHV6H47HfuP1fv0TqmQCzRzMKGMrfDcf/6eGFDZ3x43WSixtiON4PZYt0HRIh7YWxy8PWN4zijbCnAn+NL+cAr69cvcAdVCzfhGZk5QFbsuGVZ/dW6MTV4EDWQJ1Udx8m6T6OOy7wBm0GZ1WlSDdkgn1Z2f1d22zFi6806FrbeBKVZwYuaL4fonG3LjKntTA0Kv1F+cH3Z5/1l2LKsrHveNqkOg4p3+DXnOE4m5qc0Uz//db+3jXtsnnc7NL827PPHdS3VjKlLOBRmYii6zhos9bqqpowvcBjg6eLPoXmvI7eXjZ6i0UTXxpZCE/w8nvdnX+zpqGNHKO8mC4gE92LY5EGNbxzHGWRLAZ77k6T/5TjOYFAD2Y7jLLsdC/9b+aeRTVbN846Jg6gPJfUHvK+cV37glv0C2/ePrOM4o+75q0vS/1J+auRlquPLOftD5cNv7st2vpY29YGFf3GPkeWA9pcJd3uYtK80u90MiOd9bpfMfMDzwyBDSXf2lJOGHZvH3e0TBFM6v1bC8kCve501WOpUnKVOe2gLJfNjCrfc0maoavDl96u68VFrVX73jT+s6M795yX9TDJRo3vXf6umRE3g7/fe5Fqotu+MT9NvtrfWaorTR6k6U+lcy9Stdm6wEfYbgkGZ9xRYMYIvwB83/Zg2q4Qbqmm3sycrc9cDG1T1BjNNG0R9qPwULctV2FcGLcuSzBm8Os4aMuYpmrIP/tR33LKsOUn3DXx7JgxqFk8RZYqqrJPrfr/b7ve7KTU5LzO6AxG8jIHvqVrHZtY9Nv/ToFoEtW5jiyGfN/LnoVJH9vsFI5i+3td22UcvqvJ7702ulRx8SdLq+paGvlisynu+X6ValcuvDjW/1sqLAZsSIMzcpyBNDr4eKt7TlAB+qvrDG25HQb/yHWgmqsrT4u5DCSYuyr1cxX1l0LD9hC4CxI7b9fkvBr61Ewa8h4xhNblZzXVy3Sm9TLpX5pwdz3vdFgO3/YcGHJsfGlSPwZjtlnNR/4D7Dr9S6VyLzH0C0li9Pk3dtrruhK4WQa9TNrOwoc+/+3vZP/94vjrrbrFt85JV6LqLCJsSIMQ3A4W1VExVtS4DAFW58X3Id/1rpoX+5w3pchqUOVNlDnLYIo7c6ZoeGHhda1f5d3caVI4H1ezsLtpXpmVOWMrUh/G9vjTpYaJvqhl8FR2b45JuGlKTIKc+RABKGV22KVfp/Jo2b2aeNbT28mx9y5N1s+5Orune5BoFrQLW/CobHboIpaKpxpoNfYsEX0CMuMe6LTPXkwl0sMwdADDpIcibQa3xtc/9ZNCQuhx3nygH4mjQwPfUTz0k93vUmPdjWFhqc+hyrqqiJzLr4aaMzHmgiGMzQkpJZhhQNYhfU835qffogcB+179+9TfP1s0aub2smYXgwsb21vBN9zc1+5KD0hwnKAHCxh2sGxfBFwCDGBZsFOt0HxgIikkDI09k2FRebhD3jSFvx+bIRUzP13MGHYcFXVW8rr5sUB0yBq5HaMp3O+fseN3z9sush4kGTbq/Ney6O05dmZHPe+j88tl73fWev+ZTj0KdIPV21PnWBbfdjT+seB7GDN1c1LOAAsez/9TIgaNwhoCmSKVznK8RppuAFuU7vkydWnlFBF9AbDmOMyEz1/8K8rvepAGAjKHn40wM9wvANOOGvZ9qDSiadM5+4nZamfbdPiczwlI6duNl0KD38sCULvptx2ZWZnRmxul6yo76eaiUNIJuAkPkQhh+DZ1KBvJ77k2u6c79556/7ur6loa+WAzkM6SO1SvVfTBU2/exD9NwHiH84osacTEugi8AZhs28D0F8l3vPqVsyroxT0xYl2InBg2kcg2I2HIHTZ8Y9JYIvwzr1DX0vXHejg+Ozf0xITBvDmCWhWlD6t1s6L2OZ/YVftFFgEqcHWiU3dfg+++ZWdjQ59/93bfXfzy/ocztYMY/r19qUTKgTjkvrK477OhmYZpahIJlWeOSzhn69grB1zRbCog3Q6fTCur+zKSBmlHDd5UJA97DcY5YxNyEQe+lWtN524Z8/hVTH1go+m5/yL07Arrv7ZI5DxMZ2fVVdGxOyIw1d/0+Nk16wHbEsiw7qsdfjSEbHBF18eQhZS753z35bH1L18aWfF8L7e7kmu5Nrvn+eY601urbzw6HrgMMxrApAUJwAzAqs9YjeOtmXQRfAN6WMez9NAe07pdJ4de4yTuIKYM1UR68APbBpPAr8OPR/X2mrKE7HoL9xYT3yDk7HrieCt+5PE7hlyRNWJY1GMWDb7/hFydjg6yubRn/Hs8ONGrs6m907f1grrv+9au/BTYd5MjtZc0sbPj+e4601mrs4zaNXf0NIRhK1ZxK53hoAcZyL6quGvr2CL4A/IL7hLhpa3/5+l3vzv9vSifRn0IyBW0cBmsAk8/V2ZiXgAF2ztkwk81+z7G57fvKtPGGZklfW5Y1GrU1wOj88lnP0TrPXzOI4KVUyUSNzg406vqlFj34939U5lKLUsfqA/v9Txd/DvTz5haDW3ctdaxeYx+36cG//6OuX2rR2YFG46ZEnJnf8G2/AhfRiBY3+Pra0LdH8AVgL+OGvR875K9fiomQ7CNZrgGBqnsQ43syU87bT8JwPe0+2FLtdeKa3SnxEG2mHJuheJjI7aavthNBnCsNLP9VSXNR6gI78K6/kErnumTOvKShk2yM7uB9b0ed7L4G2X0NvoR8pUh1H1QugOkIC97rrg/8MzYlanRmoFFnBhol5UPQ7KMXyj56ocfz1Q1E/ZpusqejTlOzLzmRlH9xNU4ZYOB+OWLoeyP4AvDOG3HLslZkzpRSXT6/vkkhSjYku8mEqv+ARxdHK2JuWsEMWu5H0E/Pm9Ktmw3R/jKh6s9I0SVpjkM3mtxpqps5Nkv2oNrncsuyutyQ3C9zMjNzKXSBDUsaDntX9YF9/B2bUxWkfBeO3deg97rrZfc1qMmgrpzejjrdnQzmd7W31hrx2XuO1qnnaJ2GTiX1bH1L2Ucv9MPsK2UfvfB97TOEAudumGjE5GOG4AvAPgcNzhnyXvweEDDlWuKhzwMPnnEcZ9myrCeq7kAGnV+Iu1hezxm23t8E+0vJ37dZDt3I4mGi8t9rtR9k6JK/wbQJn3EvxyXdtyzrgaRRQzrySnYgZAcpAtbbUadUd73ODjRWvbtrL6kAO7FMXH/L5K4wVE1nKp1rmbrVvkwpgHf6kOALQAk3qaaEX34/kdpvUM3DZFrVDb+aOUwRc3MGvRc7wN9l0thdmK6rTXivLRy2kWbKsbkSsnveaUO2nZ/XoVmZ/YBwwQlJJ9wHvMYljYflwTSJzi9sk0zUKNVdr5N9DUp1H9SR1tpQvO+eo3VKJmoC6XiqxpSH5dRje1fY/UcvNDX7iq6weLEVrqfugGr40HGcccoAoISbVJN0yYeBXnf9EVNClLA9nDCtKgeklmXZYZ+iBojROcMrpgywPwnToKjjONOWZbHtEIftG7ZzowkPcvsaTDuOkzXg/FOKTuXDuhHLsv6kfAhm/JjjnuFXKp1rkTlzBofS08WfpWPehiXtHgdShe4uuy+h1LH60NY6qPWhejrqQlWX7V1hUz++UvbRuqZmXxnfFfaMoK5Stgi/gL0QfAEo9SZ12rB1v2z5E8h1GVR2BmsAlHKeXg7ZYGLUztthDB9N+l5H9JgyrV02TEUzJBiyA/gdf5JBs0qU4Jykc2432ITy0yLOmfhG39X5xdMHFcotbXr+mkfaDlT082Ht7nqX97rrfQ+/kokao6d/3I/UsfrXIefTpU1Nzb6suCss6dMaaEzZWDHO4cDuCL4AlGtaZs/PH5ab/X0J4bS0rB8DVN9Dxe9BblO+l8IYflX7e/0Eh2w0uZ30XJ9gLxMKZ/hV0CnpqqSrlmU9lDQqacJxHGMeBntXimKzD0ZDe2ut7OMNSh07KLuvIZKfMb8W16qvvyNsXV/vcqS11pOusKjVhRsgIPIIvgBUOnhgynesX/drXaYU27Ish10OQIlMGXQLZC0ny7JMWjNqxLKsEXZBwKzrKUl/jGlXrNHbz3GcccuyRhWN7tPjkr6WNGpZ1oTy0yJmq/2mCL8izO5r0Hvd+bArKt1de+k9esD33xGG9b4qsVtXWPbRCw6osG7TdM6eutWepRLAawRfACo1x80+DNdCCQAjBNV9xowfIWdZVleY1koDx2ZMdAb0e0aVX0srKpolXZZ02Z0WMaMqdoO9Ky2ga8BAycTOSX0curv20pSoUW9Hna9T5eW7y+Jhe1dY9tELTf34UtmHL3yZzhO+XmxlKQMgieALgDdMmjamK2Svi+Cu/4A4m1O8xrMIvMOvS/F4uCZuODaxH+OKVvhVrFNvd4Nlgg76dw2/UukcF8weyC16HxIUrzmV6j6ok30NsenuepdUd72/4dex+tjW1nb3s2vvN+vp0qayj17oh9mXyj56oXb2PaM3nfJPkQBxR/AFwCvLBr2XQXluYAAAIABJREFUzpC9LgAEYS5mn5fxO8BMXZQg3CzLavG7Y8lxnDnLsm4qv3ZWVBV3g/1J0mhQUyLu1flls4tXzq8OmRsfteq97no1JWoocpHeo/6tPdXLulavHWmt1QX7kC7YhyTlp0j02tSPryi0NziXAwRfALy9QZ1mzQQAAAC8QxclCL2gZlPKSBpUNNb+epdzks5ZlvVA+U4wX+u7V3Jis3+by+5rIPjapS6ffNDseSfS2YFG3fiolQLvgq5DozWn0jkuuAAAiCjLslo8fj06CMKPaZaAeOG8zXkbQIi53WWZmH3sE5LuW5aVtSzL9uuX1PDl6a8ZH6fgwy81JWp0wT6ku9f/QdcvtVQcgp0daNS96/+gzKUWAp6Ara5tUQTv2JQAMfe1ZVlM/wkgqry+b2MALvyOUwIgVjhv810OM3VRAuyX4zijkh7E8KP7GoLtGH65XQLM8+6B1XUG8KvlzEBj2SEYoVf1zSwQHHvIpgSArlqWNU4ZAHjkASUAAADAHhhbR6kGJa3E9LMXQrBxy7K6vHrR3db8stnXvPN0aZMApYrODDTqzECj7k2u6T8m1zU1+3LHv5dM1OjiyUM6O9DI9kLU8BQZkHfZsiw5jjNIKQAAAAAAgCkcx5mzLGtQ0h9jXIbLyo/dXJc06k4JWbbdpj1koNRDuaVNimCAMwONGvu4TWNXf6NU98HX/z6ZqNGV00ndu/5bDZ1KEnwZ4ofZVxTBO8dT6RxTYQDuhRQdYACwpy5KAAChwr0eAESE4zgTkq5TCY1Imq50KkQ6v3yUTNQo1V1f8bpT8FbqWL3GPm7T1I+vNDO/obMDCTUlaiiMYa6cTuruX2qVffSC6UO9YUuaoAyAJDrAAGAvXZQAAEKFdf4AIEIcx8m4U/9djnkpOpWfCvGmpEw5XWC/CL/c7gC+OCvQ3lqrzD//Wqlj9RTDYKlj9WyjkGyfe5NrGrm9TFEq0y/CL6AYARgAAAAAADCO4ziDlmVJBGCSdFWSbVnWecdx5kr5wZ3aXZjysEI3hloJVQAPnRlo1NmBRgpRGZsSAL9w2bKsDGUAAAAAAAAmcR/WZQrEvOPKT4NYUna1U/hlU8vyXb/Uop6jdRQC8NgnH/xKvR0cWxU4QQmAHY24C8oCAAAAAAAYw3GcjKQPJa1QDTVL+s9SxnAIvzzS3lqrGx+16gzdKYAvmhI1uvPpYV05nWQdvTKl0jnO78DOviYAAwAAAAAApnEcZ1z5zOYh1ZBUwhjOgR3+HdMe7kN7a616Our0XvdBpbrr6fYCAjJ0KqmhU0k9XdrU1OxLPV7Y0OP5nzU1+5LivFu/pCxlAHa9eJpzHIdjBMB+v1MBUz2gBAAQKtyDANiT4zjTkvotyxpVfg2suNvXGM5b4VcqnetXvn0Mkno76tSUqFF7a63a22rV3lqrI20HWM8LMMCR1lqdGWjUmaJ/92x9S48XftbTxZ+VW9pUbnFTuaVNSSIcy7MljVIGYFcTlmXZ7kUlAOwlyvdMy2xeAAiVJ5I6KQMARP+62HGcYcuyxiWNK78OVpy9cwxne+eXHfWK9HbU6Uhr7eu1g5KJGvVsW0eIcMs7T5c29Xh+QzMLG28FEb0dB2T3JWJf65mFDWUfvdAPs6/0dPFnHWnLH5LvddcTtpahKVGTr9c7ajazsKHVdefN/5/fUG7p5zh0kNnsJcCemiVlLcvqchyHwV8AccUDAAAQLnMi/AIAz5n6YGxRF9ig8g+5x7WZ6Z1jONvDr8hN35FM1Mjua5Dd16D3uuvVlKjhyPXB06V8sDU1+/J1yLVXiDA1+1J37j9Xqvugrl9q0ZGYreH0bH1LI7eXlX304q1/v1uXUiEIIxTzxvZpSrfXcurHV7r7lzVlH73Q6vpWpL4UUulc19St9jn2AuCdF082ARiAnViWZdo9E2EVAAAAEDOO44xbljUhadj9E8cQrFnShHZ54D/SnV9XTid10T5E4OWhUkOud5mafakLv/tJY1fbYrVu2tAXi3o8v7Hvv59b2rnW20Oxno461p/zQOpYvVLH6ncNKUPOVr41GsDujrvHyXlKAWAHLYbd9BLUY7ssJQCAUOFBlmhiSlIEdS+QcdcCG5Y0GMP97oRlWRnHcTLb/8Pr8CuVznVFpTDJRI1uDLXSGVOBwtpJQUwHt7q+pcztZd359HAsajv259WSgq+97BaKFU/v2XO0Tu1ttYRiZWhK1OjGR60a+/Oqvvx+NSofyxbhF6rnG0mXQ/Jez1mWNe44ziCbDcAO36UAAJiChyBCjgdZImtOhF9h9iSE55GM8kHYoPvPcdr/ht0xnLnif1nc+RWZKQ8JvvZvp5BrZn4j8KneHs9v6N7kms4MNEa+3nfuPw+kno/nN37RsUQoVp6hU0nlFjd1d3ItCh+nny2KKhpXvh19XOFox79sWVbWcZxxNp1nuigB2I899dCHG+esZVlsZQAIj2lJ5ygDAHhqLqxv3B3DGLcsy1a+GywO3xHNygd+g8X/sjj8sqPwKa+cThJ87WLqx1d6uvizHi9sVC3k2sv9Ry8iH35Vew2p/YZihf+PNz754Ff56T7dddlC7HgqnWuZutXOk2Wo1kXYhHsBllU4ArCvLctadhxngq3niS5KgAgw6UESvs+xkzlKAACh8YQSRPr7+ARlQLU4jpNVfk3zLr2ZEjHK64Jddqc/fH0tHKnwK5mo0UX7UOx37ELIlVva1A+zb/7Z+Pc9+yry28bU7bBbKJbqPqj21lq1t9W+/ue4hmJNiRpdPNmkz79bicLHsZXvvgGqdQE27QZgEwpHG/64ZVm24zhhnYt/jr0O8NTxGBzfJq1RcZ1drmRZSgDEiknXeg84B3GtDiO37Tfsa/E9Nt0waFj5qQEHlQ/BohrMZlTU/XXA0Ju4sth9DWpK1MTyaJxZ2NC1saVQd6WY1IWGvKnZl5p6s4Uk5UPm7L//YyzrYfc1RCX86hfhF6p/8TVtWVa/e3Ns+jVIs6QJy7L6wzgfv+M4cwZNYdbF3o8wc4P7ONyUz8mQ8GunhasBAIF8F5Qjy3kbeG3ZsGNznE2CoikRu5QPiQYVrbXBzhf/nxpJSqVzdhQ+WXtbfKdpi8K6Tanug5HfTu0R6Jqy+xpie5xFqOvNFmDGRdeyuz8+DMHb7RRPsXqhixIgSjdTBvCrI3XOlA/oPigBAAj+u6AcnLPxLi0cm9yHofocx5lzHCfjOE6XpP9f+e7AKGi2LOv1PVuhTcpmk3tn6sdXelqFDqyz/xTu9bJ6Ow5Eft+IQnB08eShwI+nb7PPq3ZcRRRzTsOkC64wBWDHLcsaZ6tx04VYM+2+aS5kr1sOBlIB4N3X05yzERbHY/RZTbqestn1sMf3yITjOIOSfi3pXxT+tQhfh18HOAAq82x9S9lHL/TD7CvNLOTXTSro7ajTRfuQzgw0/uJn/Jie8exAo778fjW0tUwdi37nV1OiRnZfwy/W1gqL3o4637oMZxY21N5a+/rYmPrxlTL/92+/mMozmahRqrteJ/salOo+GNs1yCo+3tI5e+pWe5ZKwJQbdncqsWmZ325/2bKsME4ZsSIzFrbtZI9HWLlTgxg1YOPjWoRZSSOGfExb0jh7IADs6YHMeMix07KsLnd9GSDu97kmTT/PQ9DYzz67LGlU0qg7RjMs6VwIP4pd+IdC+BWJJzNyi8F0hTxd2lT20QvdnVx7K+za7vH8hkZuL+tO9rl6jtYpt7SpqdmXOjvQqMwl77t8j7TW6uxAo+5OroVu27W31sZmOr2zA42hDb8u2v51fQ3dXNTq+paSiRr1dNRpavbljn9v1Q2cCzXs7aiT3dcgu6/B9+k/ZxY2orQrFtZaAoy5yHJb07MyI6TZy9eWZU37OOjsh2lTbnjctdOm2esRQoOGvZ8HPr72nEGf8zy7HgDs67xtyuD2eeUHT4Hd7gdawriWcgXXa6bch513HIf137EvjuNkJWXdBwAzki6H6O2/fhCjJpXO9cv8QaZ98TNQeLq0qW+zz3Xx337SmZH/0uffrewZfBV7PL+hu5Nrrwfz/XyfYZ368OLJpticPOy+hlCu/ZVM1Pyii9HLY3d1fUtSPtzaLfja7fj68vtVXfjdTzo78l/6Nvvct+kRwxpa7rYr8lUOAy+upt19cyUMlx3W/2vvfmKjuNP8j3+qHQM2OPaYnVnRWKJHwnADj3olz432MRGeOMMpiBXNYcjJgxHR7txo3+YnBQWnT5DD2BrknJgxC2KONLexNKWxuWGQ1ki4vbsTPHb8D3Ds+h26GjoGQ/+rqm9Vv1+SlQTi7urnW1Vd33rqeb6W1cGoVSVBCBBSacO2x7MksvvEvinn4h/17QcA+PudEIHvS5inh2MzEFxPoap5QUlLxGGF436N5N73jEXphLO8vqVvc6t1e72V9S3dmVyrKuH1vu306iZ68vAuJbvD1z6wv7eloU4cYUz2ebnWV72Oh/zCpr68uaSTl/9Xp//fP3Rnck0rblKtVvMLmxq/txql3ZBe7DD1wmoqJBfl7QpX9eSsaRehQJi4yRfT2nZOhfz1KzHEXggAoTlnH3fbZcEsJlVaJTg2A3GWBzhRLcdxFh3HybjH70gINrlHKiS/InXCuXZ3uebWZPbjl8rcWNSJ//gfXb6xWJeE13ZeVpD8KmSJpP7eVk/WQDP7M4drjNpaYp61PFxZ3/KkVWex7eiJ//gfZW4s1nReWFnf0qVvFl5Vp0UE6+7A5IuqnKRzIdjU45ZljYYkrLOmXYQCIWNi8iUX8tevxAm35QoAYOfrZ5OkGRXjmJSESRB3rmkR2u+bRcdxhiT9XN62Ya/Vq+RXKkoDsLy+pfMjz2Q/flnR75VWeZ0f+c7zdbNu17EiZbuTva2haqvnZUWRqfa1xNTf2xqqMfIqQelHK8Hbk2v67Pf/0Pmvn+lOhcf2zNyGzn/9zJMkeNCSg/mUAHMvqEZVKKk33VnLssIwuTfpSc8TPHGIMHGfXjdtkfAnbmtCL5l2s2aUvREA3mnasGtk5pvYScPsG25nE5PaxA3xQBHqtG/POo6TkvSpzGyFmJAKya/IKSTAvntvtcf8wqbuTK4pc2NRJy//n2dVXjvx8qb/5x+3hWKsjnY168jB5oY8SYRlfTYvq74k6b8m1337LPajF7p8Y1Gp//gfXfpmQd/mVndMlM/MbShzY1Gf/f4fkUx8ASG5mMpIGgvBpl61LMv0aibTbmKn2MMRIlcN3KZcRN6jEidY+wsAQnXevsqQYKfvdI7NwLRzbKKeHMeZUCHRNG3Yph2SpA+iHPzbk2u6PbmmeGeTDuz/QEe7Ch/34dMfNPN0I/AWZuO5VZ30qPrnZG+rxnOrxt+09zKpspOZuQ3dnlzTw6c/SJLaWiz1Hduj1LE9vrZfTB7epaNdzeaPkYdVX/MLm7IfvfD9MxXX3StNQB/tan71OYPYJgA7Xkil3SfTTJ4gtUuasCyrx3GcRUO3cdaw7RmQNMEeDtNZljUk6biBm+b58eM4zqJlWdOGff5Ry7ISBp9rASBIOUkXDNqe45ZlZdwH2hD8vCpnWZZJ11gpA9t1enlsfmLQ9nxiWdaAm7QA6jVvSLn7ujFzB8uyOj5ohAHIL2wqH9BN9nd5+HRDM3MbnlU+XTrVrvMj3xk7Lm0tMaWO7fHt/VbWt3T5xuJbK+5yD54r3tmkS6fafd2m06m9unxj0egx8jJBOZ5bMep4BGCsAdMuot7ikAotuYysSnAcZ9akya6kAcuyOriBDZO5ifeMoce0XzcrTDv3tquQ+EuxhwLAW8/ZprlsWVaugZIcqHyOx7EZjFE3ATnFrog6zU+KCbBZ95rdBD0xhiZY4/dWPXvt5OFdSnbvNvaz9/+yxbdKq5X1LZ3/+tk7W03mFzZ16ZuFiteEqkXq2B61tZh7GHpZ9bWyvqXbf13nJACgrIsoFRbNXjJ8Uz9xq0RMZdJitO0yNFEIlN4UMGjiVuqWj+9l4hPBJyzLGmX3BIC3XjPfN3DTJkLQIrxRPDFoWwYa6NicMiz2xfnYBGsxw4PvIaPuiZD8CtjtyTWteNh+8YtTHxr72U+n9vn2Xtf+slx2Zc+XN7/X/MKmL9u1ryWm/l+2GDk+8c4mnf/Iu7Xjcg+eB956FEDoJgxhmCB9ZfDkftaw7cmwZ8NUlmVlZG671VEfz705mfngwVkSYADwViY+tNAuKUcCjPnANocabC3PnIHbdMg9NkmAIbLfQzFJtJsJ2HjOu+qvIwebdbpvr3GfOdm9Wwc6m3x5L/vxy4oq7Jbd9oh+8TMJWIlLp7x90Pna3WUOfi58gYq4N2EvhuFiz9AJhGktLQ4ZXimHBmVZVlrSZUM3bymA9RlMXQ+CBBgAhOecTQKMewBvM8SxGbjjkqY4NlEvbvWXMZWOMZl3I6TheNn6UJI+/6jNuNZ6Xq4jtV01SRb70Qvf2h8e6Gwyrj1lsnu3p2uf2Y9fKu9TdR3eMQ7Z+CxRQAgvpK7K35Zf1Siu/2UaE6/5MjxpCJO4ia8/GLyJQdw4GTU4Hmcty5py12cDAK6VHWdWZrY+lAoJsL/z8FOgTLsHcMJdI6gRjs0Jmdf6sHT+mmuwSjw0yLmG5JcBlte3PE207GuJKXPGnPtK8c4mTxMrpXIPnst+9KKq3/WzMulXvea0PmxriWnY4/2Fqi8jTBMChFg6BPuwcet/GbrQeLsaZ6FrGC4EiS9JuhrQueOJwTEpPrE8ENH9ssOyrKFGuTkIoC5GDd++ryzLmojqgwuWZaXc9skmMvG6+2oDPQw3YfC2tUv6s2VZkR0Py7IGTDw23TlI1BjTPp7klyG8Tgakju3xLeH0Pv2/bPXtva7crH6JgvzCpq7/xZ8kzcneVsV9agP5Pp9/3OZpS0r78cuqE5KI/EUvUBa3jD4tM9eh2T6xN619hIlPAh+ndRkCnnB2uPug6YmvaXf9wyCYfowWb9jkonIz1b1BMyrpn5K+kpTiaAVQpokQXCd/osKDC5mInLMT7oMKs5Luydz2ybMmzgUUwMM9AQnD57zgHpvpiBybPW5Cb1bSn2XYOuLu/YI/WJa1aFnWaBTaT5p2LR5z2149EQKVX9j0vM3e8JkOI9of9vf6k/z6Nrdac2u98XurWlnf8icuPiYFd5Ls3q3PPG5JSdWXMXKEAGHm3gAOQ8uUUcOenDP1oSdalyGoyVnKPS7OhmBzrzboe1fihKT/dm8eJEK2L3ZYlpV2t31RhRs0pfsla3EAKPc6eVHmP7QgFR5cuGxZ1mwYb7S7N9UzlmVNSfpvFR5UOFT69wbuG7MGzwWMmDe54zrkYfxvhWD3PqRCQiasx2aqJOH1dxUSesVj87hhm9tTcj48q0Jr2Fl3+8N67ZcyaWOKmZAJIXBeJwVMaH/Y39vqaVVR0cr6Vl3iuby+pWs+VX/5lRTciR/tDqn6MkqOECACE/tRSWOGb+ZxSRmO/bJjNcU6EPBxUpxT4ensQyHY5CX3nBfU+XYxBOfbUmdVSILlTL1p4ya7UiU3Tv+pQvXhWRVugGzH+ogAKhGmSprijfZF94ZvwtDzds+2hxT+rkKF10430xOGxtvUNeHOqrDuVE8AY7s9WfIVx+aPjs1Z93rF5GNzyG2nuuhe31/Y6RrfsKRSzw5xv6DwJsIyBm3LYjH5NSoELr+wqW9zq56+R+rYHp3u2xvYZ/Srumk8t6rlOlVsjd9b1XyNFWTlONDZFGgC7ItTH3qemKTqyxhjdja+SBgQEUMyv4L9gilrtbgLLZusXYV2kUZPsBBOJZU1OXdSfCJEm2/CjZJMCIf9hF7fUJ1wxz8R0P6XKrlpWkx2FVtjHS/zswBAudd8swrXQwvF68ALKjy8MOXe8A3kGtptY1h8QCFXkux610MK25l6s9rk5W+Oq3DDf9TLsXfH9p3JEq+SDe5aqmFbg/2Qe71SPDaHgkrGuImugZJj09HrhOUnZR6bJs0xe8qIfTERVmyNmDY4ETkqgx4sdBxnynIcR5KUHMxPybzSv4bT1hLTneGfaZ+H7QlX1rd0/utnevh0w9fPFu9s0u3hf/X8feYXNnXy8v/W9TVTx/boym86Pd92+/FLnR/5zvf9rr+31fOqwKA+G96qz87Gc4ShMbiThnum7HvuxX7dL4DdC16TLUlKuNUTQe8TE+7EICymVahYm1JhnYKpcuLo7hfFL7fUtn8adRPZcRwr4H3CMSQUT9xxLo71rKTZalv0uJPChDvuKYU3eWDS+WNU4WgRWcm+NiVpsdbvp5JzTod7I6P4z0QdbwL83LSWVQadP4Ydx8lwnde432Xb4pKRIWsuBRkX93vwvyOyu98vvRas5frAjU3xHK1t5+yOOl4v3HIcZ8DA88aACq11w/J9PVGcC1Q65iUJtFTJGJc7vue8qrp3q9L/EIHjcsk9HnMl1+5TtVyzlly/b5/Ddah+eQtjrhlqvI4qzpOrOj48+L65ath9hiXHcTo+KPmDqxE58EJteX1L47lVnf+ozbP3KLY/PD/yrG7VUeX4/OM2X97Hi+qi3IPnsh+/VPLwLk+3PXl4l+KdTTWvVVaJo13N+uLUh56/z5WbSxzghkwaSHwhahzHmbIs66K8bU9Rq3YVKu1NmACHLfl1fPtEx7IsdvxoOuT+fLLDeE9LKmcynVA4WhmW66oJiS9XRtFIfr2xr5XsZ09UuHlj4n6WKHPbAECO48xaljUWkfP2CW1LWpSct+9X8Bp+MrVdbZjuBxSrXi6UjPn7vqfrNc4JD4/NUTcBFvaq7vaQHptGVGXWoXquOE8uHh/bH+6adddK9/IzDKhwj8PE75kpSXqV/LKz8dHkYD4TsYliKI3fW/V8bawjB5uVOdOhS98s+PKZ2lpiSh3b4/n72I9f6vbkmievfe3usq7/dr/nn+F03z596VOiqM1NhHpZaShJdybXfK80xI4yhAARndxfdS+8TJ5AfGJZ1oABrQcnVHjoqZ09ByHTiF0qnsigtSEidiN1J4cMnhOnxLqtACqf/52N+Gc8wXZV9F2+aFnWdIivq/z6nk75cGze49gMRMKg6zovjo3tD3cVK/QW9brt6azekkQudkLY1kWlaHtnA9PPIVOStP2Od5rrguAtr2/5kvxIHdvjWzVW6tgezxMskrdrStmPXuiOR4m1Uv29LWrzIVaSlDnToSMHmz19j5X1LX1583sObDNQ9YWoG3Av7Ew26rZZCXTCq0ICDID5MgZVfb3aphCca6MqQQgAVHjdNytpmEgEw+D1a0cZnffq8fjYzKn8yijU1/FG2MdKFCv0PlGhJfBlFbr/3dv+Y1mWU7KO2va//8r93U8UjuT5m8kv96boGMdA8Ipt9rx2/qM29fe2ev4+p/v2ev4e9uOXsh+98PQ9vEyuFe3zqUrui1PtvrzPeG7V1/aa2NGSeMAB0Z/cL4ZgP283ZLJ5lT0GMN59r9aaqPFcO8s5JDAJQgCgyus+HlrgvF2KB+HKmLf58NBimjAHow4tB+uhh5HwVE56s/JLkoZUaK+BgGX++E9/3udMh452eVf9k+ze7Xl1kV/xyi9s6vpfvE+AeZ0s7O9t1Wcp7xOSM3MbviQMUZYhOxufJQyIOrel4Ijhm/mJ26IxyDhNiScNAdOlDT7XZlRYgw3+OkEIAFRxzg7DA2JRlTJ0n5hlLlCWHh/GgcrMYCQM2IbjDINnnrjH15vJLzsbX5QZi7E3PL8SLZJ0/bf7PUuA/aq3xfPtvzO5pvzCpi+xGr+3qhWPK5mOHGxWsnu3J6/d39uqzBl/Om7R7tAYY3Y2PkoY0EAyMv9BnsDbH4p2J4DJhosTNoOlGSb/GdxCC4DB3AfEbhEJ35l8zmYu8H4pH47NjHigKAiBVl1ZlpViCDz1qrr1rQsL2dn4lKRzxCl41+4ua2Zuw/P32dcS8yQB1tYS00mP2yr6vabU8vqWxnOrnr+PF0nDo13N+uLUh77E6dvcqudtKFGWaRUqeoFGmtyH4UGewNsfuu3UqPYHzHPfvRFi+rl2SjytHIQEIQBQpbRof8g5+8dzAfYHM8YvTah919Pg7x91o8V/ie30f7hVAiPEKniZG/6scb2vJabMmQ61tcTq9pp+rPUVxJpS1+4ua97jSrOTva11HYujXc26/tv92lfH19zJ/MIm7Q7NsCQp5Vb0Ag0lJDdlA29/KJLjgInf3ekQnWszom2S31KEAECV52w6PfnP9Ha1rOH5bj0+HZtTki4Sbl8lGmHfalDT7jEl6R3JL0mys/EhJjPBe/h0w7f2h0cONuv6hf11S7r0e1z1Nb+wqfF7q4GMix/Jnf5f1qf6y8/ElyRdvrHoe0ISb0XiC40+wc/I/BYSgbY/dFvgcK0HmGMgBO0O39hm8eS4nxKEAEAN1345UbXrK8Pb1V7lO/ydjvt4bF4VrUkjObY7SDEEnp7XXinnTviAaIkTOL/aH0qvE2DxzqbajuJje3SgxtcoJy5BJVluT67JfvzS0/c4ndpX82v4nfii3aExzrktbIFGlzZ8+9pVWKMsSFR/AWa46N6UDBUqCXyXIAQAajxvZ8TDT5y3X3+HU/31DpZl+Vmhkxbrf/k5tomA3rdD0iFGwBNP3Jaur7z3brhbNcDTfAbI3FjUik+JniMHm/Xt735a0xpgXld9zcxt6PbkWqBj4nX114HOJqWO7an69/1OfM3MbdDu0AxjbutagMl9odzd9DbOF4Jc8DYkMQIi/93tPvEb1nNtTqwZ7ZcThABAHQyIm+x+SRm+fVdF0cO7JHy8nuIefETHdhtaHnrnjQd7y7oj7lYP8FRwwB4+3dCXN7/37f32tcR0/bf7q0qAxWtM2pTDz1jseGw8eqHcg+eevke1ScT+3lZfE19SIUFLu8PATdvZeJowAD8+PYVgQneVGAENa8xxnNB/d7tPWZJI94HhLbQAhOOczU12/yRCsC9wz3dnPT6Px6wKCVOOTe+OwUZgAAAdNElEQVSlGux9o+6+u6zDj5R9V9ytImAyE7Dbk2u642O1UzEBVmkC5nTfPk+3y3780pjWelduevt9lDq2p+IWlP29rcqc6fA18XXlT0t6+HSDgzRYS3yJAjtO6NKGb+Zxy7KGAo4RbcsA/01HIfFVci4ZkjTGsHouQQgA1OGcPStusnPO1qt1gFlv6u1SAYzHFMdmpI9NKr/qb0k73POp6M64nY0Pib7Agfvy5ve+rf8lFRJgmTMdOt23t+zf6e9t8XSbMn/8pzHjkV/Y1Le5VU/fo5Jk4vCZDmXOdPgag9yD5xq/t8rBacBFmduqFsCbE4iczL8hm3H7fwcVoylJF9lbAN/cVwQfWnGTeSTAPL7mIwQA6nj9lxI32b0Ulna1afaDt0pwbDK2dUbyq/6G3Ac63lBNWciAaIsTqOX1LV/X/yq69Ot2DZ/pUNt7qon6e1s9rTi6M7mm/MKmUWNy7e6yp+NRTjKxrSWm6xf+RSc9Xmttu5m5DWVukG8xwDm3RS2Ad1wQGT55aFfA7Q/dNYe4aQ14b8xxnJRbdRk5bgKMNcC8kyAEAOp4zp5yzyusAeaRMLSrpRPEjg4F9YAiCTDPnQjgXNAh6RChr/u8anSnv6w4Q+FWFdAXOGAPn27ocgAJh5O9rbp+Yf872/BVUiFWqZX1LV27u2zceCyvb2ncw+qvfS2xd7aePNrVrG9/91MlD+/y9XOvuIlY1vkK/kTvtqYF8P4JXdrwzTxrWVYq4DilRdsTwOsJWjrqH9KdhJ5j3uiJBCEA4MF1ckp0e2ro87bbLYNOEG/qCXBMptz3JzntgQAS01R91dd7W8hXVZ7jVhewGGLAcg+e68qf/J9LHjlYSLSkju154++OdjXryMFmz957PLdqXNVX0bW7y5r3cNv6f/n25Nfpvr0a/8+f6kCF64LVw+Ubi6zzZcCJ3s7G04QBKHvyMCHz1zC9asA2pJlgAZ441wiJr5Jz7qgKN1PpHFJfJwgBAA/O2YuO46RCcK0cRqkQ7Qd0gnhTT8BjMuvuQzygWH8JzgWhNV1OPKvuTedWGfCFGLDxe6u6M7nm+/vua4npym8632iDeDrlbdWX6etKeVmVljy8S0e7XicW29wxuPTr9kA+a+bGonIPnnMQBmuJL06gulOYzK5EOG5ZVqAPGZU8/cvEF6iPJ5J+8a6WHFFV8sQyN2zqKAwttACE9rw9JOlTUblbT4mQ7QNp5gE/0mPAmCw6jjMgKvPqLRXx94uqaUlltZCvaWEmOxsfEiXRgbt8Y1H245eBvPfJ3tZCu73u3Wprib21Gqxevrz5vfHt9W5Prnk6FsXkYurYHt0Z/pmn8X6XO5Nruh1A0hVvfmm6rWgBVDhxkPntDzNB9ZbfNsFi4gvU7pakHjcJ1LDn3ZIbNtxMrY8EIQDg4Xl7QoUb/tzza9BzNvMAM8fPrcz7hejSEdaxpe1h7cZUZuJLqjH55RrggAvepesLmpkLpv3cgc4mXf/tfl2/sF/7WmKevMf8wmZoki1eVn+lju3Rld906spvOj2L9fvcmVwLZL05vOGc24IWQPUTepOrENpVqFAzZeLLuj1A5ZYkfeo4zkC5k7MGOPdeFTdT6zY1IAQAPD5nz7ptEHlwoXYnQroPpEWlkXHj5zjOlOM4PZKGGZqaJfx6I7dqv52Q1+Si4zjpSuZWNd89d6sO0nwRBmt5fUvnR54FlgCT5OlaX2FKttiPXnhW/bXP4+q695mZ29CXN7/ngAveiNt6FkBtTL9+uWBKW6uSdXt44Akoz5ikhJtox4/PJ8WbqSTVa5MgBAB8Om8XH1ygfW0Nwtqu1h3/vkb/zrYsq8fAscmoUAXGQ0XV8zOxSdVX9Yot5CteH70upSNu9UGacQhWMQE2v7AZqc9lP34p+9GLUG1z5o//jNz+NTO3ofMjz4xvPdkA7rstZwHUPlkIQ/vDqwbFiycMgTK+pyX1VfpEYoOeg0dVSOBwTqlOghAA8PGcPeu2r+0TD0M13HnbcZycu/33GT/jxmaq5KGiJxxmlfMxMU3yqzojqqGFfN36ptnZ+AQTl+Atr2/p0jcLWolQguLKzfA9XJJf2NSdCK2JReLLGE9UaDULoH6ThQnDJ3GfWJaVMixmGUk/F08Y1sOSzHiKmolyfWJ4znGclHuDCOWdTxZLzimsK1LZ/kZVIYAgzts592EobrRX5pak2Qh8Z6fUuJXbPYaPz6jjOAlRWV+pMUl+PrDG2JTvvgrVXkO1PFRY10WD7Gw8I8qgA/fw6YbOf/0sEgmwO5Nrevh0I5Tb/uXN7yMxBiS+jLEkacBtNQugvtKGX4RmDJxcFduW9YkkWKXn8vsqPDD2C8dxOtynqIMez4QKLVMuMp4VKya9Em4lE6o/p6RFEux9bpXsb1cJB4AAz9ulN9qpBNv5GmFE0s/d9T9nozL2KlRBjTTQWI4pJA+duMdmh0hQv+/YvCjpJ352a3Af+CqeN5lz7azYSSNVbbVXqZgHG5jmiy94xQRY2FsgXru7HNptX17f0nhuNdTxJ/FllCG3xSyA+l+EzsrABFOJE5ZlDRgau1xJEowHoN407U6WL+p1sivlOE6mHhfydR7LKcdxrrrbZ7ljOszEbEe33EkZSa86n4/dJNhP3P2PmzaFfe2iXt88ZX8DYNJ5e9StBONasOCJe+33qXuNMBSVpNe2cV90HGdI0X5o5b4KSYpigmQqhMdmQiRaSo/NEXdOlnDnPYsBHTuj7hz65+74cO4sGNPrpFeuXi9qOY5T9y1NDuZ7JOUktTNuwWprien6hf06crA5dNt+/S/LoU5+FeP/7e9+qgOdTaHbdhJfRhlhnS9U/UVfaJl3z5DN6TO5HZhlWVOSjpt6se5OXkzf3xKShlRo0XqowQ63+yq0s5mSNBW11nfuuSSlQsuXngYc3+KkeVTSaBRvZBm87w2455SzDbSf5VR4wjxn+tpxlmU5hmzKsPtENdd5AXEfnDAlLhlJl4lLYNeCA+71YKNcK9wvnrfDliDxYA6QVrjvBd8qGcvZiI5Ro8zTltyxDMV4WpbV4c61Btx/Nsr584kK65x7NkaeJL8kKTmYH5D0Z6ZrwQtjAmxlfUsnL/9fJBIv/b2typzpCNU2k/gy60LazsZThAE1XET1uBcTJhgyeUJoWKxCF78d4pmO4ATrvgp94afcn9kGvtGRUqF1R8KdpCUiOFGbViHhlWvUcTbspsBAyY2BKDxouVRyLsmpkDifDdm45AzZlNFGrIoz6drFfYrdlLik3WsQ4hL8/ll8gOF4RD7WtAoPOxXP2Tlh+7gPlIy76d/VoXrghHnae4/NV9dUYb9ud8co5f58EsH5Vc69dvN8nDxLfklScjCfkSFP2zS6tpaYrpzvVPLwrlBs75U/LWn83mpk4v/t734amuTjnck1fXnzexJf5lyI9bDOF4AITLASJRfvPTL/BsgTva7iWnQvzmep9il7vFOSOtyxTrg/PQpHsuK+XiciGuYmSIj3s+LPiZBc15UmujinAGjUa8GUwnHD/b5+/LBTjpEM/Xd1MdlVvM6bZYxCd2wulVxLNcyDiCHvwjG9bX7l63HnafJLkpKD+QlFL0MZWsNnOnSyt9X47bzypyXlpp8rH/I1yyTpaFezzn/UptSxPcZv653JNV2+wT0eg77QU6zzBSDiF/AJvU6MFJMlXiZIipMl6XX1lvQ6ycXNaH8m2ImS8VbJ+Ev+VY9NqySxKW5qRWHfKt4MSCi4SsSlkvPJFPsWAOx4zi5eB5ReDwaRHJkuOWfzwJM/39XFa38vr/+La1zlSsZ3ioeayr5W7yn5SSiYBxdLr9UZw3efQ0sfOgwyKbZUcv07ZcqY+ZH86nB31OPsmmY43bdXl34dji4hM3Mbsh+91L0Hz2U/ehGKbW5riSnZvUt9x/Yo2b07NOt9Ra3aLgLO2dn4KGEA0MAX9Km3/HFpwkQlk9qdLNKqLtT7QGlS7G1jX65Z90dMmht6P0q4P9r275UoTZpLr2+Wcq4BgPqcs0u/70uvBVNVvmTxPL39HM71QHiu/7d/Z+907c+Yejs2xXEoPUZruT4vPTZfXavzwFDdz6Ol86lazqVvm1eFYtw8T35JUnIw3+OenNrZBc2QOrZHw2c6tK8lFqrtzj14rpm5Df3t0UtjkmHxziYd6WrWv3XvVrJ7V6jWVpMK66tdvrGo3IPnHBjmGLGz8SHCAAAAAAAAAACV8yX5JUnJwXxK0j1Cbo6jXc3KnOkIXbKm1Mzchmaebii/sKm/PXqp+Wc/eNoqMdm9W/HOJsX3N73697BUdu0Uv8yNRT18usEBYY77djaeIgwAAAAAAAAAUB3fkl+SlBzMD0n6irCbo60lpi9OfRiKdcAqMb+wqfzCppbXtjQz9zqx8/DphpbXd97nj3Z9oDa3Gq6tJaYjXYXEYPLwrsiNfe7Bc2VuLGp5fYsDwRzTKqzzRak+AAAAAAAAAFTJ1+SXJCUH86OSzhJ6s5zu26vPP2oLXRtEVIf1vYy0pELii/UiAAAAAAAAAKAGQSS/OlRY/+s44TdLFNog4t3mFzZ16ZsF2hya6VM7G58gDAAAAAAAAABQG9+TX5KUHMwnJE1JamcIzPPFqXZ9ltpLICLm29yqrt1dps2hmYbtbDxDGAAAAAAAAACgdoEkvyQpOZhPSbrHEJgp2b1bw2c6dKCziWCE3PzCpi7fWJT96AXBMNMtOxsfIAwAAAAAAAAAUB+BJb8kKTmYH5L0FcNgpraWmE737dX5j9oIRkhR7WW8aRXW+VokFAAAAAAAAABQH4EmvyQpOZgflXSWoTDX0a5mXTrVruThXQQjJGbmNvTlze+p9jLbkgqJrylCAQAAAAAAAAD1EzNgG4ZUqH6AoR4+3dD5ke80M7dBMELgzuSaPvv9P0h8mS9N4gsAAAAAAAAA6i/w5Jfb7mtAhSoIGCre2aQjB5sJRAjsa4kRBPMN29n4BGEAAAAAAAAAgPoz4i65nY3PqpAAg6FO9+0jCCGROrZH8c4mAmGuW3Y2niEMAAAAAAAAAOANY0pE7Gw8J+kcQ2Km/t4WghAiqeN7CIKZpiWlCQMAAAAAAAAAeMeo/mh2Nj4qaYxhMc/DuR8IQojkn20SBPMsqbDO1yKhAAAAAAAAAADvGLc4kJ2Np1WojoBBcg/WCUJIrKxvKffgOYEwT9rOxqcIAwAAAAAAAAB4K2bodqVUqJKAIR4+pfIrNGNFlZ6JLtrZ+ARhAAAAAAAAAADvGZn8ctuCpRgeABEwZmfjVwkDAAAAAAAAAPjD1Movue3BzjFEZjja9UHNr3H9L8u68qclzS+wHtXbzC9s6tvcquzHL2t6neThXWpriRFQM0xLGiIMAAAAAAAAAOAfy3EcozcwOZgflXSWoQrWneF/1YHOpqp/3378UudHvnv130e7mtXf26rUsT01vW7YFdfn+q/JddmPXhT2+e7duv7b/TW97pU/LWn83io7brCWJPXY2fgsoQAAAAAAAAAA/xif/JKk5GB+StJxhisYqWN7dOU3nTW9xvmvn71K7mx3tKtZqWN7lDq2R0cONkc+nvMLm8o9eK7bk2t6+HTjrf/P8JkOnextrek9Tl7+X3beYPXZ2XiOMAAAAAAAAACAvz4IyXamJM1KamfI/He6b1/Vv5t78Fy5B893THxJ0sOnG3r4dEPX7i6rrSWm1LE9+rfuXUp2745EVdjK+pb+9ujlqzjky2j7+OXN77W87lRdGXegs0n9va26PbnGDhyMiyS+AAAAAAAAACAYoaj8kqTkYL5H0t8ZMn/197Yqc6aj4t+bmdvQpesLZSV63iXe2aRk924d7WrWka5mJQ/vMj5mM3Mbmnm6ob89eqmZuY0dq7vKdbpvrz7/qE37KlzHi+qvwIzZ2XiaMAAAAAAAAABAMEKT/JKk5GA+LekPDJt/qlnra35hU5/9/h9aXt/yZJuOdjXryMFmxfcXEmNtLVYg7RLnFzaVX9gsVHM9e/3vXqg2CcnaX76blpSys/FFQgEAAAAAAAAAwQhV8kuSkoP5UUlnGTrvne7bq0u/rrzT5LvW9/JSvLNJB/Z/oLYWS0e7mn/0Z0XvS5TNzG1oef31MbG8tqWZuULlVjHBNf/sh5or2qpx/cK/VFz5trK+pZOX/8+zRCR+ZElSj52NzxIKAAAAAAAAAAhO6JJfkpQczOcknWD4vNPWEtOd4Z9V3GrPfvxS50e+I4AeONrVrPH//GnFv3dnck2Xb1CI5IM+1vkCAAAAAAAAgODFQrrdA5KeMHze+eLUhxUnviTpys0lgueRh083ZD9+WfHvnextVbJ7NwH01kUSXwAAAAAAAABghlAmv9z1dAZUaDOGOkt279bJ3tbKx+XxSz18ukEAPXTt7nJVv/fFqQ8JnnfG7Gz8KmEAAAAAAAAAADOEtfJLdjY+JWmIIay/ahMlt/+6RvC83u8fvXi1Blkljhxs1um+vQSw/qY5DwEAAAAAAACAWWJh3ng7Gx+VNMIw1s/nH7fpyMHmin9vZX1LtydJfvlh/N5qdWP7UZvinU0EsH6WJKXcSlQAAAAAAAAAgCFiYf8AdjY+JOk+Q1m7eGeTzn/UVtXv5h48J4A+yT14rpX1rYp/b19LTJl//wkBrB8SXwAAAAAAAABgoFhEPseApCcMZ21qSYz81+Q6AfTJ8vpW1cnG5OFdtD+sj3Nu61UAAAAAAAAAgGEikfxyqy8GVGhDhip8/nGbkod3VfW78wubsh+9IIg+uldDpR3tD2s25rZcBQAAAAAAAAAYKCqVX3KrMIYY0sod7Wquut2hRMvDIFTb+lAqtD+8cr6TIFZn2s7G04QBAAAAAAAAAMwVi9KHcasxRhjW8rW1xHTlN7UlQm5PrhHIANyuodXkkYPN+uJUO0GszJKkFGEAAAAAAAAAALPFovaB7Gx8SNJ9hrY8n3/cpgM1tMCbX9jUw6cbBDIAtSYdP0vtVbJ7N4EsX8ptsQoAAAAAAAAAMFgsop9rQNI0w/tuye7d+iy1t6bXoOorOA+fbmh+YbOm1/ji1IcEsjzn3NaqAAAAAAAAAADDRTL55VZnpFVoU4YdfP5xW82vcfuvJL+CVOt6a0cONqu/t5VAvtuY21IVAAAAAAAAABACUa38klulkWaI3y7ZvVvJw7tqeo2ZuQ3la6w8Qm3u1Zj8kuqTBI2waTsb5zwCAAAAAAAAACESi/KHs7PxCUnDDPOb6pHwsB+9JJBB7+OPXtT8Ggc6m6j+erslSSnCAAAAAAAAAADhEov6B7Sz8YykWwz1a0e7mmuu+pKkv9Uh8YLa5epQ/XW6by+BfFPKbaEKAAAAAAAAAAiRWIN8zrSkaYa7INm9qy6vU4+kC2pnP649CXnkYDOB/LFzbutUAAAAAAAAAEDINETyy63eSKvQxqzhJQ/vrvk1SHyZIzddn7FIdu8mmAUjdjY+ShgAAAAAAAAAIJwapfJLbhVHmiGX2lprH3aSX+bIL2zKfsz6a3Vy387GhwgDAAAAAAAAAIRXrJE+rJ2NT0gaZthrs7K+pduTawTCILf/ynjUwRNJA4QBAAAAAAAAAMIt1mgf2M7GM5JuNfKgzz/7oabfH8+tcuQY5vbkmuYXNgPdL0JuSdKA2yIVAAAAAAAAABBisQb93GlJ04066H97VH2LvJX1LY3fI/llomt3l6v+3fmFTeVrTJ6F3JDbGhUAAAAAAAAAEHINmfxyqzvSKlR7NJzcg+daWd+q6nev/WVZy1X+Lrx1e3JNM3MbVf9uAxuxs/FR9iAAAAAAAAAAiIZGrfySW+WRbsTPvry+VVXrQvvxS6q+DJe5sVhxYnN+YbORx/W+nY0PsecAAAAAAAAAQHTEGvnD29n4hKSLjfjZr91d1p0Kqn1m5jZ06foCR4zhHj7d0Pmvn5WdAFtZ39KlbxYatZrviaQB9hoAAAAAAAAAiBbLcZyGD0JyMD8q6WwjfvYvTrXrs9Ted/4/3+ZWde0u7Q7DJN7ZpMy//0TJw7t2/H9m5jaUubGoh083GjFES5JSrPMFAAAAAAAAANFD8ktScjDfISkn6XhDfv7u3fpVb4uS3bt1oLNJUiExYj96qfF7K8ovbHKkhNTRrmb197bqSFfzqz+bf/aD7j14rtyD540cmnOs8wUAAAAAAAAA0UTyy5UczCckTUlqJxpApI2wzhcAAAAAAAAARBfJrxLJwXxK0j0iAUTWfTsbTxEGAAAAAAAAAIiuGCF4zc7Gc5IuEgkgkp5IGiAMAAAAAAAAABBtJL+2sbPxq5LGiAQQKUuSBuxsfJFQAAAAAAAAAEC0kfx6uyFJ04QBiIy0nY1PEQYAAAAAAAAAiD6SX2/hVocMqFAtAiDchu1sfIIwAAAAAAAAAEBjsBzHIQo7SA7mU5LuEQkgtG7Z2TjrfAEAAAAAAABAA6Hy6x3sbDwn6SKRAEJpWlKaMAAAAAAAAABAY6HyqwzJwfyopLNEAgiNJUkp1vkCAAAAAAAAgMZD8qtMycH8lKTjRAIIhU9Z5wsAAAAAAAAAGhNtD8uXUqGaBIDZhkl8AQAAAAAAAEDjovKrAsnBfI+kvxMJwFi37Gx8gDAAAAAAAAAAQOOi8qsC7vpB54gEYKRpSWnCAAAAAAAAAACNjeRXhexsfFTSGJEAjLIkKW1n44uEAgAAAAAAAAAaG20Pq5QczE9JOk4kACN8yjpfAAAAAAAAAACJyq9apFSoNgEQrGESXwAAAAAAAACAIiq/apAczPdI+juRAAIzZmfjacIAAAAAAAAAACii8qsGdjY+JekckQACMS1piDAAAAAAAAAAAEpR+VUHycH8qKSzRALwzZKkHjsbnyUUAAAAAAAAAIBSJL/qJDmYn5J0nEgAvuizs/EcYQAAAAAAAAAAbEfbw/pJSXpCGADPXSTxBQAAAAAAAADYCcmvOrGz8UVJAyq0YwPgjTE7G79KGAAAAAAAAAAAOyH5VUd2Nj4laYhIAJ6Y5vgCAAAAAAAAALwPya86s7PxUUkjRAKoqyVJA26FJQAAAAAAAAAAO7IcxyEKHkgO5nOSThAJoC76WOcLAAAAAAAAAFAOKr+8MyDpCWEAanaRxBcAAAAAAAAAoFwkvzzitmcbUKFdG4DqjNnZ+FXCAAAAAAAAAAAoF8kvD9nZ+JSkISIBVGWa4wcAAAAAAAAAUCmSXx6zs/FRSSNEAqjIkqQBt4ISAAAAAAAAAICyWY7jEAUfJAfzOUkniARQll+4lZMAAAAAAAAAAFSEyi//DEh6QhiA9zpH4gsAAAAAAAAAUC2SXz5x27cNqNDODcDbjbmtQgEAAAAAAAAAqAptD32WHMwPSPozkQDeMG1n4z2EAQAAAAAAAABQCyq/fGZn4xOShokE8CNLklKEAQAAAAAAAABQKyq/ApIczE9I+oRIAJKkX7DOFwAAAAAAAACgHqj8Ck5a0jRhAHSOxBcAAAAAAAAAoF5IfgXEzsYXVUiALRENNLAxOxsfJQwAAAAAAAAAgHqh7WHAkoP5AUl/JhJoQNN2Nt5DGAAAAAAAAAAA9UTlV8DsbHxC0jCRQINZkpQiDAAAAAAAAACAeiP5ZQA7G89IGiMSaBBLklJu608AAAAAAAAAAOqK5Jc5hiRNEwY0wr5uZ+NThAEAAAAAAAAA4AWSX4Zwq2BSIgGGaDtnZ+OjhAEAAAAAAAAA4BWSXwYpSYDRAhFRsySpj8QXAAAAAAAAAMBrluM4RMFAycF8RtJlIoEImJY0YGfjs4QCAAAAAAAAAOA1kl8GSw7meySNSjpONBBSw3Y2niEMAAAAAAAAAAC/kPwKgeRgfkhSRlI70UBI3JI0RLUXAAAAAAAAAMBvJL9CIjmY75CUljQk6RARgaHGJF21s/EpQgEAAAAAAAAACALJrxBKDuZTKiTCUiIRhuDdkjQhacLOxhcJBwAAAAAAAAAgSCS/Qi45mE9I6nF/Eu4P4JXZkp8pKrwAAAAAAAAAAKb5/4zpEHHxrrwNAAAAAElFTkSuQmCC" parent="1" vertex="1">
          <mxGeometry x="270" y="240" width="231.48" height="50" as="geometry" />
        </mxCell>
        <mxCell id="-OOyH-ofbqL9iF2JBirm-2" value="" style="shape=image;verticalLabelPosition=bottom;labelBackgroundColor=#ffffff;verticalAlign=top;aspect=fixed;imageAspect=0;image=data:image/png,iVBORw0KGgoAAAANSUhEUgAABQAAAAIXCAYAAADDkPNaAAAABGdBTUEAALGPC/xhBQAAACBjSFJNAAB6JgAAgIQAAPoAAACA6AAAdTAAAOpgAAA6mAAAF3CculE8AAAABmJLR0QA/wD/AP+gvaeTAAAAB3RJTUUH4QgJBSImL8Bn+gAAgABJREFUeNrs3Xl8XWWB//HPc+9N2tItLasoIrtY2yZNCyICScoqW1uMM+6/0XF0HPcVt7Guo+M44z4zOi6jjjMapQgisrQJICJLmrRYFVlEQQTakqS0tE1zz/P7Iy2CdMly7809537er1dfVZo293zP+nzznHMCkrRTbJ9T/2gy+chiDMeSxCMC7EdgZgxxaohhS4hxaww8FmLufnLhriTZceesS3v7TU6SJEl6spZ5PCOXZ26MHEbk6QQOj3BogKcB+wGTdv4+GZgCDAGP/sXvG4D7IzwQIn8A/kieuw/Yzu0d6xg0ZUkjFYxAql19SxobCLm2HOHUCKcBc4H8KP+Z+yNcF2K8PiSsmnnZ6rtMVpIkSbXknBOZsXU7bURODDmaiCwADizjt9wB/CpATwK9wHVdvawBomtD0u5YAEo15r72k6ZMHxo8j8BLiZzD8E8eS6k7Bv63mB/6vwM61vzRxCVJkpRFpy7g+ELCuTFwDpFTgLoJ/kgPEPhphCsLOa65tpsB15KkXSwApRrxSHvzzLCD/0fgPTtvOyi3JMJPciH3kZmX3Hqra0CSJElpd/JxTK/fj6VEXgGcXsUfdTtwWQx8pauHlTgzUKp5FoBSxq2/4OTpdfntHyTENxCZOgEfIUL8aTGXf9f+P7x1nWtEkiRJaXNqI8fk4V3AS4BpKfv4dwT4j6l5vnJ5N4+5NqXaZAEoZVSEMLC0+UXAZ4DDquAjDUX4cizwj7M7ur0dQZIkSVWvbT5Pj/BuAq8H6lO+OOtj5DPM4nNdXWxz7Uq1xQJQyqDNF5x48FB+6NvAGVV40HkgCbx81iXdna4pSZIkVaPzm9lvc5HlRN5EYHLGFu/eGLm4aw3fc01LtcMCUMqY/qUL2iLhOxV6zt9YxQhfaDiQd4avdO9wrUmSJKlatCzgeSHhm8BxGV/UKwqBv7umhwdc61L2WQBKGdK3rPkdIfLPQC4VHzhy1WDdthcd1LFus2tPkiRJE+mco5m0bRofBd4O5GtksTcQ+YfONXzfLUDKNgtAKQMihP5lCz8UYvxQ+j58uC0fBs+dvmLtw65JSZIkTYSz5jB7sI5LgNNqdEDx+dPW8LblkLg1SNlkASil/Vzd3p7fVLznv2Lk/6V4MX5bTHKn7/+jW+9zjUqSJKmS2po5Kha5guzf8rv3cQWsmJ7n5b4pWMomC0ApzSfp9vb8pqF7vh7hlRlYnN8zlG9tuPyW37lmJUmSVAmLG1mUwE+AA0wDgNty9Zy98hY2GoWULRaAUkplrPzb5fcxFltmXdp7r2tYkiRJ5XRqI8fk4WfAQabxJLfEHSzuWofP6ZYyJGcEUvpktPwDODyEfFffksZnuZYlSZJULi3zeEYersHyb3dOCPX86JyjmWQUUnZYAEopk+HybxdLQEmSJJVNSyMNIce1wOGmsadBB23bp/JNg5CywwJQStN5OPvl3y6WgJIkSSqLAF+mxl/4MaKxR+CvWxt5g0lI2WABKKXlBLycXI2Uf7tYAkqSJKmkWufzauAlJjHSQQifaW1ivkFI6edLQKQ0nHeXk9u0pvnrEV5Vg4vvi0EkSZI0bq3zOI4c3cBU0xiVddumsOimm9hqFFJ6OQNQqnI1Xv6BMwElSZJUiuvqHF/A8m8s5kzZynuMQUo3ZwBK1XyRYvn3RM4ElCRJ0pi0zOe8ELjcJMZsaz7Ps6/t5g9GIaWTMwClKmX59xTOBJQkSdKotbRQCIFPmsS4TCkW+YgxSOllAShVIcu/PbIElCRJ0uj08RpgjkGM2ytaGmk0BimdLAClKmP5t0+WgJIkSRqpEAJvM4aSyIXI241BSunB0Aik6mH5Nyr3xlhs9ZmAkiRJ2pOWBZwdEq40iZIZjHUc3nUrDxqFlC7OAJSqhOXfqD0rhHynMwElSZK0JyHhjaZQUvVhiNcag5TC46ERSBPP8m9cnAkoSZKkp2hp5FkB7saJL6X2wAHH8MyODopGIaWHB0JpgkUIA2sWfNnyb8ycCShJkqSnClzkmLcsDn3kDp5vDFK6eDCUJlCEMLB0wb9DeJ1pjIsloCRJkv7ShUZQpnFMMFspbSwApYk6aVr+lZoloCRJkgBYfAL7h8hJJlGmsUxgiSlI6WIBKE3ECdPyr1wsASVJkkRxkPOAgkmUzVGt85ljDFJ6WABKFWb5V3bPCrn8NRuXnfgMo5AkSapNAdpMoczjmkCLKUjpYQEoVfIkaflXqaCPzjPUaQkoSZJUmwIsMgUzlvRnFoBShQyXf81ftvyrWOBH5xnq3NA+/+mGIUmSVDta5jAtwnEmUV4BTjAFKT0sAKUK+HP5x+tNo6LBH10YKlgCSpIk1ZBQT7Nj3YqMcY4750RmmISUDh4UpfKfGC3/JtYxloCSJEk1JGGBIVREbvsgjcYgpWSHNQKpfCz/qoYloCRJUq0IHGUIFZKYtZQWFoBSmVj+VR1LQEmSpFq4Dg880xQqIzFrKTUsAKVyXHRY/lUrS0BJkqSMC9FSqoJZH2YKUjpYAEolZvlX9SwBJUmSss0CsFJjH2cASqlhASiV8gQIYWBZ85ew/Kt2loCSJEkZdOY8pgKzTKIynAEopYcFoFQij5d/kb83jVSwBJQkScqYwUlMN4UKCuYtpYUFoFQCln+pZQkoSZKUIYVt7GcKFWXeUkpYAErjZPmXepaAkiRJGVHMMcUUKsoCUEoJC0BpHCz/MsMSUJIkKQvX5xaAlTapvZ28MUjVzwJQGuvFheVf1lgCSpIkpVy+aAFYaet/ZeZSGlgASmNg+ZdZloCSJEkpVgxEU6is6ZNJTEGqfhaA0ihFCANLmr9o+ZdZloCSJElpHeBGHjOFyg6PLu9mqzFIKTg+GoE0irPbrvIv8AbTyDRLQEmSpBQaKlhGVdi24WGSpGpXMAJpZCz/as6uErD1gI41fzQOSZKk6pdLLAArzBmXE+zURo7JQ2ual2FwK/974x086tosLwtAaQQs/2qWJaAkSVKK5IfYmjjKrSQL14ne5iPnEfjXNC9D3RSuBgvAcvMWYGkfLP9qnrcDS5IkpUTxAAbwltRK6jeCiRUCh5uCRsICUNoLyz/tdExhqNC5/oKmQ41CkiSpenV1sQ1YbxIV8wcjmHAWgBoRC0BpDyz/9BeOqcvnLAElSZKqn6VUpcZM0awnfB0EnmkKGgkLQGl3B1HLP+3esZaAkiRJVS5YSlUs6sB9pjDhg1dnAGpELAClpxw/Lf+0V5aAkiRJ1Xw976w0s64RZ85jKrC/SWgkLAClJ57ALP80MpaAkiRJ1esuI6iQvFlPpGLe2X8aOQtAaSfLP42SJaAkSVJ1jnK7DaEidmyfxBpjmNAxrAWgRnFolGT5p7GyBJQkSao2M+gFdhhEeQX45U03sdUkJk6S+AIQjZwFoGpehNC/dOEXLP80RpaAkiRJVaSri23AOpMo+zjqNlOYWCE4A1AjZwEoD5oQQ4ibTELjYAkoSZJUXdf4llPlZ8YTLMKzTUEjZQEoAQ2XdL+PwD+ZhMbBElCSJKlaBFYZQnkVodMUJngzjxxvChopC0BpJ0tAlYAloCRJUjUMdHP8BJ8DWE6/ur6XO41h4jQ3U0fgKJPQiI+LRiD9mSWgSsASUJIkaYJd280AgRtMojxi5DJTmFgzhjgWqDMJjZQFoPQXLAFVApaAkiRJEyxELjeF8sgFs51oMeftvxrlfmsE0lNZAqoELAElSZImUmAFkBhEyf1x/2O42RgmevO2ANToWABKe9BwSff7gE+ahMbBElCSJGmCrOrh98CVJlFigf/s6KBoEBPMF4BolCwApb1oWNH9XiwBNT6WgJIkSRPny0ZQUjsK8DVjqArPMQKNhgWgtA+WgCqBY+vyuVWWgJIkSZXV2cuVAd9WW0I/uKaHB4xhYi0f7nKONQmNhgWgNAKWgCqB4ywBJUmSKi7iLMDSSficIUy86+ZzPDDFJDQaFoDSCFkCqgQsASVJkips/x18GbjbJMYp8sPOtb78o0qcaAQaLQtAaRQsAVUCloCSJEkV1LGOwQgfMolx2VEMvNcYqkSwANToWQBKo2QJqBKwBJQkSaqgrl6+C3SbxBhF/uP6Xp+lWEWeZwQaLQtAaQwsAVUCloCSJEmVE4G3AEWjGHVyD8YCHzGI6nDmPKbiG4A1BhaA0hjtLAE/ZRIaB0tASZKkCuns5cbgD/FHKxL4265uNhhFddiRZyFQMAmNlgWgNA4NK7ovxhJQ42MJKEmSVCFJA8vBF1mMWOQLnb1cYRBVtU58/p/GxAJQGidLQJWAJaAkSVIFdHUxRMKrgEdNY5/WbtuPi42hyvgCEI2RBaBUApaAKoHj6vK5VVuWNT/NKCRJksqncy13hIQlwKBp7NEDIXDBTTex1SiqTPQFIBobC0CpRCwBVQLH7Yh0WgJKkiSV16q1rAL+huGXg+jJNhF44aoefm8U1aV1PnMA7xrSmFgASiU0c0X3ewN8ziQ0DpaAkiRJFdDZy3eBD5jEE0S2Rbiws4c1hlGFqyfH2aagsbIAlEooQJyxovttloAaJ0tASZKkCujs5RME3gIkpkFfLnJmVy9dRlGlImcZgsbKAlAqMUtAlYgloCRJUgV09vD5EHkRkW01HMO9Mc/zV67lBreI6nTSSUwJ8AKT0FhZAEplsKsEjPB509A4WAJKkiRVwKo1rIiBc4CHa3Dxfx7rOKmrm9+4JVSvSds5DZhiEhorC0BVvQjhgfOb90vb5w4QG1Z0vzVGvuBa1DgcNxi5dvMFJx5sFJIkSeXT1UvXUOC5wGU1sshDIfCpTXlaum7lQbeAKpd4+6/GxwJQVS1C6F+24PP7Fbi+/9y5s9L2+QPEhku73+JMQI1zO3rOUH7oOmcCSpIkldcNPazv7OVCAq8CNmd4oPWbGDhpVQ8Xd3ezwzVf/XJYAGrc25BUreek4fIvxPBGoJn6+mtSWwKu6H6rJaDGyduBJUmSKqSzh2/FhOOBrwDFDC3aIzFycZxFU1cPt7mm0+H0uRwZ4XiT0HhYAKoq/UX5t4sloGqdJaAkSVKFdK3l/s5eXkdkfoAfp3xxBol8PsJRXWv4VFdXTb/wJHWKBV5mChqvYASqNhFC/5Lmz4XAm/bwJd0MDp7RcMXtfalctqXNnw3wZte0xuE3dYG2qZd0/8koJEmSKqOtkedHeCNwEVCfko99f4j8Z1LPf/mcv/RqbWQd8JwMdwBHdPVyr2u6vCwAVW07/r7Kv12b7k3Fbfmz97/y5k2pXEZLQI2fJaAkSdIEWPxcDo55XhsDfwMcWYUfcYjAypDwn8ksLu/qYsi1ll4tTSwMkVsz3gNYAFaABaCqaacfYfn3+OZrCahaZwkoSZI0gU6fy5FDec4P0A6cxMQ9ZusRYCWBH+8Y4vKf3U6faycbWhr5twBvzXgXYAFYARaAqpYdfpTl3+ObcLpLwDEts/QkloCSJElV4Mx5HDQEJ8bAohhYGGARcEAZvtUQ8Esi3SHHbQncduDR9HR0ZOplJQLa28lv+C33Ezgk432ABWAFWACqGnb2cRZhloCqeZaAkiRJVeiMJg4dihwRA4eFyGEx8MwQORiYBRSA6cBkYArDxd6jwHbgsZ2/+oj8PgbuC5H7cjnuK87kHl/iURta53MWgZ/WQCdgAVgBFoCa6B29RAWYJaBqniWgJEmSlCGtjXwHsv8GYAvAysgZgSZwJy9h8RVPyk8u/nTjOSfOSFsOAWLDpd1viZEvuFVoHJ69I7Jqy7LmpxmFJEmSlG5nzuMgIheZhErFAlATojyz3iwBVfMsASVJkqQMGMzx9wQmm4RKxQJQFff4G3DLcsurJaBqniWgJEmSlGLtc6gP8HcmoVKyAFRFPV7+wZvL+F0sAVXrnr0jsmpz+6JDjEKSJElKlw0FXg4cahIqJQtAVUxlyr/Hv9tJuSk7rrQEVA179tBQ0mkJKEmSJKVHezt5Au8xCZWaBaAqorLl37AQw/NTXwKG+EW3Ho2DJaAkSZKUIhvv4sXAsSahUrMAVNlNRPm3y64ScP0FJ09PW24BYsMlq99sCahxsgSUJEmSUqC9nXyMfMAkVA4WgCqriSz/dgkxPL9Q2PpTS0DVMEtASZIkqcqt/y1/CzzHJFQOFoAqm2oo/3axBJQsASVJkqRqdeY8pobAh0xC5WIBqLKopvJvF0tAyRJQkiRJqkZDOd4LPM0kVC4WgCq5aiz/drEElCwBJUmSpGpyaiPHRHinSaicLABVUhHCpqXN/1aN5d8uloCSJaAkSZJULfLwZWCSSaicLABVMrvKvwhvqfbPagkoWQJKkiRJE62tkdcCp5uEys0CUCWRpvJvF0tAyRJQkiRJmigtjTwrwmdMQpVgAahxS2P5t0uI4fmF/LYrU10CEr7kVqhxePbQULLKElCSJEmqnPZ28gH+G5huGqoEC0CN28DS5n9KY/m3S4CTU10CrrjtTZaAGqfjLQElSZKkytlwJx8BTjUJVYoFoMalf2nzJ4H3pH05LAElS0BJkiSpElobeSFwsUmokiwANWZZKf92sQSULAElSZKkcmpp5tnAd7CPUYW5wWlMslb+7WIJKFkCSpIkSeXQ0swBocjlwCzTUKVZAGrUslr+7WIJKFkCSpIkSaV08nFMD0WuAI42DU0EC0CNSv/S5n8iw+XfLpaAkiWgJEmSVArnN7Nf/RQuA04wDU0UC0CN2M7yr2YeVGoJKHH80FBy1abzmw8wCkmSJGn0TjqJKZuL/AhoMQ1NJAtAjUitlX+7ZKEEJPJlt2CNw7ykwEpLQEmSJGl0WhppmLyVnwKnm4YmmgWg9qlWy79d0l4Czry0+42WgBonS0BJkiRpFM5o4tAA1wGnmoaqgQWg9qrWy79dLAElS0BJkiRpJFoaaRyK/ByYZxqqFhaA2iPLvycLcHJ9fttPLAFVwywBJUmSpL1omc/LA/wcONw0VGW9gPRUA0ubPxPh7SaxO/G6bVuGzj3k6rVbUvfJIQwsbf5P4LV7+bKHIf4awp0RHsjFsD7mkvXEkMQQthMJuRCnxiROC/C0GHgmkWcSwnMB3xhbG9bkhjh9xuXdG4xCkiRJGn7Zx+TH+CSBN5vGqMepR3T1cq9JlJcFoJ7C8m9Eh6jslICRHkK4Nsb487qkcNO0y25+aKz/9ub2RYcUi0lzjLQAbUAjzjTOKktASZIkCVjcyKIEvgMcaxpjGqNaAFaABaCexPJvVIeptJeALyomuV/s/6Nb7yvX99myrPlpQ/AiIi+OcLLHnMyxBJQkSVLNOr+Z/bYk/GOMvBPIm8iYx6cWgBXgYFyP61/S/C8E3mESo9K1bcuO89JYAlbapgsWHhfz8e8jvApoMJHMWJMjv3jGils2GoUkSZJqRdt8lsbAvwLPMo3xCXmOXtXN3SZR5pyNQAD9y5o/QeS9JjGmnehn2wvbzjmoY91m09i3h9vnTKvbMfk1IfBe4GATyQRnAkqSJKkmtDSxMET+BTjNNEqjmOM516/m1yZRXhaAcuZfaTgTcJQ2nnPijPzkofcCbwMmmUjqORNQkiRJmdU2jwXk+GCEC7FLKa2E53Wu5WaDKC832hpn+VdSloBjMHBR4zGxmP8CgbNMI/V6c+RPtwSUJElSViyeT2sMvD3CudihlEWAt63q5bMmUfacVau87bcsO5S3A49R39KFrwzELwHTTCPVvB1YkiRJqXbycUyvm8xLQ+CNwHNNpOweiTle1rKaq5dDYhzlYQFYo/qXNn8aeKdJlEXXY0Oce+jl3Y8ZxegMXNR4TEzyPwDmmUaqORNQkiRJqbIcctc10UrCqwgsA6aaSsVtCvDHCI6l9yLWcV7XrTw42r9nAViDnPlXfs4EHMfB7P+1TO7v3/SVEMIrTCPVnAkoSZKkqtbeTn79bzkpQDuBi4Cnm4qqXT7P4dd284fR/j0LwBrjzL+K6nxsiPOcCTh6EUL/suaPhMgHTCPVnAkoSZKkqnJ6M88cKnJmDs6KsBiYZSpKEwtA7ZMz/yovwA3bC9te6EzAsRlYsvCNMcTPATnTSC1nAkqSJGlCtLQwOdfPAuCECCcAJwJHmozSzAJQe9W/dOE/Q3yXSUwIZwKOa9ttfj3wZY9XqeZMQEmSJJVVSzMHEDk6V+T4GFjIcNk3D6gzHWWJBaD2qH/pwo9DfJ9JTBxnAo5zG17S/F4CnzCJVHMmoCSNd3DbSAMJ0wJMpcC0GJmVKzKFHJN3fU0cHuhO28M/sTnAjse/NlKMOTbli2xPCjwWA1sKgwzGKQzkt7Ht6rVsMXVNlNZ5HBfzHGYS1e3Ao+ns6KBY0WNhM88ORRZEOCbAscDRwDF4K69qhAWgdsuZf1Vl1WNDnO9MwLEZWNr82QhvMYlUcyagJD1Bezv5h37NoXU5nhXzPCsmHEjg4AAHRTiQ4V+HALPZc6lXToNAH5G+GOgL0Mfwr4eJ3B8DD+UC98UiD9XB/RaGKqW2+fxvDPy1SVS3aXmmXt5d2Te2tjbxQyLLTF+1aqwFYMHosmvnzD/Lvyq6jpla4KcPt89xJuAYzCgc+Y6Bod8dB/Fs00itxoTiyk3nNzsTUFLNaGmhkO/jyAhzYuDZAY5N4PAAz9pwJ8/IF6hLACKP/2g+Vs/HrwcO3llKPlkY/rgxArnhaYWtjWwA7gbuiYG7idydg9/m8qy7tpsBtwaNRhI4ytkqklQ6HlMzypl/Vc2ZgGO0aekJ+ycUbwOeZRopFunJhfwZzgSUlDWnNHFgHSyMsJDIXOB4hm9Pqzcd/hBhXYDbgTUxxy1dq7nLWLQnOwvl/U2iujkDUKo8bwHW43zmX/XzmYBjt+nCRc9Pcsn1QN40Us3bgSWlWksLk8MAJ8aE5+UCCyMsAg43mVF5hMgtwC0BbkyG+HnXOrw2Eqc3M7NYpN8kqp8FoFR5FoACLP/SxBJwHNv5sgWfIoZ3m0TqWQJKSo2TTmLKfo/xvARaCLQw/HbJSSZTUkNEbgs5rkugNxcr+2IB7V6ELZ29/KSS37NtHgtijm7Tr34WgFLl+QxA7SxFoqVIei6mTqkfmnLpA+c3X+DtwKMzc+umfxyYPHMpw2/7Uno1JrF4zUD7SafP7LjpEeOQVG1aFnB0KHI+cC5beUESLPzKrEDgeTHyvEBVPQux1t0LHFHR75jjKGOXpFIfWpUJ/UsXftwZUWkUF+98Mcg0sxi5cOVd23PEt5tEFlYmTXFocOWmpSf4jB9JE669nXxrE6e1NPLp1kZ+ExLuJPCvBBbjbD+pktcHFoCSVGIWgBnQv2zBp7ztN712zQS8r/2kKaYxcjNWrP4xsbK3o6hsGhOKVw+0nzTbKCRNhNb5zGlr4pMb7uQ+Il0B3gkcZzLSBF0fR440BUkqLQvAlOtfuuBjzvzLxGXO4ulDO5wJONrU8uEDeIdQVixwJqCkSjp1Ace3zOefWhv5HYFfxsh7gKeZjFQFnAEoSSVnAZhi/UsXfAzC+00iK+Kp9UNTrnjwzHlTzWJkZv3wtp4IV5hEZjQmFK+1BJRULu1zqG9rpL21kWvyCetC4GLgWSYjVdtlsTMAJanULABTqn9p8yct/zJ5tXPq5P0K3g48Cvkk90+mkCneDiyp5NqaOaptPv+yoY4/Rvg+cDoQTEaqPs3N1AGHmYQklZYFYAoNl3+8xyQyKoTTpxcHP2gQIzPjR7f+HOg1iUxZEIcGr7EElDRep86nqXU+34pFfhMD7wAOMBWpuk0t8iwgbxKSVFoWgCnTv7T5n7D8y74kWWkIoxDjvxtC5lgCShqzlvm8oK2Ry/OB1QReARRMRUrJADXn8/8kqSzHVyNIj+Fn/nGxSWTe72c29nQaw8gldeF7wHaTyBxfDCJpVFqaOL21kVtD4IYI55mIlMYLOwtASSoHC8CUGJ755zP/asT/heUkxjByszu6ByJcaxKZ1JhQvLr/3LmzjELSnrTO48TWJlaGyDXAQhOR0isEXwAiSeVgAZgCO2/7deZfjUiS6FttxyT+0AwyawH19ddaAkr6S4vnc2xLE5eR4xdE2kxEysIlnTMAJakcLACrXN+y5o9i+VdTq3zWwIybjGH0ioXi1aaQaQuor1/l7cCSAM5vZr+2RpYngbUhcr6JSNnhDEBJKg8LwCrWv6z5EyHyAZOoKV2hq2vIGEbvgI41fwTuNIlMa0woXuVMQKm2tc3j/M1Ffh3hQ8AkE5GyJUaOMAVJKj0LwCrVv6z5E0TeaxI152YjGIfA9YaQec3U119jCSjVnrYmDm9t5JqY4zLgmSYiZU/LIg4BppmEJJWeBWAV6lvW/FHLv9oUyf3CFMYuwBpTqAnN3g4s1ZbWJl4ZI7cDp5uGlOFruR0+/0+SysUCsMr0LWv+qLf91vBFz+C2taYwdgmJBWDtaEwoXmsJKGXbqc/lsNZGriLy38B0E5GyfjFsAShJ5WIBWEX6ly78uOVfTetruOL2PmMYu0Is/sYUaorPBJQyrGU+5+UL9AJnmoZUG0L0BSCSVC4WgFVi+G2/8X0mUcviXWYwPtNWrF0PbDWJmtJMXf1KZwJK2dHSQqGtkeUh8CNgtolINcUZgJJUJhaAVcCZfwIIhAdMYbwZEgn80SRqbsU3ORNQyoZTn8thoZ/rdr7h1+tUqcZEnAEoSeXihdUEc+af/nzBEx4xhZIEaY61yZmAUsq1zuPEfJ5bgOebhlSznAEoSWViATiBnPmnJwpEn/9XGluMoGZ3oqYkJj91JqCUPi1NvIgcqwgcYhpSjR4H5jANOMgkJKk8LAAnSP/SBR9z5p+eKAa2m0IJcrQArG0hLqRu0tWWgFKKBv2NvCVEvgfsZxpS7cpP4kggmIQklYcF4AToW9L8EQjvNwk9SfSCpxRC9LjmRhAXUle/cqD9JF8eIFWx5ZBrbeQrAT7rNamkWPT2X0kqJy+2Kqx/6YKPhcAHTUK7YQFYmhTrDEEEmuKOHVf1LWlsMAyp+rS3k7+uka8DrzUNSQBJzheASFI5WQBW0PBtv8780+5FwjRTKIUwyQw0vCnEhYHCNZaAUnU552gmrb+TDuBVpiHpz6dtZwBKUjlZAFaIt/1qBBc9B5hCKUQfHq0n7lgLA/lV3g4sVYeWFiZvm8aPAyw1DUlPPmc7A1CSyskCsAL6ljV/1Nt+NYKLHgvA0jjYCPQX+1ZTHNr+U2cCShOrvZ186OM7wOmmIekpnAEoSWVlAVhmfcuaPxoiHzAJ7VOIhxvC+Dx45rypgG9/1e52sEUh5K62BJQmxnLIbbiTbxG4yDQk/aX2dvLAM01CksrHArCM+pY0f8TyTyMWOSK2z6k3iLGbvF/h2aagPQuLvB1Ympid77omvgy81Cgk7c5Dd/BMwOtgSSojC8Ay8bZfjUF+89Akb30YzwgTjjcF7WMj8XZgqcJaGnkfkdeZhKQ9Dkrz3v4rSWU/1hpB6TnzT2OVRJpNYewiodEUtG/eDixVSut8lgX4iElI2uuZOfoCEEkqNwvAEutb2vxhZ/5prCLhJFMY1xHtBYagEQ41vB1YKrNT59NE4Fteb0oaAWcASlLZh8sqmb4lzR8J8I8moTELnGwIY3Nf+0lTiDSZhEaxv3k7sFQmLYs4JB+4DJhqGpL2fUp2BqAklZsFYIk4808lMm9D+/ynG8PozSgOtuHDozX6IceiEPIrnQkolc5yyLGDbwHPMA1JI+QMQEkqMwvAEuhb2vxhZ/6pREJhR/5cYxi9GOP5pqAxWhCHBq+xBJRK47pGLg5whklIGvF1nDMAJansLADHyfJPpRcuNIOxxOYLQDQuC+LQ4JXeDiyNT+s8TgSWm4SkkWpp5gBgpklIUnlZAI6D5Z/KInDmlmXNTzOI0UnyvBi4xyQ0Did4O7A0dqc3M5Mc3wfqTEPSSB14JH0h8EIi3wY2m4gklYcF4Bj1LVu43PJPZVLYkYRXGMPozO7o/kNSoJXA70xD4+DtwNIYFYf4DPBMk5A0Gh0dFFf1cGXnGl4ZGzgwJFwAdACDpiNJpWMBOAZ9S5s/HGL8kEmofHtmfG1sb88bxOjM7uj+Azvyi4Hfm4bGYUEcGrzykfZmb0eSRqhtHm0EXm0Sksajq4ttq9ZyeWcvL45wMIFXBfgxUDQdSRofC8BRcuafKiJy9MDQPcsMYvQaLr/ld0mBU50JqHE6ITfEKmcCSvt25jymxhxfBYJpSCqVrl76O3v41qpezg+RwyO8FbjRZCRpbLxQG4W+ZQuXO/NPFbRm5orupgDRKEbvkfbmZ+aKdBE5wjQ0DqtDof6MmR03PWIU0u61NfLZCG8xCSmz7u3srZ7rqVMXcHwh4a+Al0Y4xtUzsablmXp5N49V8nsuXsC8YuSgaskgJORjjmeEyDLghW4Voxfh5QQeMokRmsnPurrYNupt1eRGxvJPE3IgDHHZrEtWrzCJsek//4QjKBQ7gcNNQ2O/quPmJM9Zszu6BwxDeupAPJ+wBl/8IWVZVRWAT9Q6nzkhxytiwqsIHOKqqryJKACrWWsTnyHydpMY5bgXjujq5V6TKC9vAR4Byz9NlBDDv8Rzjp5kEmPj7cAq0RXJid4OLO1ePvJvWP5JmiCda1i3qoeLT1vD02PkFOArwCaT0YSN3xL+1RRUtdunEeyd5Z8mXnx3w4rVnzaHses//4QjyBe7CL6dUuM6YzoTUHqClvmcFwKXm4SUSpuA9cAGYCORjTGwMRfZSI6NCawnsiEpsjE3mfVdt/Jgao5NLUzOPcIZMdBO4CJgP1d3+TgD8KlaG9kETDeJUYx4nQFYoeGM9sjyT1XisZArNs78Ye+dRjF2PhNQJeIzASWguZm6GUV+CRxrGtLEX+YAGyJszMHGCBsJw6Ve2FnkkWNjTNgY69n4aMLG7m521EIwLY00hMAFIdIe4Wyg4OZSWhaAT9XayMPAgSYxchaAlWEBuAeWf6qyXfWmmYUjTgkdHUWzGMfVsSWgSsMSUA5u5vNqAl8ziaqwA7gjBn4XIn8K8Kck8qdc5IEQ2Jzkh2+HzO+g74l/qVjHLIAYmRUik2LkGQEOJXA48PQAh0c4Ch8ZVEkJO2fjEdgIw78iTyjyAhtjZGOSZ+PkITbOPI6NHR14fTgCbfN5epLjr3ORl0VoMpHSsADczTmykfuAZ5jEyFkAVqhVMIKnGliy4EMxhOUmoSrz3oYV3Z80hvHpv2jRkRSTTm8H1jjPnt4OrJq1c/bfHeAPUybAIPAL4MYQuD0E1s3ezm861jFYjm928nFMr5vM/JBjQYg0RXg+zvocz8DrO0nkfnJsILIxlwzfbhsTNuYms2HlLWw0pcpobWI+kXcDL3FMPD4WgLvdvv5A5DCTGDkLwIqdh/SkcmBp83sASxZVoyQQz525YvVPjWJ8+pY1HR7IdToTUOPUzeDgGQ1X3N5nFKolLY38bYCvmkTF9AJXE1k1rcANEz3QblnA0SHyQuCFJJxGYLKraMS+1NnLG42heixu5IwEOoCZpjE2FoBPZQE4ehaAlWEB+ATO/FMKbIixuGjWpb0eHMfJmYAq0VnUmYCqKe1zqN9Qxx3As0yjrO4N8D8h8N2VPfyqWj/kyccxvX4KLwH+Dmh2tY1gkBto7+rhByZRPVqaWBgiPwMmmcboWQA+lQXgGI6NFoAV4TM9dpUBS5vfY/mnFDgghPzVmy848WCjGJ+GH956T8wlpxL4nWloHFcrJ+aGWNl/7txZhqFasL7Ai7H8K5ckwopcwqmdvRy5qpcPVHP5B3DjHTza2ctXOntZGBKaga8A212VexYiXz19LkeaRPXo6uE24B9NQlLWWQDibb9KnWOG8kNX9S1pbDCK8Zl1Sc/vI0mrJaDGqZn6+mssAVULQuBNplByO4h8OxeY29XLspVruQGIaVuIVWtZ3dnL64pDHMNwETjkqt2thmKe77XPod4oqse0PF8ENpiEpCyr+QJwYGnzP2L5p/SZT8j/2MJh/GZd0vN7Qu504D7T0Dg0U1//k0fam32GkDJrcRMnASeYRAkFLolwbOcaXlnts/1G6vpfcl9nL6+LeeYGuNSVvFsLN9TxUWOoHpd385jbq6Ssq+kCsH9p83sifNjNQOkcM3ByrK//2cYLF/l8iXFq+OGt98SQnOJMQI3T87wdWFmWRN5qCiVzN3BuZw8XZfWZR13d/GZVL0sDvBhnVu3OO1sbOdkYqugYF1hpCpKyrGYLQG/7VRYEeE4+l9yw6aLmZ5vG+Hg7sErE24GVSac08zRgqUmMWwJ8Ijbw3M5eflILC7yql45Yx1zgMlf/U8ZhXznnaF88UTUivzEESVk/8dSc/iUL343ln7Lj8CTh5oGlC//aKMbn8RIQ30ClcbEEVObUFXkZUGcS47IxBM7r7OX9XV1sq6UF77qVBzt7uTDAuxguQTXsOVunstwYqsNQkd+bgqQsq7kCsH/JwncT4qdc9cqYGZH4v31LFnzrgfOb9zOOsZt1Sc/vY0hasATU+FgCKlsCrzSE8cRHT77ICat6uLKWc1jVy7+EyIuAx9wqdm4bgXcubmSRSUy8wv48agqSsqymCsCBZc0ftPxTti8iwyv2K3DTwIXNJ5rG2M26pOf3RHwxiMarmfpJV2w858QZRqE0a2liYYzMNYkxnpvhx0kDz7/2du4xDVi1hhUktAHrTQOAQgx8raWFglFMrK4uhoAdJiEpq2qmAOxfsvDdMfIRV7lqwLyY46a+JQu+tfmCEw82jrFpuLT77hiSU3AmoMYlnpSfPLTKmYBKuVcZwRiPALBi/x1cVGu3/O5L51puDglnA5tMA2Jkbm6A15pEtey2kpRNNVEADixp/oAz/1RjQgjhFUP5od/0L13wrvUXnDzdSEbPmYAqEWcCKrWWQy4kvMgkxqTj0Tx/1bGOQaN4qlVrWR3hQqLlKECMfOysOcw2CUlSuWS+AOxfsvDdMfBRV7VqVAOEf67Lb/tj39Lmz62/oOlQIxllgM4EVGmGdiflJxd/agmotLmukZMIHGISo93l+ekBx/CS7m5vJ9ybrl66gJfhi0EAZg/W835jkCSVS6YLQGf+SY+bHuDNdfncz41i9J4wE/B+09A4GgFLQKVvq4UlpjBq9+Ym8fKODopGsW+da7gE+KRJAJE3Lp7PsQYhSSqHzBaAzvyTdssHTI/RzpmAL8CZgBrf6M4SUGm7ULzQFEZlc7HIBStvYaNRjOLI2MCHiPzCJKhPAp82BklSma7rsqd/6cL3O/NPql5pLT9mXdLz+1CMZ+BMQI1vqGsJqFRY3MRzIhxjEqPYuyN/e/3t3G4So9PVxVAx8lJgwDS4YHEji4xBklRqmSsA+5cueBfEj7lqpSo+8EwZem3/kua/T+Nnn3nZ6rucCagS1ASWgKp6xcgZpjByAS7tWsP3TGJsrl/L7wK8yyQgCVxsCpKkko/Ds7Qww+Vf+GdXq1Tlg6RIIPCl/qXNr0/j5591Sc/vYyy2YgmocbEEVJUfq6HNFEZsSwJvM4bxObWXrxFY7emBpYubeI5bhCSplDJTAFr+SWkcW/Ll1JaAl/beawmoEozyLAFVldrbyQOnmsSIT2gf6Or1fDBeyyEJRWcBAiGJvNMYJEmllIkC0PJPSvOYyRJQtc4SUNXnkTtZADSYxIj8Mmngi8ZQGqvWsgr4iUnw8lOfy2HGIEkqldQXgJZ/UupZAkqWgKoyCbSYwgj3XvhkVxdDJlHCC4PIh02BukKBdxiDJKlUUl0AWv5J2bnWxxJQNc8SUNW0OXKiIYzI72jwxR+ltmoNtwC3uBvympOPY7pbhCSpFFJbAFr+SZljCShZAqp6jsiLDGEEeyx8xtl/ZdoEg7dVA9PqpvBXxiBJKoVUFoCWf1KGh5wpLwFDMZ4B3O+q1NhZAmpindLEgcAzTWKfNkzP8w1jKI9Jj/J94CEvjHitW4MkqRRSVwBa/km1cK2b3hJw5mWr7wrF2Ar80VWpsYsn5absuNISUBOhDhaawoh8//JuHjOG8rjyLrYT+B+T4ITW+cwxBknSeKWqAOxf2vxOyz+pJqS/BMwVLQE1vp0ghudbAmpCJDQbwgj20eCz/yrgMiMA8DZgSdL4paYAHC7/+LSrTKqdsRXw5f5lC1+Xxg8/84e9d1oCatw7gSWgJkAMHG8K+/TAqT38zBjK64Cj+RmwwZMBL3VrkCSNVyoKQMs/qYYveWP8d0tA1fROYAmoyh95n20Iexfh+8shMYny6uigCPzEJDiqbR4LjEGSNB5VXwBa/kkORS0BVfM7wc4ScP0FJ083DZX/mMtxxrB3+YRLTKEyYuByU4CY5zxTkCSNR1UXgJZ/kv48ILUEVI3vBDE8v1DY+lNLQJVTWxPPBKaaxF5tL87mVmOojGKOG00BSDjHECRJ41G1BaDln6S/YAkodwJLQJV9G+NYU9i7CKu7uthmEpVxQzd/Ah5w5+SEU5o40C1CkjRWVVkAWv5J2uPlb4xf7lva/Ko0fnhLQJVkJ7AEVBkVA880hX3sg4GbTKHinHEJuTwsNgZJ0phPJNX2gSz/JO3ruBXg65aAqmWWgCrbATZymCnsQ+ItqZU/5nGbKUCInGIKkqQxX+dV04ex/JM00mOXJaAcCFoCqvQiHGoK+8gocospVDjzQI8pQAgWgJKkcQyiq+WD9C1rfgeWf5JGcfyyBFTNDwYtAVViEZ5hCnu1tWutx+0J2DDvNQSIkTkvmMssk5AkjWkAXQ0fom9Z8ztC5F9cHZJGewyzBFStswRUSbcneLop7DWfe4FoEpU1uI0/mMLwdU9dgQXGIEka00lkoj+A5Z+k8R7HLAFV6ywBVUK+ZXQvIvzOFCrvxjt4FOg3CSBhviFIksY0cJ7Ib275J6lUxzJLQNU6S0CVRPT2wn241wgmjLMAAQLzDEGSNKZB80R9Y8s/SaU+nlkCqubHhZaAGodzjmYSgckmsVf3GsGEud8IIGABKEka44B5Ir6p5Z+kch3TLAFV84PDGJ5fyG+70hJQozU4mQZT2Mf+FXjQFCYqfB41BIhwjClIksY0WK70N7T8k1Tu45oloBwnc7IloEarOMnbf/clwmOmMEHHtchWUwBg2ilNPqtTkjSGgXIlv5nln6RKHduyUAIGeMBVqTEPli0BNdptJjLVFPa5X1kAThDL1z8rFDnSFCRJox4kV+obWf5JqvTxLfUlIHlLQI2LJaBGddCM1JvC3llCmX1VZJHnCFOQJI36Wq8S36RvafPbLf8kTcQxbrgEXPjKNH74GStu+a0loMbLElAjFaHOFPaZ0RZTmKBjmbcA//niJnKIKUiSRn3+KPc36Fva/PYAnzFqSRN1nAtES0DV9sDZElAjYAE4gn0psYRSVTjACCRJox4Yl/Mf71+64F2Wf5KeMsgMxAp/y3wgfn1gyYKXpzGvGStu+W0ohrYIfxrhX3kE+CWElUBHgP8mhK8QwleI4XuBeBmEmxh+0UjRLbI2BDi5Pr/tiofb50wzDe3h2GwBuA/FPIkpTNhBzGPXn/dVC0BJ0qgVyvUP9y9d8C4I/2zEkqpEPobwzYElC5h56ervpO3Dz7jstjs2XdTcVkxYFeBpT/ij+yH+LMTcjUkIt+eHknUzLu/eMOJBREtLoW/mo8fnQ5xPYEEknAo0MQFviVcFBo1wSv3QlCsebp9z7kEd6zabiJ6kSIFgDPvIaLIhTBgLwF0SC0BJ0uiVpQDsX9r8TsDyT1K1SXcJ+MPu32y6qLktKfJZAp25HD+a8cPu34zn3wxdXUPA7Tt/fQeg/9y5s6ivPx14EYFz8c2gGRNPtQTUbo8HsMMU9nHhHJhiChPGAvDPPC9LkkZ/HVPqf3Bn+fdpo5VUpVJfAgJnl/N7NFxxex/QAXTc137SlGlDgy8Ogb8ncqKbT1ZYAmo3cmyr+AMa0rbnWABOZPbTgtvnriwmmYIkafSXeiVk+ScpJXaVgC83ir07rOOmrbNWdP93wyXdzyOXLCJwKVgRZGQIeWr90JQrHjxznjNJNKzINkPYu1BkP1OYoOzh6abweBYWgJKkUStZAWj5JyllLAFHqeGHPbc1XNK9NMbcAohXmkgWxFMnT63/iSWgAGKO7aawzyvnQwxhojZQjjKEx9UbgSRp9JcxJdC3tPntWP5JGqEQq+Yx88Ml4LKFr3CtjNysS2/tbVix+oVJEi8A7jGR1I+qT500te6q9RecPN0savzYnLDVFPaxt0QOM4XKW/xcDgZmmsTOfRXypiBJGq1xF4B9Sxe+LcBnjFJSSuVjjN+wBBy92T9affnMmdPnAJ8CEhNJ9WDy5EJ+25WWgLXNGYAj2FeCBeBEKOY5xhSesK9G91VJ0uiNqwDsW9b8jkD8V2OUNKoL11B1z5AbLgGXLniZa2eUg+Fvdm1rWNF9MYSzI/zJRFK8LuHkuvzWy70duHbVJzxmCvs4fzkDcKJGLMcZwpMO2IOGIEka/el0jPqWLnxbiPyLEUoa9XVr9dwC/ET5SPhvZwKOTcOK264ZKiYLgV+YRqr3ztOmTK37qTMBa9PM49gIFE1ir1fOxxrCBMQeeYEpPIkFoCRpDJcxY+DMP0njUYUzAHfZeTtw80tdS6N34GU9D8zcNtASCd8xjRTvn/ACZwLWpo4OisDDJrHXHeSwM+dxkEFU/LjUYgpP4i3AkqRRG3UB6Mw/SeNVpTMAd8nHyLecCTjGdXvlXdsbVtz2SqLPhk35mnQmYK2ueXjQFPZusMACU6ictiYOB55lEk8Q2WYIkqTRGlUB2Le0+e3O/JM07uvW6p0BuIszAcchQGy4tPudMfAx00jz+NKZgDW63n2W576OcYkFYIW3ydNM4Skn2kcMQZI0WiMuAIfLP2d0SKoZO2cCWgKO1axLuj9I5MsmkepR5mmTp9b92BKwlla5MwBH4PlGUMFNMrLUFJ4sRjaagiRptEZUAPYtXfjqgLf9Sqo5loDjNLPuyDcT4g9NItVaJk+t+/ED5zfvZxTZF6IzAEeg7fxm3B8q4Kw5zI5wjkk8ZQS3wRAkSaM/fezDIxcuOD8Q/xOq+pldklQuwyXgkoUvMYrRCx0dxZkzZrw8wA2mkWotUwp8L7a0FIwi25LIfaawT1MeHaLNGMpvRz1/BUwyib/gDEBJ0hjstQDsv6hpYS4Xvgd4wS+pluVjiN+2BByb8M2ubYPF5K+B9aaR4vUI5w3M2vSf0R8IZvvCMMevTWEE+0OO80yh/GLk5aaw2+Ox51NJ0uiv8/b0BxvPOXEGSe7/gCnGJEmWgONx4GU9D4QYXgVV/wIY7X3Y+er+pc3LzSG7khy/MoURiCxpbqbOIMqndQHNwEkm8VTFIn8wBUnSaO2xAMxNHvoycJQRSSq1EFM7g2hnCbjAGQljMPPS264k4pvk077/wgf6ly48wySyqaubDTi7aCQOnjHkyynKKuGDOON49+O0hN+ZgiRp1OeP3f3HgaUL/zrAy4xHUjnEkOpZYPkYwjedCTg2M7cPvJ/AXSaR9muH+K3NF5x4sFFklrMARyLw94ZQHi2NNAIXmMRure9ax2ZjkCSN4SL+yR5unzMtEn3jryTt2fBMwKUL/9ooRjlevvKu7bkY32YSqXdIsVD8qjFklgXgyJy2uInnGEMZzhXB2X974ew/SdKYPKUArB+a/H7g6UYjqWwX9jETF/X5SPyOtwOP3owVq38c4QqTSLcY4/kDy5rPNYlMHqMtAEcYVRJ5nzGUVts82ojeXr2X/fMeU5AkjcWTCsD1FzQdCjgzQ1JZpfwW4Ccavh3YmYCjP/nkim8DiiaR8n058m/xnKMnmUS2JDl+YQoj9tKWJhYaQ2mcczSTYo4v4+y/vV1D3W4KkqQxjcGe+H/qCuEtgBfykjRy+Yi3A4/WzB/23gmxwyRS75j+KTN8DlrmdlB6gUcNYkRCiPjonBLZOpXlwHEmsVdrjECSNBaPF4AbzzlxBjG8zkgklX20FDP3k/2CtwOPXiR+EjIzG7SG9+fwjtg+p94ksqOriyHgZpMYsdNaGlliDOOzuJFFIfAOk9i74hBrTUGSNBaPF4CFKUOvAmYaiaRyy9AtwE+UjyF8o3/Zgr9yDY/MrBU9a4BrTCL1ntE/NNm3YmdMgBtNYVR5faVlEYeYxNgsfi4HJ4EfAnWmsVePXP9L7jMGSdJYPF4AxshLjUOSxqUQIicaw8hFwpdNIf0CvNUUMrdOLQBH58Cwg6/hs+tGrbmZumIdHUQOM419njR7DEGSNFY5gP4lzUeBg1ZJFRpYxuwOkBLif7uGR66hsPVKYKNJpF7jxosWzTGG7Ni2lV8AQyYxKi9sbeJNxjA604f4fIicYhL7FgM3mIIkaax2zgAMF+FPLCVV7gI2q899W7PztlaNUOhYNwhcYhIZuKAoJt7+niE33sGjwM9MYrQnOP61dT7LDGJkWhv5eAi83iRGeJxNLAAlSeM4jwyPwJIWo5Ck8Y77+JEpjCm5/zOD9AuBdlPI2Dr1mDYWeQLfWTzPGW370trIx4H3mcSI7Zhaxy+MQZI0VrnY3p6H8HyjkFSxQWVGbwHOhXila3f0ZvbNuB7YbBKp9+z1FzQdagwZOqYVucwUxmRKkuNHLY00GsXuLwPa5vMvWP6NSoTbLu/mMZOQJI352q4/+d08fPuvpEpexGbzFuBHZuSPutW1O4aRYFfXEHCTSaRffT5/qilkx7W3cw/wS5MYk1kBbmht5Fyj+LOWOUxrbeIHMfAO0xjloA2uNgVJ0rjOJbkkeY4xSNJ4hVtCR0fRHMaYXuR6U0i/GKO3PWZt3/Q24PGYBvyotZE3GAW0LODoUMcviD4jcUzH1xyXm4IkaTxyScgdYwySNM4Lc+ItpjB2Scj5YPMsCNE3AWdtlVoAjlce+FJrI188v5n9ajWElkZeFhJuAzxGjM0DnatZbQySpPHIEePRxiBJ4x0lh25DGMcIeShZZwoZ2A0I/lAxY1b2civwK5MYt3/YXOSXLY201NJCn9HEoW2NrAjwHXzk0Hj8GDL5+BRJUgXlAhxkDJIqWhJk8CUg+RB/65oduxmXd28A+kwi3SI87eH2OdNMInMr9muGUBJHBFjZ2sRnTm/OdhnW3ExdWxNvGor8JsISV/04d8Ho7b+SpPHLQfBCXZLGJ5k+ffq9xjDuIc5dZpB6oT7Zzx8sZm3PLPAtYLtJlOjaO/L2YpF72hpZfvJxTM/Swi2HXFsj7TOLrIuRz0O2lm+CbDxwyBeASJJKcRFCnGoMkio6mMzYW4ADPBi+2bXNNTtudxtBBvbvZMgBf8Z0dbOByI9NoqRmR/hQ/WR+29LIW845kRlpXpj2OdS3zOfl1zXy6wjfj+DjAErn/zrWMWgMkqTxykUoGIMkjV2ER0yhBELwFuAMyIe8dxZkcv/k64ZQllwPCfDZbdt4qLWR77c0cTqk5zEZi+dzbFsTn9xQx30h8G3gWFdqiTeRyLdMQZJUCoVA3EL2HsclSRUcv9FvCiUQw2afcZ5+RWK9KWTPAcdw1YY7uQc40jTKciKZDLSHSHtbI7+OkY5cjp/OPppbOjooVtNHPX0uRyY5XhgD7QmcQnQgUUa/XbWGW4xBklQKBQibjUGSxi4SHzWFUox/42brv/TLJWGLKWRPRwfFtiY+HSP/bhrlPqdwPIF/TCL/uOFOHmlt5FoiV8XILczmN11dDFXy87xgLrPqcpwQ4IwI5xYDz3YtVWhbCHzFFCRJpVIgMOCEC0nSxA9641ZnpKdfLiQW4hmVzOSboY8PETjENCpmNvBiAi8OAehjW2sjvwR6gN4Q+F1S5L5JRR64at34HkdxejMzh3ZwWMhxODAHWAg0s3PWp8OFitviG7glSaVUCJF7PKFL0niEvBmUIEXCFM9H6be9UNxkCtnU1cW2tiY+FyP/ZBoTdqCczHAxtxAgRgg5GMxBayNbgT8CDwCDRAYIJAEGIiTAADCTQIHI9BiYHBL221noHlYsMiPkjLiKfKur10eMSJJKpxDhTmOQpHGpM4Lxi4RpzjFJvW37z1nzJzoMIqsm1fPlbdt5D9BgGlVnCnD0zl+PT6iOTz3YDv9xxEnXVXxKLOb4gjFIkkopB/G3xiCpkkL2Hhi+v2u1JBuGb49N+yqEu8NyEpPIritvZlMMfNEkpLIeS6+4fjW/NglJUinlitvqboPqeruYJKVJhANNoSRBNhhCyldh8K6CWrDjMf6ZyIMmIZVHgI+YgiSp1HL7X3nzJqDXKCRpzBfqB8SWloJJjDvIIw0h7eKtZpB9N97BoyHHh01CKovLVvbisVSSVHK54TFXvN4oJGnM6h6d9Zjl1XhFjjGEtF9U5K4zhdqw/9F8FfilSUilPRPm4GPGIEkqz7U6kIRwuVFI0tgNJUPHmcLYbVp6wv7AbJNIta3Tt/bfZgy1oaODYgi82ySk0u5azv6TJJVLDqBhXvd1AR4wDkka48E0z1xTGLuhZOg5ppBuIYRrw5V3bTeJ2rGqhysjXGkSUklsjfAeY5AklW3MCrDzjX3/ZxySNDYxhpNMYRwno1zuVFNI+07Adw2hBvfdyGuBfpOQxn0M/XRXL/cahCSpbNdtu/7HUC73dSAaiSSNXoCTIgSTGOvAJ55iCKneAbZsL2z9sUHUnlVr+GMIvNckpHH5Y13kn41BklROjxeA+//w1nURrjASSRqT/fuXLJpvDKMXW1oKBE42ifQK0HFQx7rNJlGbVvXwnxE6TUIa43kw8Nar17LFJCRJ5ZR70skHPmUkkjTGA2pILjCF0eufteVkYJpJpHfsmismnzaG2t4GgFcDlsDS6HV09fADY5AklX28+sT/M3tF98+Aa4xFksY0Ar7QFEYvUHyJKaR5/cXLp/+o51cmUdu6erk3wttMQhqVDXUJbzQGSVIl5P7yP+ST5K3ADqORpFFr2nTBwuOMYeTi3zXXQXiRSaRWEnPxo8YggK5e/gv4b5OQRuwtV6/lYWOQJFXCUwrA6T/q+VWALxiNJI1aSPK8xhhGbtMGzgT2N4m0bvF8o+GHPbcZhHaJDbw+QI9JSPs8fn6vs9e3p0uSKie3u/84WJy8nMBdxiNJox7+vjK2z6k3hxGmlfAGU0itgXzc8T5j0BN1dbEtyfFiYMA0pD26a3I9f2cMkqRK2m0BeOBlNz5KEv8a2G5EkjQqB/cPTXqZMezbIxctmEfgHJNIqcA7p69Y661reoqu1dxF5NVAYhrSX4hsi9B+5c1sMgxJUiXl9vQHDZeu7o4hXmxEkjQ6gfCeuHzPx1ftzCnJvQsIJpFK32+4pPu/jEF70rmGSwK8wySkJ4vw1q5eek1CklRpex2gzrpk9WeBrxqTJI3KcZvWLHyxMexZ/0WLjgzEvzKJVLonKXjrmvZtVS+fJfCvJiHtFPlC1xr+0yAkSRNhnzNUZhaO/HtC/KFRSdJorvHjPz9wfvN+JrF7IUn+FagzidTZFEmWze7o9vluGpHOHt5J5NsmIU98XBVn8XaDkCRNlH0WgKGjo/hoftIrIF5nXJI0YoftVxffagxPNXDRgrMiXGgSqbMthuT8WSt61hiFRiFO3sJriaw0CtWwX+Vz/FVXF0NGIUmaKCN6RtVhHTdt3bZl6FwI1xuZJI102Bve23/+CUcYxBMiaZ9TH5PwOZNInaFIfNmsS3q8DtCoXXkX27ftx/nA1aahGnR/hHOv7fbN2JKkiTXih9QfcvXaLYOFrZaAkjRy0ygMfcMXgvzZwNCUDwHHmUSqDBHiy2etWH2JUWisbrqJrQfs4HzgMtNQDVkf85zR1cu9RiFJmmijGpQe1LFusyWgJI1GOK1/7YI3mwP0X7TodPDt8ikzFAivaLhk9feMQuPVsY7BA3bQHmGFaagGDISEs7u6+Y1RSJKqwahnpRzUsW7zY0PxHKDT+CRp30IM//zIhQtOqeUMHl0676CYJN8ay3lHE6YYiP9v5orb/s8oVCod6xh8NM9fAf9jGsqwPhLOWrWW1UYhSaoWYxqIHXp592ODhW0XBLjBCCVpn+ryufB/m9sXHVKLCx/b59QXqf9ugKe5KaTGUCC8fOaK1ZY0KrnubnZ09vKKGLkYSExEGfNwhLbOtdxsFJKkajLmmRgHdazbvL2w7YWWgJK0bxEOHSomlz7cPmdajS136B+a/HWIi90KUqMYCK9w5p/KfXjoWsOnYuCvgK3GoYz4E5G2rl56jUKSVG3GdSvWQR3rNm8Z4my8HViSRjDc5cT6ock/iuccPalWFnlgSfOnA7zMlZ8axRC97VeV09XDD2KONiIPmoZSfo7/TYTnd65hnWFIkqrRuJ/F5O3AkjQqbQOTZ/5vbJ9Tn/UF7V/afDGBd7jKU6MYCC+feenq7xiFKqlrNb8YyjEP+IlpKJUiK2PgJN/2K0ljkyQEUyi/kjyM3ZmAkjQqSweGJv904zknzsjmOIjQv7T5k8A/uapTw5l/mlA39LC+s5fzIrwVGDQRpUbg65sKnNPVS79hSNLY5ArkTaECOZfqHzr08u7HHhviPCwBJWkkWvOTh362/oKmQ7O0ULGlpTCwdMF/Ae9xFafGcPnnzD9VwSGkq5fPhcgpwD3GoSq3g8g7Ont4TXc3O4xDksYhUDCE8suV8h/zdmBJGpW5dfnc9f3LmhdkYWE2X3DiwQOzNv8UwqtdtalRDDG8wvJP1WTVGm6ZlmdugA+DxYqq0v1Aa+ca/tUoJKkEdlgAVkKu1P/gQR3rNm/dsuMcoMt4JWmfjiLyi75lC5fH5aU/JldK/9IFbTvyQz2+7TdVds78u+1/jULV5vJuHlvVy3ICi4CbTURVI7AqN8TCzl5uNAxJKpGcBWBlYi6DQ65eu2WwsO38AD8zYknap7oQ44c2rVmw4tGl8w5K0weP5xw9qX9Z8ycgXBPgaa7K1HDmn1Khs4c1BxzDyTufDdhvIpq4Ex7bArzrtB7OWPlLHjIQSSqdPNSZQvmVbbbJzpmAZ+NMQEka4dgiXFCk7o7+pc3vScNbgvsvWnT6wOSZPUTeW87ziUrOmX9KlY4Oil29fK5+B0eFwKeAraaiCltLjuet6uVflkNiHJJU4otTmGoK5VfWAZszASVp1BqATw4MTb6tf+mCtmr8gJuWnnBs39Lmy0mSa4DjXWXpur4KgVc6809pdNU6HlnVw8XFIY4j8PXh8YJUVjsiLN+UZ2FnD2uMQ5LKIwRmmEL5lX3GhjMBJWlM5kJY2b+0+ba+pQtfGdvb8xP9gfqWLGrsW7LgWwnFdQHOcxWlzvDMv0u6v2sUSrPrf8l9g4/xVuA201C5ROgs5pjf1cuHfcuvJJX5mJtYAFZCRR60eMjVa7esv+DkC+rz234S4QXGLkkj1hyI/z0wdM/FA8uavxh28P0Zl3dvqNQ3v6/9pCnTizvOJUleR0hOh+AaSafhmX8rVlv+KfVeMJdZhTxXACeahko/CuVBcrynq4dvA9FAJKn8nAFYGRV708qBl9346PoLTn5hIb/tygAnG70kjcrxMfKlWOCz/UuarwnE/w2hcOWMFbdsLPU3uq/9pCkzduxoIcS/jkODS4AZBIu/FBsu/5z5pwxomcczcjmujj5+QKUW2UbgC/kCH7+2mwEDkaTKsQCsjIq+anlnCXiOJaAkjVkdgRdGwgsjxaR/afO6GOJ1IeGGXD6snZ7bdk/oWDc44vFOe3t+YNvvnxnyybNj4AWReFoYGlwUA/VGnQmWf8qM0+dyZHG4/DvKNFRCCfDDYuQ916/hd8YhSRMgcoghlF+h0t/QElCSSiYHzA0xzCXwxiSBgWRysX9Z8x+I3AkMEEJfiMmWSBiEkCMwkxinhxCmxRiPHhi650gKTNp1j5Pz/DLF8k+Z0TaPBcUcVwIHmYZKNdyMgR/nAx9YuZq1xiFJE3hAhkNNofwKE/FND7zsxkcfPHPeWZOn1v0YaHE1SFLJ5IkcARyxc3hDfLzWi48/zShGH2uUccUQwt/MvOQ2yz+lXlsTp8bIZcBM01AJJAF+kgQ+3NXji2QkqUo83QjKLzdR3/iQq9du2bZlx3n4dmBJkkppV/n3baNQ2rU2cUFMuArLP43fduAbJDxnVS/nW/5JUlVxBmAF5Cbym1sCSpJUUpZ/yoyW+bycyA8ITDYNjVnkwRD4VIgc1dnLqzvXcoehSFLVObS5mTpjKK/cRH8AS0BJkkrC8k+Z0dLIW0LgW+BgQGMSgeti5K83FXjmqh4uXrWGPxqLJFWt+qmRo42hvArV8CEOuXrtlgfPnHfe5KmFKyCc5mqRJGlULP+UGS3zeU+AT5qExuD+EPifJPBfXau5yzgkTYhI0RBGLxeZA/zaJMqnUC0fZGcJeK4loCRJo2L5p8xoa+KTMfIek9AoPExgBfC/nT1cz+Ovu5KkiRFghweiMRguAH9gEOVTqKYPYwkoSdKoWP4pM+Oltkb+LUbeYhQagQ1ErgyRjmQ2V3Z1MWQkkqrnjMY2fxQxhtgC80yhvArV9oEsASVJGhHLP2VCezv5DXfxlRh5tWloT8c7oDcErk0Sftyyhp8vh8RYJFWjCDtMYUzBnQIEnMldNoVq/FCWgJIk7X0wbPmnLGifQ/3GO/kf4EVZXcYAd0b4GdACHOFaH5EhYE2AnyXQNWUSq668mU27/rDLfCRVsRjZHoxhLA5snc9zOtewzijKo1CtH8wSUJKk3bL8UyacdBJTNmzlB8ALszwODJHXrVpDJ8DpzTyzmNBC5ARgETAfmOTWwAZgNZGbA/xs+zZuuvEOHjUWSWkUYLspjPWkSQtYAJZLoZo/nCWgJElPUoyEVzdY/inlTj6O6fVbuYzhWXFZ9u2VO8s/gGu7+QPwrZ2/aG6mbkZkXigyLwk8JwTmEjkeeGZG8xgK8LsIvyayJgZWF/Ks3pmLJGVDYLs3sY41Os4EvmQS5VGo9g9oCShJErCz/Ju14rZvGYXS7PRmZg4VuRI4KeOLunEo8M69fUF3NzuA7p2/HnfycUyvm8JRIXAUkaOAo4BnAc8Ang7MrNqljmwj8PsIfwiRP8TA7wjcERJ+fcAQd3asY9C9QFKWRRj0FuAxO3vxCey/8hY2GkXpFdLwIS0BJUk1zvJPmdDSSEOxyFUBTqiBEeC7b+hl/Vj+6s7bX3t3/nqK85vZb/MODgt5Dk7goBwcmERmB9gf2D/A7BiZQqAhwH4RpjBcGhaA6SP8GFuAQeDRAFvi8P/vD7AZ6I+wPgYeCrCeyAZyPJQb5P6Vv+Qht3RJtSwkDGIDOFb1cZBlwFeNovQKafmgfy4B638C8VRXnSSpRlj+KRPOmsPsQbgaaM76ssbADV29fKNc//7l3TwG3LHz15gth9y1c4dnExb2Z2tXF9vcUiVpnILPAByPJPAKLADLIpemD3vI1Wu3bNsy+EII17vqJEk1wPJPmfCCucwarOMqaqD8Awbz8Hqo/idALYfkZ7fT97Pb6bP8k6QSCR5PxxVf5JTWeZxoEqWXS9sHtgSUJNUIyz9lwilNHFiXpwtYWBvjPj69sodfueYlqWb1G8E4z6U5PmAKpZdL44e2BJQkZZzlnzLhzHkcVAcrgXk1ssh3bZ3Cx13zklS7YuQRUxhnhnBu64KauGugonJp/eCWgJKkjLL8UyYsfi4H78ixKkbm1tBiv+Wmm9jq2pek2hWgzxTGH2NI+GpzM3VGUTq5NH94S0BJUsZY/ikTzmji0KTA9cCcGlrs/+3s5SeufUmqbTE4A7AkOULTzCHeYxKlk0v7AlgCSpIyIrH8Uxac0sSBQ5FrgGNraLEHCoF3uvYlScAGIyiNGPigLwQpnVwWFuKQq9duKW7Lnw/8wlUqSUqhJILln1KvpZGGAvwUeE5NDVAi77mmhwfcAiRJIeFPplAy9eT4ces8jjOKJ29mY/lLuaws/f5X3rypuK1wFpaAkqR02Vn+df+3USjNTm9mZoBriCyosUW/pWUNX3ULkCQBxMAfTaGkDiDHVS3zeEZNX2fN5ci2+XygrZFftTZyzlj+jVyWArEElCSljOWfMuGcE5lRLHIVsLDGFn0owuuWQ+JWIEkC6OqlH3jMJErq8JDj5pYFPK+WFrplHs9obeLNrfO5qZjn7hj4aITjCVwwln8vl7WALAElSSlh+adMOL+Z/bZt5zKoyWf0/GtXL71uBZKkJwo4C7AMDg0JXW2NvDbLC3nqAo5vbeS9LY3cEnL8gcjnCH9RfEbOZwy3AeeyGJgloCSpyln+KRNOOokpmxMuB06rwcX/Q9zBR90KJEl/KQbuM4WymBThK62NdJ46l7lZWKCWOUxrm8f5rfP5fGsjd+QTfgV8IsAi9lzyHbq4cfR3XRSyulXsf+XNmzaec+JZ+clDV0FtTROVJFU1yz9lwjlHM2nbNlYQaavRCN7QtY7NbgmSpKeI3A01e36shJZ8ntWtTXyNIv/WuZY70vLBTzqJKVO2sYiEU2PgdOD5EepG++8Uh28DvnU0f6eQ5S3CElCSVGUs/5QJyyF33TS+TeSsWlz+AD9Y1csVbgmSpN2JkbtDMIcyKxB5HTn+rrWRlUT+fdt+XHnTTWytpg/Z0sizQmQBOU4m4flspTlCHePcPnJwIfDB0QWWcZaAkqQqYfmnzOhq5DMB2mt08R8l8la3AknSnoQcdxHNoVJxA6cTOH3yVra2zue6GPhpiFwbZ3FHVxdDlfgQi09g/2QbR4fAcwjMj9AIzAcaCEAESlgKx8jcU+dxxPVr+d1I/06hFraG/a+8edMj7c1n54b4KZaAkqTKs/xTZrQ1cXGs4QIsBN6/qteHu0uS9ixG7nYC4ISYQuDsAGcTIPSzvbWJdURuB34VIw+EHH8i4cGhHA/f0MMG2HtVe/JxTK+bwVS2c0DIczCRgyMcGOBgAkcSOQo4OhmkgRwV7X1zOS4APjfSry/UylYwu6N7wBJQkjQBLP+UGW1NvCRGPlHDEdy2/9F8mR63BUnSXjTwG/opAnnDmFCTiCwAFgCEJ8zEK0RobXz86x4DtgMJf35ZbgO75uzt2Plfd7Z7j5e7EzzLM4TRFYC5Wlrzszu6B5ICZ+PbgSVJlWH5p8w4dS5zY+S/KOkNLKlSDAmv6+ig6NYgSdqbri62BfitSaTGfsAsYP+dv89KxfVO5NQXzGXWSL88V2tr9fESMHCz27hqUGIEUuX2txjjayz/lAUtjTTk81yy8wK5Vn1+1VpWuzVImeZdmyqZGFhrCiqzQiHPC0f6xblaTGh2R/dAkucsS0DV0KXMlgifTwq8wDCkihie+Xfp6m8ahTIyIP46cHQNZ/CnfJ4PuylImT/WFYxhdB7dVpudwkjE4efOSeU+cF0w0q+t2Z318RIQbnGTUYaPBltCjMtzMX/4rBXdb5nd0f2HavhYO4rJdyF8A2ckKpuc+adMaWvkHQGW1vQgDt5wbTcDbg1SdrXPoQ5nAI5aYbLPuNuTXHDWuCri7PY51I9om6zllHbeDnwmloDK5GglfK9I4dkzL1394RkrbtlYTR/twMt6HmhYcdurk4RG4BpXljJkuPxz5p8yoqWZZ0f4SI3H8JOuXi51a5Cy7ZGpTDeF0cvtYJIp7OmikJtwwoPKb8bGAi0j+UJ/wgE80t48MzfE1cAJpqEM+G0MvH7WJd2dafnAfUsXvjIQ/w2Y7epTqq/zLP+UIe3t5DfcyY3AiTUdROTzIfBLoD8J9OUjAzugf3LCwMwi/R3rGHRrkdJv8QLmJQlrTGKUh8g8x3d18xuT2L3W+fyawLNNQmX2pc5e3rivL7IA3KlvSWNDCPmrsARUmk/AMX57R932NxzUsW5z2j775vZFhwztSL5GGPlDTKUqkkTi385asfobRqGsaGvi4hj5J5PYp61AP5EBoJ/czt8jAyHQB/TD8H+LkYHwhN+TIQa61rHZCKWJ1zqfZQR+aBKjk4u0rVxDp0nsYbtq5OvA35iEyuyPnb0cBsS9fZEF4BM80t48M1fkKmKN/6RbqRx8xMh7Z13a/bk0L0SEMLC0+d3Ax8HniShFm24If99wyW3/aRTKirb5PD0Gfkttv/W3kkeRbQyXhX1AX4C+GHf+70BfEtlKYFsI9IUifUkY/ppCjr5Hcqzv7maHIUrj09rIF4F/MIlRe3dnL582hj1sV/N5NYGvmYTKLSQ0r1q79+dOWgD+heGZgLmrISwyDaVjzMCfYi6ePfuHqzPzmvn+Jc1nEvg+MNM1rCrnzD9ldSD8TeBVJpEaA+yaZRiGf89FBpIw/DvQn0D/rgJxKNCXC/QV8vT5chMJWpo5IBS5y2vPMbmts5cT2MfMo5rdtubxjJDjPpNQuQX48Kpelu/ja/SXnAmoFLknFONZMy9bfVfm9sOlC5+bJ14V4VBXs6qUM/+USa1NzCeymhp/WVyNHc32PgNx5+9/Ofuw4Wge6uigaIBKszPnMXVHnh8SOcs0xnwMeXvnGv7NIPZwXvU5gKqAAD2relmwj6/R7jgTUNV/og235euKL5ze0bM+q4s4cMGCo2MhXE3kCFe4qowz/5RZLY1cHeAMk9AIFNlVGEIfgb6Q0BfDn4vEJNBHZCORDRTYMGkbD1+1jkeMThN+rGthcuhnGfCPwHEmMm7fDQmf2dctiLWodT6fI/Bmk1DZKwI4oquXe/f05xaAe+FMQFXxjv2rXKH+lJkdN2X+Arr//BOOoFD8OXCIa17VswvyhoYV3f9hFMrcgLiJhSFyq0mozIaA9SGwIcJ6Ig8RWU+ODQHWk/BQiGwo1rF+x2b+eOMdPGpkGtexrYXJ+QGOLMJzQsJcAguBFnzOaTn8icD1RNYSuCMWuWP7VO6+6Sa21uz2t4CzQ8KVbhoqtxB506o1fHGPf25Ee2cJqCr0xxiSk2dd0vP7mtkPL2yem8txPdDg6tcEs/xTprU18u0ILzcJVdmRdxuBB4A/AQ8Q+VOEB3KBe5LInwoJDwztzx+6uhgyrNr1grnMqqvjyJBwZBI5MgSOhMd/HY4vmJtofcA9wD0hcE+M3BMD9xSGuOfa27knywve3EzdjCIPAbPcDFTmgco1Xb2cuac/twAcyZHK24FVPR7JJ8kp03/U86taW/D+JU2LCbmfAPVuBpogSSS8dtaK275uFMqilkUcEnbwe4+zSqkh4CEi94XA/UnkLnLcReRuEu7qWssf8SUFqbeXkm8O8DQTSqnhkv8eYN1floOzns3vs/Cs0db5fIvAK1zZKrMdEQ7q6qV/d39oAThCzgRUNZwakyReOPtHqy+v1QAGlja/OcLn3BQ0IZemzvxTxrU08qHA3t8eJ6W8YLgLuDsMl4N3h8hdOxLuOvg4/uDLTKpDczN1swY5bKjAkWFnwRfj4yXfccA0U6o5g8D97Jw9GCP35AL3xBz31A3xm6vXsiUNC9HayIXApa5Olf10F/nrrjV8b3d/ZgE4Co+0N8/MDXE1cIJpaAL8S8OK7nfV9rU7YWBZ8yVElrg5qLKbnuWfsq+1kd/gg/BVm4aAPwT4FdANrIuRX522hl8vh8R4yuuMJg4dgm8TOQo4DN9ArpFLgPsj3J3A667v5c5q/aA7XzrzR2C2q01l9t3OXl62uz+wABwlS0BNiBhum1m39eTQsW6w1qPoP3fuLOrrexh+lotU9r0Pyz/VgNZ5HEeO35iE9CQDEVYHuI3IbfmE27L+rDKPP0qthOd1ruXmav6ILU18IUTe6MpSuc9dB+zgoI51PKU78KcrozS7o3sgxuJZxHCbaahCtof80Est/4Y1XHF7HzF5jUmoEpeSkfC3ln+qCTkuMATpKWYGaAXeReB7xTx3tzaysbWRK1obed/ieZzS0sJkY5I0EvnAV01BlTh3bajnlN1f7mnUZl3a25/UxdOBW0xD5Rf/ZeYPe+80hz9ruLRnJdBhEirnjgf8gy/8UA2xAJRGZjbwQuDjSY7rQz/9rY3c0NrIJxbPp7V9ji/RkbR7K1ezlsBqk1DZJbu/rrMAHOuZv6N7IClwJpaAKq/7t20Z+idjeKpiKLydkI6H/ip1vO1XNaWlhQKRhSYhjckk4AXAe5PAqg11bGxp4rK2+bzx1EaOMR5JT7rIjHzeFFR2gQt3958tAMdhdkf3AIODZ3s7sMq348Z3HnL1Wkuu3dj/kpvvJwbLUZVaQgyvtfxTTXmEZxO8jVEqkWkhcn4MfCEPv21t5O7W+XyuZT4vwOevSzXv0TzfJXCfSajMDl+8gHl/+R8tAMep4Yrb+7wdWGXy65nzVnub615s2zL4WWCjSahEIpE3Nlx629eMQjUlx3xDkMrmSAJvDoEbWhu5s62JTy5u4jnGItWm7m52xIQvmYTKLYlPnQVoAVgC3g6scojwqbCcxCT2bHh2ZHSmlkqzy0X+oeHS7n83CtWagAWgVCFHxch7ksi61kZ+0TKf17U00mAsUm0pFPgP4BGTUJlHN095DqAFYIlYAqrE7m8obPtfY9i3PEOfB7aahMZ1erT8Uw0L8DRTkCruxBD4jwAPtDbyzZZGGo1Eqg3XdjMAfMokVGbNLfN4xhP/gwVgCT3+TEDoNg2N05dCx7pBY9i36SvWPkzguyahMUoI/J3ln2pZhFmmIE2YKcCrAvS0NvKztkba29vJG4uU8XNvA58H7jcJlVHI5Tnvif/BArDEGq64vS8psBhnAmoc54MYEmf/jW7w+j+moDFtOpE3NlzS/V9GoZreEQIzTEGqCidH+P6GO/lVSyMvW+5YTcqsri62RfiwSaickr+4DdiTShnM7ugeiLF4FpaAGttQ7PpZl/T83hxGrmFe93X4EzSNckfztl/p8YvBBlOQqsqxAb5zXSNr2uazFN8eLGVSSy9fj3CTSahcArSdfBzTn3DNp3KYdWlvvyWgxraX5pz9N9rIlpME+L5JaIQs/yRJafDcGLikpZGbWxbwPOOQsmU5JPkcrweGTENlMqluP87a9X8sAMto1qW9/T4TUKNVR7zMFEYvCcmPTEEj2VR85p/0ZDHyqClI1SvAopDw89b5fOuUJg40ESk7Vq5mbYQvmoTKdg5J/nwbsAVgmTVccXtfjMXTId5qGhqB3069pPtPxjCGfW3rozcD20xCe+Ez/6Td7xmbDEGq/jEcgVcUIr9um8/fGIeUpYEM7w2B2w1CZTp7nNvSQgEsACti+Hbg5ExLQI3AdUYwxuPalXdth3izSWgPvO1X2vOFoTMApfTYPwa+3tbIipZmDjAOKf26utg2lPAqYNA0VAazwwAngwVgxVgCakRjsBBuMIWxizFcbwra3aYRAm+0/JP2dPKxAJRSd2KDJaHIL9uaOMc0pPS7fg09MfA+k1CZThoXggVgRVkCal+GQlhtCuOQiz2GoL883YXAG2de0v1lo5D2eFH4oCFIqXRwjPy4pZEP4ZuCpdTr6uEzwHdNQmVwAVgAVpwloPYieSxXuMcYxjGGjbk7TUFP3CQs/6SR7Ch47pHSKxdgeWsj3zu/mf2MQ0r5ObmB10SwK1CpHdU6nzkWgBPAElC7P9pz/2EdN201iLHbUqi7G0hMQlj+SSOWL/JbU5BSr31zkVUtizjEKKT06upiWzLERcAfTEMlFbjAAnCCzLq0tz8UJp0NeMundu6Qwdlr43RYx01bidxvEjUvQnyd5Z80MsUiPUDRJKTUOzHs4BctjTzLKKT0uv6X3EfCmcDDpqESeqEF4ASa2XHTIzEWFzsTUMOiB/hSCKw3hNrekULgjQ0rVn/VKKSR6VrHZuA3JiFlwuEBuiwBpXTrXMsdxcjZwIBpaJw2EvloXcJFFoATzNuB9QRbjKAU4mYzqN2V722/0pj5FnUpOw4PcG3LPJ5hFFKKT8xr6ClGWnEmoMbmdxHeWpdweOca/vHqtTxsAVgFLAEFEGKwuCqBiDnW6qq3/JPG5SojkDLlqFyOq09vZqZRSOl1/Rp6SDgVnwmokQqsJvCq2MCxXb187uq1f55oZAFYJR5/JmCkxzRqUwyJMwBLcryLj5pC7e0+xPh6yz9p7Aa3sgrwRVRSpk6OHF8s8v2WFgqmIaVX51ruKA7xAoLvD9AeFYEfxcgpnT00d/bwra4uhv7yiywAq8jMjpseiRTbnAlYq4IXZyWJkTpDqK3xTQi8seHS1V8xCmnsbryDR4Efm4SUOWcywL8Zg5Ru1/+S++JMTga+ZRp6ggdC4FMRju7sZUnXGn62ty+2AKwy3g5cu2KIU02hBJIwzRBqaLfxtl+pZELCt01ByuC+HXljSxOvMQkp3bq62NbZy/8L8C5g0ERq1hDwI+C8A47hmat6uLirl3tH8hctAKuQJWBtymFxVQoxF6ebQm2sass/qbT2P46fAHebhJQ9IfK5xfM51iSk9F8Dr+rlX4pFFobA7cZRU+4PgU/l8xzV2cuSzl6u6OigOJp/wAKwSs26tLc/R+EcnwlYQ0fyGGaYQikucC1Sa2F3IYS/t/yTSqujgyKBz5uElElTk8D/NDf7qBQpC66/ndun5nheDHwRSEwks7aEyP+FyFmn9XL4qh4uvrZ77C+EsQCsYjNW3LIxUmwjhttMoxYkh5lBSRxuBJk2/My/S277T6OQSm9ajv8CHjAJKZMWzki42BikbLi8m8e6enhTMbIQuNlEMmN7gB8TeNXgVp62ag0vWbWGq5eXoOi1AKxysy7t7Y8MnWEJWAuCt2WM06PtTQcCM00is7ztV6rAYILIB01CyuqZlA94K7CULdevoeeAYzgZ+AfgYRNJpcEAPw6BV06exEGrejm/s4dv7XxJW8lYAKaAJWDNmLnp/OYDjGEc17SDhWNMIbur1/JPqowDjuW/Aa85pGyqj4FPGYOULR0dFDt7+XJdwpExcjHQbypVrwjcGOGtdQmHrerl/FU9fPvKm9lUrm9oAZgSsy7t7c+F3NlAr2lk11CBZ5vCOI6gueJxppBJEXiD5Z9UuUFEMccriWwzDSmTJ9UlbfM50ySk7Ll6LVu61vCpXD1HB/gwsN5Uqsr6AN8JgZfm6jm4s5cXdPXyuavXVmbmpgVgisxYccvGGIutzgTMrhw8zxTGLhBOMoXsjVMC8U0NK7r/wyikyrl+Nb8OOT5sElJmT66fXu5YUMqslbewcVUvy7dN4fAYeT1wh6lMiCTCrUQ+QsLzTuvlkFW9vGJVD/+78hY2Vn68rNTpW9LYEChcQ4gLTSNjF2Pw41krus83ibHpX9p8B/hcm2yNT+KbZq5Y/SWjkCZEaGvk+xFeZBRSJi88L+pcwyUT/TFa53EcOX7jCtG4JDyvc60vwtjrvraAZhL+DngpMM1EymZzgK4IlxcCP76mp3peruZPfVLIZwJmeKQFp8T29rxJjOEo277oECz/MjUssfyTJn4/nDSJ14TA7UYhZfLC8z2GINWOztV0d/byusmTeHqIvBr4CTBoMuM2AFwBvJuE5x1wDA2rejm/s5evVFP5N3zYV2ptWnrC/gnFa4FG08jQtVjInTDzkltvNYlRHnWXNb80Rv7HJDIhAm/wtl+pOpw5j4N25Lge8DmrUvZOuK1dvXRN5GdwBqBKwhmAY9LSSEMucH6MnA8sBmabyr4G7NxH5KYAN8UcNxxwFL0dHRTT8NELrr30mrHilo19SxpbvR04YxdiMXkxYAE4+uD+yp9pZGNN7pz5Z/knVYmr1/LwqfM4J59jJXCEiUiZ8m6Y2AJQ0sTp6qUf+Dbw7fZ28ht/S3MSOCME2oicgLcK90XoDXAbkV8UcvziKbP6VqdnYRwtZ0D/uXNnUTfpakvAzLhv5vzuZ4XlJEYxin2gvv5PwCTTSDVv+5WqWMsiDsnt4CcRmkxDys65t5hw1PVr+d1EfQBnAKoknAFYcu3t5NffydwAzyfyPALzgeOBugwubhH4HbAuQG8CvUBvVy/3ZmkhLQAzwhIwY1diITlt1iU915vECLf/Zc1/S+SrJpHyzd7yT6p6pzczMynynQjnmYaUkQFh5IOr1vCxifr+FoAqCQvAimhupq4hcnyxyLwQOB44Gjhq5+8zU7AIf2K46Ls3wJ0x8qtcnt/Ub+KOK+9ie9bXn7cAZ0TDFbf3bVp6wtkJxZXAfBNJt1zMvRqwAByhSPyb4M8zUr4K+YeZl67+d6OQqtu13QwAF7Q08uYAnyabswCk2hJ4JfBxhp/BW/kBaZ5HhyIdrgiNRzHHI6ZQft3d7ADW7vz1JKc0cWBIeEYOnh4ChwY4NA7/OiDA7BCYHSOziexPYHIJP9YgMBCgP8LDBB6K8ECAh0n4Y8jxp6HAvbkZ/K6ri221fbhXpjgTMDN2JAWOnt3R/Qej2LtHlja/IAc3mERqOfNPSqnFTZyURP4LeI5pSCk/Gec4qWs1vzAJSRUSXjCXhsJkJhW2sV+xwHTC8AS1EJmaQP1u/k5/CMM/qMgVeZQiA49NZ9NNN7HVOEcYuhFkz87noV0DNJtGqnfOf525ovsdJrF3fUubLw/eipba8UaI4c0zL73ti0YhpdM5RzNp63Q+ECLvwuewSmm+7vzcql7eahKSlOljvbJo0/nNByQFrsXbgdPsUQYHD2+44vY+o9i9jRctmpNPkts9lqVSDIE3zryk+8tGIaXfqc/lsHyBDwB/C+RMREqd33b2cpwxSFJ2eYGWUTMu797A4GAr0G0aqTU91E36R2PYywEsST6F5V8aDc/8s/yTMuP6X3JfZy+vK0YWAh0Mv01PUnoce/pcjjQGScrw+NkIsqvhitv7GBw8A0vA1IohvvGRC5vnmsRTbVq64LwA55pEGjdrb/uVsur6NfR09vLimOPZwM9NREqPYp6zTUGSsssCMOMsAVOvkMvxWWN4stg+pz4hfMYk0rfqLP+kGrnATGgCFpmElCpnGYEkZfj6zAiyr+GK2/tyQ5zNbl7VrVRoG1iy4OXG8Gf9OyZ/ADjWJFJl+Jl/ln9S5rU08rII3wXqTENKldOWOz6UpMzy2Vk1xLcDp9rmXDEsnHHZbXfUehCPXLjglFwudAJ5N4vUcOafVCNa5vPyEPimx2gppRKe3bmWOwxCkrLHn/DUEG8HTrVpST7+T2yfU1/LIfSfO3dWLoTvOLBMFcs/qUa0zOd1IfDfHqOlNJ+0vXVfkrLKArDGeDtwqjVvGpr8zzV7QbqcXKyv/xaBZ7oppGkcEd9k+SdlX0sj/xAC/+61pZTywWFgoSlIUkaP8UZQe2Zc3r2BwcEWnAmYOhHe0rdswVtrcdk39S78TIDz3ArSs7mGGN48c8XqLxmFlG2tjbw3wBfx0TJSFq41LQAlKaMsAGuUtwOnV4jhXweWLXxFLS1z/5Lm98YQ3+raT8/4IQTe4sw/Kfta5/N24BMmIWXGfCzzJSmTPLjXuEfbmw4sDuVWAnNNI1W2E5NzGy7tWZn1Be1b2vyqAN/weJUaw7f9OvNPyryWRv5fgK97fJayJTfEISt/yUMmIUkZO74bQW2b3tGzPl9IFuMzAdNmEiF3Rf+yhS/K8kIOLF3wDw4uU2V45p/ln5R5LU28KMB/eXyWsicpcLQpSFL2WABqVwl4OnC7aaTKJGL8v/5lC1+XtQWLEPqWLVweCV/0OJWe1RYCb5l5SfcXjELKttYmLgiR7+LbfqVsChxlCJKUPQ6sBTxpJqAlYLrkifHf+5YtXB6XZ2N/jv+vZfLA0oVfCzF+yNWbntUWYniz5Z+Ufa1NLCbhe0CdaUgZlVgASlIWWQDqcZaAqRVCjB8aWNN8zZZlzU9L84JsumDhcQMDj94E8W9cranhCz+kGtHWyPOJ/IjAZNOQsnxlaQEoSVlkAagnsQRM99hsR2TNwNIFZ6fxw/ctXfjKJB9vAxpdlanhbb9SjTh9LkdGWAFMNQ0p8w42AknKHh/crN3y7cCplgBfzxeS903v6Flf7R+2f0nzUSEX/i3GeL6rLlWGb/t15p+UeS3NHJAr8vMIx9TA4v4uwtdykVkxMDvArAizQmB2jMwCZgP7uVUo49Z09voDWUnKGgtA7ZElYOr1x8jyhv7pXwpdXUPV9uEeOL95vyl14d0hxveAt5OljDP/pBrRPof6DXWsAk6ugcXdGuH5Xb307u2LzjmaSVtnMSs/xOwkMiskzI55ZsXIrBCZDcwiDP8eYVZg538b/r3gVqUUuL+zl8OMQZKyxQJQe7WzBFwFPNc0Uus3kfDphsLW74SOdYMT/WHWX3Dy9Lr8ttcFeFuEQ109qWP5J9WQ1ib+g8jramFZQ+TVq9bwjXJ+j5NOYsq0bcwaSobLwVxk1q7yMMfw7wzPOJwVh0vDXb8Owrcuq3K2d/b6w1lJyty1jhFoXywBM+OPwGcZHPxawxW391X6m29on//0QrHwD0T+HmhwdaSS5Z9UQ9qaeEWMfKtGFvfLnb38QzV/wHGUh09za9ZoDW5lxo138KhJSFJ2WABqRLwdOFOKxNgZQ+7bOwpbLzmoY93mcn2jviWNDYTCBRDbA5yNtz6lWQzw1pkruj9vFFL2tc1jQQzcWBNv/I384oAhTutYx2AWF6+lhcnFR5lVGGL2ruIwyTF7Z2k4O+aYFSKzIswO8c+3L+/85Xm7VgeJgWet6uH3JiFJGTq2G4FG6tGl8w4qUrcSZwJm6QiwhRhuIMbrc7lw/fT81lvHc5vwg2fOmzp5av3zY4in5iKnRTgRqDfo9A+Pnfkn1Y4z5zF1R45u4LgaWNyHY0Jz11rud80/1TknMmP7ILOGEmYXds44DHG4SAyB2REaGJ552BBhVm749wYsD9Mv4dmda7nDICQpS8N/aRQsATNve4C7YuBOYrgzhHgvMTxSTJItuRAfC7nCphiYGYvJtFyO/YD9iRwVI8cQOAY4wgv+zLH8k2pMWyNfjfC3NbCoxVzkjJVr6HStl17LHKYlgVm5Og4OkYMjHBiGn2V4SIAD487/vfPaYbqJVdnOUWTe9bdzu0lIUnZYAGrUvB1Yqhne9ivVmNZGLgQurYkDXOSTXWt4r2t94p05j4OKeY6KcHRMOJrA0cBRwPHADBOakAuARV093GYSkpQdFoAaE0tAqRau/S3/pFpyzonM2LadXwFPr4EL4J79d/C8rD73LyuWQ27VAo7LRxYReR5wBnC0yVRkHzl5VS8/NwlJytSxXRobS0Apsyz/pBrU2sgXobrfhFuaIxzbcjmaV/bwK9d6+pw+lyOLec4GXgKc7HimXLsJrV29dJmEJGWHJ0yNiyWglL1rfss/qfYsbmRRAr8AcjVw9fuhzh4+4lpPv9PncmSS59VxuLhuMJES7iaRs1at4WqTkKTsyBmBxmN6R8/6fCFZDD4kWMoAyz+pRhUDn6mR68K74kz+2TWeDdfezj2revlAPs+zInwA2GwqpRFghylIUrZYAGrcLAGlTLD8k2pU63yWhcgpNbK4b+nqYptrPVuu7Wagq5ePh8BzgWtNpCQXBdtNQZKyxQJQJWEJKKX9Ot/yT6pF7e3kCXyiRhb3J529/MS1nl2revh9Zy9nxsDHTGOcFwY5C0BJyhoLQJWMJaCUzmv8GHmb5Z9UmzbeyTLguBq56F3uGq+N81pXDx+M8FajGEeIQxaAkpTBayGpdJ5QAv7SNKTqv76PkbfNurT7c0Yh1ehBAN5dC8sZ4Mcre7nVNV47unr5HPAlkxijgrfKS1LWWACq5KZ39KzPs8MSUKrycb/ln1TbWptYDCysiQNe4i2htWjyZt4B9JrE6OUHedQUJClbLABVFtNXrH3YElCq3rGw5Z8kIn9XI0v6y8613OwKrz1X3sV24P0mMWrJ7OPZYAySlC0WgCobS0Cpar3X8k+qbYtPYH/gwppY2Mg3XOO1a+eLX7pNYlQ2dnRQNAZJyhYLQJWVJaBUdS5uWNH9KWOQaluyg5cBk2pgUYdiPd91jde46DYwSuuNQJKyxwJQZWcJKFUNyz9JwyLtNbGYgZu6buVBV3iNb+6BVaYwKg8bgSRljwWgKsISUJpwln+SAGhp5gDgpJpY2IQbXeNq6WUtMGASI/YnI5Ck7LEAVMVYAkoTxvJP0p8VOQ/I18KihsDPXOFaDgnRUmvEIncagiRljwWgKsoSUKo4yz9JT774i5xVM8tazy9c4wIg+FbbkYpYAEpSJq+LjECVZgkoVcx7Lf8kPWVwn+PkGlnULStvYaNrXDt5C/AIBWcASlImWQBqQlgCSmX33oYV3Z80BklPdHozzyRyWI0srm8y1eMi7GcKI1NftACUpCyyANSEsQSUysbyT9JuDQ3VyMs/hjn7T080zQhG5OGr1vGIMUhS9lgAakJZAkolZ/knaY9CYF7NLGyk3zWux7d9ONQURrLb0G0KkpRNFoCacLtKwADrTEMaF8s/SXsXeHYNLWudK1wAZ85jKhaAIx0c3mIKkpTZY7w08aavWPtwjh1tloDSmFn+Sdq3WEMFIMx0hQtgKDAHCCaxb0nkNlOQpGyyAFTVsASUxszyT9I+LR++7ju6hhb5ma51AcTAaaYwMvkit5qCJGWTBaCqiiWgNGqWf5JGZGUT+wP1NbTIs1oWcYhrXsDpRjAiv1v5Sx4yBknKJgtAVR1LQGnELP8kjVi+yMG1tsxhBye65mvbzhK4zSRG5BojkKTssgBUVbIElPbJ8k/SqIR87RWAwFmu+Rof7Ozg5UDBJEYgcpUhSFKGz4lGoGplCSjtkeWfpDGM7TmwBhd7SUuL5U+tamlhcoS3mcSIDOULrDQGScouC0BVNUtA6Skj+PdZ/kka00VfwpQaXOynhQEudO3X6Dbfz+uBQ01iRH5xbTcDxiBJGT4vGoGqnSWgtFPkfQ2Xdv+TQUga41XfpBo9dl4MBDeA2tI2n6dH+LBJjHA3ifzYFCQp65eCUgpYAsorc8s/SeOTxBotAGFhayMvcQuoKSEG/hOYYRQjvMoIfM8YJCnbLACVGtNXrH04XywstgRUDV6WW/5JGrcA9TW8+J89pakmn4FYk9rm837gXJMY6WUGv+jq5V6TkKRsswBUqky77OaHLAFVY1flln+SSnU8Kdbw0h+Yj/xPezt5N4Rsa2viJTF46+9ohMD/mYIkZZ8FoFLHElA1NFi3/JNUukE+DNb48p+x/rd8EZ8HmFktjSyJkf92jDMqxVjg+8YgSdnnyVGpZAmozLP8k1Rqge01H0Hg9a3z+epyr4Ezp6WJ1wToAOpMYzSHBS7vupUHTUKSss+LH6XWrhIwwq9MQ5li+SepDJLIVlMAAq+5rpFvtM+p6WciZkZLC5NbG/lSiPwXUDCRUR4XAl8yBUmqDRaASrVpl938UF2x0GYJqMyw/JNUJgHWm8LjXrmhjp8vns+xRpFep85lbq6fnwNvMI0xHRN+3dXDSpOQpNpgAajUswRUZlj+SSqjIjxsCk/SnAS62+bzN0aRLuc3s19bIx/L5+mO0GQiY73s4IvDv0mSaoEFoDLBElCpF+L7Lf8klVPBAnC3lxAx8PXWRn7WsoDnGUd1a28n3zafv9lc5LcR3o/P+xuPRwa38m1jkKQaGnIagbJk8wUnHrwjP7QqwHNMQ+k5Esf3N1yy+hMGIamcWloohH62gM++24MI/ICED3au5Q7jqB7nnMiMbdt4DYE3AUeYSEk29g909fJxk5CkGhp2GoGyxhJQ6ToKW/5Jqpy2Rn4V4XiT2KtI5CoCXzitl58uh8RIJmh7beYoirwpwquB6SZSMo9MnsQRV97MJqOQpBoaehqBssgSUOk4Alv+Saqs1kYuBS40iRG7C/h6EX5wfS93Gkf5tTVxeAIvCpF24ATHK2Xx/s5evP6QpFobfhqBssoSUNV99LX8k1R5rY18Cni3SYzJWgI/KA5x6fW3c7txlEZ7O/kNd9NIQhtwEZZ+5bZhcCtH3ngHjxqFJNXYENQIlGWWgKrOI6/ln6SJ0dLEi0KkwyTG7SHguhDoGgp0Xb+aXxvJyDQ3U9dQpLEYODUXaYlwCjDTZCp0CRL4+1U9/IdJSFINngOMQFlnCajqOupa/kmaOKc+l8PyBf5gEiW3EejZ+au3mKPn4KP4bUcHxVoO5aw5zN5exzxgfg4agfkR5uCLaCZq4Nez/zEsqvXtUpJq+DwgZZ8loKrjiGv5J2nitTZyP/B0kyi77QHuiXAngbsC3BUid+3IcX994IFruxlI+wKeNYfZQ/UcksDTIjwrRI4icCSRo4AjgdluBlUjAqd09nKjUUhSjQ5HjUC1whJQE3u0tfyTVB1aG/kO8DKTmHCPAQ8ADwZ4MAY2xoQ+oD8E+gL0JYG+XOSxmGN7rsijIWEon9C/JUf82e30jeabnTmPqY/FJ8+8m1JgShxicjHHFPJMjgnT81AXoSGBqTloABpiZBZh5/+GAwMcChwCTHI1pkTk251reKVBSFIND0mNQLXEElATc6S1/JNUPVobeSnwPyaRSdsZLhZnAHnj0E4PDQXm3tDDeqOQpNqVMwLVkmmX3fxQXbHQFuFXpqHKCB+w/JNUTep38FPwGWAZNQmYheWfnijyBss/SZIFoGqOJaAqJ3ygYcVtHzcHSdXkqnU8AvzMJKQauBKBb3au4RKTkCRZAKomWQKqApfcln+SqlYMfNsUpMz7Qy7PW41BkgQWgKphloAqH8s/SdVtSj0dDD8rTlI27YiRl2XhbdOSpNKwAFRNswRU6Vn+Sap+V97MJiI/NAkpo1cjgbd0rfFWf0nSn1kAqubtKgGBX5uGxnm5bfknKU1XgZ8BokFIGbsage+s6uHfTUKS9ORLP0lMu+zmhwqFnCWgxnO5bfknKVU6e1gDrDQJKUNXI9CzdQp/ZxKSpL9kASjtNK3j1gctATXGy23LP0lpvRD8Z1OQMuMP+cB5N93EVqOQJD1l1GoE0pNtbl90yNBQsgo43jQ0gsOo5Z+kVGtt5BrgdJOQUm2gWOSU62/ndqOQJO2OMwClv+BMQI2c5Z+kLBzKeCeQGISUUpFtMXKe5Z8kaW8sAKXdsATUCEbMln+SMmHnswC/YxJSKu2IgZf4xl9J0r5YAEp7YAmoPQmRD1r+ScqSmOcdwMMmIaXKYIj8VVcvlxqFJGlfLAClvbAE1F8KkQ/OvLT7YyYhKUu6utkQA28xCSk1BiP81ao1rDAKSdKIxrJGIO2bLwYRWP5Jyr6WRi4JsNQkpKq2Hbios5crjEKSNFLOAJRGwJmAsvyTVCNeDdxtDFLV6o9wtuWfJGm0LAClEbIErF2Wf5JqRVcv/bkcy4CtpiFVnT8SaOnqpcsoJEmjZQEojYIlYO2x/JNUa1auZm2ENwDRNKQquR6BnqE8i3a+tVuSpFGzAJRGaVrHrQ8WQ+FMAneZRsYvti3/JNWorl6+SeBDJiFVhR8lOzj1hm7+ZBSSpLGyAJTGYP9Lbr6/SKHVEjC7LP8k1brOHj4aA180CWnCFAN8+LRelnWtY7NxSJLGNcY1AmnsNi478Rl5hjqJHG0aGTowWv5JEgDt7eQ3/JZvEHiFaUgV9XBIeMmqtawyCklSSca5RiCNjyVgxg6Kln+S9CTLIXd9I/8Z4W9NQ6qIn8WEl3St5X6jkCSVbKxrBNL4WQJm5IAY+P/t3X1sXQUZx/Hvc9oNtmFb3l8cBAaCTGAbdUwCmHZLxGkWAjowGkwkBuMfJCYo0QRhaDAS/EdeYmKiMUiMsGSAhhCUruUtZGjXrXMjAw1jaMggY822Cu16z+MfG0REXsbu7X37fpKbpmmTnv5O8/Q+v5x7z03da4Z/bBKS9O4R2b+AnxNcZxRSzUxGcPPRZ3D76tVUjEOSVNUnc0YgVYclYJMPQ8s/SfpA/Qu5Frgb6DQNqaq2RMnVa0dZbxSSpFrwJiBSlXhjkOZl+SdJH87gBn6ZyeXAHtOQqmIKuD176LX8kyTVdO81Aqm6vBKwyYag5Z8kHbRli5hfJvcB55iG9NEkPBPBtwdH2GgakqRa8wpAqcq8ErB5WP5J0kczMMKW7GExyR2mIR20XQnfmY4iAAAGzklEQVTf6dvAxZZ/kqRp23+NQKoNrwRs8OFn+SdJVdG3gKsiuAs4xjSk9zUF/HoquPHJEV4zDknStO7ARiDVjiVggw4+yz9JqqrPncdx+4KfEVxtGtL/9VhRcP3AekaNQpJUlz3YCKTa2nnFkrkdOTUEnG4aDTD0LP8kqWb6F3IZwZ0kJ5uGBMCzBDcMjvC4UUiS6roLG4FUezsvW3xyR1EOYglY34Fn+SdJNbeil9l7S75LcgMwx0TUpv6acOvQBh4C0jgkSXXfh41Amh6WgHUedpZ/kjSt+s5jbgQ/Ifga3nhO7ePpCG5dO8IjRiFJaqid2Aik6WMJWLdBd3P3A8M/MglJmn7LFjE/S36YwZVYBKo1JfDnIvnpwEYGjUOS1KB7saTpZAk47UPO8k+SGkD/Aj4VcGMGK4EOE1ELGAfuqRTc+cR6njMOSVKD78aSppsl4LQNOMs/SWowfQs5NYLrSL4JdJmImtCLGdxN8quhDYwZhySpSfZjSfVgCVjz4Wb5J0kNbPkSuiYmuCaTbxF80kTU4N4A1mTwm74R1q6C0kgkSU22I0uqF0vAmg02yz9JaiL959NLybXAV4EjTEQNZDjhtx0zuXfgWXYahySpifdkSfVkCVj1oWb5J0lN6qKz+Nhhh/PlDL4CLAU6TUV1MBrJ6oD7BzbyvHFIklpkV5ZUb5aAVRtoln+S1CIuWcSxM+BLmVwFXII3DlEtn0MEmyi5P5PVg6NsNRFJUgvuy5IagSXgIQ8zyz9JalHLLuDonGRpJisIVgA9pqJDkrxJ8FQmj3UU/HFghC2GIklq8Z1ZUqOwBPzIg8zyT5LaRG8vM3qmuLgMPs/+lwkvwqsD9eFsI3g0KjzcCWv/NMq4kUiS2mhvltRILAEPeohZ/klSG+tbSE8En41kaUI/cA5QmIwIXiYZjGRoKhl6YpQXDUWS1Ma7s6RGYwn4oQeY5Z8k6R2WL6HrjUkuCLiQ5DPAEuBok2l5lQi2kKzL5Jno5PG1w/zDWCRJent/ltSILAE/YHhlrup+cP0tJiFJ+qB/GX3nc3pRsihhYcKigIXAiUbT1F4iGCZZR7AuJxke2sxeY5Ek6T2eEBmB1LgsAd9jcFn+SZIOUd9iTujYx7llcHaWnE1wVsB84HjTaSjjwN+AjQmjRbCpTEaHNjBmNJIkHcQebQRSY7ME/J+hZfknSaqhi8/lyM4ZnBUl8yKZl8E8YB7BPJKP4/sL1kKF/Vf0vUDJ8xlsLZIXppIXlo7y0ioojUiSpEPcpY1AanyWgAcGluWfJKmOlp/BYRPdzI19nFQpOKXY/zLiuZnMJTgROAk4DphtWu8wAfwzYXvsf2zLZHsRvFyWbD+mwourNzNpTJIk1XCfNgKpObR7CWj5J0lqFit6mb2nwnFRcnwGxxZwbAbHAD3v85h14GOjPz+vAGNvP/LAx2AnyY6AVwl2EOyYCl6bNcGORzfzun8VkiTVeac2Aql5HCgBh4B5bTWoLP8kSW1i+RkctmcWszs76KaDwyOZU1ToqhR0ABQlBUH3W99fJkX81+cRFGX5zs/f+nqWTCT8+13/Z4NdAAmTBYxT8mbZwRsdMF4Gk5WS3UzxZmUfY09vZY9nSZKkJtyrjUBqLq+v7D2lmGKQNikBLf8kSZIkSTrE3doIpObTLiWg5Z8kSZIkSVXYr41Aak6tXgJa/kmSJEmSVKUd2wik5tWqJaDlnyRJkiRJVdyzjUBqbi1YAt7W88Dw9z2zkiRJkiRVR2EEUnM7avXw9szKMmBbs/8uGXGL5Z8kSZIkSdXlFYBSixi/ovfEfckjwIImPPwEftDzwPBtnklJkiRJkqrLAlBqIWNfPPfImDnzoYRLmuiwJyP4Rvea4d95BiVJkiRJqj5fAiy1kJ6HN+3a3Tnz0oB7muF4E17JjEst/yRJkiRJqh2vAJRa1K7LP/31IO8GjmjQ8TMwI/LqOWuGX/FsSZIkSZJUww3cCKTWtfvyC84sqfwCWNpAhzUWwU1da4bviv3v/SdJkiRJkmrIAlBqA69fdv6Koog7gFPreBiZmffOKGd874g/rNvhWZEkSZIkaXpYAEpt4uWVF87qmpq4JiOuJzltGn/0VMJ9WXLbUQ8Nb/JMSJIkSZI0vSwApTaTfX2du3v2rkzKa4joBzpq9KP+RfL7pHLXkQ9u2GbykiRJkiTVhwWg1Mb2rlx8QmWqvDKTLxBcxKHfMOQ5ksGM4v6eBX95MlZRmrIkSZIkSfVlASgJOHBlYPeeXiIWl+SZEfEJyNMSugLmAF3AJDBOMAa8msnfC3g+MzZ3lh1P+d5+kiRJkiQ1nv8A6na+X86F9rQAAAAldEVYdGRhdGU6Y3JlYXRlADIwMTctMDgtMDlUMDU6MzQ6MzgrMDA6MDD7PE44AAAAJXRFWHRkYXRlOm1vZGlmeQAyMDE3LTA4LTA5VDA1OjM0OjM4KzAwOjAwimH2hAAAAABJRU5ErkJggg==;" parent="1" vertex="1">
          <mxGeometry x="425" y="451.35" width="150" height="62.7" as="geometry" />
        </mxCell>
        <mxCell id="-OOyH-ofbqL9iF2JBirm-3" value="" style="shape=image;verticalLabelPosition=bottom;labelBackgroundColor=#ffffff;verticalAlign=top;aspect=fixed;imageAspect=0;image=data:image/png,iVBORw0KGgoAAAANSUhEUgAABLAAAALOCAYAAAC52epEAAAABGdBTUEAALGPC/xhBQAAACBjSFJNAAB6JgAAgIQAAPoAAACA6AAAdTAAAOpgAAA6mAAAF3CculE8AAAABmJLR0QA/wD/AP+gvaeTAAAAB3RJTUUH4QoaCDMHAMRs9gAAgABJREFUeNrsvXl8lNd1//85zzNaQGAMGBtjjFlmJNmCGYnxBpJGAzhOnCZxNrI2e5M2TZs2adr016Zt0iVtlqZJ803atEmapGmahKTGxiu2yTASYGwLpAHZSBoW2xgb25hVaJvnnt8fkm12tIykZ+7zeb9eeuUVG4u5n3vuveecuedcgBBCCCGEEEIIIYQQQgghhBBCCCGEEEIIIYQQQgghhBBCCCGEEEIIIYQQQgghhJDxRSgBIYQQQgghhBDinzg9XFN/mZNzZ4rrzTSq01XcSQ5wqRpMUtFJDjBdgUkASk/9DxWY5gDOa/9fTwDSf0YS4LBC+hTa5QhOANJvgMOiXrcR5+WQ8Q55rvNydnvjIQCG00F8szAoAbGRcPi2EnfqsZk5r2iGo2aGuDrDGJkpwHQ4KBHFVANMgUiJozpNIZOgplQhlzqOnLYuVPUSAO4ZB0POETl+6j8zqj2i2g0RT4BjCumCmG5ROabACSh6xJFjanBcXHlRFS+pwUs9Zb2H9m/Z0s1ZI4QQQgghxG4qK1fNzJX0z4PKXEfMNYBcBchchV4DYBaAywDM9EusPpDswiFAn4fK0yJ4BtD9Rp2nILo/1Fv09K5dDx/izJJxskdCCoeF8VumOab3KlHnKoHOUWCuKmY7iqtVcCWAKwHMAFBWYEM7CeAQgJegeE6hz0Kc/Y7oUxDnWeSw/0Tx8acPNDefpBUQQgghhBDiX+LxeFFXX1llTrTCgVOu0HIIKgCUD8YqtnEEQCdEs1Anq0AnHGRL+vra29q2vEyLIPmCCSziO5sMR5NXwfUWwcgiUSyEyCJAFwFYZOmGPxxeVsUeATpUpN1R02GADrfXdLa3bzpO8yGEEEIIIWT8qKionYpJTlQVNYBUK1ADYDGAYqoDADioQBuAJwTapg6eDHUX7+StLTKiZAElIBNFeWzlVQa5KgdYotAqVVkigmtReLen/MIBBXYB2gI4Laqy/eoZ2JVKpXKUhhBCCCGEkNFTWZ2cn1OvTgTLVaVOgCqc0nOKDJlnoWhVR1qh2uKq19peMSeLNWs8SkPOBxNYZFzsrDJWF8mJc4MAN0CxVIDFCkynNGNOD4AdALYD2OYabN61I90GNmMkhBBCCCHkoiyoWXlNkXqvh+oqBeoAzKEqY8bJwdilVVVa1NHWULe3g5Um5NXEAiUg+aaipnaOmtBNRnCDqN4IIA7gUirjG44A2CSqmyBuY99RPL5vX6qHshBCCCGEkKAzJx6fPMUrS6ri9YC8HtAKqjKhKET3QOURBTaExNmwqyW1j7IEEyawyKhZtDhxtbjaAHEaRLUBQISqFBS9AB6F4AE1el8207gdgFIWQgghhBASBCorV830SnJvAfB2QG8BUEpVfM0eVX3YATb0m+Lf7N358EFKEgyYwCLDZmG8bl7Ic1aoShLQBICFVMUqDkJxv0DvL/Jy6/lyCCGEEEIIsY2Kmto5qu7bVPE2AA0AQlSlIFEAbRA8rEYeNkVF6T3NDx2lLHbCBBa5KNfG66/MebJCISsEZgVUFlGVwOBBsEmAX/b1O7/e15Z6npIQQgghhJBCJBq9teyk9L5d1HwQIivB5ut2xi/A4yK4H6r3drQ2Pg72/7UGJrDIuTd29K6E6OtFsRIDLwMS4gHaqOr80jOh/+NV3cJnTjw+eUpu6lJAZ0HNTDiOf5041aMQ7YW4J9TLHTcIdZV62NfWljrBmSQTTbimfpaIXIacuQSOe4kCl8LoJY4j7oR+MGOOQZxeOHLceDgRUtOVm9z7VHbr1mOcNeIn5lclZ4dcb47jyGwDKRPFFBEU+e6DGmMUOCxwXpDeXAsbSxcMTkU0kTTAByF4B4AplCRQvCiQB1Rxb7HX9wCrSwobJrAIAGBRNLnYgXkDBG/AwOsaJVSFXAAPwAYBfmC6ytZms/f1UpLCIVLd8DoY82cQSQAoLnSnBKqt6jiPqeLBq6dLYyqVynGWyVgxb0nd9GLXvUWgtTC4UQSVBfiq7suAZhTS7Bh5+OSUvtT+LVu6ObtkPFgYv2Wa09/7OhGpB3AzgEoAlxSoL/S4KL5b5B36eVtbWx9n119UVq6a6ZX2fRQqvwe2PCED5ABsFMEdxjh3ZjOp/ZSksGACK6DMn58sLZqWu0VV3iIitwGYS1XICHlJoT8RV77fuS39JOXwL3OXLZs06WTxDwF9j7WDVByC6A8cx3yrffumA5x1kq8zM3SpeQcUHxUgAfv6pJwE8HNxzL92bG9q5YyTMcAJRxNvEuB3IbgFhf/lyekBlUgzPO9dHTua9nCqJ57y6oYbVPH7g/4Om7GT83uNwGMK3BES5+d82bBA9ltKEByqqpbN6A0V/5ZAbwfwBgBlVIXk+RxoUuB700Inf9Hc3NxPPfwVPJTH6u9RyBsCMt4TUHyhM5P+FqeejJjVq91w5wu/K6p/CWBOAEZsVPDTkv7+z7DEguSLcDTxFhH8I4DrLB/qc47jXc8vTybSz2m4XaGfB3AT5SDDDWIE2ALBzzyTW7M7s/kFSuJPmMCynPlVydnFIe+dgLxdgXrwdQ0yPuyH4ls6qfc/2GvFJwFErP4zAvlGAL2Rn5T0H/o4SzvIcFkYr5vn9js/h2BZ4NYN9Cko3p7NNG6jJZAR+6Dzk6VF08z3Abw/QKsn1dnauIKzP37E4/Gi417Z+9Tg8+zbS/JETgUPiuL7l4S61vFLeX/BBJaFVFaummlKc283qu+RgSdhXapCJoijgH5PUPSvHa0bnqUcE0NVVVVxX2jmPgBXBlSC9dpV9hb2aiNDJbI0cS08PIRg3Lo6Hyccxe3tmfQGWgQZSVLhWK7sHgCvC9rY1dFkdnvjRlrB2BIO31YiZSc+AZXPQTCPipAx4jkV/S/XyPfbM+m9lGPiYQLLmgA1OaXfNW83Dt4jilsAH77cQoJMH4AfqTp/x2aJE+DkRRveLKJ3BVsF/a/O1saP0hrIxSiPJy/TnNkKNvwFgKPq6PLs9sYnKAUZDpHq+u9C5ZPBPG7w485M+sO0gjFi9Wo33HHwQ6L4GyauyDhiILhb1PlaR2uqiXJMHExgFTZOuDqZEGM+zCdhSYHQDcF33J6if9q16+FDlGOcAolY/VcA+bOg66DAu7Ot6V/SIsiFA++GNVB9J5V41VPMFPcfuoFluGSolNckb1FjHgywBHs7W9NMgI/BbhSO1r9DRP4OAy9XEjJRDuUWEflaR+vGOwEYCjLebgkpOMKLVy5y3P4PKuSDAOZTEVKAHAP068U591/a2lInKMcY7xnViXtFcRuVwEEvVFyxp/mho5SCnHOtDDSbvpNKnOGrK76YzaS/RCXIRddQ+LYSlHVlBCgPsg6TtHRKJrO+ixaRHxZVJ5aLwbdEcD3VID5im6j+WUem8WFKMX44lKAwSCaTofJYw9siscQD4uY6FfLXYPKKFC6XAPK3fSGTDccaPgAm08cUUUynCgCAK9xc3+coAzknq1e7gy+lkTP3EMGfXhuvv5JKkIvaSlnXnwY9eQUAXaZnBq1h9Fwbr7+yPFb/E0fRxOQV8SFLVeSh8lj9feFYbRXlGKdzhhL4m4qa2jme535cBB8HcBUVIZbuRGljnE/tzqR2Uoz8E44lMgIsoRIDcUWvMVc/vaPpMKUgp62TaP07RWQNlTgf+u3O1sZPUwdyPgb7xz0FYHLgV4ujVewdN3Li8XjR8VzZpxX4awCXUBFSAPQL8I0Toa6/PdDcfJJyjB28geVXR7qmYVmkumGNMe5TIvgimLwiVnt6SDhitoVjia9XVNROpSD5RRQvU4VXKSsR52OUgZy1ToDfpQoXVOij85bU8TYnOf9RnjO/ByavAABFDvglyUhjoGjy5mO5KdsV+DqYvCIFtOwV+Pzk3OQnwtGGN1OOsYMJLD+xerUbjta/MxJNbBajmwebyIYoDAnKxi/An5hS94lwrP71lCOPYafgBapwqiD4faxe7VII8mrAtHjlIoisohIXhMlfcv41FL6tRIBPUQkAgE7GyZcow/CYu2zZpHAs8XUR0wQoy7FIgbqYco2I3hWuTvy4qirJB9bGACawfEA0emtZJNrw6UjHwQ4RWQPBMqpCguzDCOS+cCzx/+bE4/wmNw8YkSxVOI0F4faDv0UZyKvOkJv7ONhWYSie+YcoAjknZV3vV2A2hQAAvNTc3NxPGYZOebShftLJolYB/gQAv2AihX9cKj7YFzKPldfUxahGnn02SjBxVFUlp4Rjic93S89eiH4LAJ/cJWRw3xfgU2W5KdvKY/U3Uo5RYsw2inCWgfGmABlg9WpXgQ9TiCGxOFKdrKYM5Bx76h9RhVfQdmow1Fioqrg81vANFU0BiFARYhmVapxHyqsT/PInjzCBNQGEb7rpkkh14i/7XLNPgH8CMIuqEHJOJ7BCIZvC0cTfcL8aBaZoO0U4i1v4qhoBgEWdB28CcAWVGBoC81aqQE6L0JYklkARpRKvrhI2bx8CC6sTkf6iyzYr9DP08YjFlKriv8pjDZ+lFPmBm8U4MicenxypTvyl01OyD4q/h2AmVSHkooRE8MVwdeJuNhAeGdmdG/YAbOR+5vmX63dWUwbiKG6jCsMKzt9EDcipeIJ3U4VTUDCBdRHCsYYPuIpmVY1TDRKEg1Oh/xyJJf6OUuTBb6ME48Dq1W55tP53ynJlnVD8vQIMwgkZ/s5/W4krj1Usrue3vCNwpxWSpgxn2JQogy4CAG+kBMPZTHRpuKaeN8fJKZsp3kURTgmuHH2cKpybaPTWsnB14scC/QkAvjpNgsYXItGGT1OGUe6xlGBsCdfUN0Q6DmZU5D8BzKEihIwmcpJFxpUtkWjDeynGMOML1RRVOMOcgGULalZeQyWCy/yq5GwANVRieNuJY5w6ykAAYNGSujjYu+hU+nqPuM2U4WwqY3Xl3dLziCg+SDVIgB3yr4dr6hsoxMhhAmuMGCwX/KYY2QDgOipCSN6YDNGfhavr/wF8NWzom73R31CFs92IkPbz5kCAKSry3sB9ZPgYGCawyMDZ4gj30NPZtm9fqocynE4klni7B+cxAIupBgm66yFGfrlg8Sr23hzpuUMJxmCTrk5WT86VbYfij6gxIWODqPxFJFb/g2QyGaIaF6d9Z+NOKA5RiTMjcfktihDkfQQrqcIIdIPUUwUyGEpwDz19bWyhCq+RTCZDkerE1wD8CsAlVIQQAMDlbqj/q5RhhKcOJcgv4Vj966FmowDlVIOQMXcVP/LsYXNvRUUt+yhcHAORBynDWdHGzXOXLZtEIYKJMhEzUmqqqpJTKEOwGbhBoKwyOO2g1fupwgBVVckpzx42a6H4HHjTlZDT3U/FB1hKODKYwMoj5dUNHxfIPeA3DISMJ68zpe76yspVfNXzosE67qUKZ1FS1lW0jDIE8MyOrbwKwHwqMSJC/a53E2UIuBE4uZVgYuJUjpTkDqUoA1BRUzunL2QaAfCGHiHnRmDkrynD8GECK0+Eo4m3qOq/AXCpBiHjzs25kv7fMIl1YVT7HwBgqMTpGMEKqhDEBdHP21ej8iB5ey3wS8hhCe7p0ajc3dbW1hd0HSqXJJYY4z4CoJpWQciF9gwkF8br5lGJYboflGD0VCyuj4rgZ2DyipCJPASW5Ir7718Yv2Ua1Tg3uzObXwDA573PDMLABFYQMSK1VGEU68Yo9Qv6uavKBNbp/F/QBVgUa1jhOWgEcDXNgZCL4oT63d+mDMMUjRKMXkPPkR8AKKMUhEywMy243sn13RON3sr1eH6N7qMKZ2gC3ECbCeK88wbRKDeTZXxEI7hUVifnA1hIJV6l60ToxANBFiAcq3+9A70HAL9IJGSIqOibqcLwYAJrlERidW8UwfVUghC/BKWo7ZaeO+fPT5ZSjXMqdA81OIvik9LD2yQBYuCmpi6hEqOi7MARraEMwcRT5c3V07n/QHPzyQDHQ28SyJ0A+CgKIcMjitWrWcU1DJjAGnUs6H6IIhDiO1YVTTM/4x53Nh0tGx8H8ByVOOswZDAWIEJ9/cu5P4weo6aOKgTU/QX7X52KQtcGdeyRWOLtgPNrACW0BEKGzeRwx4FKyjAsn52MmNWrXbD+nxC/8rbyWOLLlOEcfjawjjKcJQoTWAHCuEy85AOBUMfA7pn0f0+hv89oIG83l1fXvxXALwAU0wwIGeFZqqEoVRg6TGCNgkj7c9cDmEElCPGrg43Pl1c3fIJKnBW+M4F1NvHwTTddQhmC4iyy/1WeqAcglCFg/u/SxLUA5lCJV5wN3fj0jqbDQRt2uDqZVJX/BcBeeISMjlmUYOgwgTWa80pkOVUgxO9+pX47siSRoBKv0T3ZexhAF5U4jZDTW8LbJEEIusK3lQC4gUrkx+muiNaWU4aAnatGeGP1VAR3BW4fjdYvFTV3AmC/UUJGvYcYPnwwDJjAGp218fUVQvxPMQT/VxFNLKAUA+zfsqVbFA9RiTOCMpYRBgJ3yonrGXTlDw8uE79B837ZPuO0o8ML6Z1BGvDC6kRERO4DwFvLhORlUxWupWHABNZobA1gQExIYSzWmUbwi6qqKvZoGMQE8Bvji5sJbxUEAU/Ztym/fjf1DFzsoEhShlfZvqe56emgDDZcUz/LVTwA4HJOPSF5QjGVIgznECKjgQksQgqHG3pDM/6RMgyelZq7G4ChEqdqotXzq5OXUgm7YePxvK8c6hkgwrFEDIKZVOJV+18blJHG4/EiMfgl4x9C8u5/MiczDCjW6GDDNUIKK3D9TDja8GYqAezObH4Biq1U4jTckDHsl2a936PsX5lfwvOrkrMpQ1AWEG+qnnZoGFkblLEey5X9OyBJzjohZIIdOTIKJlECQgoKcUR/vKBm5TWUAhAoXyM881AUOuc2syiavA58PTjvhFyPt7ACgqquogqvHKK6e9eO9I4gDLU81vBZAB/lpBNCJtxXpwSjgk1gCSk05xuYHjL9PwKffocRwz5YZ9sHmxPb7PQIEy1jEsc7LMsMAslkMgRBPZUYPC8UgWjeHqlueJ1Cv8oZJ4T4wpejBCMjHo8XAQhRCUIKMtxKRmL1vxt0FbKtm9oAdNIeTgtJlpTHk5dRB2vXPhMtY6EqdQ0EzxwxNwJsNvxqEKXOWtvHuGDxqitE9ScAXM44IcQXey8lGBk9PVNLqAIhBR1yfWXR4sTVgZdBcQ9t4YyYJMc+WPaaOxuOj4muqtUVFbVMbNgfNLD/1Wu82FFx+Wbbp9x1+3+mAHvcEUL8dBaRkZDL9QtVIKSguURC+F7QRTAiLCM8OxxPUgP7CEeTcwXC/ndjg+uVussog+U7o7LE+hUEuAtr1nh275mJvxKW1RNCfAYTWISQ4DqgitvCsYYPBFmDq6dLowCHaQ2nHY102G1c7w5v1o1tQM8yQpuZPz9ZKgBf8BzEKKz+8idcU98ggr/iTBNCfOelUwJCSLCDLv3GvCV104M6/lQqlVPFfbSEU9HrFkWXX04dLFvrBrVUYUz3UiawLKbkErMcfLzoFbp6yvoftHVwVVXJKWLkv8C+V4QQH8IEFiEk6FxW6riB/pZRoOtoBqdLIk5RA2WwC8PX08YUBW6uqqoqphKWrh+Wkp3KA/u3bOm2dXB9Rd5XASzgNBNC/Ahf0SOEMPCCfqoyVvfvu1qbOoI4/lxRyX1urq8fQBGtYQBRXQlgDZWwg3lL6qYLUEUlxpRJve6spQAeoRQW7omCFUoZXtHC2vLBRbGGFVD9Pc5yQdIF4AiAw4AegaJn0GB7BTj5isurA3/mFQd4isiA76fAJVB1B/+baSLiDPwHOh3ADACXUmLiB5jAIoQQoNiD83UAbwni4Pc0P3Q0Eq3fCJFbaAqvkqQE9lDiynIob52PeWAPUwcmsKyjoqJ2qgFuoBIAgJzTU3S3jQOrqkpO6YP5AQA+VOUf+gE8C+AZgTxlBM/A4BkR7xkoXnSgR3LQw6Xe0SNtbW19Y/xZnPJ4coaTy83IOe5MUTND1ZkhqjNEdIYKZsHINRDMB3ANgDJOHxkLmMAihYwH4CAgLwr0ZRU5BNVDKvIyVI9C5ZgIelRwAmqOOY7rGWiX5ryzNvhQKCQ6+M2CqleicCYDgAx+M6GqosClAilT6HQBpkMxHYIZAK4AcCXYG6LQeXN5TfKWju2ph4I5fGcdoExgvUZlRU3tnPbtmw5QisJHVOp4e2QcdAbqAHydStiFTnLrobyhO6hG065dDx+ycWR9rvk7sHRwougB8AQUOwDsVEEG6jyRzaQOADA++Yymozn1EoCXhvKHy+PJy7y+3DWu484zYq4RyHxVuUagYQAV4K1/MkKYwCJ+5gQEe1RlD2D2CLBPBU87iufEMfvbw3MO+ukJ43lL6qYXOzrHcYquhOfNNw4WiDoLAV0AYBGAyzilPndLjfkagKUAAhfruo7c5al+i1ZwiqembhLAz6iEBWsbWsdLBeOgs6AWA0IzX2jVXoiVXD2vGvlaG4e1KJpcDDF/wAkepyMJaBNFWiFNorK9o3JWp59imnxwSrKr+cx/V1VVVZyTGZUmJItFsUSBJQpdLJBraB7kYjCBRfzAAag+AZEnADwBgyeN5Hbtzmx+4YL/1XZ/DeLpHU2HARwG0HZu52D55S7cJQqnCqJVAKoHf9j01j9Ul1fX397R0rg2aAPf1ZLaF44ldgiwhGbwiocpK8AEVsEzf36yFDAsfxofLgvX1F+b3d74BKWwB2ED91dxHedOG6fYEe/bgDAuHCN3QkS2QZE2YjaGeorPvsW3I1iCDJY7ZgZ/XmVh/JZpRV7vYqNYApWbIVgOIEITIqfCjYqMbzwIZBXYJiLbRGRbUV/vtra2LS8HYfCDCbmHB38AAOHwbSUy+Xg1RG4E5CYMOIlX0lQm0EhV/hrAnQjgDQJR3AVhAus1PTRJFQqf4kv0BgVKqMT44KhTB4AJLEuorFw100N/jEoAAFp2taT22Tao8mj9uxXC8y6/eFA0QfTXqu4dna2p/ZTk4uxpfugogE2DP/8OAAsWr7qiyM0tNzB1AlkOIA6WHwYaJrDIWHIcqltFsNkAm02o5JHBjYkMks3e1wtg6+DPtwGgfEmy0ri6UlRXAbgVwBQqNa7UhKOJN2cz6buCNnARvUshf0kTeJXwosWJq3fvTD9DKQoZw/LB8URNHYD/oBCWROHFfUlA+AACAFWstW1MVVXJKX1i2LcubyaC3wjwy5xXtHbvzocPUpLRM6jjHYM/mLts2aRJJ4puEJE6hVkBkQRYzRIomMAi+eQIBGkYbIDjbOyMzNphWz33eNCxI7ULwC4A3w2HbyvRyd0rHDG3Y+CFvDlUaOxxHPlrAOsQsFtYHa2Nj0diiefAW4Cv4jpYAeAnVKKAIwpIHVWg3mRkCGQlG5oNamFh+WBfyPsMIFdxdkfFUQA/dmG+s6u1qYNyjC37t2zpBpAe/PlyVVVySn9IX2cEbxTVNzJWCsK5REZERUXtVFPqHgu4DCcBNCmwwRHZ0BG5fBsTVmOKU16TXGnUfEAUbwMwlZKM5e6ob+psabwnaMMOR+v/Q0Q+TgN41RB+1Nm68SPUoXD3zUgscQiDr8yS8XIuQ3M7Wjc8SyUKn0g08QQE11IJ7OtsTVv1Ql9V1bIZfaGiPQCmcXpHtNO1qeI7JZ78d1tb6gT18MekhGOJakflNoj+lgI3AXD9H3Lgux2Z9Kc4fUODN7DIcOgDsFUEG9TDhmJz6JHBJnwDtFCgMcZ0bE89BOChOfH4Jyfnyt4jwB8AqKE0+UdVPgvgnuCN3FkHKBNYr1lCkhoULhWL6xcbJq8mYNn01wP4OYUo8PVTUzvHGCavBiJMWHf7qreo+HOiyuTVcLc3oENU/6Izk/4/8MVV301PtjW9HQNPfX25snLVTK+0781QeR8G+gz7M5klOM6pGzpMYJGL8cxAEG/umaSTf5PJrO+iJBPPgebmkwB+COCH5bFkHWA+rcA7ALBPRd7OEqxYFE0u3p1J7QzSuHvK+h6adLLoJIDJtAIAwPyKaGJBeya9l1IUHl7IqRNlfDHeGJFaMIFV+OtH3RUs1RiMiuGstWk8CxavukK0/9Oc2WFxUEX+dpp74j+bm5v7KYf/GXzt8UcAfnRtvP7Kfg/vloFklr9eJlY5xtkaOkxgkbP9FeARR/UeMbinfWdjhpL4m47WVBOApsjSxLXI4QsQvBsFcF22ABBHzB8C+N0gDXr/li3dkerEQ1C8hSYwuCkKVgBgAqsQFzEbuE+Q7lJPFSyYR8VKqgBAcWjudDRlbQoAnf4/B1DGyR0SPQL9alHO/RpLBQuXJ5sbnwPwTQDfrIzVlRtx3qeK9wGI+GCT4SuVw/IxyIiwrAfWyxB9AJC73Z6iBwaz1aRAKV+SrFTXfIUJiLxwsjjXf3Vb25aXgzTocDTxMRF8n9P/ajD+047WjR+gEoVHJJZ4GsDVVGLcMV6oeAZfHi749bMXwPzAC6H4cWcm/WFbhjO/OnlpkZpnwFeuhzL5TY6a32nPbGqnFpbGTbH6GxXyMQDvxwQldVU1ns00buNsDA3ewAou+yH4tRj5dUfF5ZvZfN0eBl8xvD1S3fA6KP4F0CqqMmIm9xWFPgbga0EatGeK7g65/QYsSR2MXXQFVSg8KquT8z01TF5NDE6or385gPsoRYEGdUvqFiqTVwAAcXStTeMpVv2oMnl1MXIKfCHb2vg1AIZyWBw3tTY+CuDR+dXJzw+sDf0kgPA4foTenrLck5yJYTgYlCBQ7Ifim45oXWdr+prOlvQfd2Q2NjJ5ZSedLRsfvGq6VIvqXwDopSIjROWTCNht1b07Hz4I4FFO/qtcVRmrK6cMhRZ9eHVUYeIwrqH+hYwIywcH6D7hnlxvzWhWr3YV+gec1gvHS+pIItua/gqYvAoM+1pSRzpaN36jszVdIUbeCMW94zT/6/dv2dLNGRg6TGCNkClTenoK5KM+A8U3jaC2szU9rzOT/kx7S+MmbsjBIJVK5Toyjf+o8OKqeJyKjIgF4Zr6ROBiF9W7OPWnBOPiJqlCgdkwhAkU6k9GiDrsfzVwFmL94MM5VlDe+fybASzgzJ7H7hWPO453U3b7xi1UI7guX8eOjfd1ZtK/pV6oXIF/FuDwmNmc4BeUfHgwgTVCBl+f6PPpx3tWIP+ijizvbE1f05lJf2Z3S3oz+NRrYMm2bmqbO8NZptBv0A5G4MAa+WDQxuzBXceZP82pZRlh4a1cJlAmdNHgxnD4thIKUZiLR1S45wFQkTutisxV/pCzet5Ewn0ni7oa2rdvOkA1CABkd27YnW1Nf65US6/GQGnhrjz/FU/MvdRhAmu4BxQlGDmRaOIlCGb65OP0ALJWYX6ULZ/9EMsCyfkIR+vfKSI/BDCVagyZY12hritt+hZ2SHtcLLEbwEJOPyDA8x2t6TlgArggqKpaNqMvVPQS/ZyJxRGtG7z1TQrJT6ipv06MtFEJeBJyZnc0p16yYTALalZeEzK5vdwXz8kdxblD72lra+ujFORC7uCiaPL1jpg/BnDrKNdSTlTf0JFpfJiyDtO3oASjsGBH9vngY2wF9JP94lzZ2brxvdnWxgeYvCIXIptp/JVRZzkAPtk6dC4p659ye/A2OfAW1iAKzA7X1F9LJQqDXre4lkGaD6J/5S24ggwODMsHB8/ATbYkrwDANbn3cl88x/kuuO+SUNe7mbwiQzGX3ZnU/Z2t6TcY1ykXwZcgunsEv8eI4HeYvBrhGUUJRmHBqrsm6K9+DtCvqqNVna3pmztbG/99X0vqCGeEDJXdmdRO42E5wG9Yh+zHiglcGaFjwD5Yp236TpIiFMx6ZeLEF/E/E1gFudWBDdwH/fy1lg3pfZzVs3hksildPdgahpChx1LbUtmOlvQXO1saI0ZQC8G3BuOqi93Uf8IRTXS0pH9MFUdGiBKM4mATfVxU3j9Of10/RO4EzI86I7Pv5y0rMuqNd2f6mXlL6upLHOchAEupyEUd+tctii6/fHdm8wtBGfOUoq7GY7myIwAupQUAAqwA8F0qUQhzJXWs9fTFzrkcA1+W8uGYwsERIMn1AzhGrel/VbkkscQDlnBWT+NAf855W2fb+i5KQUZz0A32mt4MAAsWr7rCdfsboLgWjsx1jM5S4Ig42GeMc382k9oKtqMYrT9ORkp48cpF4uayY725quI/ior0P55sbnyOqpN8syi6/HJHitKAVlCNi5xQwMeyrekfBmnMker6n0HlvZx9AMCLna3pK+h4+Ju5y5ZNmnSy6DAANhD3Aa5BdNeO9A4qUSA+wZK6uOM4fLVYkOlsScdsGU55LPGPCvw5LfxV+o0gOZh4IIQUECwhHAXZnRt2QzEWz6waqD6kIu+6JNQ1P5tJf4nJKzJW7M5sfsELebeCPbGG4M/irYEbM8sIT2VW5ZLEYsrgb0p7QjeCySvfkBOWERZUYOCyfBAAxLLyQVXczlk9TZG/Y/KKkAI9pyjBqAX8Qh5/3V5VfDHnhBZ2Zhpfl23ZuIY12WQ82NPc9LTjOG8D0EM1Lsgt0eitZUEacJ/j3g+A+9AgnvBpef8HnkyY+Go+oJyPglo/bOAOAEZhTfngwnjdPAj4CMkgqnj8qunuP1IJQgoTJrBGSXsmvQGKb47iVzwD4F8FTn1nazqczaS/tHf7hqeoLBl3W96eelyhH6cSF2RSj/TeGqQBDz4QkebUDzq+AiawfB+AM2HirwlBgiIUBvF4vEjZeB8KfSqbadxuy3hCnvt6WverGEf0U6lUKkcpCClMmMDKA52Z9J9A8HUAQ2qsrkAHoF8VkRs7W9PXdLam/6ijNdUENjklE0y2tfGnAP6dSlxg/aoG7xq+Yh1n/pVYXBM8O33M6tWuQpZRCF8xd2G8bh5l8D8nvMk3ApjCfR53waJeh6rKBNZrs/uTjtbGR6kDIYULnfD8YDpb0n+qqjcq8B0AnQBOYiCh9exgn6zvQfB+QWhutjVd0dna+PmOlo2Pgc2Aic+YpKWfG0iykvN4tr8VtL3TAftgncKMcCwRowz+JNL54hIA06iEz/YQz6mnCgXgzLJ8cMBeVdbaMpZkMhkCsIqzCgDo80Le31AGQgqbECXIH9lM4zYA26gEKWQymfVdkWjdByFOE/eIc3LZoiV1Nbt3NDUHZcDtmfTecCyxQ/gE90BwA1kBYDuV8CHq1fOBZf8h0FoA/0MlfA8TWMDLV85w0u2WDObAYW8pIJdyWgEAP9rT3PQ0ZSCk0P1wQgg5g85M01ao/AuVOM/GGcRXmkRZRjiIgn2w/Ds3UksV/DgxwhtYPmfusmWTwPJbCPQem/ojKXATrXtACuM6X6MMhFgQh1ECQsi5KPbkbwE8SyXOGSQHLoEhRllG+JoF1GP1apc6+DH4BBNY/qSqqmrZDMrgXyZ1F9cBKOH5bk/54MCe6NxI6wYAPLh7WypLGQgpfJjAIoSck7a21AlR/RyVOIdDqKiPx+NFQRpzZ6bpMQGe5+wDAKaVd76wlDL4i/IldQsBzKUS/tw2+0LucsrgX3izFADQM0lLH7BpQAbKBBYAFfk+VSDEDpjAIoScl45M488F2EwlzmLK8dzUoF3LN0bkbk49gz3fIk4dRfDx9IDz4+v5UWX/K8hDmcz6LltGM29J3XQBIpxXdJ10T9xDGQixAyawCCEXcWrxV1ThbAwC6Owb9sF6bV0YJrD8tyaZIPH1/IDz41PCN910CYB40HVQ1bU2jafEda8HX7WAAPccaG4+yZVOiB0wgUUIuSDtmfQGBTZQiTMdIg1cr52TRV0PAaATCEAhdUErI/X/mhSbEiQ5++YH1w80Cie+o7u0AXx12FPkrPqSRmGqaNwABPdSBELsgQksQsjFNwqVL1KFs4KxGxCwbzYHv8F8mLMPAJhy1Ey5njL4g/J48jIIKu3ZYHQNgH7Lpqlk0omiG2itPjzjhSXRgG7Zndn8glXzaoTlgwByrvkNVSDEor2NEhBCLkZHZmMjgMeoxCmuLjC9MlYXOOdQlK8RvnqAegz6/ILxvFpYlFBWde4DsN26/UOEZYT+PM8C3/9KLHt9EABU2P8KwJ49zU1PUwZCLPK/KQEhZEjOneo3qMLp5CCBe93Hg3cXAMPZBxTsg+WjSK3epuGERBohSNu3ZoJXeu13KitXzQR0SeDPc8FdFq63cp7T/PKVENtgAosQMiTmzHB/BeAZKvEaAgQugTVYYkGHEABElofDt5VQCF+sRZsSI/t3taT2qUGjhRNVS9/TX+RKcys5J9i5pyXdadOAwuHbSgRyNS0cLZSAELugE0EIGRKpVCongh9SidOisUD2cxEVlhEOMNmZfPJGyjCxzInHJ8OmF9REGwGgxOtvgn23HaeV19QtodX6ydw08OWDUNxp3bxe0rWQcR4gMDu5ygmxCyawCCFDdwQMfgyWj51KdRBfonNU13HqBzBsfjzhTMpNuQmAPetQB0oH29q2vKxAm4WLpp5W6ydzY/8rx3XWWrfMPJlN6wbUkT1UgRDL9mxKQAgZKu2Z9F4FUlTiVUqP5koD12Ni1470DgB7Of2AsA+WDxwZY1VjcIV5tXTQUfvKCA3YyN0vhKPJuQIEvU/S/vbtqWbbBuVCL6eFQ3tKc/RVCLHO7yOEkOFsGoKfUIVTkNB1AR05b2ENGMDN8+cnS6nDhM6BPQkRxaFs66YnTvkH1iWwBGACyzdBgAn87SsF7hz4H+tGNosWjsP7t2zppgyE2HZ2EULIMOiDcyeAPioxiNFAJrBElX2wBih1p+kyyjBBrF7tArBGfwGaTg2m3SJstHDWrqqsTs6n8U48LB8EHMe+8sGBuXV4AwvyIjUgxMJ9mxIQQobDvpbUEQC/oRKDm6igKojjnlp0Mg3gCC0AcMA+WBNFuP35GICp9sRbp5cMPtnc+BxEd9s2bzlV9sHyB0Hfu45MdY5vtHNovIEF1Ze5xAmx0u8mhJBhxlgi/0cVBv0jSCBvYDU3N/cDcj8tAAD7YE3cXgTbGoKfo2RQHQvLCJVlhBPMoqXJMATzAi7DPQNnmY17I2bygMBJrnRC7IMJLELIsOnrl7tgZc+IEQWc5UF8iXBg6GAZ4YCXfGM0emsZdZgA5QW1Fg2na2ro5PZz/PO0hVPHBNYE4xpl/yuRO+09njGZ88t2F4TYCBNYhJBhs68t9TwEO6gEAKDoqJkcCeLA+x25D0A/TQDF3U7vcsowIUGaRQ3cdcu5boMYVxotnLpry+PJy2jBE4fRwCewet3unM23iIsDH+QaJrAIsXJtUwJCyMhiLX2IKgwgRhcGcdz7WlJHFGikBQDKXjLjzqKlyTCAK62xITl3qeDubaksgAPWbZueV0srnjj9BUgGXIOH2ts3Hbd4fIF/Hdc4TOIRYiNMYBFCRhZsqfsgVRiMBCDzgzt4XUcLAESVCazxdmA8uxqBXygZPPg6oV1rxjhMYE0QlUsSiwFcEeg92+LywUFKeC5jClc7IRb6f5SAEDISuouOp8HysYHAU+SawB4inrIP1gDXV1TUTqUM4xicQG1KgPR1h05svcBg7euDJXyJcKLwBEEvHzR9/WL7ly+8fQSwNyUhNsYelIAQMhIONDefVEUrlQAQ4BtYHTua9gDYSRtASItDbEw9jijEov5XaD7Q3HzeF7MkpzaW6i6dE49PpiVPiPcf6ASWAI/sa0s9b/kwA5/AUvAGFiF2HmGEEDJSJ1B0C1UAoHpNoIcvvIU1oAP7YI0X4Zr6WYCW27OZXjhB1b6zcSeAl20LsCd7U2+kNY8zq1e7UCQCfmatDYCHFviXogW4auB/CCE2wQQWIWQUXqDDBNYA8wM9euOyDxYABftgjVtgYqTersDkojesDCCb7QuxPZYRjjPlHc/HAVwaZA1c1TvtH6WyxQNQVlFTeyVlIMQumMAihIxiA9FHqAIAYFZVVTKwV9WzmdSjAA4G3QhEUDO/Onkpl8M4hGZ29b8yvQabLm5gJm3hqmHZ7XgbGyToifYndrU2dQRgnH20dsCDE6EKhNgWfxJCyAhpz6T3AThKJYDuIhPkb/mMAHfTCuCGDBtTjwdiU+JDsPPpHU2HL/bH1Lg29sFahtWrXVr0eJpbsPtfqf2vD74yUiawADgemMAixLZ1TQkIIaPxkADdQRmAkDqBfpLciLKMEIDDPlhjTjR6axmAGms2UcWQElPTio43A+iybDqnhtufj9Gqx4eqqqpiALVB1sBRszYY3pkco8UDxnFuogqEWLaPUwJCyGgQlQxVABTm8iCPv2dSbj2Ak7QD9sEac1tD980AiixyxIaUwGpubu4HYF3ZtsBhGeE40efMvBlAWYAlONDR2vhYQMZ6hBYPQDVBEQixCyawCCGj8w2EN7AGlQh0Amv/li3dAB6mHSBaHk9eRhnG0nMRq8o0xfGGXBo41NtaBTV+USawxktrN9jlg6JYCyAQr/MJE1iv6FBeUVM7h0oQYpEbSAkIIaNBHTxJFQAAswLvKIqwjBBwkGMfrDHdc4xFDdxFd7dv33RgyGMXsbCRO7hexmvtaLATWEb0rsDMNXCYFj+Apy5vRhNilaNNCCGj2URMUZYqAAq5POga9OdCdwEwtAVDZ3mMSCaTIYjcbI+xOMO6UdU7ue8RWPa6mAKzw4tXLqJ1jy1z4vHJAG4MsARHS3Iv/yYw55AjB2j1A4jKe6gCIRbFnpSAEDIaOlo3HIB9jYVHspkGPoG1d+fDBwE8zlUhTGCNEQeOaA2AKdYEmdBhJbD2b9nSDUWzdSsm1M9bWGPM5NzkegAlgRVAcU9bW1uAXuYzz9LqX538NyxYvOoK6kCINTEXIYSM0i0U7A66CAZg3yMAENxFEVC1KLr8csowButMjVX9kowMv6eVCKwrIxQV9sEac4c/2Il1CdjZ5MDhDazXCIXcvndRBkJs2d8IIWS0KFhGqLiEhgA4OWUfLEDEKWqgDGMgLKTWnrHg+T0t6c5hbzWi1jVyVzCBNfYaB7r/Va8p7b0vSAP2TP9TtPrTdtzfY9xLiCWxBiUghOSB/YF3jcSesqbR0L6zMQNgb+DtgX2wxkhX1Fo0nBElojy3pAmAZ9fMajlvLY4d86uTlwJYGtTxq2BDduvWY0Ea8+7M5hfAlwhP5bpItP5tlIGQwocJLEJIHqJKYa8FYColeBXewlL2wco3lbG6cgVmW2MiGNlNqj3NDx0FZKdtp4grRbW08rGhGF4SgBtYF0VxZ0CH3knrP81X/QIAoRCEFDZMYBFC8hGIMYHFBNZrPqLjMIEFVF4br7+SMuSPHBy7yszEHUUpoElbOMVs5D5WZ3SwE+rGcbygnkkdtP7TqC6vrr+dMhBS2DCBRQjJx1bCBNbAy2j8Zg/AVOf4RrB0Abl+J0lryB8CtSmBdbQzMmvHSP9jFcfCPljKPlhjR3D7Xym2tm/fFMiG5qLaRtM/wxyMfKuqKsmWD4QUctRJCQghoyWkOb52AzjR6K2TKQPQ3Nzcr8ADgXeU2Qcr3+FYnUXGsQlr1oy4j1WuXxotnOAaBpb5Z7C3WFVg9+EAv4zrwd3OFXDmMYJ5vSHzRQpBSAEHXJSAEDJqeksOUQTgmNfHMsJXfMQABw2vacA+WPliflVyNoCIRUH1qBJQ+9pSz6t95UGh/mLcTGvPL66EViDAt4Md46wN6tiLi7xWroBznM3AH4VjiRoqQUiB7uuUgBAyWnbtevgwABN0HYqdHG9gDdLrmfsA5AIuQ3jR4sTVtIbRE3I9q8rLXNFR36ByAPtuYalhGWG+JQ1y+SCkvWNHaldQR/9kc+NzAJ7jKjj7SAHw84XxW6ZRCkIKDyawCCH5wIA9j5BzHZemMMDTO5oOi40B9nDDJ1eStIY86OiITYmNHu/ElMdHL4p960uN8iXCvC8eXRXYoUPvoAFgMyU4l22g3PX6fgL2LiWk4GACixCSLwJfRuiIFtEMXsNAA/8aobAPVp50tKr/1dZs9r7eUWtiYN9LhCLLkslkiBafHxbG6+ZBZVFgzyBHWMoOYQLr/HvxW8KxxJ9RCEIKLN6iBISQPPEyN1QmsE7DK7qLIrAP1mipqKidqqoxiyLKvNycas+k9wLYb9l0lx04ouxNkydcTwJcPojnsts3bqUVmCZqcKHtGF8ujyY+SCUIKaR4ixBC8sOJoAvg5cCbA6eQ3blhNyBBf8Z7fkU0sYDWMIrwa1LoZsCetaX5LK3NQy8tHwpUT6vPl3kEuf8V7gJ7c2Jq6OR2AMe4Gs4fC6vgh+Fo/TspBSEFsmgpASEkP54yugK/oQoTWGebBcsIjUiSljCaINyqxt45t8fbkrffpvaVESrYByt/Wgb3BqgYuZMWADQ3N/crZAOVuCCuiPxPONrwZkpBSAHEW5SAEJIfT1lOBn5DdYQJrDNgDxL2wcqDgtbcyFFFS3v7puN5+30wNj6UUA82Vh41FdHaCgBzAzr846Z7MpM2r20U6ynCRSkW0TvKqxOfohSE+DzeogSEkPwE6Rr4G1geXPbAOoPBHiQHgx07sA/WSInH40UK3GiN0yWS14RTtnXTEwBesmzaZ1VEa8tp/aPDiBPc21fAffl4KMGafUe9B6jCkHBV8f8i1YmvMUYmxMd7GiUghOQnSGcJoWM8l5ZwdhwF4J6AazB3YXUiQlMYPsf6Jy0FUGbRkPJ9Y0oVYl2TZg9uHa1/dAiC28BdVdbSAl6jY0fTHgA7qcSQHdrPRWKJXy2M3zKNYhDiw3iLEhBC8uQt91EEck7TEPbBCkGStISR2I5jUyJDPe3flH9HTpvsm3dhAmuUEioQ1D2nv9+R+2gCZ7po+n9UYVi8ze3vy5RHG/ioBCE+gwksQki+vOUcVSDn4oR7cj2AQPdIU/bBGhEGFiUyFLt2Zza/kP/NV9IWrhgmsEZBpDoZAzAroMPfsK8ldYRWcMY24eHXVGG4omGeim4ojyX+KR6Ps0UEIT6BCSxCSJ5iMyawyLk50Nx8EgF/BUlUVoCNqYctm9j0Ip1gTBquz7lUtgM4btnch6+N11/JJTDC81i9wCbMVfhwyLlo39mYUaCDSgybkAKfP5abvCGyNHEt5SBk4mECixCSr0jTowrkAvYR6DJCBWaXL0lW0BKGzqBe1twiUcGY3JRKpVI5AI/YNv/9/ajlKhjhfgsnqP2vFIYJrAtYxv9QgxFrVwcPrZFY4ltVVckp1IOQiYMJLEJIfrxGVSawyHlxXbMOgAZZAyPKMsJhGY1a1XvEuKZx7H67Nto2/eKwD9ZISCaTIUATAR3+o9lMaj+t4Nx4jvvjoJ/Do6QIwKf7QubJSLT+HZSDkImBCSxCSH6CDfbAIhfgyebG5wA8HugDlwmsYaHGovJBxdN7mpueHrPfb2SjfQYANk8eAftfxvUALgmmH8LbVxdi7/YNT41VKXPAmAuRX0ViDesWRZOLKQch4+xPUwJCCCHjRKCDi8FXwdgHa8geikWNvMc4aOw/7jwKoNcyC4hVVNRO5UIYrmMf3P5XRnJ30gIucg6pfJ8q5E3NNzliWiKxhv9aGK+bRz0IGa9zjhBCCBmPGN4x6wIuwazKJQl+WzsEKmpq50BlkUVDGtME1r59qR5AH7PMDFyv1FnO1TDMkBoIav+rzmzrpjZawIXJHZU1AF6iEvnbpwD9sJtz2sOx+n+urFw1k5IQMrYwgUUIIWRc6Nje1Apgb5A18BxN0hKGoJNx7ep/5I5NA/dTUXHs64MFh43ch0E4fFsJRAKqmd5BC7g4+/alegT4AZXIO6UC+axX0r8vEkt8KxxNzqUkhIwNTGARQggZzyDj7mCPX9gHaygqwaoX6F7q3JbeNeYry0jaPksw7IM1HKZ0LwMwKZABjYD9r4aslfPvAF+OHqtVCODTIiYbjtb/x6KlyTAlISTPexglIIQQMm6IE/QywgaevUPCmsSFQpowDi9/yaTuzfYFpXJjVVVVMZfDENVSDWr54MH2lsYttIChsasltU+BX1GJMaVERD7ueGZXOJb4eXl1ww2UhJD8QCeaEELIuHGJeyIF4EiAJZgRqU5GaQnnJ3zTTZcAsEgjMy43o7Jbtx4D0GqZOUzudWct5aoYGorAJrDuBGBoAcMIAB3zjxiHxDqBK8C7VfXR8uqGx8urGz4xd9mySZSFkFHsX5SAEELIeNHc3NyvwAOBDjLVYxnhhfTpnrQcgGtN9OK449ebaoxfO5wIBKaOq+LiVFUlpwhwYxDHLgK+PjhMBntSPkQlxvPs17iqfm/SyaIDkVjiW5XVyflUhZDhwwQWIYSQ8Y5I1wV7+OyDdUHHRIxN/a9OXDkNLeMXISFt33oBE1hDoN/RegBFARz6ib4jzgZawAgw+HuKMCFcCuDTnppseTSxNlxdf3s8Hi+iLIQM0U+kBIQQQsaTkv7++wDkAixBAqtXu7SE86CwqXH35lQqNW62ro42wrKyIBXUAhAujIvo5AazfFCA+/btS/XQAoZP5450Gqq8hTVxuCq4XVTWHs+VHYzEEt8LR+tZMk3IRWACixBCyLjS1rblZUCbAizBtPLOF+iknoOqqqpiCCxqdju+dp7d3vgiFLssM4vLwjX113J1XJig3uw0UL4+OJodCu5fUQU/zAOmA/iEiDRHYoltkWjDp8vjycuoDCFnwwQWIYSQCQi2gv0aoQIsIzwHvcWXxQFMtmaexW2cgMVlXR8sRx2WEV6AqqplM1S1JoBD7+8zeg8tYORkM6lHAKyjEr6iBqLf0px5LhJL3B+OJT46b0nddMpCyKBPQAkIIYSMN8ZzA910V6FJWsHZiF3lg30n3eOPToBtNdq3YNjI/YKGFipKBtSnTz29o+kwLWCUwaB6fwqgn0r4jhCA1wvwgxLHeTEcSzSVVzd8YmH8lmmUhgR6z6IEhBBCxpvszg27ATwR1PGLoo5NW8+FWtPAXYDHDzQ3nxzvv9eE1LpG7gphAuuC+gTzRqewfDAvtGc2tSvwPSrha1wBalX1e26u72B5NLE2HGv4AG9mkSDCBBYhhJCJCvCDXLYw9aiZcj2t4AyTMLDpBcIJuQm1p7npaYU+ZZltLAhHk3O5RM67lwaxgbt6ntzJ2c9TQBhyvgTgCJUoCEpUcLtAf1LiOAcjscT6cLThkxU1tXMoDQnEfkUJCCGETASeINDfnjueSdIKXiMcq70OgpnWDEgwYTehHDj29cESU8tVcjYLFq+6AkDgmtyronn3zvQztID80NGcekmgbOheeBQBeJ2IftcY99lILNFWXp34YmRpgg9fEHv9Z0pACCFkItjdkn4EwMGgjl9F2Mj9FASuTWVipg/O5gkU07oElgFYRngOQqH+VQAkcPuFgLev8kxHa+N3AWylEgXNdar4G3h4IhJL7I7EEt8qjyXrgrhHEIvPPUpACom5y5ZNKjledJkU6VRHnTKITIPRqQaYIjBlCpk24Ltjigx8KzEYKKIUikmD/69XICcBwIh6UDn2yp9zRA4DgCr6AT3qKI7k1Bx1gcNOf8nR2bO9o6lUKseZICRfManeC8hHAjr+2qqqquK2trY+mgIg0Fq1xseWHftaUkcm7K/3JA1HLbMPqecqOYcuipUawHG7hgmssTiTjTGfchxnKwCXchQ8CwF8WmE+HY7VPyUia1X0jmx4dhPWrPEoDylUmMAivqCqKjmlN9R/jYgzX+FcA2CuqJkNyGUAZgG4HMDlOIkpcAEYgUIB1UHHdtC9PeV3nubQ6Rlh0quO3+nBkurpbqARwBEHCsAr6cezh4FILHECwFEAR6E4CgcvQnFABAeNkYNwzAGI80JI5bkTk3oP7t+ypZszTMj5glJnnUKDmsCa3O9edhNg322ZkWBTo+6JfgmwY0eqPRJLvDB4dtqi6pKF8Vum7Wl+6ChXy2nuTfBucoru3rWjcQdnP//s3tHUHI7Vf0sgn6UaNvlacg0UfyQqfxTpOPiixBJ3Kcza/qOhh/btS/VQIVJIMIFFxo2qquSUXDEqPaPXOtDrFCgHMB+Ka/rEzBS4gJ6WXvLrUKYM/lwFwavJMVVARAEVQBUeFJNOFiESSxwF8Bygz0PlKXGwT6H7jDpPhVT3TSnq2t/c3Mzni0kgKdWS9d3S0wOgNIjjN4IVYAILAw26zQKLhjTRc6oAmgC83SJNnZDXVwvgXu6cA1RWJ+d7ahYGbdyqspazP3bkjrp/WTRNXw9oFdWwklkKfAxwPlY0zRwvjyXug+odZlLfvdmtW49RHuJ3mMAiY4FUxuoinjjXq2pcIIuhqOwTMw8Gp+Z8Bv+09XpMG/iRSsgrl8YEDhRGgGO5Mi8SSxwA9CkB9irkKQX2qmBXUU9R+65dDx+iSRFbyWTWd0ViiYcB/FYQx+9AkwD+Nuh24MCrU4sOg6KQTnxSUpGGWJXAgoEygXVqokHNyiA2tnGUrw+OJfv2pXrCscQHBHgEQDEVsZqpCrwLIu+SnpLecHVigwO5wzP9d+7ObH6B8hA/wgQWGTXlsZVXGeRqReV6Eb1egaUeMG3gNtWga8XWgRfCBXA1IFfrYJNaASA6ULYYiSYOiaBdgV0KdDii7fDcXUXmxT3snUMsYR0CmsBSYNn8+cnSoF/hNyJ1Fh0T2SebG5+beNvSRrHs8BVlH6zT9ABWBnDYL3ZUXL4ZGc7/mG5irent4VjibwT4R6oRGEpEcZtCb3Mk9O+RWP1mgXOHqN7RnknvpTzELzCBRYbNwnjdvFC/k1RBA4CEIheWAc8SSnnGwkOdqcByAMsFgKoAjkGfMzMXiSX2iuIJFclATauaopbszg17AE4FKRwcx1tnjPtvCGaqu9SdpssA/CbY25zU2bNtqS9KQrMVs1sjHQePAbjEIlO5IRy+rSSbva+XOyeAIPa/AtaxAfU47SHlV3wt0vH8b8Gi/oRk6K4ZIHUKrVPBP0diiRaF3OF6Zm37zkamj8mEwgQWuShVVckp/SF9nRG8UVRvQQ7zlTeq/LJ+IyqIAHo7RCBuDpFY4rgAOxTIAGhRdVpLPOxsa0udoGTEj7Rv33QgHE00i+D6II7fhUkiwAmshfFbpiHXt8SaAQnSvvgca9Z4Wp3YJIrbLDKXUnfKiesBbAr6vhlZmrgWHuYEbdzsfzW+e4gsqfuQOtICYCoFCTTVAq02rnwpUl2/G5A7DHDH7pb0IwAM5SHjHQATchblS+oWqiO/Bcib+mAaMHCtlBQGU1+5sQUAIgZ9IZhILLFbgBYVfcyo87iU9jSzWSPxTcwvehcggUxgKWQFgL8JrCPS179cHTjWzGeuyDdN+R2jjSpiUwIL3kAZYeATWGKwMoBuWVdPWd9DPDHHj44dTXvCscQfC/ADqkEGDjlZBOBzDvC58ljieQXuVOgdJbmXf8PWJmRc/EZKQF5h0dJk2PHMewC8W4HFVMQqHAARBSJQWe1AgZ4SE4klOgTyuKo+bhw81u12tRxobj5Jucj4R2PuOqgJajPzm+bE45ODuvaMa+rEnmu9B7I7N+z20bpqtO3LcYHUcsMEVAPZ/+qB/Vu2dHP2x5dsa/qHkVhiJYD3Uw1y2j4EzAbwuwL53b7QzCORaOJehd4xGZPuy2TWd1EhMhYwgRVwFsbr5rn9zrvEkfeoZ+JUJFA4ACoVWgnBbzsKlOXKcpHqxBOieEyhj0PcR666FDtTqVSOcpGxpLMl1RKJJp6GYF4Ah19c5k2pBfBgEOdeLOqvIkCTnz6P6Zr0mJR19QAotUdjrR08v4JctuJA0RC0roGi4OuDE8QkLf3dbumJgV9wk/NzKQTvE8j7utHTHalOPAjoHW5P8Tq+qE7yCRNYAWT+/GRp6FLzDjH4OHJIQCCqrA8kg3uCIqpAFJCPQQ2ePYyuSDTxuAi2GMUWzxRt3bvz4YOUiuQbFdwlwB8EcuwDfbACl8AKh28rgXbdaE+E7ZP+V4Nks/f1RqKJrRh4dMWStYLplUsSVbt2pHcEda8MxxIxADMDNuxckdd/N0/KiSGTWd9VGat7hwfnMdj1MAQZGyZB8RZA3uKV9HvlsURaoXcYT9bu3pl+hvKQ0QWrJDgOT039deLJxyHmg1DMABuxk6FRBkGDAg0iQMjtRySW2ANgC6BbRZxHpronWo73UygyatYhoAksMRLE18TgTjlxvVGx53ZQThv996HQCNiTwAKAnEgdgMAmsBwEr/+VAI1tbVte5jE5cexqbeoIRxt+W0TvAOBSETLUo16BFYCscFx8KxxNNDuQOzSkd3RuSz9JechwYQLLdlavdsMdB98h0D+EkTomrUieWDjwI+9XVRzLlXWL4ChlIaOhJHco1ReaeQxB/HZXcH1FRe3U9vZNx4M0bE+lTqyZQhxu39m4038fTNKw7Ja1QOsA/FtQ90pVrAyaP8fXB/1BNrNxXSTa8FmIfotqkBGdSILrFXo9PPxDJJbYJcBaiPxfR8vGxwGwJIhcFIcS2Ek0emtZeXXDJ8IdB58Q4BewqMcI8SWTBhs5EjJi2tra+gS4P6DDL8qVFAWuObVN/a8Usgk+7MtU3C9bAOQsM5xEUPfJZDIZgiBwPp0DXcdT0h90Zjb+K6DfphIkD1Qq8Oeq+mgkljhYHqv/STja8OZ4PF5Eacj5zwNiFQsWr7oiEk38fbf0PK2q3xOgnKoQQgoFE+AgxREvaGWEDqDLrRnNQKme72hrS50AsN0y25m7MF4XxAcf8MwRcyOCd0t1e3smvZcnpH/oLJ/9GQB3UAmSR2Yp5AMietex/rLnymOJ75fXJG/B6tUsVyVnOo/EBiorV80sjyX+KeT274XgLwHMoCqEkEKjJJe7F7bdFhkyweqDVbkkUWXTWaU+TWABgEIbbbMf13MCebPcUV0VtDErWD7oO9as8Ypzh94D4B6KQfLvDmGmAh9TYx6MtB88WB6r/0l5TfIWgM1wCBNYBU9FRe3UcCzxea+kf7cCnwcwiaoQQgqVtrYtL0OxKaDDXzq/OnlpUAY72IjbFrpL+l5q9q2z5+Pk2sjRQCawBMF78MH1zFqejn48r9v6uif3rwY0RTXIGG56MxXyATXmwUgs8VQklvhWeSzJ1jgBhgmsAmVOPD65PNrwF1rqPiXAPwGYRlUIIVb4KiJ3BXTobshofXDmWa3p+SXAI21tbX2+dfZ6ihthW3NclfqgbRBzly2bpMCygA17b/vOxgxPRn+yf8uWbqfHvEWAzVSDjANXA/i0wjRGooknwrGGvw4vXrmIsgQLJrAKkHC04c1lubI2Ff0HBaZTEUKITRjPvTOwgxeTDMxYFRYlIPxdordr18OHAHnCMguqqqpaFqh2CZO7QssBlAZpzAplnyWf096+6fiJUNfrADxINcj4+Uu4VqBfEjfXGYnWPxiubljN5u/BgAmsAiIcS9REqhMbRfQuAPOpCCHERrI7N+yG4slg+mPBKA8KR5NzIbCnCbfj+r9ET0zatuXSF3KXB2l/0ACWD4qR4H6hUUAcaG4+qV1lb2a/MjIxrpPcIqq/PJYre6o8lvinBTUrr6Es9sIEVgFQWblqZiSW+J4Aj0GD+3Q0ISRI7khgXyOMBeFWiTjGprMsV9SHR3z/KY1jXR8sQeAaua8M2Hhf6qy8Iqg9EQuObPa+3pLcS++G6P9SDTJBXKnA50Mml43EEr+OVDe8Dmz8bh1MYPmccCzxLq+k/wkAnwDAZ0QJIcE4nARB7YPl9IeKG+wfplUNuLe1taVO+F5xiHUJLAMEJoFVUVE7FYIbgrUdyt1Ys8bjiVg4tLW19XW2NL5fRf6RapAJJATg7VBdH4kl2stjiT8J0iM51jvKlMCfLFi86opIdcMaAX4B4HIqQggJEu0tjVsAHAzi2BWatH+Q9jTgVhTGC3/ZTGo/gL02mZEA189dtiwQry+bUmkYDMqCsxcKXx8s1KnLtmz8C0A+CqCfcpAJJqLA14vUPBOJJb61aHHiakpS2DCB5UN/LBJr+EiR2/8kVN9JOQghAcUAcl8gPX/A6j4385bUTQdwnT2ntjYWkHHZ1gerZNKJohuCsS8Erv/VyZPuSTYFL2A6Wzf+lzjOG6E4RDWID5gC4NOOi2wkVv/DyNLEtZSkMGECy0csjN8yrTyW+DmgP+TrgoQQEsw+WAIsXhRdbu3N2xIHtRb5HxrqKW4qmA9bILfFhrVeROqCsS9I0PpfPXCgufkkz8HCpmN76iFjUAPgMapBfEIxIB+Bh53lscQvy5ckKylJYcEElk8I19Q3uLm+nQq8i2oQQghQnHPWA+gJ4NBFnCJr+2AJnFqLRvPErl0PF8ztAuNYdwMLxlHrE1iVlatmAogGaxfUoPZBtI7dO9PPdIW6kgL5KdUgPsJRYLU6ZmcklvhpRbS2gpIUyMRRgoklmUyGIrGGvxUjDwOYS0UIIWSAtrbUCSg2BPJwNvb2wVKrGrhrQd1o2tOS7hTgeZvsSRTLsXq11Y/ceMV9yYD57J647t08Be3hQHPzyY7WjR8Qkd8FwJt1xE+4AN5vxN0ZiSW+d228/kpK4nMfmRJMHNfG66989rD3G0D/CnxhkBBCzhWdBrKM0NY+WPPnJ0sBsadnkRRkSZ5tZYTTIp0vLrF6Gwxa+aCiqaM59RIPQPvoaNn4H+roDRBkqAbxGSEAn8jlpDMSa/jbioraqZTEnzCBNUFEonU35XLyOCB1VIMQQs4XuBWtA6ABHHjl/KrkbNuGVXyJ3gCgxJbxmFwhJoPUujJCUc9qX0oFgUpgqaNrefrZS3Z74xP9R5ybAPxrIM934nfKAP0rU+p2RmINHwHzJb6DEzIBhKsT74c4vwEwh2oQQsj56Wjd8KyIbAvg0KXY9ZIWjqveorHs270z/UzheX5qXSN3taqv2ulU1NTOARCoJsOukTt5+tnNvn2pns7W9B8JnASATipCfMgVgP6wvLrh0XBNwzLK4SM3hhKMHwP9rhLfEsVPAUyiIoQQcnGMIpDNfFXEujJChVqTaBAUZiKoY3vTDgBHLLOselv3Ac84AXt9UFrbM+m9PPmCQUdrqqk45yxV4DvgbSzix9NFNS5Gm8LR+v+Yt6RuOhWZeJjAGicqKmqnPnvY3APg01SDEEKG5T6sC+jAbUtgORAstyfOdgr1JpMBpMky27qqIppYYOMmIAhW+aAIyweDRltb6kS2Nf0HMEgCeIKKED/6LyLy8RLHaYvEEm+nHBPtTJIxZ35VcrYpdVMAbqUahBAyPLKt6RYong7g0CPhaNKa12krFtcvBnCpNbPjSeGW4gksLCOElbewNGAJLKNg+WBA6dyRTl8S6qqGyOcBdFER4kOuBPDrSCzxa75WOHEwgTXGLKxORIpCZhOApVSDEEJGFsOpIJi3sEStuYWlIbEpwfBCx45Ue8HOhY0JLIF1fbDCi1cuEsg1gdnooU9lW9MtPPKCS3Nzc39ny8avGg/XAvg1FSE+5e25ftkRida/g1KMP0xgjSHl1Q03uIomAAupBiGEjCq0CWQCS6BJa2ZQrXp1twkF3K9lmnPicQAnLVsu1r1E6IS8gJUPylqwDxIBsHtn+pnO1vQ7VZ1lCmyiIsSHDtpMiPyqPJb45fzq5KUUZBzPRkowNkSWJBKq+hsAl1MNQggZJV1TUgCOB3DkFvXBUmsSDCqF/ZJfc3NzvwKPWLZWri2PJy+zaUAKY91DDhfCKF8fJKeTzaQeybam6yF4f0BbCRDf79NYXaSmuby64QaqMT4wgTUGRJYkEnBwL4AyqkEIIXlwYrP39ULkgQAOfUFldXJ+oQ9icAzW9PNSTwu+BM+xr4xQjOfZVEYoohKkBNbLV0+XRhByji23syX9s/5jToWKfgbAQUpCfMZCVW0MVzf8PqUYB/+FEuQXJq8IIWSMPFjFXUEct6eF3wcrp55N5V3Hd1de2VLogxCDtG1rRWBPmWo4VnudArMDs78L7k6lUjmedOR87NuX6sm2NH5zkpYuGmz0/hJVIT6iRFS/E4km/qeqKjmFcowdTGDlESavCCFk7Aj1hu4F4AVt3CqF3wfLpsQCgM1Ys6bg7fB4UdcjAPrtWiz29MESOMHqf8XXB8kQyWTWd3W2bPyq0+MtVOD/A29kEX9t3u/rKzKbFsbr5lGMsYEJrDxRHqu/EQ7uAZNXhBAyJuza9fAhSPCauYra0AfLogSWJaV3B5qbTwJotmy5xOfE45NtGIgGK4HVPUlLg1giTkZBe/um49nW9D/1H3Xmq8rvA9hDVYhPNvBoKOdsDUeTN1OM/MMEVh5YWJ2IKORuALwuSAghY5k7CGYZ4dWLlibDhfrhKytXzQT0Omtmw7Ood5Ra13OoaFJuyk0FP4rVq10H2hCgPe6hTGZ9F084MhL27Uv1ZDMb/+2q6U4FBO9XxeNUhUz48QrMFjG/KY8l3k018gsTWKMkXFM/y1XcA2AW1SCEkDHOHbhOIMtM3JyXLNTPnivurwUglkxFb/9x51GLHGzrmmY7MAV/268i+2KNAtODs8PJHTzdyGhJpVK5zpb0z7KZ9A3GmOsF+t+wrUyaFBqlCvxvOFb/GUqRz3OejNzBqKidKkYeABChGoQQMvbs3pbKAtgVtHGrg4ItJxJRi16G08f27Uv12DKaPvWaABi7Vkvhl6sa1SCVD3rqmLt5upG8+go7mpo7Whs/KAgtgOIfADxHVciEuUGQb4RjDX9NKfIDE1gjJJlMhkyp+ysANVSDEELGM4cg6wI45mQBf/Z6e6bBserG0tM7mg5DsNOy1bIsmUyGCjraUbMCwWFzdnvjizzYyFjQ0brh2c5M+gtXTXfmqehbAdyDAD4GQ3ywr0O/VB5r+AaVGD1MYI2Q/YfNPwG4lUoQQsg4OwEiQeyDdWX5kmRloX3oucuWTYIgbo3T5NlXcqeKtGVDmvrMoVysUD98VVVVscKepO/Fgzq+PkjGnlQqlcu2NN7Z2Zp+k6ozXyF/A6CTypBxPW+hn4lUJ75GJUbpi1GC4ROJNrxXgD+hEoQQMv50lM/aAuClwDk+TuH1wSrtLrkJQLElU+Dlios2W+gINlk3JnELtmy1373sJgTpRWtj2P+KjCvZTGp/tnXj33a2pssV3mIBvgLgBSpDxseZw+fCsfp/phCj8lvIcCivqYtB9PtUghBCJog1azwMPJ4RKASysvA+s7Go/xUye5ofOmqbXbkhTVu3WBwU7A0mIwhM+aACOzp2NO3hoUYmimzrpraO1vSfXxLqmqsqbxHITwEcozJkjP25z0aqE39JJUZGiBIMncrKVTM9038HgMlUo2DpB/CSAi85wEsKOQjoMShOiqAXAAxwBIA6QA4ixwHAKLoBo444r869MXAhesnpPjMuVWCyDHx7egmgUxVSJiKTVXU6Bv75VNoQIaM+/e8C8KEgDVmBBgy85qcFM02qdWrNA4T2lQ8CwJPNjc9FYolOWPQgjajWFfBnX2nPkrnYNs7yQeIPmpub+wGsA7AuHL6tBJNP3gpH3ymKtwC4lAqRMXDq/q68OrG/oyX9Y4oxPJjAGgZeSf9/AlhAJfwc32G/Ap0y+APR3QK8KKovnjR48ekdTYf98EHnxOOTSzHpMunDLEholoh3majMhOAyALMAXA7gSgDzAFwBwOX0EvIaxTlnfV/I9AIoCdCwL18UTVbtzqQKo+n26tWudhxcZs0Bo9posW01wqIElgKzFy1NhgdfLS0Y5sTjk5HDzUHZ0Iwxa3maEb+Rzd7Xi8FkVlVVVXGPO2ulI+atAN4MYA4VInlCVPGf4Vj989nWxgcox9BhAmuIlFc3fFxV30Yl/OKbYjcgj4uajAE6HVc7TzjdnQeam08WwgAGP+fTgz8XJJlMhva/jNnqmHmimAvoVaIyTwRXKTBfgLAC02kWJEi0taVOhKsTG0RxW5DG7Yi3AiiMV+PCHQejAKbZor1niu1NYIk2QuWjVq0VT+sBFFQCq8ybUgtoUJLyz+ze0bSNpxnxt6/R1gfg/sGfT5bH6m8w4rxVVG8HcB0VIqOkSCBrwjX1N2e3Nz5BOYYGE1hDoCJaW2FU/4VKTBjdAjxiFBsd19nUp3h8X0vqSFAGn0qlcgD2D/6ck8rKVTO94t4wHGeRqoQdIKKqiyAIY+BGFyH2YWQdRG8L1qBlBYBvF8QnhdbBklooBTr27nz4oLVW5WlaHbvq1gRaC+C/Cuozq65UBAMdKB8MynCJJWbb0dr4KIBHAfzFwupExDW4HaK3A7IMrJYgI2MqjNyxMH7LjTb22RwLmMC6CFVVVcX9Tuh/oFpGNcbTr0Grit7rGOf+Iu+lrYPfgJDzsGvXw4cAHAKw9cx/N786eWmxYrHCVCmwRKBVUFkCwUwqRwo8RF0H6HeAoHSMAaBIYOABFuP/BILU2RKdOpb2v3qFjh1NeyKxxLMArrJlTAaF18hdEZwG7o7jsP8VKWj2tKQ7AXwdwNfDNfWzYOTNIrgditcBmESFyND9JZS7uf6fAri9EPw7H+hFLkQklvg7AF+gEuPha2oawC8cx9zVvn3TAUoytsyvSs4uLsZio95iR2WxAnEAVQCKqM4IN1TVWzoyjQ9TiXHdo5sBLA2WoTk1nS2plgKYm2dhSb8QEXzY9karkVjD/wL6HouGpEZzs3dnNr9QCB92YfyWaW6u7yUE4MtlAQ5PDXVdMdg4mxCrmBOPT56Sm/J6Bd4C6JsAXEZVyBA3xy90tqT/gUJcGN7AugDhWG0VgD+jEmPoXQI7RPGDUJH+8snmxueoyPixry31PIDnATz0qs2Hbytxyk7EjDpxRzTOpBbx/R6iuEskWAksVW8FgBY/f8byJXUL1aZmt55pDMBaSovApgSWOBKqA/B/hfBhnf7+BCQofrncw+QVsZXBPrd3ALgDq1e74ezzdY5xblfo7QAWUiFygcD4i+Gahg3Z7Ru3UIzzwwTWBU5XgfPvAIopRd7pFuBnquY/s5mmrZTDPwy+vPJKfT8AYP78ZGnxNC9qxLneUSxT6HIewMQ/OzXuAvDFYA1ZVgDwd19GceoskvzZjh1Ne+z3m6VRLGtJJJCCSWAJdGVQ9jCjhuWDJBisWeNlgY0Y+Pls5ZLEEs/B7aq4XQRxsBqKnE5IjP7PwvgtNeyHdQGRKMG5Ka9u+B1VraMSeeUlEXzHiH6nc3vji5SjMNi3L9WD15Ja3wWAa+P1V+b6sVzEqVXoMgyUcDHZS8adbGu6JRJLPAPg6gANux6rV7tYs8bzbYAKrRNr/HJpDIJR7c6k2iLRxCGb+iMqCsiPc7AyIC3Ne0o8936eXiSI7NqR3gFgB4C/D0eTc+HoW0T1rQAa6EeTQRaEcr3fBvBBSnG+45KcbTWLV10B1a9QibzxogCf6wp1XdPRkv5ilsmrgufJ5sbnOjONv+5o3fjZztb0su7J/ZeKSgLAdqpDxjtGFcW6gI350orsizV+/oCDN18sMTA0BmUtwcEmy8ZUU1WVnOL3DxmuqZ8FxZKA2NnDbW2pEzy6SNDJZlL7sy0bv9vZmr7VCxVfLqrvVeAXAHjzJuiOLeQD4WjDm6nEuWEC6xyE3P4vKzCdSoya44D+tdPjLepoTf/zYE04sZD9W7Z0d2Q2NgLYRzXIeOPBCVoCC2agD5Z/g3FBpTU+gadBSWBBFGnbXLr+Ytzs/wUtKxCQUiJRXctTi5DT2dP80NGOTOPPs63p9xTnDl2uwOsh+m8AnqU6wURE/33ekjrmI851sFOC01kUTS4GzIeoxKhQKP7Xcb0/5WuChJAxP+RPTvoNyrqOA5ganE1WVgD4mh8/m6OoVXuC8Zd37Ui3Bej4brQuj6KmDqc8VuLLPQwISv8r02+KA/eFAyHDoa2trQ/A+sGfT5VXN1yvRm+H4HYAi6lQYJhT4jhfB/AxSnGGn0kJzhTEfAWASyVGTFYdXdGZSb+fyStCyLhsOgOPD6wP0phFUZdMJn35JZRCai2SehMAExhvebq7DYBV5V2q8H05qwIrgmBfCmzZu/Phgzy1CBn6sulo2fhYZyb9hc7W9BL1QmGB/AkEaQAe5bGej1RU19dShtNhAusUwtXJJARvpBIj9UvwH8U5pya7vXEj5SCEjCeiuCtgQ5767Mu5uE9Pg3qLTrZ0kIwqlUrloPqIZcO6OR6PF/n1w5XHVl4lQHlA9um1PK0IGTnZnRt2d7Ru/EZnS7qhONd/uYq8S6D/DeA41bFz2zQq/+7nM2wiYAnhKQbiQL+u1GEkvKTQ3862Nj5AKQghE0KRcy9yxkOAbtAKZCWArX76THPi8cnIYaktGiucpuB5Q0gDuMWiEZUdz02uwcBLuj40styqYHS/AjwHd/KwIiQ/tLVteRnAGgBr5i5bNqm0O3SrKG4H5E0AZlEha1h8rL/s9wF8i1IMwBtYg5RX19+uqnEqMUw/V6TZFecGJq8IIRNJR3PqJQCbgzRmFUn67TNN7S+7GYAt3xSeLPFe3Ba0taTiWte03gC+LcHQ4PS/2rmnJd3J04qQ/LN/y5bubEvjnZ2tjR/tbE3PNsZcL4IvQfEk1bEh3sbfVFUtm0ElBmAC6xUHQuXPqcKwva4fF/W/tHxXS2ofxSCE+GBPCloZYW1VVVWxnz6QJ1JnjznhkcFmuoGiZ1LvVgC9Vjn/kHoff7hAJLBUNGj7MyEThdm9o6m5oyX9xc5M+jqFt1hU/hLAYwNHGylAf2R6X1HR/0clBmACC0BFNLESwE1UYujrSCF/05lJfySIzj0hxK8Hmhe0163K+kOzbvRXLK7WNBt1BI1BXEf7t2zpVuBxy4ZVCx8+r7iwOhEBcHUw9mdnLU8pQsafbOumto7Mxi93tqZvdBxvLqCfBPAAAMZwBRV94w8W1Ky8hkIwgQUAMIK/oApDl0uB38m2bvxbMItPCPER7ZlN7YC0B8uf8Xzzetngq4jLLDrtGoO6lhxYl7y7vCJa67tG6a4Gpnzw2Y6WjY+DEDKxftL2TQc6Wxv/vbM1/QYt7Z2lwLsh+r8AjlId31MaMjnmLMAEFspj9TcCWEVTGBKeQj+UbU3/kFIQQnyJaKBuYQnENwmsZw7lYgCmWiJtfykmPRLYdWTEutcXFU69/9ZvMBJYorgT/NKTEF+R3br1WLY1/cvOlsb3aVfZFaq4fTCZdYLq+JYP8xYWE1hQlT/iWhiaOwvBB7OtjT+lFIQQ3wZKRgLVZ0WBZfPnJ0t94VCIU2eRtNsymfVdQV1HueKizQA8q9aKOH4rbxUFkoFwIIWvDxLiZ7LZ+3qzmfRdnS2N7+sKdV2hIu8C8GsA3VTHVxSHTC7wvbACncAK19TPguAdXAtDcv3+uLMl/TPqQAjxMx0Vl28G8FKAhlwauhQ3+8OjsKeBOwLa/+oV9jQ/dBRAxqpBifHVDazKJYnFAC4PgDkdLckdSvF0IqQwONDcfDLbsnFNZ2v6nU6Pd4UoPiTAb8BblH7hw/OrkrODLECgE1iizkcAlHAdXBgV+cfO1sZvUwlCiO9Zs8ZTwb2BOsjVH32wRNWeFwhNsBNYAxMKu8oIVRZdG6+/0i8fxwvI64MQvZcP/hBSmLS3bzrekUn/pKM1vdJRLBLBlxT6FJWZUEqKQuZTQRbACfbYzSe4Bi7KumzLxi9QBkJIwcRLRgNWRjjxfbAWLU2GFbDlG0FT4vU3BX4hWdjEvt/zUZmrE4wElqqs5alESOHTnknv7WhJfzHb2rhQVG8B8D8AeqnMhDh+n5wTj08O6vADm8AKxxK3QGURV8AFw8B2L1T8AQCGWhBCCuZg6zXrA+ZU3TjRjoxjPJv6Xz3R1rbl5aCvIwOvEZaVjPjmluDq1S4UDQEwo16U9t7PU4kQu46Hjkzjw52t6d9WR68Wlb8E8AxlGc/DDDOneFPeH1g/P7jzLh+h9V/Y6RDHe/dgHwxCCCkY2ts3HRfobwI05JIpZuryiU0M2NT/Slk+CGB3ZvMLgHRYNixf2Gl5x/NxANNstyEVbMhu3XqMq4kQO8lub3yxI7Pxy1dNdxZC9Z2DvbLIOGCMBraSLJAJrGj01jJA30zTv4D/DvmLju1NrVSCDJMQJSC+ONjFWReo8U5wHyyFRQks4zCB9cq8qklbNqRY+KabLplwE4MEonxQlK8PEhIEUqlUrjPT+OuO1vRK1yAKxc9g2Uu2vttfBdeHY4maII49kAmsHul5E4Aymv55XdZUR+vGb1IHMgJKKQHxxS6W03UI0Is5YiauD9ai6PLLAS23xnYgTGC9aljWJfNc9BQvm3BZEYj+VyYUClY/QkIIsGtHekdnJv1+9UIVqvqfYJ+ssTtLRD8exHEHMoGlwLtp8uelV4z7SbDvFRkZTGARX7B7Z/oZAC3B8WJwfVVVcsqEOBISqhuIya1gbzaT2s8VNIDnuGn7lsrE3hYMh28rAVAbAGd765PNjc9xFRESTLI7N+zOZho/IQgtguKbAHqoSp4x8q6qqqrioA07cAmswavjt9Hiz8vXOnakdlEGMkJKKAHxTaAqCNK3/0U97sT09xGLygdVwNtXp7B3+4anoHjarlFNcCP3qSduBmD961EqLB8khAAdrRue7cykP+OFTIUKfgJeksinAzazLzT91qANO3AJLOkteRN4S+R8HOgKdf0jZSCjWGFMYBHfYEywylccmZg+WAq1JoHlGDZwP4eDbJkmcuNEfmPtqKwIgtm46q3l4iGEvMKe5qansy3pD0GcOID1VCRfTpjz3qANOXgJLBXevjqfNiJfOtDcfJJKkFHA5DDxDdlM43YAASoHG//AeOBRFFjTRFRgmMA6G9s0mdxbfFl8wmINDUT/q13tmU3tXDqEkDPpbEm1dLamXy9G3ghgLxUZtePylsHS9MAQtASWo9Bbaenn3k/mXCo/pAxkVI45DBNYxF8mKRqk1wiXLozfMm08/8IedN8Me14fPdie2dTBZXMGLuzrg6VmQm4NDiZ8b7I/nsJaLhxCyIXo2LHxvklaukSh3wBfLBwNU3Ry94ogDThQCayKmuRSAJfTzs/hbIh8LZVK5agEGd2GwhJC4rO9zXOClMBy3VxP/fgueqm3SL8mBOjlyqHSuS29C8CLlu0ME5LAOinddQCsb7hr1GH/K0LIRclk1ndlWxv/xHGcmwFppSIjdP5g3hyseDNAGDWvp4mfw40Dnu87Iv9NJchoUZYQEr/t+92TNwA4EZw1OL5lhGq01iLxWD543q0dTXZtDKjFBLycKQhE+eBz2UzqUS4bQshQad+eely7Jt+kwP+jGiM6pN8UpPEGq4RQ9Q008XMZvX53374UnzYl+YAJLOIrstn7ehGgZqEyjgmsZDIZgsjN1pyFYl+pXP600bRlC2VmuKb+2vF3QyUICay7wFfGCCEj8Neyrek/FOA9AI5TkWGdafMqY3XlQRluYBJY8+cnSwG5kRZ+Fp6giL2vyKipqkpOARNYxI/nuiBIrxHGqqqWzRiPv+jAEa0BMMUS3Y5ly6/IcLWcG/Xse51RzPiWv86vTl4qYs+DB+fDqLOWK4YQMlI6WtO/EOPcCGAX1RhGQA8nMH2wApPAKp6G6xGAvgMj4N6O1g3PUgYyWnrFuYIqEF8edD1FdyM4DUKd3qLQ+ATmCmv6X6lgE9asYRPZ87C78soWAEdtGpNgfMtfi+ElAbiWm8qxUu/FDVwxhJDR0LEjtas4118LYCvVGOqZFogS9QFHNygDVTU307TPKcyPKQLJC0UeH0ggvmTXrocPAbolME7MOJUpKezpf+UYZf+rC7FmjSeWrSHF+N7AUhXrvx1X4L62trY+LhhCyGhpa9vyshcqfj1Y3j/U/bcuKGMNTg8swTKa9ll0dRWdvI8ykLxsJmp4A4v4+QwITBmhAivGRVGbnCVxmcC6qGE5tmk0PxxNzh3Hv8/6b8cd1bVcKISQfLGn+aGj3ZP63yDAb6jGRZmzYPGqQMRiQWrizgTWWQ673HegufkkhSB5iW1UmMAi/t3uPHddYMYKLC6PJy8by7+jIlpbDsCWW5e9fUfxOFfJRbEuyefAG5ck7KLo8ssBVFluH/19jns/lwkhJJ/s37Kl25T2vlWBHVTjwhRJbmkQxhmIBNbCeN08AFfSrE9HNVCNjcnYWxRLCIlv6diR2qVAR0CGK6bfS47lX+DBtemq+qN8iffimJOTHwVglU5GZFzs2IW7EgO3Fm1mw76W1BGuFEJIvslu3XosJM5bABykGheIxFxlAssWXE+W0KTPtvGikHmIMpC8GRR4A4v4nsDcwnIwtv12ROzpfwVlf40hBRDZ+3oheNSmMQnGJ4FlAlA+qCp3cpUQQsaKXS2pferI2wDkqMZ5/ZmaIAwzEAksVVlMiz6LtiebG5+jDCR/gQBmUwXiaxs1AeqDJUiOsZoWvUDIBu5DxthWRqhL5lcnLx3zvcexPoGlgKzjAiGEjCXZ7Ru3APq3VOK88AaWPYPUKtrzWb4Gm+GRfMMSQuJrOiuv2ATFoYAM99r5VckxSSoP/t6wJTp5KO3bwtUxRM/BvtegnGKY5WP5FyyoWXkNVBZZbhqPZTOp/VwhhJAx9+XKZ38ZFvZkzJeLNm9J3XTbBxmMG1gQJrDO0sSuMgDiC8KUgPiaNWs8Eb03IKOVYnds+mCFXM+a/lci0pLduvUYF8fQcHu8LbCsfMOMcRlhyHjWlw8KXx8khIyjL+coPgSgm2KcvR2Ximt95Zn9CazVq10A19Kez3CooExgkbwRvummS8CHEkghBKviBKbMRUWSY+IdOWJNAksNyweHQ3v7puOqaLHK28fY9nOTIPS/Cslarg5CyLidRZn0XkC+TiXO4ec6Os/2MVqfwKpoPzgPwCSa82kc3dXa1EkZSN42kt7SCqpACgG3O3c/gN4gjFWBMWnkPl6Nr8cFYRnCsPd7kUbLFsqN4fBtJWP363WFzfagQEfntvSTXBmEkPFkkpZ8BcCzVOKsTflq6/0Q2wfoufZnIUfAkwM+ByH5wUDLqQIpBNrbNx0HkArCWAUoL4+tvCqfv7OionaqqsZscfOM5pq4KoZrWMa2Plil7pQT14/FL66I1lYAuMpqcwDLBwkh408ms74LkL+iEqfjMIFlwQA9uYamfJbPzm/KSH4dWEUlVSAFY6+CwJQRGskl8/n7vFJ3GYCQJfK0785sfoErYpi4bhMs+xLM07G5Veg5oVXWe5SOs5aLghAyEVwSOvFTAHxA4tQ9WZjAsuBgtX8Sh60JpJ0qkLwmBADewCIFQ8416xCQW6ii+e2/44xxv6BxPQuV/a9GQkdz6iUM3OS26QyrH6Pfa3X5oADPZ7dv3MpVQQiZCJqbm/sV+A6VOA0msArfQ2UC6xzspQQkv8tM2AOLFAx7mpueBtAakOEm8/nLjFX9rxwmsEaOVWWEAiwfA5/YgWrSZiMwqusAGC4HQshE0WfM9wB0UYlXgzImsAp+DgXsgXW2JrxqSfK8j2iEMpDCClj1roAMdeGCmpV5KaWPx+NFAtxsizAh25qRj+8Csko7BaZXLklU5fN3RqqTUQCXWX34O3x9kBAysTy9o+kwFHdSiVfP55lzly2z+gE76xNYojKHlnw6RkJ8sYHkz0lfmqgAMJlKkELCM4FJYCGk/XkpYzrWP2mpRWv9mV0tqX1cCSP0I3L2vd6Yk/zeLhTVlZabwXFzouxhrgZCyITH+yK/ogqvUXR88iU2j8/+EkLoDJrx6UzuO/gcVSD5i2T0JopACo3dO5q2ISDPLyskLwksEafOIlF4+2o062dn+hlY1o5AoHX5NTHr+1/dn83e18vVQAiZaE5O7rsfwAkqMUCx02/1xYIAJLAwnWZ8Gl1tbW19lIHkz0sXJrBIQVouEIzXCMXkpw+WXf2v2MB99Fu/dUnAvNl3MpkMAZqwef6NsGSHEOIP9m/Z0g1gPZUYwHOVJYSFSlVVVTGAKTTj0zhMCUieuZkSkEJEJBgJLAjmlS+pWzh6uXS5LZIoDBNYo3UgjWVJQMG8hfG6vPRN3X9UbwBgcwlHf59n7uUqIIT451zXJqowqEWOCayC5aTM5u2rsz20o9SA5Is58fhkAIupxADGwRQAQiUKg74jzgYE5cq5yKj68ZQvSVYAuNwSL/dQtnXTE1wBo3QgRdPWjclz6vPze+wuH4Tqxqd3NPELUUKIf9wc1c1UYQBXXJYQFuzkFfXNpAmf6XNoN1Ug+aKsr+x6ACEq8crhKWvnVyenUYnCYN++VA8CcuVcRZKjO1C13pp1CjRhoISUjIJdrU0dAKzqqSnQ2vysN7sbuKvj3MEVQAjxE5cUdW8DcJJKAEZ4A6twHRFPp9KEz3Lc+6kCyaNB3UgRzqAfpRShkGxY1wVkpKO6EaImP4G9T/Ytlg/mTUvZZNV4VEadqJ0/P1kKYLnFs64wcheNnxDiJ5qbm/tF5EkqATiivIFVuD6qW0wTPmvGmcAieVxjqKMKZ2hS7JRQhUKKV3EPAC8AQ51TviRZOYrFXm/RrDOBlS+MdcnA66qqlo3q9Wp3mi4DYO2336pozmZS+2n8hBDf7U+WvY474qNZxeociOUJLC2iCZ+hiQYiUCPjQFVVVbEKVlKJ0ykxfUxgFRDZ7Y0vKvBIIBw7x0uO5L+rqKmdA2ChJTJ0TQ2d3E7Lz5cXKbb1wXJ63eJR3TZ0YHf5oDhYS8MnhPjU09lHDQCI9lrtetg8uBwc3sA6AwNQE5IX+t0Z9QBYpnumLhriGis8AlFGKJARlRGqce25faW6pbm5mTeR80RnSyoD4IhVjrGMrlxWYPcXO6reWlo+IcSX+xOEN7AG/DYmsArXWecNrHM4VpOoAskHRuQ2qnA2IZc9sApuX3QRiH4uCiQxglcyFfb0v1JxWD6Y56MACttefhpxwraqKjlFgRssnu9stnVTG82eEOJTXqQE4A2sgp47GN6EOBsG1yQvy0uAd1CGs8kp951Co3Nb+kkFOgIw1MvDsdrrRrDcrbmBpWAD97xrallTfAWunxOPj6gBbn+RSQAosniy+fogIcS3ONAuqgAmsAr7nBWXFnwWTGCRUVMebagDMJ9KnE3IcI0V6IlxdzCcO2dYZYThm266BMASS4bf1x06sZW2nm9fC7b1wSou6yu7fkRajPK1T9/HRMLXBwkh/sUIE1gAEBKnz25f1uaDVpUNy8+GJYQkDwGLvp8qnEcbFTZxL8zTMCBlhMPrg6Xdk5YDcC0ZfPOB5uaTNPb8Utp/6HEA3VYNyh1hGaFa3f/qhY7yWVto8YQQ37py6vCMB+CZ/m6r59lyR52NWs9AeAOLjJI58fhkAd5FJc4X+BgmsAqQudPcTQBetn6giobhnP2OGGv6X0GU5YNjQFtbW59Y9pKnAsO2+6qqZTMAVFvsP67DmjX8YpgQ4ls8zzNUASgKOVb7s1YnsBxlAuscTtkU2+edjC1lubIPKDCdSpxnjRmHtxwLkFQqlRPIvdYPVDCzvKZu6CWBinqLVicTWNR2aMtEsRyrVw/r5mFfqChps3+lMGtp54QQX+M6/BIZUKfn5UM2D9DuG1gucrThsyhasHjVLMpARu7E4lNU4QKBj6MzqEJhYqDrAjFOHVoZYVVVVTHEmhfVTHHO20wrHytv0rUtOTitPPvc4mGejTaXD57oPxp6iIZOCPEz7EMLADja1tbGHlgFG2iL6aMNn2PSpXcuVSAjIRxL3Cr2NHQem31HmcAqWEp77wdg/bkhQ+yD1Vt8WRzAZEsGvbOtbcvLNPIxWjpe8RYAdt16N8N7fVPs7n/1wL59qR5aOiHE1z64o5dQBbxk+wDtLiXz3F7a8DmcLHGuogpkhPw1JbjoAptJEQqT7NatxwCk7PfwkBhKeZSoqbNmyAqWD44hmcz6LgDbbBqTgQzZ/q+N118JQaW9W4bcSSsnhPgf53JqwARWYceRIXOUNnxOZZjAIsMmUt3wOhlBY9vArS5lAqug5y8YZYSXLtr1XPUQ1LAmgeWACaxxWDx29cEChmz/OU9WDPwnVpIryfXdQwMnhPgdVWUCC3jR9gFancAKiR6hDZ8zQGMCiwzfbIx+iTIM4fCEssdcAdPvFAWiD5YjzoqLr3l7EtbieExgjfXeZyRt2ZCuKl9St3BI9mVx+aACaZbfEkIKYr9SnUcVdJ/1PqzNgzuKk7yBdS5HS7i4yfAojyXeBcEyKjGkFcYecwXM3u0bngKkNQBDvWACKxyrvQ4CO24Tiu5u377pAK17bCnx+jYBsOsJc3GGdAvL5gbuAl1L6yaEFMZ+JeVB10AFe2wfo9UJrAPNzScRgIa8wzZsOFGqQIbKnHh8siq+SiWGvMKYwCp87gqAl1efTCZD5//Xbp09S9Lh7atxoK1ty8sKtNk0JgO96DqoiCYWAFhg64HmhZT9rwghheLbBD6BBePstn2ITgCmkbewzvZHrguHbyuhDmQoTPHK/gwC3tobOtMqKmqnUoYCPhgduSsAw5z67Mu5+Pl9QLWmfFChTGCNH1aVEcoQ+sB5sPr1we17mpueplkTQvzO/KrkbABXBl4I1zCBZYH78QKX9FkU6aTjiykDuRjhmvrrVPHnVGJ4mDKXt7AKmPbtqWYA1pec6QX6YCmk3pr1KGzgPo5OpV1aCyrL48nLLvxHbO5/xdcHCSGFQcjVG6gCTO6wyxJCC45f9r04B65IDVUgF2T1aleM/AAAb+sNF88soggFHrcB1jdzl/P0wQpHk3MBzLdkjM/vaUl30qTHSW/7muULPK/ugv9esMLW+XQ9s5ZWTQgpCBxzM0XAs/v2pXqsn+oAhCFMYJ0DI1JNFciFCHc8/2kAPAxGsu2IhKlCoYetGoTXCGurqqqKz3YMvDqLxsjbV+NI+/ZNByBqVfmCQs5bThuuqb8W9pas7Gnf2ZihVRNCCsNtk9dRBQRiz7Y+gaWOPktbPsciB26kCuR8VCyujwrky1RihBurkQhVKGz6j7gPA+iyfJhluaIZZ125NyLWJLDY/2pCRE9bNp7zltM6KtbevhKWDxJCCoTBUu84lZBtgYiz7B+g8AbWuYkvii6/nDKQM5kTj082jvwcQCnVGGG8I2ACq8DZty/Vo5AHbR+nOUcAPpTG1YXjy7lMYI2/52Wb5kvnxOOTz7nXq8X9r4yupS0TQgpiv/K8NyEYj9Nd2OUBtgfCy7DeOYfu57I+99y7CL2BMpAzmZIr+1cIrqUSo6KKEljhCFj/GqGe0QdrfnXyUkCXWDK8I50tKZZAjbff5YptCayiSbkpN53Hh05aOo0vdVZesYnWTAgpDGdG3ksRgH7H5Q0sOwzaZGnO53EyBW+kCuRUyqsbPq7Ax6jEqJnDG44W7JHafw8AY/MYBVgWDt/26kMNxTDLrfENFJttnz8/sntbKgvLXvEUnF1GGI7WVwOYYanzvA5r1ni0ZkKI35lflZwNYFXghVAc2rt9w1NBGKr9CayuS7IAeAif2yF7fTKZDFEJAgDhmoZlqvptKpGn9SWhaqpQ4IF4ZvMLAjxi+TAnYeqJVx9rMNBaa3w5YQP3ifOj7dJezrEuBGJv+aCA/a8IIQVBUcj8DgCXgQeagzJU6xNY2ex9vQCe4vI+J5fuP+rVUgayaHHiajH6KwAlVCNP54hojCoUPiYAZYSnNqIWlXpbxuUKG7hPmE3ZlzxcduYXfupY2//qZM+k3HpaMSHE78Tj8SIAv0clAFFNBcbHCMSEQjto1ufRxsgHqUKwmV+VnC0uHgIwh2rkdXvlS59WTKOus32Ir/TBGiwlvMGSYXV7J6Y8TgOeoGXjWfYSITD1mUO52KlBk1zgdcLC3g9k/f4tW7ppxYQQv3O8v+y9AK6iEoBCNwTGxwjGhAoTWOfnPQNNe0kQqaxcNTMUMusFKKca+UVU66hC4ZPd3vgEALt7KSpumrts2SR3yonrYcvro4pHB29gkwlg1450G4CXrXKYxXl1Tz/hTb4RwBQrAwPh64OEEP+TTCZDKvgrKgEAOHbVjBBLCC0LJHfQrs/L5CKjvIUVQBbGb5mWK+6/X4AlVGMs4mfMXrQ0GaYSFpwhENtvYZVM7got9ywqHwT7X000BoBdr9g58moCy6i15YM5p6fobpovIcTvHHjZ+zAA+tkDTk86lUrlgjLaQCSwDLCNhn3BUPv3AAh1CA7R6K1lbq73bhFcTzXGcIM1Hm9h2XCGiFjfB0shKwRiTwN3MIHlg0mwqozw1Fu1gtf6xlk2aU27dj18iMZLCPEz86uTl6rI31OJV45bsyFI4w1EAqvEe3kngD6a9/m8MlwbrqlPUIhgMG9J3fQe6VkPCJMrY36iOK+nCIXP3EvRBMvKoc5xDqwCdLklo8m5Pd4WWu5EY6xKIiowe2F1IjJ32bJJCiyz88yStbRbQojfKVLzJQBXUIlBHDwQrOEGgLa2tj4AO2ndF4hdjPwFVbCf+VXJ2SWuk1JgOdUYl2jgVqxezad9C5zBa9n3WT7MmwHMsGLVKVra2zcdp+VOLJcUdW8D0GXTmFyVusldoeWwpVfcmeNznDtpuYQQP1MeS9YB+BSVeJVdg/1aA4MTlIGqajPt+4LcGq6pb6AM9rKgZuU1RSGThiJKNcaNGRWdz99MGQofAdZRhUKZLE1ThImnubm5H8Ajdu0DWmsca/tfbd/VktpHyyWE+JVo9NYyhfkvAPxy+BUUvw7akJ0ADfRRWvhFNDLyZbAXlpWEa+qvC5lcE4AI1RhfjJF3UoXCJxcqvh8sRS+Q895pogp+8avFqmSiAepFxcoElgjuosVaiyyKLr+8sjo5v6oqOYVykEKlGz3/ATZuP93ncZ21gdvQgjLQhdWJiKvooJlf1Nn8YLZ1439TCXtYFE2+wRHzvwAupRoTwovFuUNzB0uZSQETiSXWA3gdlfD3MaaOXpHd3vgipfDB+RNrWOFAbWouqxh4YdG+b//FqelsSbXQau0gHL6tRMpOfAIq74Cg7gyb7YbiRQG2G0dTAjfV2ZLKDNo2If606Vj9ZwTyDSpx6oGkT2VbGxcMnk2BITA3sPa0pDsBPEtTv4j/Av3KvCV106mEHZTHGj7riLkbTF5NJLP6Q5f9FmWwwlVgGaH/vbldTF75h+7Qia2w6+aiwM7SlX1MXlnk+1U33CBlXTsA+VcIGs5hs5MgmKeC20XlX6Bme3ks8WwkVv+VimhtBRUkfmNRNPkGgXyVSpyOA+f/ELDk1cC4g+XYbqSpX5Qri13nm5ShsAmHbyuJxBr+S6H/DNaJ+2Dr0Y9QhcIn5xSxxMb/6YVGiuAfDjQ3nxTgcSrh+3XD5u2WEKlOVkP1AQyzZYQCswH5MyPurkisvjFSXf/hOfH4ZCpKJpryWP2NjphfAQhRjTO2bs/8KIjjDlQCSxxhAmsoOik+WF5d/1YqUZiEo8m5TlnXBkA/TDV8w23zq5KzKUNhs3f7hqcAaaUS/kWhTGD5D86J79dN8Hqo2Eg8Hi+Cmv9RYJSVFFIHlf8qy5U9G6lOfLN8SbKS6pKJoGJxfVQhdwMooxpn8Vj7zsZMEAceqASW58gG2vpQvRn5YUU0sYBCFBbh6vrbBaZFgeVUw1eEioq8D1AGKzZHlhH6+pwvYrLEd+4Ek4r+niAcmnsp+PCBBRz3yj4B4Lo8/spLofgjdcwT4Vji4XB1w+p4PF5Epcm4xDTR+qVmIHafRTXORkS+H9SxByqBtXtbKgvFkzT5ofgzmG4Ev+L14cJg/vxkaXk08R1RWQvBTCriyyjuwxTBCoeBZYT+PbieHrglR/xEP9xNYHNoP3N3KpXKUQYLtkDFR8fs6ANWiuovj+XKnorEEn+3aHHiaipOxopwdTIpIg8zpjkvXaak5+dBHbwTvCHL3bT5IbO0LFf202DaSQFt8rHaqtA086gKfp9q+JrrIksSCcpQ2HS0bHwcwAEq4cfjnaVqfmRfS+oIgAyV8OmyEWH/KwtYtDQZBrB0HP6qKwF8wXGxN1KduHNRNPkGxgmcspD7AABilUlEQVQkv3FN/W+LmgfAB6gugP4yu3XrsaCOPnAbjgAs/xgeb4vE6r9JGXy4wYdvKymvTnxR4DYLsISKFMD+4+BTVKHwvQYA/CLEnzCB5d9lw7nxJ92lWrKeMlgQ0Blz4zj/lS4Ub3HE3BeJJTrDscTnwzX1LPUiIyaZTIYi0YavCuQnAIqpyIUcUfl2oPe7oA24o+LyzVAcoukPK+z+w0i0gU+X+ohwTX2DlHW1qOJvAJRQkUI5cPC2a+P1V1KJQsfwixA/ri+HSRLfzo0iTRX86N7hwUxmfReFsCKgXTyBf/1CAf5JjDwTiSb+pzzaUM8ZIcPh2nj9lc++bB6C6J8CECpyQR7Mtqa3B1mA4F35XLPGgwiDj2E7Ofqn5bHEP1KIiaWyctXMSCzxAzHyGwB8FabwKOrPOR+nDIVN92TvYQAM+vzFS9ntjexx6VNyntuEgduLxE+orKUItsylLvTBpyiB4H0qmo7EGnZGqhv+LBxNzuXkkAsRjta/M5eTDAQNVGMoMbl8LegSBLJmWRz5H1r/CM5G4M/DscTXwcz4uDN32bJJ4Vji815JfxbARzkHBbz/QD+RTCZDVKJw2b9lS7coHqISfjqfhAkSH7OvLfW8Ap1Uwld46hiWQ9viWyim+mxXroLqV0TMU5FY4qHy6sSHKipqp3KmyCssii6/PBJL/FRE1gC4jIoMie2dLRsfDLoIgUxgdYRn/QZswjvC4Bt/Uh5L/CcD8HFi9Wo3HEt8dNLJog4B/glsaGgDV+1/2XsrZShsjICvEfrLmWH5oO8dCGEZob8cuk3Z7Y0vUghr5tOvySEHwCpV/MiUus+XxxK/DEfr38lXzoN9ZIejDZ90JbQLwPspxzCWuSpb+iCor0asWeMp9Oec/pGhwMeePWzuWRi/ZRrVGCNWr3bD0fp3RjpeaBXgBwB4BduqOI7N3Asdzyu6B4ChEr4J3pjA8rvDadijzF+BEF8ftIxC6Ic6WYHVIrKmLFf2Qnks8YtItP4dTGYFh3AscWsklmgW0e8qMJ2KDGvXbuuomL2GOgT62VP5Kad/VNzq5voej1QnqylF/pgTj08ur058KtL5fPvAlVqtoipW7j/JRUvq4tShcNm78+GDUGylEr7gxJxLZTtl8Pmux1ty/sJ4aykCmUDKFHgXRH5Vlit7MVKduLM8Wv87CxavuoLS2Ed5LFkXidY/KMADABg7jmTLVvkc1qzxqETA++hEYoltAGpoBqOiW6B/1tHa+B2w/8iImV+VnF0UMp+C4pMQzKQi9qPAL7Kt6fdQicIlHEv8uQB83GLiebCzNX0rZSgIv+sZ8EaxH86fHdnWdJRKWLW2tgK40YY4HcCjonqXEbk/25puYXxRoKxe7YY7X3i7qP4JgJsoyMgR6P0drY23UYkBAt3HSFS/qyL/STMYFZMU8u3yWOLtMOZ3OnY07aEkQwx+w7eVyOQTb4LIhwBzG4AQW7MH6TDCO8uX1C3kmilkvHWAywTWxIfjvNlTMFOFNATvoxATff7w9UHiWxwAN6vIzQJ8ORJLHBTIgwZY73mh9Xt3PnyQEvmbqqrklL6Q9xF0HPxjAAupyOidTU/dP6UMrxHoBNaJopM/K8uVfQ1sjJ0HnxQr4DhtkVjD17pCJ/7pQHPzSapybr+xvLrheqP6QdGu90KEt62Ciwtx/gRgP6xCJdu6qS1SXb8bKouoxgSePw7YHLxgTkBtBIQJrIleM2rWUgVSIFyh0N8W4LdDbr9GqhM7oEgB2KiONvIhAt/glEcbatUx7+1X8x5A2N8qf3x/dya1kzKc4koEXYBINPEvEPwxTSGvPKsq/1DivfSDtra2vqCLkUwmQ8+9bBJG9K1QuR2CeTQRMshJdXQ+HTCeIWTE9HZP7p++f8uWbkrhf8I19deJkTYqMYEonu7MpOeDZVl2nUX2lBAOz5ohTyg0JYLNjsGW9kx6L61hHPf0aP1SceS9ULwbwNVUJO+8JCHn2o7m1EuU4jUCn8CqjNWVe3CeRKAb2o/VqaJPicr/c/uK/mvXrocPBcquKlfNNCX9txjBG0XxJgAzaBHk3Juw/m1Ha+PfUInCZFGsYYUD3UAlJsyJ2dzRmq6lEoUzZZFY4gUAl1GKCfPOvt3Z2vhp6mAXAU1gnYuDonjECB5RyNZ+47U8vaPpMGXJD+HwbSWY0r1MjLkFIu8EtIKqjOWJqR/pbGn8EYU4y/cjkVjiVwDeQSXGjB4V/BLG+bdsJvWIjQNMJpOhA4dxs8K8HsCtAK4Hk6JkSLEEDk1C6TWZzPouilGoa9+8wOegJ8yJ+UpHa/rPqUQBBUCxhjsE+lYqMVHxkN7SkWl8mEpYF8swgXV+9gt0p6qzQwU7AN2JrrInstn7einNRXHCsURMRG+ByioA9QAmU5ZxCRBSna2NK8HbsmcRogSAqn5ZRN4OJvTGilJRfBBiPhiJJVpEZY06cm9nS6qlUAdUUVE71UwK3Sxq6gyk7tnD5iYAZZxqMoIIfGa3dP8+gK9RjMIjlUrlItHEfWxMPWHrh/2vCg6TBuSt1GEilgsOTy06yTVDgsZchcyF6BteDfTKunKRaKJTBDsVyIjozhykbVL/oaeC3P5k0eLE1eKgBiLVAGoEWgfgMihD5HGm11Hze2Dy6nxnGQGASDRxDwRvpBLjyn4A96rovW632dDevum4L0+9ZcsmlXaVxODoUkd1qQJxAIvBBPBFdhf9N6i8E8AsinFRXnJ6vIV+XQPkwpTHEu9W4OdUYtwx/eLM3NeSOkIpCoeKmuT1xpjHqMREOP3y047WjR+gEhbGMbyBlbdzBcCzAPapYK+juk8FexXuvhCwb/al2J9KpXKFPshF0eWXO3AWqOOEBaiG0WpAaiDg41I+QBVfzGbSX6IS54YB+CCOo182KkxgjS9zAXxCVD5hSl0TjiWyAtkGwXYR2eZ0u9vHs3dWZeWqmV5xbxiOXKtwykW1AkAlTqIcYkJQpsGH7iTjlx0tjX8Qqa7fC5WvUpGLcpmZ5H4awD9QisIjFyq+38319QMoohrjSobJq8LjymloefYwjgOYSjXGOyji64OEXCwkxEAz8qtFUa+QgVbxMPAAPHsYuUgs8YwA+4zgGShedIDnoHgRKi8aR583IXPICfUfyW7demy8P3xVVVWxKZ0xsz9nZjgamqGiswRYYID5ApkPYAGgCzBYBiivBDbCOy0+Ytu0oq4vU4YLxpnkFSKxxAMY6F9E/MNLEByA4hkAzyrkWRHzNIAXRdxeA+3SnNcXEj2hKv2emBOeV+wUO7nJAGAcnaRGSsUNTXVUpxvodAeYrorpAOZCMBfAVQDmgTXd+XKRU9o15Q3Z7H290eitZd3Ssxe8hTWUzfhwnzgLGZAX6PkRrX8QIrdQiXHda9iMmv4WGTo9xTlnVltb6gSlsHJN8QaW/zAAjgA4IiKHoXpMgZwARxToA9AFxUkRvNqLy4gYqB4d9AuLBJgCAKoogQzEKSoodRSTVERUdYYAM6CYAcEMDP55UrB0w0W8c1v6SUpxfngD6xQcT//UuHIL2HzbT1wGxWUAogObueKVOmxVAwEgjgMzuNM7cOCEDHRwCgf+PQA10MH/r6/8CzIGSFuvMW9/erAxZiazvitS3fB1qH6F2lwkFAemF6v3GQB8kbAwT5B1gDKBNZ5rRpxGqlCwNIIJrPHmQSavCBlfxwADr5DPUNVT/b1T3ObT/7+onukbvvrnXvszg/9c9bV/zLjGjigK+mcd2xqZvBrCwiKDtO9szKjgp1SCkBHxrBfy3njmc8WTTMl3ALxAeYYQkEM+G66p5221AiTnundShfHFldwmqlCgGDbfH/fzRcE9ihBC/MuDHa2N36EMF4cJrDMP+By+AKCbShAydAQ4rPBev6e56ekz/10ms74Lol+nSkNiimPks5Sh8Ni7fcNTEGSoxLjR2b590wHKUJj0H3ceBcAn7McPo8itowyEEOJLXnAc78Ngu+UhwQTWGezemX5GRb5JJQgZMt1q8NZs66a28/2BSWbSd8FbWENCgT9csHjVFVSiEENEMEAcP1g+WMDs25fqAfAolRi3k2Xz7sxmnsGEEOI/PEfxXn4pN3SYwDoHJ90Tfw9gL5Ug5KL0AeZdnTvSFywHGbiFJf9MuYZEmev2f4EyFB4iehdVGC+xlQmsAkc5h+O3XCBrqQIhhPjwLAT+sj2T3kAlhg4TWOfgQHPzScDwZSNCLkwfYN7R2dp091D+MHthDSfYwCfKl9QtpBKFRUdr4+MAnqMS4+Dw5YqY/Cj0OTQu53Cc8FyH/a8IIcRv5yBkbbY1/VUqMTyYwDoPg0H5r6kEIeekX0XfNdTkFTB4C0vxNUo3JIrhOJ+gDAWHUdW7KcOYcyC7c8NuylDYyKTuzQA8KjHmSrft3pbKUgdCCPEVnSZU9GGw79WwYQLrQkc+Qn8E4BiVIOQ0clB9b7alcdjf6E5C6b+Bt7CGhAK/jdWrXSpRcMcq+2CN/drgzR0LyG7dekxEWqjEWC8YXUsRCCHEV47MIUe9N+9pfugoxRiBp00Jzk9H64ZnIfpHVIKQV/EE+O3OTOOIbifyFtawuCrc/uINlKGw6CnrewjASSoxho6LMIFljQ9v2AdrrBFHWD4YhHkGclSBkMJwFQXytvbMpnZKMUI/kBJcmM6Wxh+BpYSEAICngg91tKZ/MZpfMngL6yDlHMoO7d1MEQqL/Vu2dEPwEJUYw0Atx6SHNXMpkqYKY7sldbRsfJwy2I8Cx6kCIf5fqqL6kY7MRvoxowmPKMEQHKyQ83tgY14SbHpV9T3ZlvT/jPYXZTLruwD9IiUdwt5jpJoqFKB3YsDXCMdqTQCH23c27qQSdmAc0wT2/xi7vQi4k/oGZm9kyxNC/L8n/38dmcafU4nRwQTWEOhoTr1k1PkonQASUE6I47wpm2n8Vb5+4VXT3e9D8SSlvchB5+ByqlB4eKbobgDm/2/vzuO0rOv9j78+18ywC4IbuIO4JCoambnjXietzNQ2LRdmQD1kdU5WvxZOp1PZYkdS4R5cElvRstJKCw1QwiUUUFwAAWVXEVD2mbm/vz9mNO2wDDDLvbyej8c8ZuC+576v631d1/e+vp/5Xt/LJFrj5C8mm23pmPPkQ6+QeM4kWkeElw+WizxpgSlIhdwgc/2c6ZOuNYgdZwGrmV6YMeG+FPE9k1CZeTUiTp315IQWvSRqwoQJ9UT+S8a71d56d0MoPvOefmAZ8JhJtMoJoMPu3aZqnpXdK1ZPMIYy6dD5R0GpkI2ePW3S542hhdo7I2i+OQfu/nXgryahMrGACk6aNW3i463x4rOnP3xvggeNeYsdOy8JKNZNl5KXEbaCZLGjFLep82C1SrD8aerUqXUGUSafOZkFLKlAj86fzp4+6Uq8kqvFWMDaFnfe2dChvu7jwDzDUIl7rqEyf8LsJya16glRluW/gJcDbf4jL493KClSDVTcYwotbl3Hja9ONYYSk88mGkLLS1n8zhTK6DNndbd/AOtMQiqkE/m4a6+eMcS+Tgv3H41g28ycOeW1LMsuANabhkrUo1GZnTh36sMvtfYbzXry4ekp+JmRb+ZzL0t27IrUCzMmPA3MNYkWPB7gkZkzZ240idIyZ8aEhYn0okm0qA0V6+rvM4YyOo7m/HkD8LBJSAXj53vtHJ+YMGFCvVG0LAtY2+H5Jyf8I0VcjNVUlVwPMf1yXZe6U2ZNnfBqW71lqudr+FfDTXmlqu61PxlDEUvejbCFA/XywdI9GfUywpZtex54/vnJbxhEmZ3Cwf2mIBWEkbOnT7rY4lWrnTNoe8yZNvFOEteYhErldDeC/5o97aFPLZwypU2LSS88PWlBivRjN8G/nIim9GNHmxT9B6yXEbZooBUWsEq2wcscOdKicXr5YDnaWJ/9HLDDLLVn+wvXzp4+6XM40KU1z6+1vWbPmPTDBDeahIrc6oj00VnTJo2gvSYY7LjxWuBlN8Vb5q2uWnu9MRS3blVrHgJWmkSLqK/ayCPGUKIawhFYLSe/sS4snpeh+TMnLMVRWFK7tb0pxRWzpk/6slG0LgtYO2jOQXt8LuFfulScEunFyPInzJr2ULvuw3MeffT1lGKEW6SxK5dFumjx1KlrjaK4TZ06tY5IfzaJFvHEzJkTVhtDaZr11ITn8Y8YLfXB/mhTIUNl2YPObjAFqc2tjkjnzZkxcZRRtD4LWDvqzjsbWNPl40FyskwV2Tkuk1NqeO+sJx+eXgjLs3evGJPgqbLfLhHDn5/20GT30NIQeefBaqH2yssHS34Tu41b5szeP6qWsxdmTLgvwYMmIbWZ+VlDOr69BwOU1cecEey4OXP+vGFtl/qPAg+Yhoqho5BI13WsX37qCzP+XjB/8Z4wYUJ9FnEZ5T1/w7fnTJt4k7to6diYVdwH1JnEDgoncC/9TyYLWC1yYp+v/70plLeGrPJSYJVJSK19bsKklKX3Pv/0QzMMow0/54ygZSycMmVd59Tpw/gXRBW2V4l0zpzpD32xECcInzVt4uOQrivTbfP12dMnfd1dtLTMnzZhJd5hbUflK9d3cJLvEpfC42THQ+TZ52dMft4gytu8Jx98MfLxCZzQXWpNtR3qlp8x58mHXjGKtmUBqwXNmPGXNdn6hg9CmmAaKjjBpJSyo2ZPe+iPhbyYdasqvglRTifgGyL47Ozpk77tTlqqHfP4rSnsQH6JJ5577oHlJlHa5hy0xwzgdZPYgWPFywfVZNZTE/8MUY13QpNa2tqm8/Ya7xbePixgtbDnn5/8Rt2qig9EwiHcKhR5iP+efeAep86ZMWFhoS/s/PkT1meRv6xMTrrmpJQNnjVt0u3upiUs8nfiZYTbf6IS6U+mUAbuvLMBeNQgduRYafi1KehNs6dPvC0Rn/XzR2oxz+VTdozn7e38WWcErdMB37NX9rEUjDUNtbMlWeKM2dMnfqOpc1AUnp/20GRS/KiEt0seGLmmcs3AOTMmPOJuWtrmPPnQKyT+ahLbJyULWOUigr+bwvZ3rArlpiwqoM+f6RPvIM/pwDLTkHbkZIRfdKjPjn5hxoSnDaN9WcBqJRMmTKifM23SZ4P4sWmoXdrZYGyH+rrDnp8xqSjvRtOh4dWvpcQ/SvF8MlIMnj190ucWT5261j21TI7HjF+YwnZ5ZfaMhx83hvKQj/Q3U9jONibxK1PQpsx+atKkoHIQ4B/MpG33RkRUz54x6VMzZ05YbRztzwJWK59PzJo+8QsRUYPDd9V2FkbwwTnTJn1m5swprxXrSsycOXNjqsw+AbxRKn0zguvXVK4ZOGvGRG/2UGY61mW/B9aYxLYJ0n04h0vZ2LtHxWRgpUlsuwoaLGBps2ZNf3BRWtN1MKSf2KZKze7KT8gSA2dNmzjGLArp3FBtov+RgwdHPn8XwS6modZqZVPELfmKqv+YO3V8ydw+uf/Aky8KUrFfjjsnUlxq4aq8HTTwxLGJuMgktuEkJdK5s6Y99DuTKKPzpYEn/SrgQpPYJtNmT590lDGoWcfYUScfSz7lAg43DWmT1pLiK7NnTPwJkIyjsDgCq616r9MmTEj5ymMgZpqGWsH8yLIz50ybOKSUilfQOH9DED8r0sV31JXekqLiOlPYJkv23LniXmMoM5F+aQjb3LrkzEDNPq96cuKUHpVrBiX4MuBUBtI729OHG4IjZ8+YOBKLVwXJAlZbfmA8/eALnVPHY0h45wK1lLoEP+pQnx0+68kJ40t1JTuljkMJZhTbIR8pBs+eNulq57oSwOxpE6aBk7k3+xQy4qcTJkyoN4ny0rHutT+TWG4Szfbyui71nldqm0ydOrVuzvRJ10Y+f3iCX9tRV7kLWBqJz8ye/tBJc6dNmm0ihcsCVhubMeMva2bPmPTZRFwMOBGcdqB3l8YnGo6aM33Sf5T6pIIzZvxlTX1Ufgh4tRi2DFDboT47ylFX2sTO8UNTaGYLl8WtxlB+Zs6cuZFIt5hEsw+VGxZOmbLOHLQ9Zj318Nw50yd9PJ+yIwLuNBGVoXpgZH1lh0NmzZg0Fou5Bc85sNrRwUccf3A+Kn8NaaBpaBsO2+cjz+dnPTXxz+W25gceefIZpPRnoKJAF9G5rrTVA/jAgSc/abu/VX+ZPX3SWcZQng447KR9sgpeAKpMY4vWVmyo2ve55x5wxJpaqG9y0ql5+AbByaahkpeYWJH49+eemvSUYRSPCiNoP8uXLVjeZ9dut+azzgniOLeHtmJVEP+ve+Xqzz49bcrz5RjAa0tfnLtLn33XQZxRYIuWJxi5pnLN+fOnTXnBXVVb0nOPvvMj0qdNYgsHVHDxiqUvLjCJ8rTi5Rdf77XHvvtExCDT2FLfi5GzZk74vUmo5fomL857bdmLP91lj33uI6IXcDAOeFCpCWYQ6bLZ0x/6f6++/OLLBlJsm08F4cAjBx9Jyt8GHGka+hcbINXmU8O3X5jxdxtZiAMHnnQH8KkCWZ45QXbJrOkTHnbTqNlt/sCT74F0tkls4gBP/H7WjEkfMYnydvBRx++Zz1fMArqaxiYta6jscHCp3bhFheWQgScc1ED2ReCTQDcTUZGbm4JvzJk26ZdA3jiKkyN+CsRrS+cv7bv3rrduyHfYCByLw+YFGyORS2QXzJkx6dcrli1YYySN+uza7d76rMvxAX3bcTHyJK5fU7Xm/PlPOupK22bX3gdMgvxngc6m8Q6rG6ry56xY8pKd8jK3fOmCN3r12XdtEO83jf8rRVz6wpN/e8Ik1JpeXfbS8teWvXhvr/1735g1VC4C9gV2NxkVmYURfLVD/fJLn3/qH9Nwnqui5gisAtT3qFP3q0wNPySlj5lGWdoI3NZQmf/O3KkPv2Qcm9Zv0Ok9Kho2TiJxRDu8/ewgu9RRV9oR/Y846UMR3I03VPnnSUniM02TqEoA2UEDTxqf4BSjeIdbZ0+fdJkxqD0cNHDwCdBQnYiP4ghJFbbnIL7fof7Vn8+cOXOjcZTIuaIRFK4DBp58SpCuDzjcNMpCXYq4vZL4n+emTZhvHM05iTp1r0T9FGCfNnrLPImRa6rW/L/FU6eudQtoR/U/8uQrIqUb/DyGRLpuzvSHvuheoXe084MG75rq84/RviNuC+nE/W/5NV0/MGfOnzeYhtrTgAGDu9VV5D+aSBcRcSr+MUaF4zHg2tnTJ/0OLxUsxc9BFbLBgwdXLnwt/xkifT2I/UykJHttyyMY09DATS88PclJi7e1ADDw+AEZFQ8l6NnKb+WoK7VOB/2IEz+eIm6lnC8nDH44e9qkL+Gwfm3CwUec1Lch0t88D+KPnVOnC2fM+ItTCqiwPscGnrpXirpPBtmFKSVvvqD2UE/E7xJx45xpEyYYRymfMqooDBgwoENd1S5DUuKrwJ4mUhKejoiRaztv/NnCKVPWGcf26z/w+AFBxd3Aga3w8o66Uut30A878Yh8RfwUOKrMVn1BRBo+a9pDv3Mv0Jb0Pey0PSqzjT8j4vQyXP3VKdLX50x7aCSOJlChf54dcVLfPJxHcB5wjP1NtbIlQRoDVbWzpj+4yDhKnw1Kkdn72GM7d1pbOTSIz9N2l02p5eQJ7o18GjlrxkMPGEfL2f/IwTtXpfzPgA+24Ms66kptKTvoyJMuSomrKfk70sZMyOfWdam/2QK+tmXHOfDIkz5B4r+A/mWwvquCuLWuofLaeU8/sMzNr2LT/4jBewfpo0T6EHAS3qRKLdWfgr8lqO1RuebuqVOn1hlJGZ0IGEFxGjRoUNXrDV3PD+ILDtUtCnMjuIOG/NhZTz081zharwBw4BEnfYHgG8BOO/A6ayLFdza+HtfNnz9hvbGqrR145OAjU0ofCtJJwNFA9yJfpUXAE0Q8XNGQ/vzcU5OecitrR9r6/gNPPCMjzgc+mKB3Ca3b68ADifTbLqnz3V4uqFLR/5hjurOuw5lBnE3wb8BupqJtkng2SHc05ONnTrtSvixglcIHwpGDB0fKDwfOxr9sFJKVKaU7s6gYO2v6hMk4t0ubedegE/vUNcT3InHRNrZza4E7gsr/dhiyCslBA0/di9TQL5/ROyN1yeejC5G6R2KnCCoL4rwyeCOltDaLbA0prcon1hEsyFd2mDt36vhVbkW1loOPOKlvA2lQZHFwJPqmRJ8UdMoieqSUugKdAnoURv+LeuANiDrIv0JkS0n5uYl4PsvyU2f17/M0d97Z4FZVicv6HzH4vVk0fCBPnBbwXvsw2oxXIP0qIrtj1rSJjxuHLGCVkP0HDO5dVZUuTildFnCQibSLeuD+BGPrV2V/cPRO+zrgiMGHReSHBnwM2GNz2ywa71by2/X5/K0vPfXwCpOTJElqGwMGDO5WV5U/KZ84NeBUYCDe1bCcLU5wdyJ+88JBu0+yqK+3s4BVotv1oCNOPiGfcXHk07kEuxhJq1oJcR+JP2xIDfdZAClI2UFHnXB4Ph+HR4reAJHxSiIWZ+vqH3n++clvGJEkSVL7O+SQ03ap77DxlMg4lZSdCulgUyl58xL8NgW/fWHapEfwhhXaDAtYpe788ysOmvXKsYn8+QEXlNg8Ee1pPvCXlOLejg2v3j9z5syNRiJJkiS1rL6HnbZHRWX9SZHS6Yl0VhD7mUrRa0jwCHBPyufHv/DUw0/gdCtqBgtY5eT88yv6z1l6Aik7K1I6i8bbtbsPNM/LwEOkmJQq8uPnPPnQM0YiSZIkta3+h516ABUNx2UpvS8FxwGHAxUmU/AWpIj7s8SfYn39eK+A0PaweFHG+h522h4VFRvPIOKMIB1PigNM5S2LSEwkmEQFk2Y/MelZI5EkSZIKy4ABg7utr0xHZ5GOI8X7IL0b2NNk2lnipZQxIVJMiHzDRO/ErpZgAUtv6XvYaXtUVW48NhHHp8Sx0TiBYrdyaFwJppOYkbKYXpFP/3h+xqR57hGSJElS8dl/wODeHbJ0FMFRKeMoyB9Fin72f1tNPfB0ivhHkJ+c5WOi/Sm1Bg9gbUl2wLsH94v6hiMjsiMipSNSMADYj+K71W0CFkOaF8TzKfFUyrLpGxvqpzvpuiRJklTa+g06vUdlff3hRHoXiXcl0qGJdEgQ+9ov3iZ5YFaQHk8p+0c+S//Y0LnuyYVTpqwzGrU2D1Rts8GDB1cuXl6/b6qoOICUP4CIAyDtBbEXid1pHLLbvQ0XKQHLIZYHaTmwKJHm0Xg3i3kVKT+/YW33+XPm/HmDW0+SJEnSm4444syua9LaQ6IiO4Q8/cnoFyn1g+gH9CnjPnOexhtXzQx4Jk/MJOVnru9a/6zFKrUXC1hqFXsfe2znbus67lHXUL8LWUX3iHx3UtadYCdS2olEpyzo/ObzE/QAsqZ/rQwiJWJjIq0ByILVEHWQNuTz8VrK0vLKfMPyVFW1fNbUCcvxrhWSJEmSWtD++w/uVNUr3zfy9AX6pkRviL2DfO9E7E3jHd53LeJVfB1iXqQ0P8E8YH6CeZWJeR2i09wZM/6yxr1AhcQCliRJkiRJ26F//w90rOy2rk9Dvn6PSBW98hWpV+Rjl8hSr3xil0j0ItglQbcsolNKqSfQKaBzgp1bqE/eEPB6glUJ3ojEaoI3AlaReIWMV/LEyxn5xQGv1BEvd67LlsycOWG1W1DFxAKWJEmSJEntYMCAAR3eyHp2BejUobKCjfXvmIolI+tanzXks3y8ddleVtdx1dqqDXmA+g7rNiyeOnWtSUqSJEmSJEmSJEmSJEmSJEmSJEmSJEmSJEmSJEmSJEmSJEmSJEmSJEmSJEmSJEmSJEmSJEmSJEmSJEmSJEmSJEmSJEmSJEmSJEmSJEmSJEmSJEmSJEmSJEmSJEmSJEmSJEmSJEmSJEmSJEmSJEmSJEmSJEmSJEmSJEmSJEmSJEmSJEmSJEmSJEmSJEmSJEmSJEmSJEmSJEmSJEmSJEmSJEmSJEmSJEmSJEmSJEmSJEmSJEmSJEmSJEmSJEmSJEmSJEmSJEmSJEmSJEmSJEmSJEmSJEmSJEmSJEmSJEmSJEmSJEmSJEmSJEmSJEmSJEmSJEmSJEmSJEmSJEmSJEmSJEmSJEmSJEmSJEmSJEmSJEmSJEmSJEmSJEmSJEmSJEmSJEmSJEmSJEmSJEmSJEmSJEmSJEmSJEmSJEmSJEmSJEmSJEmSJEmSJEmSJEmSJEmSJEmSJEmSJEmSJEmSJEmSJEmSJEmSJEmSJEmSJEmSJEmSJEmSJEmSJEmSJEmSJEmSJEmSJEmSJEmSJEmSJEmSJEmSJEmSJEmSJEmSJEmSJEmSJEmSJEmSJEmSJEmSJEmSJEmSJEmSJEmSJEmSJEmSJEmSJEmSJEmSJEmSJEmSJEmSJEmSJEmSJEmSJEmSJEmSJEmSJEmSJEmSJLWnMAJJkiRJklTO0m3szFp2ooKdqKAz9exEBZVAFYlujU+iO0HFpl+ADOjR9K9VBHkgD6xqenwjGWvIk6hgJXWspoo11LEmrmCFW2DrLGBJkiRJkqSSkMbSldXsTbArFewC7Ars0fT9n1+J7sBOTV/dC2DRVwNrgOUklhNNX/Aq8Cp5lgPLqGAhsCyGsKzctq0FLEmSJEmSVPDSSDrSmX4k9iexF7A3wd5NP+8D7AXsXCZxbASWAQuBxSTmkTEPmEdiHhuYF8PZUEorbAFLkiRJkiQVhDSS7nSkP3AAcADR9HPiABoLVJkpNS9KGgtbzxM8T+JZ4DkaeC6uZEExrpAFLEmSJEmS1KbSWLqylneRcRiJQ4HDgUOBfU2n1b0BPAU8SeJJKphGD56KC9hYyAttAUuSJEmSJLWalKMPwSAS7wGOAg4D+mJNopDUATOBKQRTyJgSlzOnkBbQnUWSJEmSJLWINIrdqWgqVv2zaLWXyRSllwmmAH8Dxkc1M9tzYSxgSZIkSZKk7ZJu4mAyTiA4ETiBxrmrVJqWAOMJ/spG/hRXsbwt39wCliRJkiRJ2qo0jgpWcgiJ42ksVg2m8e5/Kj8NBI+Q5x4y7o5qZrX2G1rAkiRJkiRJm5TG0Jc8ZwCnN331NBVtwlSCO0j8PGp4tTXewAKWJEmSJEkCIN3CTtRxKnAmwRnAgaaibbAe+D0ZN8YQHmrJF7aAJUmSJElSGUtj6EsD5xJ8CDgOqDIVtYDHCa5jMXfFCOp39MUsYEmSJEmSVGZSLQPIczYZ55A4DusDaj2zgf9HNXdFkLb3RdxBJUmSJEkqcSkRjOY4Ms4FzgX6mYra2MPAFVHDU9vzyxawJEmSJEkqUWkM7yLPhcCngQNMRO1sPYkRLOUHMYL8tvyiBSxJkiRJkkpIytGHxCcIPg0cZSIqQL9mCZ/elrmxLGBJkiRJklTkUo4uJD5GxqdJnApUmIoKWnAXi7mwuSOxLGBJkiRJklSkUi0HAZeSuBzYxURUVIIro5qbmvdUSZIkSZJUNNI4OrCSj5AYCgy2b68itop6DokrWbq1J1aalSRJkiRJhS/dzH40UM0KLgV6m4hKQA8qGQqM2NoTrdJKkiRJklTAUi1HkvgC8AkciKLSswTYL2qo29KT3PElSZIkSSowKRGM4UzyfKlpUnapVPUhcRpw35aeZAFLkiRJkqQCkUaQ0ZsPUsvXgaO9bkplITgLC1iSJEmSJBW2NJKOdKQG+CKwr4mozJy1tSdscy033UQ/Kvk0iWOBw4EuQAJeIjGLYBKV3B2Xsdj8JUmSJEnaQh97BJXsySUkvg7sYyIqW/X02dLdCJtdwEo30psKrif4GJBt5el5gkkkvhs1/MWtIEmSJEnS2/rYiaCWjwHfBg4yEZW94P1Rzf2bezhr1oE1mpOoZAbBBc38nYzEYOD+VMvDqZaT3RKSJEmSJEGq5XRqmQqMw+KV1HRgcMSWHt5qMSqNYRDBPcBu27kAx5OYkHL8JuU4wC0iSZIkSSrL/vkYTkw5HiHxV+AoE5He4fAtPbjFSwibJpGbDhzcQgtTB4wCvhE1rHLbSJIkSZJKXbqFPanne8CnwfsKSpsxJWo4bnMPbnkEVgeupuWKVwBVwHBgVspRk8ZR4faRJEmSJJWilKMq1fI56nkOuAiLV9KW7L2lB7dcwAoubaWF2h0YzQqeTqP5N7eRJEmSJKmUpFpOB6aT+F9gJxORtqrPlgY6bbb6m8bwLvI80zZHNveS5z/iCp53e0mSJEmSilWq5SAS1wPvNw1pG1WyV1zG4k09tPkRWA1teCeE4GwqeCrlyKVbt3OyeEmSJEmS2kkaR0XK8Z8kpmHxSto+dZuvCW2+gJWxexsvZhVQTR3PphxXpRxVbjlJkiRJUqFLN9OfFTwIfB/obCLS9h5MdNvcQ1uaA6u97hK4C/AT4OmU43y3niRJkiSpIPvaI6hMo7mGBp4GTjIRaQfF5ueL23wBK236msM2dBAwLo3mvjSKw9yKkiRJkqRCkWoZQB/+TvA9oKOJSC1guwpYPXkMWFMAC38WGdNTjnFpFPu7NSVJkiRJ7SUlIo3mGhJPAEebiNSCtqeAFRewkcTfCmQVMuB8MmamHP+TRtLdrSpJkiRJakvpFnailjubRl11MBGpxVVs7oFsK7/4vwW2Il2Ar9KReWk016SRDtOUJEmSJLW+NIrdqech4DzTkFrrQNt8nWqLBawYygMkHinAVepF8D06MjPVckFKhFtZkiRJktQqfeox7EHG34CBpiG15sG2+fpO1oxfvwxYV6CrdgCJX1PLoynHKW5pSZIkSVKL9qdvoxN57gYONQ2plcUOFLBiKM8QfKXAV/Fo4MGU4w9ptI2KJEmSJKmFbOQnwLEGIbWB2LERWEQ115P4YRGs6jkET6Uc49LN7OeWlyRJkiRtr6YrfS4zCanNrN/cA1mzX6KGLwG5IljZxjsWNvBMquV7KUcPt78kSZIkaVs0zbX8Q3DOZanN5Dc/hVWzC1gRJJZwBfDjIlntLiSuAWalHMO9Y6EkSZIkqdnG8H7g3QYhtaGsJUZgATGCfNTwBeBzQL5IVn934Ho6MjvlqE4jqHSPkCRJkiRtUZ4LDEFq8+NusyOwtnsoZKrlXBI/BzoXWRzPkfguS/lZjCiaIpwkSZIkqQ2lHLOB/ibR5lYADcDr/7pJgJWb+Z01QNemnzu87edO/LNm0bXpMRWyPKfEMCZs6qEdupY3jeF95PkDsFsRxvI08K2o4U73EEmSJEnSO/q7OdaDU9FsxRvAKhqLTatITd+Dlf/y7ze/rybYAKwF1lLHBoLVJOp4mVVtMcgk5agiT08SPalq+p7oCU3fs6bvQS+gD4m9gT2ACjd3mxgUNTyxqQeiBTb+AcCfgQOLNJwp5Pnq5ip8kiRJkqTyk3KshLK6KdirwCvAcoLlJJYDy4FXSU3/l7GcBpbTwGtUsjxqqCuLfWEElezBHlSwH3n6E01fiQOBQ4BuHjEtJE/fGMb8TT3UIndTSDfSm0ruBQYVcUzjgWs2V+mTJEmSJJWPlGMycFyRr8bLwDKCpSSW0VigWgK8TPAyDSylA8uo55VyKUa1+H4ygow+9CU4ksThJAYRHAvsYjrbYQM9Yvj/uXwUaMHbgaaxdGUdvwY+WMz7HnAXwdeimlnuOZIkSZJUnlKOK4EbCnTx1gGLSCwhWEBjUWohwWIaWAQsoo4lMZwNbsl22HcSwc0cQgPHAacQnAXsajJbVUc1HSNIm3owWnQjjaOCldxAYmiRh5YHfkMDX44rmOs+JEmSJEnlJeWoAiYDR7fl2wLLgCUkFhEsIlgMLASW0MACGlgSV7HcLVRE+9I4KljF0eQ5G7iA4p2CqbUtixp6b+7BaJWNU8s3SIxorddvQxuAUeT5bgzjZfclSZIkSSofKceuJH5LcGILveQa4MWmr5eABQQvEcwneInuLIkL2GjyJb5fjeZY4NMEnwR2NpG3PBs1HLq5B6MVN8jFBDcDVSUQ4hrgFur5blzJUvcpSZIkSSoPTXMcXQQMo3E0Vra5pwJLaSxM/fMrmA+8xEYWOHJK79hhbmEn6hhCcDWwj4HwYAzltM093KojpNJoTiP4LdC9ROJsLGRlfCeGsMzDTZIkSZLKqH+doweJgWTsRp6uBK8TrCBjEWtZ4JxT2s79qgqoAb4F9CzjKH4WNVy0uQejDTbE4cCfgL1LKNTVwK0WsiRJkiRJUktIt7IbdVwLXFKmEXw/arhmcw9mrf3uUcNTVHAC8EwJhdoNGE6eWSnHt9JNZV0hlSRJkiRJOygu5ZWo4VISn6TxCrBys2hLD2ZtshEu50UqeR/wxxILtzvwdSp4KdXyPQtZkiRJkiRpR8RQfknGcVB2V3wt2dKDWZttgMt4g558mOAnJRhyNxLXUMGLqZbvpdu8i4AkSZIkSdo+MYQZJM4CVpbPSm95BFa0xzKlHNXAjUBlicb+BsFNVPG9uKSMdjZJkiRJktRiUo5TgPG04QCkdlPJXnEZizf3cLTbRqjlLBK/BnqUcPyvAT8Bfhw1rPLQkyRJkiRJ2yLl+AlwVYmv5nqq6RJB2twT2q2CF9XcT54TgPklvAF6Ad8EXkij+VrKlXSxTpIkSZIktbR6vsJW5ocqAXO3VLyCdh6CFsN4GjgamFTiG2IXgv8GFqQc16cb6e0RKEmSJEmStiauZDVwQ0mvZGLu1p7S7tdQRg2vsoEzgTvKYL/bCRhOJXNSjuvTKPbyUJQkSZIkSVtUwWhgTQmv4Qtbe0JBTAIWw9lANZ8h8WUgXwa7XldgOBlzU46x6Wb6ezRKkiRJkqRNict5DfhTya5gxrytP6VQNkaQYijXkrgQWFsm+2AH4CIaeCblGJtyHOJhKUmSJEmS/o8o4QJWYs7WnlJwt2GModwFnAosLaPdsAq4CJiZRnNPGsMgj0xJkiRJkvSW4M+U6lVrGc9s/SmFuE1qeJQ87wGeKLPdMSM4mzyPp9Hck3Ic4xEqSZIkSZJiCMtg65OdF6G1LOLFrT0pK9gNM4xF1HMywe/Lcb8kOBt4JNXycBrNaR6qkiRJkiSVvRkluE7PxYitjyzLCnkN4kpWszPnkfhh2e6aieMJxqccE1OOD6ZEeLxKkiRJklSWniq5NUo825ynZYW+HnEBDTGU/yT4BOUzufumnATcSy0zUo7qNJKOHreSJEmSJJWRYHYJrlNpFLDeWp9qfkVwPDC/zHfXw4AcHZmfcoxIOXp4BEuSJEmSVAbyJXjDu1RiBSyAqGYadbwHeMC9lt7AN4GXUo7r0y3saSSSJEmSJJWwxLKSW6c805rztKzY1iuuYjlLeD/Bte65AHQHhlPP3JRjbLqJg41EkiRJkqSS9HKJrc/rDGNec56YFePaxQjqo5ovE3waWOf+C0BH4CIqeCaN5p6U4xgjkSRJkiSphHQouRrItAhSc56YFfNaRjU/B04AXnIvfts2Dc4GHkm1PJxGc453LpQkSZIkqSR6/HUltT6JJ5u/6kUuaniCKt5DMME9+f/sCMcT/IFapqXRXJxGUGkokiRJkiQVqRfZWFLrE80vYJXMyJw0jg68xg0EQ9yjN2s+idHkqY0rWGEckiRJkiQVl5SjgRIYkARAcFRUN28S9yjBDVkN/ATo4G69WW8AvyT4UVQzyzgkSZIkSSp8KUcVlMworA30pHtc0Lz1yUptY0YNteQ5FVjqrr1ZOwHVJJ5No7kn1XK6kUiSJEmSVOA20Llk1iXxZHOLV1CCBSyAGMZk8rwHeNS9eyvbPzibxF9TjqlpNBc3VXMlSZIkSVKh6VxCBaxtrNlkpbpNYxiL6MBggrHu4c3yboLbgTmplv9IOXoYiSRJkiRJBaVLCa2LBaw3xSWsj2o+Q+IzwDr382bZl8QPgIUpRy7lOMRIJEmSJEkqAIldS2ZdKnhkW56elcP2jaGMBU4A5rq3N1s3oBqY6TxZkiRJkiQVgDy7lciavBxDmLctv5CVyzaOGp6ggqOBP7rHs237yD/nyXos5fhkGucdHiVJkiRJanNRMgWsR7b1F7Ky2s6X8xrVnEPiy0CDe/42Oxr4OSt4KdXyvXQj+xiJJEmSJEltJLFLiazJY9v6C1m5besIUgzlWoLTgKXu/dtlDxLXUMk8Ly+UJEmSJKmNRIkMJEk8tK2/kpXtNq9mInneQzDZI2C7Vbzt8sInUo7qlCupOyJIkiRJklQ4EvuVwFpsoOO2j8CKst/2OaqAa4GrzaNFLAduIc+oGMZ845AkSZIkbVM/fRwVLGcfYH8ydiPYmTyryVhDYiGVzI7LeKMss8nxBHBUka/GpKjh5G39JQs2b+4Eo/kYwS1Ad9NoEQ3APQQ3MoQHIkhGIkmSJEnaZJ98FIcRfAQ4heAYoOsWnp4HniPxVxK/YygTy6XPmXIsB3oV+Wr8d9TwjW39JQtYb98RajmIxF3A4abRop4luIEK7ijXKrkkSZIk6V/64Dl6ABcBw4BDd+Cl5pD4Dku5PUaQL/G8Vhb9igRnRDXjt/3X9K87RBdgdNNBpJb1OvBTghujmlnGIUmSJEll2O8ezUCCK4BPAt1a8KWnk/hiDOWBkswtxzHAI0W+GnV0pmdczJpt/UULWJs/oC4mGA10No1WMZXESIJfRg11xiFJkiRJJdzHHkcHVvBhoBpa/U72I1nC50ttNFZTneL2Il+NKVHDcdvzi5mH0abFUMaScSIwzzRaxaCmA++lNJrvpFHsbySSJEmSVFrSKPZPOb7LChYC42j94hXAcHrz+zSyxOa4Dg4ugbX42/avvrZ8sI2kOx0ZRePQRrWePPAgUMsS7o4R1BuJJEmSJBVhP3oEGXtyKolq4Fygsp0WZRI9OSMuYGNJ5JrjN8BHi7znf0oMY8L2/KoFrObuKI1D9W5iy3dCUMtYQjCWjFFxOS8ahyRJkiQVQb/5Nnamjs+QGA70K5DFujVquKwk8s3xPHBQEa/CGnrSa3sLihawtmVnqWUAiV8Bh5lGm6gH7iWRYyl/KeW7SUiSJElS0faVR3MsGUNJXAB0KrgFDC6Lam4t6owbrw5bQXFPBfXHqOHs7d+M2rad5jo605UfAzWm0abmEYwhuDWGsMw4JEmSJKkd+8a3sTMb+TSNk7IfXuCL+xpwcNTwatHmPYrBZNs/f1RBCK6Oaq7f3l93EvdtzfsLrIsahpI4H1hpIm2mL4nvkOelNJpfpzGcmpIFWEmSJElqS6mW41KOn7KRxcBPKPziFUAvEl8o6uAzBhX9zpPnrzvy6xYAduTAzbEv8HPgBNNoFwsIfuFcWZIkSZLUqn3fHsCFwBXAwCJdjdfowF5xCeuLdBv8nOK+udyiqGHvHXkBR2DtgKjhJZZwCvA9cH6mdrAPiWto4IU0mntSLeemHFXGIkmSJEk7Lo3i+FTL7cASIEfxFq8AelHHB4p4+Y8q8t3pLzv6Ao7AaqkDezRnEIwFeptGu1pG4g4quDWG8KxxSJIkSdI29G1voieVXExiCDCgpFYuGB3VDCu6bXIj3ahkFcU8CCn4aFRz9469hFpupxrDHjRwO8FZplEQ/k7iVhr4dVzJauOQJEmSpE30ZUeQ0ZtTgEsIzqMQ7yTYMh6PGt5bdNtnDCeSZ1IR576BSnaLy3hjR17EAlZL71iJoJb/BL4NXs5WIFYD48hzawxjsnFIkiRJUtO8zsFnSVwC7F8Gq7wiauhVhNvpauDHRZz7fVGz45dvVnrItqwIEvD9lGMi8Eugr6m0u27ApWRcmnI8R3ALwR0xhGVGI0mSJKmcpNvoRB0fAS4lcRqprObG7pES0dRvLybvLurUg3ta5mXUeg1Djh4kbiT4lGkUnDrgjwS3sJj7YgT1RiJJkiSpZPunoziKjEuBTwE9yzSGBqqpKrYCVsrxPHBQEee+X9Tw0o6+iAWsttjZRnMhwagybiQK3TLgl+QZG8N40jgkSZIklURf9GZ6Uc+nCC4FjjQRXosadimqbXgjvalkSRFnPi1qWuYOil5C2AZiKL9OY5hMntuA002k4OwBXE3G1SnH0wS3U8Ev4jIWG40kSZKkYpLGUcFrnEVwMQ18hKCjqbzlhaJb4gpOLvLM72mpF7KA1UZiCAtT4kxquRr4DqV7V4didxiJH1DP99JoxpNxB4m7o4a1RiNJkiSpUKUxHEGei1nBpwh6m8gmPVF0SxycWNSJZ/y+5aJQ2zcsoziMjJ8BA02jKLwB3EWesSxjUowgbySSJEmS2r1vOYY9yPMJ4DN4iWAzAuO8GMpvi2qRczwFHFakic+jmgNaas4xC1jttxNWAf8P+BpQYSJFYyHBz4Fbo5pZxiFJkiSpTfuSI+lIB84kuAj4CFBlKs2yCtizmK6uSTfTiwZegaK9U+T3o4ZrWurFLGC19w5Zy8kkbgf2M41i23g8QjCWCn4dl/OagUiSJElqxb7jcSQuBi7AG4Rtjxuihn8vqm2e4yPA3UWbePDeqObxlns5FcJO2QO4Afi0aRSlDST+RMbPqeKPcQnrjUSSJEnSDvcVb6IfFXwKuAg40ER2oM9Wz4FxJQuKrFZwHfD5Is18AdXs11KXD4KTuBeEqGEVcFGq5R4So4BeplJUOhKcS+JcNvJ6ynE3wS9ZzAMxgnrjkSRJktRcaRS7E1xI8AngfTjwpCX8uNiKV01OKuLMx7Vk8QoPhIJsrPYi46fA6aZR9F4GxhH8kiFMaemDV5IkSVKJ9ANvpBtVnEvik019QQebtJw5wMBiu7N8Gkl3OvIaxTpndsaxMYRHWvIlLWAV4o6aCGoZAvwY6GIiJWEBjdcu3xk1PGwckiRJUpn3+8ZRwUpOaZrX6lygm6m0uPVknBBDmFp0+8do/o3gj0Wa+0Kq2belB3FY1S1ATRu5NtUyuWmC90GmUvT2AYYDw1OOmcAvaeCXcQVzjUaSJEkqDykR3MwJJD7JCs4HdjGV1ouboLoYi1eNhQHOKOLsf9EaVyA5AqvQj7gRVNKbLxN8HehgIiXWoCYeJfgl9YyLK1lqJJIkSVIJnvjXciTwcRIfxzvQt5UvRQ0/KNp9JsezwCFFufAZA2MIM1r6ZS1gFc/OezhwG47GKlUNBA8CvyLjd3E5rxmJJEmSVMR9uFoGkLgQuBA4yETaLnrgP6OGHxXtCoxhb/JFOek8wMyo4bDWeGELWMW0E4+gkj5cA3wDR2OVsjoSDwJ3Us/v4iqWG4kkSZJUBH22Wg56W9FqgIm0uQ1ATdRwe1HvRzmqgVyRLv41UcP3W+OFLWAV4848isOa7lToaKzSVw88SHAXibujhleNRJIkSSqg/tkY+pLnQuAC4CgTaTeLgPOihkeLfp/K8Rvgo0W46Hnq2T+ubJ3RYxawinWHbpwb64sE/wV0NJGy0EDwCHAndfzaObMkSZKkduqPjWFvEucB55M4zr51e28Q7qeBz5ZCHymNo4IVvAL0LMLt8GAM5bTWenkPsmLfuRtHY90GvMc0ykoDMIHEXSR+G8N42UgkSZKkVux73cx+NPBRgvMsWhWMdQT/wRBGtcZd79qpj388GQ8X58JzaQzlttZ6eQ+4UtjBHY1V7vIEU4A7SYyLGpYYiSRJktQCfa1R7E8FH8aRVoVoJhmfbI273bXrPpfjW8DXi3DR17KBPjGc11vrDTz4SqtxdTSWGggeInEXGb+PISw0EkmSJGkb+lVjeBcNnEdwHnCkiRTeJiIxko58OS5hfcmtXI7HgKOLcNFvjxo+25pvYAGr1HZ2R2PpnZ4B7iTjnhjCVOOQJEmSNtGPqmUAifOBs/FmWYXsZeDSqOGPJbkf3sAuVPEykBXh4p8YNa176aMFrFJtgB2Npf9rFsHdBL9jEY/FCPJGIkmSpLLsLyWCMbwHOK9pMvb+plLggj/RwCWlPP9vGs0nCH5RhIv+HNUc2trzkFnAKuVG+Z+jsb4JdDYRvc0S4A8Ed7Mzf4sL2GgkkiRJKun+UY4qEoOBjxB8CNjbVIrCeuAaqvlJqUzUvoV99FfAhUW34MF/RjU/bP23Uek31DfRjwpGAWeahjZhLYkHgTsJfh81rDISSZIklUhBoAuJ0wjOB84BdjaVovIswSejmmllsK9W0XiJZLHtoxvJs09bjIyzgFUuDXciqOVi4EfALiaizdhA8ADwO4I/xBCWGYkkSZKKqu8zhj1IfIjEh4HTgE6mUnybEbiJNfxnfIF1ZbHCOc4E7i+6BQ/uimrOb5u3Unm1AreyG3VcB3zaNLQVeYIp5LmHxB9jGE8biSRJkgqynzOaAwk+QvBhEsdSnJNgq9ECEpfFUP5aVvtwjhuAK4tvwflADOW+tngrC1jl2sA3VndHAf1MQ800H/gjiXvpyIRSvGWtJEmSiqQ/M44KVnAswdkkzgEONZVS2LD8lODqcpvWpOmKqfnAvkW26PNYQv+2ukGYBaxybhuuozNduQb4CtDBRLQN1gGTCe4l+E0MYaGRSJIkqVX7L2PpylpOJTgb+BDQ21RKxjJgaNTwu7Lct3O8G5hafAvOF2Mo17XV21nAEmkMR5AYQ+K9pqHt9AzBPSTuZQl/b6sKvCRJkkq8r9J4Q6rTSZxDcCb+4b0U3QlcETW8Wrb7+Wj+i+AbRbbYa6lgn7ic19rqDS1gqfGAGUFGHy4HfgjsZCLaAa8CfyNxr3c1lCRJ0jb1S7w0sJysIDE8hvKzst/vc0wDBhbZYueihqFt+YYWsPTOA+dm9iPPTST+zTTUAjYQTCJxLxX8KS5njpFIkiTpHX2QG+lNFe8nzwcIzgJ6mEqJC35PUONdz5v64A3Mo9jqMxkDYwgz2na3kTZ1EI3mHIJRwF6moRY0Fxjf9PUXR2dJkiSVYV9jHBWs4kgaOJ2Mc0gcZ9+0bKwCvhQ11BpF0/GQYzhwfXEtNA/GUE5r67e1kdDm98mb6EklPyBxqfuKWsFGYDKJ+8m4nyFMjyAZiyRJUgn2LW5hTxp4P4n3A2cAO5tK2bmPPJfHMBYZxduOjRzjoe2LQTsk+GhUc3fbv620tQNqFMeTcSPFd02uistS4H4S9xP8tZwncZQkSSr6PsQIKtmT45sKVu9v6kvY/yxPK4H/pJpb/IP1vxwnOXYFlgCVRbTYL9KTA+ICGtr6jW1A1PwPoD5cAXwLr0lX68sT/IPE/eS5n2U8GiOoNxZJkqQC7jOMoS95zgDOBE633yDgt8BVUcMSo9jEMZOjGsgV2WJ/IWr4cXu8sQUsbdsBdiO9qeT7wKfdf9SGVhKMJ3E/9dwfV7LASCRJktq9890DOIXEGQRnAv1NRU0WE1zVHpeZFdUxVMtfSJxRRIu8gkr2i8t4oz3e3AKEtu9AG8OJ5LkBOMI01A7+ORl8HQ/GVSw3EkmSpFbuA7x98vXgdOAkoIPJ6O27CfAzKrg6Luc149hCUDewC1UspbguH/yfqOFr7fXmFrC0/Qdc43XtV5L4FtDdRNSOvLuhJElSa5zz30Q/Kjgd3vrqaSrajBdI1MRQHjCKZhxbOS4HxhTRIm8A+rbn5aAWsNQSB14f4IfAJ9ynVAA2Ao8QPEDiQeDRqKHOWCRJkppxbn8jvangFIJTabwzWl9T0VbUAT+gA/8dl7DeOJrdj76fxvniikUuahjangtgsUEtdwCO5iSCG4HDTEMFZC3wdxLjqWA8i3gyRpA3FkmSJEg30o0q3gecTuJ04N32E7UNppFxeQxhqlFsw3F3Ez2pYCnFcwlunsQhMZTZ7bkQNkxq2QMxRxXB50h8A9jJRFSAXiXxIMGDJB5s70ZYkiSpTc/Xx9KV9ZxA4lTgVOAooMJktI3WkPgGvbg+LqDBOLbxOBzNZQQ3F9Ei/yZq+Fh7L4QFLLXOATmKvcj4EXChaajALQEmApNITKSGZyNIxiJJkkrivHwkHenAMQSnkjiV4BiceF07tFNxPxUMiyHMM4ztjDDHn4APFNEivy9qeLS9F8ICllr3wKzlZBI3AgNMQ0XiFRKPAg97yaEkSSq68+/r6ExXBpE4vulOgccDnU1GLWAxia/EUMYaxQ4co7exMxtZRvEUku+LmsIotlnAUusfoDmqgEuA/wF2NREVmTeAR0mMJ5hMTx6LC9hoLJIkqSDOtRsvCTyWxAk0FqtOADqZjFpQPXATG/h6DOd149jBY7aWz5K4rWgWOOPYGMIjhbAoFrDUdgfqzfSigW8CVwCVJqIitQaYAkwmeJj1PBTD2WAskiSpTc6p35x0/Z8Fq5PwkkC12g7HQwRXRg1PGUYLRTqa+wjOKpLFLZjRV2ABS+1xwNYyAPgxiTNMQyVgLYlHCB4C/s4GHvEvU5IkqcXOnW9hT+o5vumSwJOAI3DSdbW+ZQT/yRB+5vywLXg838pu1LGY4hnQcWLU8HChLIwFLLXfwVvL6ST+F+fHUmlpAJ4HpgIPE0xmCM/4wS9Jkpp1jnwT/cg4gXjrcsB32W9TG8oDP6eOz8dVLDeOFj6+R/PvBCOLZHELavQVNoRq9wPY+bFUHpaReJxgKsHDVPFwXMJ6Y5EkyXNhMo4gcQKJ44FTPCdWO3oCuKIQ7jZXwsf834Fji2RxC2r0FVjAUuEcyLsC3wKG4PxYKn0bCP5BnikEk8mYEkNYZiySJJX4Oe8Y9qCB9zWNrjoeeA/OX6X29xrwFZZws3ffbsXj/2b2o4F5FEcdpuBGX4EFLBXaQT2Kw8j4MXC6aajMvAD8ncTfgSksZWaMoN5YJEkq0vPaHFXkOYqM9wHH0Djqoq/JqIDkCW4j8eWo4VXjaOU2oZavkPhOMSwqwTFRzeOFtmAWsFSoB7fzY6nc1QEzgMkkppIx1bm0JEkq4PPXW9iTOgYRDIK3Rlh1NhkVpOAx8lwdQ5liGG3URuR4CjisCBb111HDxwtzt5UK9QAfRwde4yqCrwM7m4jEqwSPkXgceJwqHotLecVYJElq4/PUsXRlA+8mcQyJY2kcYbWXyagIvETiS9Qwzj+MtmGbMYYjyDO9CBa1jsSAGMrsQlw4C1gq/IP9Vnajnm+RuBznx5L+1TzgMRKPUcHjdOSJuJg1xiJJUgudi7450XoDRxMcTeO8VYd6Xqoiswa4ljX8ML7AOuNo83bku8CXi2BRb4ga/r1QF84ClorpoD+ExHcIzjUNabPqgWeAxwgeo4F/kPF01FBnNJIkbeV8cwQZvTkEeE9Tsepo4Eigo+moWHdr4Gfk+UoMY5FxtMMGSAS1vEDhz4G3moz+hXxzKQtYKr4GoJbjgO833WpY0tZtBJ4meBJ4gjxP0oUZjtSSJJX9eeVN9KOS95CaClaJQcBOJqPS2MF5hODqqOFRw2jn/mtichEs6oio4b8KeQEtYKmYG4LTSfwIOMI0pG3WALxI4hmCqSSm0oFHnFNLklSS543jqOBV9iNjAMEgEoMI3gfsajoqQYuAb7GEm2MEeeNo5/Ynx03AsAJfzJeppH9cxhuFvJAWsFTcjcEIMvpwHvADYD8TkXbYEhJT3ypqBf+IGpYYiySpiM4PK9mTg8k33RGwsWB1JNDVdFTi1hGMpIL/KfRCRNm0R+PowAqWAL0KfFGviBpGFXqeFrBUGg1Dji7A1cCXgB4mIrWoxcCTwDSCGQRPsYjZMYJ6o5Ektes54G3sTB0DyXMEwZHAu4EBQJXpqIzkSfySBr4SV7LAOAqojRrNRwl+U+CLOZMlHFkM5/YWsFRaDcTN9CLPl0h8DuhkIlKrqQNmAzOBZ0hMJc9MhjHPWzJLklrlPO8W9qSuaURV410ABwDvsk+jMjceuCZqeMIoCrDdynE38JGCXsg8p8QwJhRDnjb2Ks2G4kb2oZKvAZcBFSYitZmVBDNJzCSaClv1TIsrWW00kqRmdvh6AIfzZpHKSwClTXmGxkm37zSKAm3LbqYXDSymsO9i+quo4RPFkqkFLJX6CdC7Cb5H4gzTkNpNHphHYgbwFPAUeZ7iZV7wMkRJKuPztBvpRhXvIs9hNBarDic4FNjHdKTNepHg6yzm507QXvB90SuBGwp4EddSwaFxOS8WS6YWsFQejUfjHQuvpXFeBEmFoQ5YQOIZMmaSmAs844gtSSqx87BxdGAlB5Leuuzvze+HAJkJSc2ygsS1dOT6uIT1xlEEbV+OR4BjCnYBg69GNd8tpkwtYKl8GpARZOzJBSS+2XTCJKkw5YEXgedoHB7/HHmepYpn43JeMx5JKtBzrVvYiToOBg4heBeNharDgH5YqJK213rgJzTw3biCFcZRJO3haA4keJ7Crbm8QAcOK7ZiqAUslV9jMo4KXuNTBN8ADjARqai8TLxV1Gr83sBz3nFHktrwXGoMe5M4hMTBNE6i3li0gr1NR2oxeeAO4BtRw0vGUWTtZC3/TeJrBbyIZ0cNfyy2XC1gqXwblRxVBJ9talj2NRGpqK0B5hDMJjV9zzd+jxqWGI8kbeN50nV0ZicOJHHg2wpVh9BYrNrJhKRWdR8Z18QQZhhFEbafiaCWucD+BbmAwe+jusDvjLjZRZfKvYEZSUc6MgT4CrCniUglZzUwG5gDbytwZcyOISwzHkllew50G51YT38qOJBEfxIHEvQHDsTRVFJ7eJjga1HNRKMo4ra1lpNJTCjQxXudPIfGMBYVY7YWsKQ3G5rr6EwXhhFcA+xuIlJZeJ03C1tvfs8zhw7M41KWRJCMSFJRn9/k6EKefgQHvK049eb3fewPSAXRK38M+EZUc79hlEC7W8vtJC4u0MW7ImoYVbyHiqR3Njhj6cp6LifxVSxkSeVsI7AQmAssIVhMYi7BXOqZy8vM9/bVkgri3OUmelJFP/L0I9GPoB+89bU/TqAuFaqZwH9RzV3+0axE2uORdKcjS4AuhbdwPMJSji/m81cLWNKWG5/PA58HepiIpH+xHpgHzCcxj2A+MJ9gPpXMj0t5xYgktcg5yY30JmNfgn3J2J9EP6Av/yxQdTAlqag8SzCCxdzlH8NKrL3OUQ3kCnDRNpI4KobyTDHnawFL2lojdDO9qOc/CP4d6GYikpppDTQVtRKLyVgIvERiMYmFNPBSXMlqY5LK/DxjHB14lb2JtxWoYF8S+9F4k5l9gU4mJZWEFwj+i535RVxAg3GUYJue4xHgmIJbsOCbUc23ij1fC1hScxujW9mNOq4BrgA6m4ikFvA6sKDpazGwgMQCMhbTWOxaGDWsMiapSM8dxtGB1+lDHXsT7E3Qh8aC1J40zj+1P9AbL/GTSt1LBN8m8dOooc44SrTNr2UAiacLcNGeYwNHxnA2FHvGFrCkbW2YcvQh+A8SNUBXE5HUytY0nfgubBq9tZiMZcAy8iymglfIs9hCl9TG5wM30ZOMPkAfYC+CfUjsSbAPjQWqvYA9PN+WytoS4DtsYEwpFA+0lc+FWn5E4gsFtlj1ZJwYQ3ikFDL2A1Xa3gYqx67A1cBVOEeWpPa3HlhG40iuV5pOmpcSvExiMcHLBEt4g6XxBdYZl7SJz/bb6EQDe1DPnsDuBHvSWITqDfQhsTvBXjTe5KWjiUnajCXAD4Bc1LDWOMrg82McHVjBAgrtJmCJb8VQvlkqOVvAknb8ZHdnNnAVwdXALiYiqQi8wZuFrmA58Oo7vvIsJ2M59SynguVRw6tGpqLtUCxnN4JdCfYg2A3YFdiVxO5NHY1dm756AzubmqQdsAD4Ph24OS5hvXGU0edNLeeRuKvAFusJ4H2ldNmqBSyppRqtG+lGFUNJfLHpJFiSSkUeWA4sf6vglZr+Da+QeJWM5QQraOB1EqtIrIorWGF0apHP2ERwI72opBeJngS9CHoBvYCe0PTv/Fv/vxuNI6e6m56kNjCX4HvszO1xARuNoww/p2r5I4l/K6BFWk/wnqhmZinlbAFLaunG6zo605XLgC/ROEGrJJWzVVv8SqwkWEn8y/8Hq6hjDbvyundqKpHPxo70oIruNF5234M8O5PRnUQPaPr/aPqe2LnpeW8vUklSoZkFfIcl/DxGUG8cZfoZN4q9yHgRqCigxboqarix1LK2gCW1VkPWeB30xcCXgQNMRJK2Wz2Nlz2uBjbQWPhaS7ABWEHj/F/raCx+rSexhow3mn5+o+nfG4mmEWF5NtLAGgA68QbrqaeehhjO62X7efUqXQmqSHSjkkqCnainggq6k8hoLC5VkOhO4w1MOhN0J9GVoDOJ7gRdSXSmsRjVDej0tp+r3I0llZCnSXyHXozzjyxKOb4K/E/BLFDwV4ZwVgSp1LK2gCW1doM2gkp683GCrwLvMhFJKnhr4a27Rb15GeSGpv+H4A3S//lL+yoaL7XclDoai2+bOxtb3fQcgC6kZk0O3pnGAtHb9Xzba3YmvfV4YwHqn94sKHVqeh1JUvNMI/g2i7k7Rmy2zVc59fUSQS2zgP4FskgryDgihrCwFPO2gCW1VeM2gozefJDg68DRJiJJkiQVhWnAd6jmrlIc1aId6OPVcjKJCYWyOCQ+FkP5banmbQFLautWJRGM4YMkvgocayKSJElSQXqAxLUxlL8ahTbZt6vldhIXF8ji/G/U8PlSztsCltSeDd4YBpHnc8AnKaxJ/yRJkqRylCfxJ4JvRw2PGoc225cbSXc6sgTo0u4LEzzGzpxY6nfBtIAlFULjl+MAYDgwBOcjkSRJktraBmAcwbejmlnGoWb04WqA0QWwKCvIGBRDmFfqmVvAkgqpERzF7mRcAVwF7GIikiRJUqt6leAWEtdHDUuMQ83uu9XyKIn3tvdikDg3hvL7csjcApZUiI3hWLqyjk8BXwQOMhFJkiSpRc0n+F86cXNczBrj0Db112oZQOLpAliU70UNXymX3DN3PanwxMWsiRpqWcK7SHyIxCOmIkmSJO2w6SQ+wxIOjGqut3il7ZK4rACWYgrwjbLqJ7vnSUXSRuY4gcQ1BB/02JUkSZK2qec7mTzXUsO9ESQD0Xb3y8bRgRUsBHZrx8VYBBxdbpe92gmWiq3BHM2BBFcB1UAnE5EkSZI2qXFi9owfxhBmGIdaqD92IcGv2nER1pFncAzjsXLL3gKWVKwN5yj2ImM4UAP0MBFJkiQJgCUkbqIDubiUV4xDLdoPG80DBKe219sTfDKq27WA1m4sYEnF3oDeSDcq+SQwHBhgIpIkSSpTTwKj6cDYuIT1xqEW73vlOACYTXvVUoJvRjXfKtf8LWBJpdWgnkBjIeujQIWJSJIkqcTlSfyJjOujmvHGoVbub10LfKld3jy4iyFcUM5zuFnAkkqzYT2AYAiJIUAvE5EkSVKJeR34KXl+HMOYbxxq9T5W4+TtC4Dd2+HtnwBOjBrWlvM2sIAllXIj6+WFkiRJKi1zCG6gjlviSlYbh9qsb1XLBSR+3Q5vvYhK3huXsbjct4EFLKkcGttEMIYzgeEk3g9kpiJJkqQikSe4jzw3spT7YgR5I1Gb96lyjAdOa+O3XUUwOKqZ5hawgCWVY8Pr5YWSJEkqBiuBsTRwfVzBXONQu/ahYBZtOxBgHRlnxRAecgs0soAllWsj7OWFkiRJKkxTgVrWcEd8gXXGoXbvO7X95O0NBOdHNXeb/j9ZwJLKvTF+8/LCxL8DH8DLCyVJktT2VgM/JzEqhjLdOFQw/aW2n7w9EVwe1dxq+u9UaQRSeWu6Dev9wP1pFHsRfJrgCmBf05EkSVIre57EbVQyJi7nNeNQwXmNc4k2vPNg8CWLV5uLRpL+RRpHBSs5hUQ18FGgwlQkSZLUQjYCvyeoZQgPNP1BVSrMvlFbTt4eXBvVfNnUNxePJG2pwb6JfmRcTnApsIeJSJIkaTvNA26hnlviSpYahwq+L3Qz/WlgFm1RO0ncRA1XWdDdPAtYkprXnr45KivP5wg+aPshSZKkZmgcbZW4g178KS6gwUhUNH2gtpu8PUc1wyxebZkdUEnb3pDfTH/yXE7iEmjD68ElSZJULJ4j8VM6cGtcyivGoaLr87TV5O3BaIZwhcWr5kQlSTvWqH8YqKbxunDbFEmSpPK1DriXoDaqGW8cKuq+Ti0XkPh1q75JcF1U80XTbm5cktQSDfxoDiTjMhKXAruZiCRJUtmYCtRSzy/iSlYbh0qkf3MfwVmt+BY/iJo2uTyxZFjAktSyDf1IOtKBjxB8BjgT72AoSZJUil4F7iC4JaqZaRwqqT5Njl2BJUBlK72FxavtYAFLUus1/LewJ3VcRPBZ4BATkSRJKmr1BH8Bbmc9v4/hbDASlWQ/ppbPkritNV4a+HrU8D+mvO0sYElqmw+BMQwiz8XAJ4FdTUSSJKloPENiLA3cHley1DhU8n2XWkaRGNrCL1tPcEVUM8aEt48FLElt+2HQeInhmQQXAefSesNyJUmStP2WAHcCt0cNTxiHyqrPMppJBCe24EuuJvhYVHO/6W4/C1iS2u+D4Rb2pIHzSVwCDDQRSZKkdrUeuIfEHSzlzzGCeiNRWfZTckxrwf7JMjI+GEOYarI7xgKWpML4kPASQ0mSpPaQJ5hCYiwb+FUM53UjUdn3TXI8DrynBV5qFg18IK5grqnuOAtYkgrrw8JLDCVJktrCiwS/IjEmanjBOKS39Uly/Aq4cAdfZgrwoajhVRNtGRawJBXuB8co9iLj48AngEEmIkmStEMWAePI86sYxmPGIW2mHzKaiwlu34GXuIM11MQXWGeaLccClqTi+BAZxf4EFxJ8FjjERCRJkpplBXAviTud10pqZt8jRxfgaaDvNv7qMoLhUc04U2x5FrAkFd8HSi0DSJwPXAT0MxFJkqR3WAv8kcQd9OL+uICNRiJtc5/jOBL3A92a8fQNJG4hz9fiClaYXuuwgCWpeD9URpDRh+OA84GPA7ubiiRJKlPrSYwH7qQLv4mLWWMk0g72N0YzkGAUcOxmnvIi8Evy3BDDWGRircsClqTS+HAZRwUrOYXExcBHgJ1MRZIklbgGgke8g6DUyn2NURxGxnHAvsBqYAnwBNU8HUEyobZhAUtS6X3A5OhC4hwyPkHi/UBHU5EkSSWijmACibuo4zdxFcuNRFI5sIAlqaSlm+hJxkcJPgEMBipMRZIkFZkNJP5Kxm/I+ENczmtGIqncWMCSVDbSzfSinrOB8wnOwJFZkiSpcP1zTqvg91HDKiORVM4sYEkqS02XGZ5GcD5wLs27u4gkSVJrWkviQeBOqrg7LuMNI5GkRhawJJW9dB2d6cLpTcWsDwE9TEWSJLWRlcBfSdzr3QMlafMsYEnS26Tb6EQdp5PnPIIPAb1MRZIktbDFwD0Ed5N4MGqoMxJJ2jILWJK0GWkcFazgWOB84GPAnqYiSZK20zME95C4l2omR5CMRJKazwKWJDVDGkHGXhxPA+cRnAvsayqSJGkL6oBJwB/I84cYxnwjkaTtZwFLkrZDqmUAec4m4xwSxwKZqUiSVPbWkPgbcCcd+UNcwkojkaSWYQFLknZQyrErcApwDvBhoLupSJJUNl4E7idxL724Py5go5FIUsuzgCVJLSiNpCOdGEziHOCDwP6mIklSSakH/g78mcSfYyjTjUSSWp8FLElqRekm+lHJOSTOBgYDlaYiSVLReRmYSOJeLw2UpPZhAUuS2ki6gV2o4lQaLzU8B9jZVCRJKkgNwDTgXjLu4XKe8K6BktS+LGBJUjtI4+jASk4iz9kE7wcONhVJktrVQuA+gvtYz19jOK8biSQVDgtYklQA0s3sR54zSZwBnAb0MhVJklrVBhrnsrqPjPtiCDOMRJIKlwUsSSowaQQZe3EUDZxOcDpwItDRZCRJ2mFzgfHAeDZwv6OsJKl4WMCSpAKXcnQhOA44ncTpwCBTkSSpWZYADwPjyfPHGMYiI5Gk4mQBS5KKTLqR3lRyIo0TwX8QLzeUJOlNq4FHSIyngvExhKlGIkmlwQKWJBWxNI4KVvCeprmzziR4H1BlMpKkMrEemAyMJzGeXjwZF9BgLJJUeixgSVIJSWPpynqOJXECcDzOnyVJKi3rCJ7gzcsCq3g4LmG9sUhS6bOAJUklLOXoArybxPFOCC9JKkJrCZ7EgpUklT0LWJJURixoSZIK3BpgCjCZ4GHW81AMZ4OxSJIsYElSGUs5upA4luBk4BTgvUAHk5EktZFVNI6umkieiSzjiRhBvbFIkv6VBSxJ0lvSdXRmJ46lgZMJBtNY0OpkMpKkFjKH4O8k/k6eySzjmRhB3lgkSVtjAUuStFlpBJXsycEkjgdOaPrqazKSpGaoB6YDk0lMJZgQNbxkLJKk7WEBS5K0TdIt7Ekdg8iailqJQThKS5IErwOP8eb8VauZHF9gnbFIklqCBSxJ0g5J19GZrgwCjgWOA94H9DYZSSpp9cBTwOMEU6hnSlzB88YiSWotFrAkSS1uE6O03oN3O5SkYraExFTgYYLJwBNRw1pjkSS1FQtYkqRWl8bSlfW8h8R7gUFNXwf4OSRJBWkp8DiNo6seI+PxuJzXjEWS1J7sOEiS2kW6jZ2p593k3ypoWdSSpLb3OsETJB4jeIzE4060LkkqRHYSJEkFI93CTtQzkGBQ0+Twg4BDgMx0JGmHrSSYSWIqialkTGUxz8YI8kYjSSp0FrAkSQXNopYkbZfGOauiqViVZ2ZcwVxjkSQVKwtYkqSik3L0AN4NHAkcBhwBHAp0MR1JZaYemEXiSYInyXiSOp6MK1hhNJKkUmIBS5JUMt66+yEcSjCAxtFaBwMVpiOpBKwgeKbpboAzgWfwboCSpDJhAUuSVNJSjiqCg0gcCgwgMYjgUKCvn4OSCtQqYA7wDNFUrGpgRgzjZaORJJUrT9wlSWUp3cAuVHEEicOAw4HDmwpb3U1HUht5A3iextFUMwlm0MDTMYxFRiNJ0jtZwJIk6W3STfSkin40MICMQ0n0A/rRONdWRxOStB3evPRvJom5wDPkmcnLzPcOgJIkNY8FLEmSmiHlqKKBfaikH42XIh4KbxW3+pmQVPbqgAUkniF7W6FqAzNiOK8bjyRJO8YCliRJOyjdTC/qORg4hOAg4CDgEKA/0MGEpJKxAZgHvAC8QGJO08+zWcq8GEG9EUmS1DosYEmS1IreuiQxTz8S/Yh3jNraF6g0JamgbAAWQdMIqsa5qeZSz1x25cW4gAYjkiSp7VnAkiSpnaQcVcC+JPYn6AvsT+PdEd/8uY8pSS1uPfASwYvASyReJDWNqkq84J3+JEkqTBawJEkqUOk2OlFPXxroS8b+5OlLsA+wV9PXnjixvPSvVgIvAS8SzOfNIhW8RD0vxpUsNSJJkoqPBSxJkopYupXdaKAPefahccTWXiT2ItgT2Lvp/3Y3KZWIl4GlBAtJLCWxEFhCxsI3i1RRwypjkiSp9FjAkiSpxKWRdKSqqbhVwV4k9iTYh0RvEvsQ7ApvfXluoPawClj81lewmMRigkXAEhIL6cnSuICNRiVJUnnyJFWSJL0lXUdnOtGHCvYk0RPoSUZPoA+p6f8yepKaCmJewqhNWw+saPpaDCx5x78TSwhWEKxgPQtiOK8bmSRJ2hILWJIkabulkXSnC7tTz268OYqrcUTXzkAPoDvQg6A7iR5N/7dz0/97B8bCt4Z/Fp5W0Di/VOPPwQryb/s5YzmwjI68HBezxugkSVJLsoAlSZLaRRpLV9Y1FbjydCfoQTQVvtLbCl+NRa9uTd8zGgtgAfRs+ncPoILGopgaRz+tofGyvNUk1hKsJlgJrCWxhuB1Em8Aa3mzSNX4nBXkWUnGCnqwwkv2JElSobCAJUmSSkbKUUUD3aiiA3V0pYqOQBfydCboBHQh0ZFEN4Kqpl/rRKLzJs6SuhNUvPMN3iqY/etzN/Ua64F1m15QXiejYRP/v4bERoKN8NYophVN77EaqCPYAKylnjypacLyTrzBeup5mVUxgrx7giRJkiRJkiRJkiRJkiRJkiRJkiRJkiRJkiRJkiRJkrRj/j9Ha8XEePDuUAAAACV0RVh0ZGF0ZTpjcmVhdGUAMjAxNy0xMC0yNlQwODo1MTowNyswMDowMPxbiXUAAAAldEVYdGRhdGU6bW9kaWZ5ADIwMTctMTAtMjZUMDg6NTE6MDcrMDA6MDCNBjHJAAAAAElFTkSuQmCC;" parent="1" vertex="1">
          <mxGeometry x="670" y="30" width="116.99" height="70" as="geometry" />
        </mxCell>
        <mxCell id="-OOyH-ofbqL9iF2JBirm-4" value="&lt;font style=&quot;font-size: 22px&quot;&gt;Development&lt;/font&gt;" style="text;html=1;strokeColor=none;fillColor=none;align=center;verticalAlign=middle;whiteSpace=wrap;rounded=0;" parent="1" vertex="1">
          <mxGeometry x="50" y="442.70000000000005" width="200" height="80" as="geometry" />
        </mxCell>
        <mxCell id="-OOyH-ofbqL9iF2JBirm-5" value="" style="shape=image;verticalLabelPosition=bottom;labelBackgroundColor=#ffffff;verticalAlign=top;aspect=fixed;imageAspect=0;image=data:image/png,iVBORw0KGgoAAAANSUhEUgAAAeYAAAHfCAYAAACF5nuqAAAeJklEQVR42u3d3bHaSMKAYYVACAqBEEjAXq7HnipCIARCIAQyWHam9p4QyGCp+o7P3JKBP3OO8MGYH4FaUnfreaq6tmrWP7KgeQ9qUBcFAADX/TF9GX/9/LKcTf83cjYAoGdfp/83+fr52/cfY//l0+vcGQGAOMJ8HNvDf3NmACCOML+NL5+/rWfTf0pnCAAiCPPJWFh/BoB4wvy2/vznp5eZswUAcYS5Gi8b688AEE2Yj+N1Zf0ZAKIJ8/vlbevPABBPmN/Hv77tvn56nTqTABBDmE/Wnw93EXNGASCKMJ+uP7u8DQCRhPlj/dnZBYA4wvyx/uzrVQAQSZhP1p99vQoAognzz0DbXhIA4gmz23sCQGxhtr0kAEQYZttLAkBsYba9JADEGea3r1dZfwZAmGMJs+0lARDmGMNse0kAhDnW4faeAAhzdMP2kgAIc4zD9pIACHOMgXZ7TwCEObb15y+fXuceRQCEObb1Z1+vAkCY41t/9vUqAIQ5vuH2ngAIc2zrz27vCYAwxzdsLwmAMMc2bC8JgDBHentP688ACHNkX6+y/gyAMNteEgCEud72ki5vAyDMtpcEAGG2vSQAwuz2ngAgzLaXBECYs1t/tr0kAMJse0kAhNlwe08AhNn2kgAgzLaXBECYbS8JAMLc3e09rT8DIMy2lwRAmA239wRAmNMa1p4BEGZhBkCYDWEGQJiFGQBhNoQZAGEWZgCE2Wg5zIfvPbs5CTmbTP6a/Rg7ZwKEOaEwuzkJOQb578mPIG9+jO+H4YyAMKcWZjcnIZMg/3v0I8qrY5CFGYQ57TD/HC+bP6YvY89U0oryfxY/Irw/j7IwgzBnEObTzTFc3ib2IP89PawjXwqyMIMwZxbmj/Vnz1riC/J/x6fryMIMwjyUMH+sP/sKFlEE+W0deVknyMIMwpxvmE/Wn329iv6i/Nf82jqyMIMwDzTMPwO9tP5Md0F++/rT7tEgCzMI84DC/L7+/OXT69wzmvaC/O+y7jqyMIMwC/PH2Fp/JnCQR9XXn76HGM4oCPPQwvw2vnz+trb+TPMov91Gcx8qysIMwjzYMJ8Mt/fkiSC/rSNvQwZZmEGYhflk/fnPTy8zz3buB/ltHXndRpCFGYRZmC98vcr6M1eCPLp1G01hBmEW5laH7SU5jfL7doxtB1mYQZiF2e09uRnk+rfRFGYQZmHuathecqCXrX/fjlGYQZiFOYYw215yYFHuZh1ZmEGYhTno+rOvV+UX5PvbMQozCLMwRxlmt/fM7LJ12cc6sjCDMAtzW+vPvl6VapAf3o5RmEGYhTn2MNteMtEoP7cdozCDMAtzMmG2vWQaQW62HaMwgzALc3JhdnvPSC9bt34bTWEGYRbm+IftJfsPctDtGIUZhFmY0w6z7SV7jXL47RiFGYRZmDMI8+ntPa0/dxHk9rZjFGYQZmHOJ8w/v15l/bm1y9Zln7fRFGYQZmFOetheMmCQRzHcRlOYQZiFOYvh9p4NL1tPU/j6kzCDMAtzguvPZtojQe5nO0ZhBmEW5mGE2faSD122zmMdWZhBmIU5ofVn20teinJe68jCDMIszOkF2u09i3RuoynMIMzCPIwx2O0lY9yOUZhBmIVZmAe3vWTM2zEKMwizMAvzoLaXjH07RmEGYRZmYb42srq9Zw630RRmEGZhNpLfXjK17RiFGYRZmIU5y+0lU92OUZhBmIVZmB+8vWf8688pb8cozCDMwizM2WwvWa0jb4RXmEGYhXmQX6+KZf05p+0YhRmEWZiFOenbew7pNprCDB06XBY8rN95kRdm20vWvmw9HdptNIUZenvn/LLxIi/Mtpe8FuS8t2MUZojUYe3u7RaJXuiF2faSx3XkkXVkYYYILm8LhTC7vafbaAozRBbof8ovn7+tvcgL89C2lxzidozCDMmtP3/bepEX5ty3lxzydozCDAk6vLhVH7LxYi/MyY16YXYrTWGGJNefX5Ze6IVZmA1hhsjWn329SpiF2RBmiHH92derhFmYDWGGyAL9Hhbrz8IszIYwQ1zrz27vKczCbAgzROWwsYD1Z2EWZkOYIbbL259ep9afhVmYDWGG6C5vD3z9WZiF2RBmiC/Qh69XDXT9WZiF2RBmiPby9hBv7ynMwmwIM8TubXvJoVzeFmZhNoQZElt/FmZhFmZhBmJaf856e0lhFmZDmCHZ9eccv14lzMJsCDOkLLvtJYVZmA1hhjzWnzPZXlKYhdkQZshp/Tn523sKszAbwgy5Sfr2nsIszIYwQ7aBTvH2nsIszIYwQ96XtxPbXlKYhdkQZhjEu+e323smsP4szMJsCDMMydvtPWNefxZmYTaEGYZ5eTvS9WdhFmZDmGG4gY7w9p7CLMyGMMPQRbW9pDALsyHMwLsotpcUZmE2hBk4vbzd8/aSwizMhjADlwLd0+09hVmYDWEGbkSw6+0lhVmYDWEG7utse0lhFmZDmIG6l7c7uL2nMAuzIczAY/6YvoxbW38WZmE2hBl4TivbSwqzMBvCDDQMdMjbewqzMBvCDDT3/vWqAOvPwizMhjADAd89N91eUpiF2RBmILynt5cUZmE2hBlo6/L2E7f3FGZhNoQZaDvQD2wvKczCbAgz0I1a20sKszAbwgx06+btPYVZmA1hBvq4vH1Yf35ZCrMwG8IMRBXos+0lhVmYDWEG+vdze0lhFmZDmIG4LnELszAbwgyk9O5amIVZmAGEWZiFWZgBhFmYhRlAmIVZmIUZQJiF2RBmID1Xb05iCHM+YzeZ/D0x24HEAn12cxJDmNMf+x9jbnYDaV/a/vQ6fWrvZ0OYoxp/ryaTf4/MaCCfQL+vPe+FVZgTG5vJ5L9jMxjI9PL2Yf35dSWuwpzIOvLUrAUG4Y/py9j6szDHu478n4VZCgzSn59eZtafhTmydeTSzARc3rb+LMy9ryP7+hPAWaAPX6+y/izMXa8j/zUz+wBueNv7+fO3rQALc7vjcH58/Qmgtrf1Z5e3hTn8WFtHBob1jvfzt8WXz9/Wh0vTzS9v/1x/FmRhbjq21pGBwYa5Csjh3e7iENfmgf6nPMRelIXZbTQBng/z+/jXt93hsnSQP/uw/uzrVcJc/+tPS+vIgDBfvfT8sjmENcTf8eXT63zI68/CXOfrT9aRAe6E+TheV2Eubw93e0lhth0jQMAwf6w/h/j7hnh7T2F2G02A0GH+uf582BYyyN87oO0lhdl2jADthPlk/fnwzjfg378X5uzDbDtGgPbC/DPQy3Drz/ne3nPgYbYdI0B3YX5ffz586jrIsbzd3jO/9eeBhnnvNpoA/YT5Y/050Nercttecnhhth0jQP9hrkYLt/fcC7PtGAGEuflwe8/hhHlvO0aA+MP8tv4c9PaeiW4vmXeYrSMDpBTm49gGXX9O7PJ2pmG2HSNAwmE+ub1nqPXndG7vmVmYbccIkE+Yw28vmcLXqzIJs+0YATIN8+C2l0w/zLZjBMg/zC3c3jPW7SUTDrPtGAGGF+Y2tpeM6/aeCYbZbTQBhDnf7SUTCrPtGAGEOf/tJdMIs+0YAYS5xvpziK9Xnfw798JsO0YAYW4e6GW4r1d1v/4caZh3bqMJIMyD3F4ysjDbjhFAmCO+vWcH68/xhNl2jADC3NJoYXvJnMPsNpoAwtzZiH57yR7DbDtGAGHuZ/055u0l+wmzdWQAYY7g61Wh1p9D3t6z4zDbjhFAmGMbcW0v2VGYd9aRAYQ56svbsWwv2XKYbccIIMwJjZC393xye8n2wmw7RgBhTnj9OdT2ko/e3rOFMNuOEUCYc1p/7nZ7yYBhth0jgDDnuf4c6vaedbaXDBBm2zECCPMAxmG9ONDXq25tL9kszLZjBBDmwY0w20ue3N5zHyDMG19/AhDmoQe6le0lHwyz7RgBhFmU27y9Z70w/zV3G00AhLmD7SUBQJgj214SAIQ5wu0lAUCYA369KtT6MwAIc4TbSwKAMEd2e08AEObA20t6JgEgzJluLwmAMAtrhNtLAiDMRmS39wRAmI0It5cEQJiNQMOzDABhFmYAhNkQZgCEWZgBEGZDmAEQZmEGQJgNYQZAmIUZAGE2hBkAYRZmABBmYQZAmIUZAIRZmAEQZkOYARBmYQZAmA1hBkCYhRkAYTaEGQBhFmYAhNkQZgCEWZgBEGZDmAEQZmEGAGEWZgCEWZgBQJiFGQBhNoQZAGEWZgCE2RBmAIRZmAEQZkOYARBmYQZAmA1hBkCYhRkAYTaEGQBhFmYAEGZhBkCYhRkAhFmYARBmQ5gBEGZhBkCYDWEGQJiFGQBhNoQZAGEWZgCE2RBmAIRZmAEQZkOYARBmYQYAYRZmAIRZmAHgqtn0fyNxFmYAogv0P+XXzy8bIRVmACLydfp/k6//+rYTVGEGICJfPr3Of0RlL6zCDEAk3tefX5biKswAROSP6cvY+rMwAxCZr59ep9afhRmA2AL9/vUq68/CDEAs3r9e9boSXmEGIKZ3z4evV1l/FmYA4vLnp5eZ9WdhBiAibu8pzABEGeh/yi+fv61FWZgBiMj7+vO3rTADQESGfntPzwAAojPk23t69AGIONDD217Sow5A9Ia0vaRHG4B0Aj2A23t6lAFIyvv6c7639/QIA5CkXLeX9MgCkLTctpf0iAKQvJPbe+6FGQCiCXT620t6FAHITsq39/ToAZCtt+0lE7u87VEDIGupbS/pEQNgIIFOY3tJjxQAgxL77T09QgAMUqzbS3pkABisGLeX9KgAINARbS/p0QCASgy39/QoAMB5oHu8vaezDwAX9LW9pDMPALfePb/d3rO79WdnHABqeLu9Zwfrz840ANTUxfaSzjIAPBzo9m7v6ewCwJPa2F7SWQWAhkJuL+lsAkAAobaXdCYBIGigm93e0xkEgBY8u72kMwcALXp0e0lnDABa9sjtPZ0tAOjIH9OX8b31Z2cJADp2a3tJZwcA+gr0hdt7OisA0KP3r1d9rD87IwAQw7vnantJZwIAAAAAAAAAAAAAAAAAAAAAAAAAAAAAAAAAAAAAAAAAAAAAAAAAAAAAAAAAAAAAAAAAAAA6M/4xJj/GyKkAIHWHoH0/G5M7v+fRX9+2zcmx7H+M2RN/Rt1/0+HPXld/z/cLY1cdz/LHKD29ABh6mA9j0UKYD+/Gt1difG0AgDC3FOZHo7z31AJAmNsJ8+xGfDcn4zTeG08tAIT5+TDfsrrwb57f+PVl8f6BNACIIsyj6r9Nq0iejklR79PTkyp+p793Vv338oEwl2fHMbvy90/OxujGn79tcL6P5+b03zW/c85HN46tLH79sNv45NeNz/77rMZ5ACCzMF96d3lpLK/82Ydg7Gv8/vGNcK6q+Oyu/N7thSjd+jdd+vOfCfK9c7O78k78/DE6/oByPK7NlWPdVT+UXFsff/YT7AAkFOZlUf8DUssax1LnE8+b4rEPZl2K6yNhXjwR5W2DY5tcCPi18/HMuZiYBgBxh/l4afXauPXCPn8wCuUT77b3AcK86zDMq6JZLOv8wNLkXKxNA4C4w9wkIofQHi6fXvrw07xofsl4cuHP3twI+OrGu/iuwnx+aX5bnaPju+nZhV+zqvkY7c+O59K52FR/36ga68JXuwAGE+Z7djci92wANxfCN6vxQ0EXYR4Xt9fHj5YXYnrvMVoUv6+Vnx/rsuZjDsBAw7x5IMzHd4PjBn9m3Ri1Fea6EZw+GOayxXMBQGRhXhW/f83pdNQJ86T4/etOizvvmG99cOx4WXqaaZgnD4a5zR9SAIgszPfeAd/69ePi+teUrl2OPar76eW1MAszgDDXi9gjUb4Wjlnx+weUzsdUmIUZQJhvR+zSB502Rf1L2Zcc/szVnaB3HeZNC2F+dI1ZmAGE+W7Ezv+s3ZPheDQ4XYf5sN49anB+ywu/biHMAHQd5vLOO+Zxcf0T2Nsew7woLt/Wc1b8fvOV4wfeljf+7PVZ2CfF799jXgcK8+rCDxErYQYYRpjLKwHbFNc/1HUa0eWF33ft9846DHNZPP4VstONLtY3fs21+4LPAoW5zt/nzl8AmYa5KJp9+GtT1L8l56jDMF9711z3NpllUW9jjmtr2KHCXOeDdABkFubxjQjtL7x7PI1onXhd2hGpizAXVcAe+cGjPDsvdaK5LH6/9NxmmOemAEBczvf6nRT3P9h079eX1Qv+uvj4VPas+LhX8+nvLc9+7+m+wavi43L26Z9RXPg9t/7Ma//OR/5N5792UUX0eHzr4tc9p8srv3d84fce/23lA49R3TCvTo5rfXaspac/ALSrztUDAECYAUCYhRkAhBkAEGYAiDDM++p/V8Vje2UDAAAAAAAAAAAAAABtmxQf97M/jM2FcXrv+Hn1e8ZOHQA0V1aBvban+jN7la+K2xu3AAAX3hlvAsW47p7sAMCZwzaj6w6CfBxTpxwALjusA+87jPL3wt3p4Ddl8fEhjSEPEOXuo/y9eocOnJj0MBFjHDBko56ibO6BMHtxgAs2Pc27jVMPwizMEM9rwNrpB2EWZojj3bKvSoEwCzOcGfc872YeAhBmYYYPy57n3cRDAMIszPBh1/O8Kz0EIMzCDO9GgefQ4etWm+JjA4tV8bGpxda8A2EWZuhm7m+L+pekR9WvnRc++AXCLMzwi3mgKLtzFwizMEMAi8IaMQizMEM0VgHeLQPCLMwQyKbhnFk5hSDMwgzxhHnhFEI7jp+SbHOE+tRnmwOEWZhhMOxAA8IMCDMgzIAwgzADwgwIMyDMIMyAMAPCDAw5zGXx61erFmfj9P8b0n2DD//WacTHNmvxzx+fPe6zC8+LWeTPjaGE+fQxmN6Zv+XAXptjnsP35t385DGc9jjHRleeX/Pqv42FOcwDfzihq+L6VnV1j3lZvTjnFutJdX72RXyb3R8mxvrkcXj23JcnP4Qti9tbFz46dtWfd3xB6ev5kVuYj5E5Pl77otm9E9Yn4c7NtPj1lqyx/UBSnvyw++hjuaueA2VLr33HPjw6f9Ytv1nILsxl9UDuivbuLLZpMdKLJ49p/uDfM7tyjiYtHNvkwRfk+RPHdv4isAwQqxieH6ncbW8TaO7OA/7QdGuv6VWL7y6fnSfTB+dJV3N49MTjOKvOccjX4WXDOTU++eEg1DHtYrlKEWuYJz28EO+rB3oUwaRe1JzMizs/sc4iPrZbLzht/zDW1/MjlTAvGs7dVU/HvctwDocOc53wdPVD1fbBy8nTsyuCbY2VMP/+hFj3/KK0C3iJbNHSeZ3XfHIuWji2VcMXmjpXBWKO1v6JKxpDCHPZY5AvPUaznudwqHkSeg6v7lzd2vbwWJV33hl3EeOo4hxTmKc9nPy21+mendTbBy9Z37pc1NUPDY8e263zu0kgXqsn3pnlGuZZZHP39Lk66mkOdzFPFk+G8PwKR99vhrZXLu1vM2hA0mFeRPzi29e/6/ynxk3gx+fZY7s0sbeBz+06kYBtH3zhTyXMj7zbXBXxX+EYRzCHn12eW7dwbOMnfkDoIoKPXEnoapRDDXPsE3vV06QuqyfqsqXHp+kLzqjhY9fWscX8/Ejl3zTJZO6GiHOT5+LIPHnoMYrxqst6iGGeJfKkmfcwqZeBnqixHtv2zrJGSi8q8wGGeZXgC/84wTm8G0iYYx7lkMI8TuzB6XpShxopHts4wRf9UUZhvvdcnyf6Art7Ys3ZHDaWQwrzLrEHZ5NomMsEX3CKBCfvIqMw5/QDddNLk8JsbIcS5lSfUJME/52TiI/t1juzbZHfu+YcwrzJ4IV2Yg4bT3xeIOswjyJd5G/j3xvDxJkm+IJTFOl8MvuRTzOnHuZJJi+yO2E2Wn5TllyYZ4k/QGVik3oR8bHNMruqss4gzNvM3y0/esvMGJ6Hc2HO4r4WUYc55CXKfbUwf23DgePuIqE+4fzoJ7SF+fkn++zOO57Dc29V/LpbzHFcu+xUFr/uNBP6Xfm+xmXgOiPEJ3k3T45lx2vLu+JjU4rzsQx0PpqsNZvDRucfAOs6zGXgJ+sj1/2bfif4mQ8C9D1x9hH/tL2/865lUv2aTfGx21Mb27SNAp+LEMe4KeL76X4Z+LFfPHj1adrCO/YykTk8FeYkP/ybTJhDfc1i1uDfHOJS+ijyMO9q/ODS57HNiviEWj+dZhrmXaDzs2r4QZpJwHfQs8jn8CyyOXz6g/Ks+HXP81XPnxk4Xj07vXIW8t7fWYc5xKXDeQQvfHU/CLCIOHoxH1tfQpyTRQTPz9BhDnWlaxXoeMaB4rw2h2sdz7Lma16ox6XODwjHPZTrXPVYFcLc6k/d24ATu4sXvq4m9f6JF+NFIciXLmvHsBYVW5hnEb6wTQI9N2Oaw7NI5vDxszux3VRp3eC1JJb2RBfmEC96IV/gmzxQqwiepKdBHkU2gZoeW5/WEQQotjCHeK5MWnisNkX7y1JDmsObAK+xZUvnp4zgOZxlmCdFd2u7daw6+He3OalXDZ+sbR9bakEOdV5yDHPT42nr3UaIe6pPEp4ni4DHMYmoK3XX2Lt+rgjzk5edunpS7zqeOOcvcpMIAnTt+TAu0ibM4Y9nGfFr2KyneRLDHN4V7WzQEONXk0K8McwyzDG84J2adfAghZzUt7761HeYn1kfi9W0EObQrxPTFh+vbcvnKuZ5EttraqjnSxvLHsKcyJNoUqQT5nULl4ZDXgZL9bJ1G88LYe72doZtn6uY54kwC7Mw9xDmfYsvajEfmzALc12ryMMc8xwWZmEW5ogmTuzHJszC3NXzeGEOC7MwC7NJLczCLMzCLMxZhDmlPWtNamEWZmEWZmEWZmEWZmEWZmEWZmEWZpNamIVZmM1hYRZmYR50mA83MTl8p/u4X+82oueFMAuzMAuzMAvzIMJcViHeRf68EGZhFmZhFmZhzjrMoyrIQ9pQXZiFWZiFWZiFOcowjxN4hyzMwmwOC7MwC/MgwtzVpuvCLMzmsDALszCb1DUuX+8TfV4IszALszALszBnF+Z1ws8LYRZmYRZmYRbmrCb1JPHnhTALszALszALc1aTel0IszALszALszALcxTHNsrgeSHMwizMwjyYMG+K9JjUj5kJszALszALszALczzHFvJGIvvqGB8d20KYhdkcFmZhFmaTOkiQvldxL3ucwMIszMIszMIszNkc277oP0jCnFaY14UwC7MwC7Mwt3ZsTS9dxzCBhbnbMLd9rsxhYRZmYRbmJ8damFsLc9MrGfMWn8c7YRZmYX7+gW16YvZFekzq7p4fi0iOI8cwNz2eVUvP4bKDCJjDwizMd0YpzMIszJ2Huek6bls/VM+FWZiFudkDG+LmEfMiLSa1MOcQ5kWAuTuL8DL2d3NYmIce5qJovla1E+Zsj23c8HiWwtxamEO8qO2rH85j+mFhaw4LszCH+55q10ZPXkY3qbt7Pm4imcA5hjnUrVK3geI8C3Q8S3NYmIU53P2yFx2cm0n19xxfJNcZTZwcw9z0Mwij6pzsC2Fu64fq4zvnaYPHaBXoOL7XPA5zWJizD/M44KTaFeHWrcbVJF3ceAHaZzRxYj22XQ/HNAn8Yp9rmOcBz9Fx/s5rvAiPqrm5Cvz3781hYRbmcC++145jUY3JlTE9+TWr6vc8eixlJhMn1mML8a5sW/3ANroxQWfVc2Df0nMxxzC3vfPX+b3Nty3/fStzWJiFOfzl7D7GNJOJE+uxtfHc2LYU4KGFuWjhXWufozSHhVmYf/3Je5/oZF5kMnFiPbZJBi/4OYe5zCTKK3NYmIU5n3fNm0wmTszHti+EOdYwp37F63jJvDSHhVmYL79r3iU6qYW53WNL/XJp7mFOde4+e5Mic1iYBxPmlC9b+mm73WMbF8Icc5iPj1GKVzZ85VGYhbmGeYKTe2pSt35s60KYY/+e/yyxx+XZm5uYw8I8uDCneOlyaVK3fmxlke5a81DCnFKcm9xxzBwW5kGGObV3zhuTupP9sWcRvJgLc/qXtVdFs9uAmsPCPNgwH0/cLpE4m9Tth7mvqymb6h37rBDmukYRLj/sizB3BjSHhXnQYT5O8EURZ4x31WXssUndWZiLDp8Pm7MXhFEhzI+aRvLDddN3yeawMAvzBWURZkOBULf6HJvUvYW5zasp++pF/Nrjuy2E+dlAb4ru3yEvi2YbmZjDwhxFmDcNx7KjSb7q4CfxXXU5bhHwiTGL+PzOEnjsz6+mzAM8D44xrvPp+nlP52XZ8LGZFXEoT85hW3O27mNpDnd3bE27Mm7hmMYBjosbE31S/LoRxfaBSXw8wavqz5i19NMZ7RoXHzuB3Qr19uSqx6ylCc9j71rmJ4/dpuZVse3ZvJ228M4Ybvp/h9gLw7B2o3YAAAAASUVORK5CYII=;" parent="1" vertex="1">
          <mxGeometry x="670" y="210" width="133" height="131.08" as="geometry" />
        </mxCell>
        <mxCell id="-OOyH-ofbqL9iF2JBirm-6" value="" style="endArrow=classic;startArrow=classic;html=1;exitX=1;exitY=0.5;exitDx=0;exitDy=0;" parent="1" source="-OOyH-ofbqL9iF2JBirm-4" edge="1">
          <mxGeometry width="50" height="50" relative="1" as="geometry">
            <mxPoint x="460" y="340" as="sourcePoint" />
            <mxPoint x="420" y="483" as="targetPoint" />
          </mxGeometry>
        </mxCell>
        <mxCell id="-OOyH-ofbqL9iF2JBirm-7" value="Push/Pull Repo" style="text;html=1;strokeColor=none;fillColor=none;align=center;verticalAlign=middle;whiteSpace=wrap;rounded=0;" parent="1" vertex="1">
          <mxGeometry x="280" y="451.35" width="120" height="20" as="geometry" />
        </mxCell>
        <mxCell id="-OOyH-ofbqL9iF2JBirm-8" value="" style="endArrow=none;html=1;" parent="1" edge="1">
          <mxGeometry width="50" height="50" relative="1" as="geometry">
            <mxPoint x="520" y="450" as="sourcePoint" />
            <mxPoint x="520" y="360" as="targetPoint" />
          </mxGeometry>
        </mxCell>
        <mxCell id="-OOyH-ofbqL9iF2JBirm-9" value="" style="endArrow=none;html=1;" parent="1" edge="1">
          <mxGeometry width="50" height="50" relative="1" as="geometry">
            <mxPoint x="520" y="360" as="sourcePoint" />
            <mxPoint x="400" y="360" as="targetPoint" />
          </mxGeometry>
        </mxCell>
        <mxCell id="-OOyH-ofbqL9iF2JBirm-10" value="" style="endArrow=classic;html=1;" parent="1" edge="1">
          <mxGeometry width="50" height="50" relative="1" as="geometry">
            <mxPoint x="400" y="360" as="sourcePoint" />
            <mxPoint x="400" y="292" as="targetPoint" />
            <Array as="points" />
          </mxGeometry>
        </mxCell>
        <mxCell id="-OOyH-ofbqL9iF2JBirm-11" value="" style="endArrow=none;html=1;" parent="1" edge="1">
          <mxGeometry width="50" height="50" relative="1" as="geometry">
            <mxPoint x="580" y="482.2" as="sourcePoint" />
            <mxPoint x="740" y="480" as="targetPoint" />
          </mxGeometry>
        </mxCell>
        <mxCell id="-OOyH-ofbqL9iF2JBirm-12" value="" style="endArrow=classic;html=1;entryX=0.5;entryY=1;entryDx=0;entryDy=0;" parent="1" target="-OOyH-ofbqL9iF2JBirm-5" edge="1">
          <mxGeometry width="50" height="50" relative="1" as="geometry">
            <mxPoint x="740" y="480" as="sourcePoint" />
            <mxPoint x="510" y="290" as="targetPoint" />
          </mxGeometry>
        </mxCell>
        <mxCell id="-OOyH-ofbqL9iF2JBirm-14" value="" style="endArrow=classic;html=1;" parent="1" edge="1">
          <mxGeometry width="50" height="50" relative="1" as="geometry">
            <mxPoint x="740" y="200" as="sourcePoint" />
            <mxPoint x="740" y="120" as="targetPoint" />
          </mxGeometry>
        </mxCell>
        <mxCell id="-OOyH-ofbqL9iF2JBirm-15" value="" style="endArrow=none;html=1;" parent="1" edge="1">
          <mxGeometry width="50" height="50" relative="1" as="geometry">
            <mxPoint x="400" y="60" as="sourcePoint" />
            <mxPoint x="650" y="60" as="targetPoint" />
          </mxGeometry>
        </mxCell>
        <mxCell id="-OOyH-ofbqL9iF2JBirm-16" value="" style="endArrow=classic;html=1;" parent="1" edge="1">
          <mxGeometry width="50" height="50" relative="1" as="geometry">
            <mxPoint x="400" y="60" as="sourcePoint" />
            <mxPoint x="400" y="220" as="targetPoint" />
          </mxGeometry>
        </mxCell>
        <mxCell id="-OOyH-ofbqL9iF2JBirm-17" value="VM config and creation" style="text;html=1;strokeColor=none;fillColor=none;align=center;verticalAlign=middle;whiteSpace=wrap;rounded=0;" parent="1" vertex="1">
          <mxGeometry x="763" y="400" width="40" height="20" as="geometry" />
        </mxCell>
        <mxCell id="-OOyH-ofbqL9iF2JBirm-18" value="Deployment" style="text;html=1;strokeColor=none;fillColor=none;align=center;verticalAlign=middle;whiteSpace=wrap;rounded=0;" parent="1" vertex="1">
          <mxGeometry x="480" y="30" width="40" height="20" as="geometry" />
        </mxCell>
        <mxCell id="-OOyH-ofbqL9iF2JBirm-19" value="Cluster Config and creation" style="text;html=1;strokeColor=none;fillColor=none;align=center;verticalAlign=middle;whiteSpace=wrap;rounded=0;" parent="1" vertex="1">
          <mxGeometry x="431.48" y="321.08" width="88.52" height="20" as="geometry" />
        </mxCell>
        <mxCell id="BAQABwAcVM1Dqeb9R2D3-3" value="CI/CD Pipeline" style="text;html=1;strokeColor=none;fillColor=none;align=center;verticalAlign=middle;whiteSpace=wrap;rounded=0;" vertex="1" parent="1">
          <mxGeometry x="750" y="150" width="40" height="20" as="geometry" />
        </mxCell>
      </root>
    </mxGraphModel>
  </diagram>
</mxfile>
